<?xml version="1.0" standalone="no"?>
<!DOCTYPE svg PUBLIC "-//W3C//DTD SVG 1.1//EN" "http://www.w3.org/Graphics/SVG/1.1/DTD/svg11.dtd" >
<svg xmlns="http://www.w3.org/2000/svg" xmlns:xlink="http://www.w3.org/1999/xlink" version="1.1">
<metadata>
Created by FontForge 20170731 at Wed Jul 28 16:43:02 2010
 By Aleksey,,,
Copyright (URW)++,Copyright 2010 by (URW)++ Design &#38; Development 
</metadata>
<defs>
<font id="CutoffPro-BoldItalic" horiz-adv-x="608" >
  <font-face 
    font-family="Cutoff Pro"
    font-weight="700"
    font-style="italic"
    font-stretch="normal"
    units-per-em="1000"
    panose-1="0 0 8 0 0 0 0 0 0 0"
    ascent="706"
    descent="-294"
    x-height="456"
    cap-height="664"
    bbox="-103 -313 1202 919"
    underline-thickness="64"
    underline-position="-226"
    unicode-range="U+0020-FB04"
  />
<missing-glyph horiz-adv-x="294" 
 />
    <glyph glyph-name="ff" unicode="ff" horiz-adv-x="617" 
d="M722 704l-8 -29q-49 -2 -88 -36t-50 -85l-21 -98h92l-9 -42h-92l-82 -385q-26 -123 -102 -190t-187 -67l6 29q113 8 148 169l95 444h-149l-82 -385q-26 -123 -102 -190t-187 -67l6 29q113 8 148 169l95 444h-44l9 42h44q28 120 103 184t186 64l-8 -29q-49 -2 -88 -36
t-50 -85l-21 -98h149q28 120 103 184t186 64z" />
    <glyph glyph-name="fi" unicode="fi" horiz-adv-x="578" 
d="M275 414l-82 -385q-26 -123 -102 -190t-187 -67l6 29q113 8 148 169l95 444h-44l9 42h44q28 120 103 184t186 64l-8 -29q-49 -2 -88 -36t-50 -85l-21 -98h271l-75 -364q-3 -16 -3 -20q0 -9 6 -9q12 0 41 26l19 -19q-72 -78 -132 -78q-25 0 -41 15.5t-16 39.5q0 29 15 99
l48 236q3 12 3 19q0 13 -23 13h-122zM522 704q35 0 58.5 -23.5t23.5 -57.5t-23.5 -57.5t-57.5 -23.5q-33 0 -57 23.5t-24 56.5q0 35 23 58.5t57 23.5z" />
    <glyph glyph-name="fl" unicode="fl" horiz-adv-x="586" 
d="M118 456h44q17 63 43 108.5t56.5 72.5t72.5 42.5t84 21t98 5.5h93l-128 -612q-3 -17 -3 -23q0 -8 6 -8q8 0 40 26l19 -19q-72 -78 -132 -78q-26 0 -41.5 15t-15.5 40q0 30 17 111l104 485q3 14 3 18q0 15 -32 15q-40 0 -85.5 -36.5t-55.5 -85.5l-21 -98h92l-9 -42h-92
l-82 -385q-26 -123 -102 -190t-187 -67l6 29q113 8 148 169l95 444h-44z" />
    <glyph glyph-name="ffi" unicode="ffi" horiz-adv-x="849" 
d="M546 414l-82 -385q-26 -123 -102 -190t-187 -67l6 29q113 8 148 169l95 444h-149l-82 -385q-26 -123 -102 -190t-187 -67l6 29q113 8 148 169l95 444h-44l9 42h44q28 120 103 184t186 64l-8 -29q-49 -2 -88 -36t-50 -85l-21 -98h149q28 120 103 184t186 64l-8 -29
q-49 -2 -88 -36t-50 -85l-21 -98h271l-75 -364q-3 -16 -3 -20q0 -9 6 -9q12 0 41 26l19 -19q-72 -78 -132 -78q-25 0 -41 15.5t-16 39.5q0 29 15 99l48 236q3 12 3 19q0 13 -23 13h-122zM793 704q35 0 58.5 -23.5t23.5 -57.5t-23.5 -57.5t-57.5 -23.5q-33 0 -57 23.5
t-24 56.5q0 35 23 58.5t57 23.5z" />
    <glyph glyph-name="ffl" unicode="ffl" horiz-adv-x="857" 
d="M451 704l-8 -29q-49 -2 -88 -36t-50 -85l-21 -98h149q17 63 43 108.5t56.5 72.5t72.5 42.5t84 21t98 5.5h93l-129 -612q-3 -16 -3 -23q0 -8 6 -8q9 0 41 26l19 -19q-72 -78 -132 -78q-26 0 -41.5 15t-15.5 40q0 30 17 111l99 485q3 15 3 18q0 9 -6.5 12t-23.5 3
q-40 0 -84 -36.5t-54 -85.5l-21 -98h92l-9 -42h-92l-82 -385q-26 -123 -102 -190t-187 -67l6 29q113 8 148 169l95 444h-149l-82 -385q-26 -123 -102 -190t-187 -67l6 29q113 8 148 169l95 444h-44l9 42h44q28 120 103 184t186 64z" />
    <glyph glyph-name=".notdef" horiz-adv-x="294" 
 />
    <glyph glyph-name=".null" horiz-adv-x="0" 
 />
    <glyph glyph-name="nonmarkingreturn" horiz-adv-x="333" 
 />
    <glyph glyph-name="space" unicode=" " horiz-adv-x="294" 
 />
    <glyph glyph-name="exclam" unicode="!" horiz-adv-x="340" 
d="M145 154q32 0 56 -24t24 -57q0 -34 -23.5 -57.5t-57.5 -23.5t-57.5 24t-23.5 58q0 33 24 56.5t58 23.5zM146 200l23 322q4 49 11 77q16 77 91 77q61 0 61 -55q0 -10 -3 -22q-5 -21 -24 -77l-113 -322h-46z" />
    <glyph glyph-name="quotedbl" unicode="&#x22;" horiz-adv-x="392" 
d="M177 424h-41q-15 107 -15 157q0 95 78 95q29 0 47 -18.5t18 -48.5q0 -42 -87 -185zM357 424h-41q-15 107 -15 157q0 95 78 95q29 0 47 -18.5t18 -48.5q0 -42 -87 -185z" />
    <glyph glyph-name="numbersign" unicode="#" horiz-adv-x="555" 
d="M552 379h-100l-57 -118h101l-27 -54h-100l-101 -207h-81l101 207h-75l-101 -207h-81l101 207h-101l28 54h100l57 118h-100l27 54h99l101 207h81l-101 -207h75l101 207h81l-101 -207h100zM296 379l-57 -118h76l57 118h-76z" />
    <glyph glyph-name="dollar" unicode="$" horiz-adv-x="544" 
d="M308 441l35 168q-94 -33 -94 -92q0 -38 59 -76zM321 258l-43 -203q101 43 101 118q0 23 -13 42t-45 43zM354 413l27 -16q83 -47 114 -84q32 -37 32 -93q0 -96 -84 -162q-65 -53 -179 -68l-17 -78h-52l17 77q-36 3 -76 11l-27 6q-33 7 -87 14l18 167h31q8 -68 44.5 -101.5
t108.5 -38.5l51 240l-26 15q-77 43 -104 75.5t-27 82.5q0 91 71 148q57 44 167 61l12 55h52z" />
    <glyph glyph-name="percent" unicode="%" horiz-adv-x="838" 
d="M273 -8h-89l442 652h89zM331 644q50 0 76.5 -26t26.5 -76q0 -67 -28.5 -136t-75.5 -115q-61 -61 -138 -61q-127 0 -127 115q0 117 81 208t185 91zM324 591q-65 0 -119 -115q-31 -65 -31 -123q0 -68 43 -68q53 0 105.5 80t52.5 162q0 64 -51 64zM726 406q103 0 103 -104
q0 -66 -28 -133.5t-75 -114.5q-62 -62 -140 -62q-125 0 -125 114q0 118 80.5 209t184.5 91zM719 353q-65 0 -119 -115q-31 -65 -31 -123q0 -68 43 -68q54 0 106 79.5t52 161.5q0 65 -51 65z" />
    <glyph glyph-name="ampersand" unicode="&#x26;" horiz-adv-x="768" 
d="M726 105l20 -15q-20 -28 -35.5 -43t-40.5 -30q-52 -29 -102 -29q-81 0 -153 78q-113 -78 -226 -78q-73 0 -119.5 38.5t-46.5 98.5q0 87 71 156q60 56 172 89q-16 55 -16 88q0 85 67.5 141.5t168.5 56.5q19 0 34 -1l-7 -34q-137 -5 -137 -111q0 -96 126 -299q62 75 88 191
h164l-6 -30q-59 -10 -84 -25t-44 -52q-35 -62 -90 -125q38 -54 64.5 -76t54.5 -22q43 0 77 33zM277 320q-62 -41 -89 -83q-29 -44 -29 -86q0 -41 26.5 -69t65.5 -28q52 0 132 53q-55 79 -106 213z" />
    <glyph glyph-name="quotesingle" unicode="'" horiz-adv-x="236" 
d="M189 424h-41q-15 101 -15 155q0 97 77 97q29 0 47.5 -18.5t18.5 -47.5q0 -43 -87 -186z" />
    <glyph glyph-name="parenleft" unicode="(" horiz-adv-x="328" 
d="M232 -129l-20 -37q-64 26 -92 57q-74 82 -74 224q0 107 33.5 219.5t89.5 196.5q56 82 127 129q34 22 101 46l5 -37q-50 -32 -77 -61.5t-54 -79.5q-48 -94 -90 -305q-21 -109 -21 -172q0 -78 27 -127q13 -25 45 -53z" />
    <glyph glyph-name="parenright" unicode=")" horiz-adv-x="328" 
d="M-35 -166l-5 37q49 32 76.5 61.5t53.5 79.5q39 72 67 193q45 199 45 283q0 79 -27 128q-13 25 -45 53l20 37q63 -26 93 -57q73 -80 73 -226q0 -93 -25.5 -191.5t-71.5 -179.5q-53 -99 -137 -161q-41 -30 -117 -57z" />
    <glyph glyph-name="asterisk" unicode="*" horiz-adv-x="450" 
d="M341 649l-27 -105l49 50q27 27 38.5 35t25.5 8q22 0 36.5 -14.5t14.5 -36.5q0 -23 -17 -38q-14 -14 -125 -40q74 -20 86 -23q32 -9 44 -20.5t12 -33.5q0 -21 -15 -36t-36 -15q-22 0 -64 42l-49 50l24 -91q6 -21 6 -33q0 -18 -15 -32t-35 -14t-35 14t-15 32q0 12 6 33
l24 91l-49 -50q-42 -42 -64 -42q-21 0 -36 15t-15 36q0 22 12 33.5t44 20.5l86 23q-111 26 -125 40q-17 15 -17 38q0 22 14.5 36.5t36.5 14.5q14 0 25.5 -8t38.5 -35l49 -50l-27 105q-3 13 -3 19q0 18 15 32t35 14t35 -14t15 -32q0 -6 -3 -19z" />
    <glyph glyph-name="plus" unicode="+" horiz-adv-x="592" 
d="M339 201l-43 -201h-80l43 201h-200l16 78h200l43 201h80l-43 -201h200l-16 -78h-200z" />
    <glyph glyph-name="comma" unicode="," horiz-adv-x="268" 
d="M11 -147l-32 25q48 32 80 78q17 27 17 35q0 4 -5 6q-24 8 -39.5 29.5t-15.5 45.5q0 32 25 56t57 24t57 -24t25 -55q0 -34 -25 -81q-24 -43 -57 -75t-87 -64z" />
    <glyph glyph-name="hyphen" unicode="-" horiz-adv-x="383" 
d="M330 198h-272l16 76h272z" />
    <glyph glyph-name="period" unicode="." horiz-adv-x="268" 
d="M107 154q35 0 58.5 -23.5t23.5 -57.5t-23.5 -57.5t-57.5 -23.5q-33 0 -57 23.5t-24 56.5q0 35 23 58.5t57 23.5z" />
    <glyph glyph-name="slash" unicode="/" horiz-adv-x="324" 
d="M40 -76h-77l375 784h77z" />
    <glyph glyph-name="zero" unicode="0" horiz-adv-x="538" 
d="M368 648q93 0 142 -55.5t49 -159.5q0 -50 -12 -107q-34 -157 -120 -247.5t-201 -90.5q-93 0 -142.5 55t-49.5 158q0 52 14 120q32 153 117 240t203 87zM357 598q-58 0 -100 -70t-74 -222q-19 -86 -19 -149q0 -119 73 -119q56 0 97.5 68t72.5 210q21 99 21 163
q0 119 -71 119z" />
    <glyph glyph-name="one" unicode="1" horiz-adv-x="538" 
d="M166 0l106 500q3 16 3 27q0 23 -25 23q-16 0 -77 -24l8 34l206 88h48l-115 -542q-4 -22 -4 -29q0 -25 17 -34.5t59 -10.5l-6 -32h-220z" />
    <glyph glyph-name="two" unicode="2" horiz-adv-x="538" 
d="M416 0h-426q34 145 99.5 225t200.5 140q87 40 115.5 69.5t28.5 77.5q0 76 -130 82l11 54q115 -7 167.5 -45t52.5 -106q0 -81 -52.5 -138.5t-179.5 -119.5q-113 -55 -146.5 -79t-46.5 -62h224q50 0 72.5 14.5t50.5 65.5l31 -8z" />
    <glyph glyph-name="three" unicode="3" horiz-adv-x="538" 
d="M243 598l10 50q14 1 31 1q102 0 159 -33t57 -92q0 -51 -36.5 -94t-98.5 -66q98 -41 98 -135q0 -99 -96.5 -170.5t-222.5 -71.5q-88 0 -143 37l12 56q71 -34 117 -34q76 0 134.5 52t58.5 120q0 85 -129 94l10 50q69 7 113 48t44 101q0 39 -30.5 61.5t-87.5 25.5z" />
    <glyph glyph-name="four" unicode="4" horiz-adv-x="538" 
d="M405 148l-31 -148h-124l31 148h-276l14 64l392 424h98l-88 -412h108l-16 -76h-108zM353 486l-244 -262h188z" />
    <glyph glyph-name="five" unicode="5" horiz-adv-x="548" 
d="M104 -12l11 50q115 9 177 64t62 141q0 52 -31 83t-84 31q-41 0 -92 -27l-55 8l130 298h160q49 0 71.5 1.5t48 10.5t40.5 28l28 -12l-86 -130h-232l-51 -116q61 11 104 11q89 0 141.5 -44.5t52.5 -117.5q0 -125 -103 -199.5t-292 -79.5z" />
    <glyph glyph-name="six" unicode="6" horiz-adv-x="538" 
d="M445 648l-10 -46q-66 -22 -121.5 -87.5t-80.5 -150.5q63 38 129 38q76 0 119 -39.5t43 -108.5q0 -113 -83 -189.5t-199 -76.5q-92 0 -140 53.5t-48 152.5q0 98 45.5 193t121.5 164q55 49 106 71t118 26zM312 344q-61 0 -92.5 -51t-31.5 -142q0 -53 17.5 -83t49.5 -30
q51 0 89 58.5t38 152.5q0 95 -70 95z" />
    <glyph glyph-name="seven" unicode="7" horiz-adv-x="538" 
d="M228 0h-130l330 558h-164q-54 0 -81.5 -17.5t-57.5 -70.5l-28 8l70 158h420l-8 -36z" />
    <glyph glyph-name="eight" unicode="8" horiz-adv-x="538" 
d="M390 356q67 -22 94 -54t27 -81q0 -97 -83 -163t-201 -66q-93 0 -148.5 42.5t-55.5 111.5q0 78 51 131.5t144 78.5q-51 20 -72.5 44.5t-21.5 62.5q0 77 71.5 131t170.5 54q79 0 128 -36t49 -92q0 -116 -153 -164zM356 602q-39 0 -69.5 -44t-30.5 -111q0 -69 53 -69
q38 0 69 43.5t31 110.5q0 70 -53 70zM298 328q-54 0 -96 -56t-42 -138q0 -44 20.5 -70t57.5 -26q52 0 94.5 57t42.5 137q0 45 -20.5 70.5t-56.5 25.5z" />
    <glyph glyph-name="nine" unicode="9" horiz-adv-x="538" 
d="M147 -12l10 46q66 22 121 87t81 151q-62 -38 -129 -38q-77 0 -119.5 39t-42.5 108q0 113 83 190t199 77q92 0 140 -54t48 -153q0 -98 -45.5 -193.5t-122.5 -163.5q-55 -49 -105.5 -70.5t-117.5 -25.5zM338 598q-51 0 -89.5 -58t-38.5 -152q0 -96 71 -96q61 0 92 52
t31 142q0 52 -17 82t-49 30z" />
    <glyph glyph-name="colon" unicode=":" horiz-adv-x="292" 
d="M186 466q35 0 58.5 -23.5t23.5 -57.5t-23.5 -57.5t-57.5 -23.5q-33 0 -57 23.5t-24 56.5q0 35 23 58.5t57 23.5zM119 154q35 0 58.5 -23.5t23.5 -57.5t-23.5 -57.5t-57.5 -23.5q-33 0 -57 23.5t-24 56.5q0 35 23 58.5t57 23.5z" />
    <glyph glyph-name="semicolon" unicode=";" horiz-adv-x="292" 
d="M188 466q35 0 58.5 -23.5t23.5 -57.5t-23.5 -57.5t-57.5 -23.5q-33 0 -57 23.5t-24 56.5q0 35 23 58.5t57 23.5zM32 -147l-32 25q46 30 76 72q21 31 21 41q0 4 -5 6q-24 8 -39.5 29.5t-15.5 45.5q0 32 25 56t57 24t57 -24t25 -55q0 -47 -40 -105q-25 -36 -52.5 -60.5
t-76.5 -54.5z" />
    <glyph glyph-name="less" unicode="&#x3c;" horiz-adv-x="596" 
d="M59 201l13 61l524 209l-16 -78l-397 -161l328 -162l-17 -78z" />
    <glyph glyph-name="equal" unicode="=" horiz-adv-x="596" 
d="M72 294l17 76h496l-17 -76h-496zM36 122l16 76h496l-16 -76h-496z" />
    <glyph glyph-name="greater" unicode="&#x3e;" horiz-adv-x="596" 
d="M557 262l-12 -61l-525 -209l17 78l396 162l-328 161l17 78z" />
    <glyph glyph-name="question" unicode="?" horiz-adv-x="420" 
d="M207 625l11 51q14 1 35 1q195 0 195 -118q0 -61 -36.5 -110t-135.5 -120q-56 -39 -73.5 -61t-28.5 -68h-46l10 43q10 44 25.5 70.5t63.5 79.5q55 60 72 91t17 69q0 36 -26 53.5t-83 18.5zM125 154q32 0 56 -24t24 -57q0 -34 -23.5 -57.5t-57.5 -23.5t-57.5 24t-23.5 58
q0 33 24 56.5t58 23.5z" />
    <glyph glyph-name="at" unicode="@" horiz-adv-x="964" 
d="M552 458q-53 0 -101 -84q-55 -102 -55 -183q0 -28 14 -44.5t39 -16.5q52 0 99 98q18 36 32 91t14 88q0 24 -11 37.5t-31 13.5zM790 70l34 -38q-77 -58 -145 -83q-82 -29 -163 -29q-164 0 -269 95.5t-105 243.5q0 175 116 290t292 115q151 0 249.5 -84t98.5 -212
q0 -119 -80.5 -210.5t-185.5 -91.5q-37 0 -63.5 22t-28.5 56q-27 -34 -51 -48t-56 -14q-67 0 -107 39.5t-40 106.5q0 105 77.5 191.5t171.5 86.5q32 0 51.5 -12.5t37.5 -45.5l16 42h120q-34 -94 -59.5 -163.5t-33.5 -92t-13 -36.5q-8 -22 -8 -36q0 -26 25 -26q65 0 120 73
t55 160q0 105 -83 174t-209 69q-153 0 -254.5 -100.5t-101.5 -252.5q0 -128 90.5 -207.5t235.5 -79.5q71 0 133 23t133 75z" />
    <glyph glyph-name="A" unicode="A" horiz-adv-x="646" 
d="M440 0l-35 186h-252l-112 -186h-65l329 546q25 42 25 58q0 28 -78 29l7 31h203l111 -577q6 -31 22 -43.5t48 -12.5l-7 -31h-196zM345 502l-159 -262h209z" />
    <glyph glyph-name="B" unicode="B" horiz-adv-x="660" 
d="M121 664h290q129 0 184 -34t55 -113q0 -63 -29.5 -101.5t-96.5 -62.5q51 -17 74 -45.5t23 -74.5q0 -109 -86 -171t-237 -62h-226l118 555q4 18 4 37q0 23 -16.5 31.5t-62.5 9.5zM296 375h58q67 0 108 42.5t41 113.5q0 42 -28.5 60t-94.5 18q-24 0 -30.5 -7t-13.5 -40z
M284 320l-46 -218q-3 -12 -3 -26q0 -13 9.5 -17.5t37.5 -4.5q106 0 148 55q37 48 37 117q0 94 -127 94h-56z" />
    <glyph glyph-name="C" unicode="C" 
d="M554 97l8 -45q-111 -64 -226 -64q-128 0 -202 70t-74 191q0 86 32.5 165.5t90.5 135.5q70 67 176 101q71 22 192 25l-10 -51q-58 -3 -94 -13.5t-73 -35.5q-73 -49 -116 -142t-43 -202q0 -185 161 -185q81 0 178 50z" />
    <glyph glyph-name="D" unicode="D" horiz-adv-x="734" 
d="M121 664h280q336 0 336 -235q0 -75 -24 -148.5t-66 -126.5q-122 -154 -383 -154h-192l118 555q4 20 4 37q0 23 -16.5 31.5t-62.5 9.5zM334 559l-97 -454q-4 -16 -4 -28t8.5 -17t29.5 -5q150 0 229 100q39 50 63 127t24 153q0 174 -201 174q-29 0 -37 -7t-15 -43z" />
    <glyph glyph-name="E" unicode="E" horiz-adv-x="629" 
d="M532 0h-460l118 555q4 20 4 36q0 23 -16.5 32t-62.5 10l6 31h538l-21 -141h-31q-1 55 -20.5 70.5t-90.5 15.5h-118q-22 0 -28.5 -7.5t-13.5 -39.5l-40 -187h168l-12 -55h-168l-45 -211q-5 -25 -5 -34q0 -12 14.5 -16t59.5 -4h108q53 0 94 39q23 21 52 70h31z" />
    <glyph glyph-name="F" unicode="F" horiz-adv-x="587" 
d="M638 523h-31q-1 55 -20.5 70.5t-86.5 15.5h-118q-23 0 -31.5 -8t-14.5 -35l-45 -211h168l-11 -55h-168l-64 -300h-144l118 555q4 24 4 34q0 23 -16.5 32.5t-62.5 11.5l6 31h538z" />
    <glyph glyph-name="G" unicode="G" horiz-adv-x="660" 
d="M663 308l-52 -247q-5 -26 -96.5 -49.5t-184.5 -23.5q-124 0 -197 71t-73 190q0 86 32.5 165.5t90.5 135.5q70 67 176 101q71 22 192 25l-10 -51q-68 -5 -108.5 -19t-79.5 -44q-64 -50 -101 -138.5t-37 -191.5q0 -185 163 -185q85 0 91 27l28 128q3 17 3 32
q0 25 -16.5 33.5t-63.5 9.5l7 31h236z" />
    <glyph glyph-name="H" unicode="H" horiz-adv-x="765" 
d="M470 0l68 320h-254l-68 -320h-144l118 555q4 18 4 34q0 25 -17 34t-63 10l7 31h236l-61 -289h254l61 289h144l-117 -551q-5 -25 -5 -40q0 -24 16.5 -32.5t63.5 -9.5l-7 -31h-236z" />
    <glyph glyph-name="I" unicode="I" horiz-adv-x="326" 
d="M72 0l118 555q4 18 4 37q0 23 -16.5 31.5t-62.5 9.5l6 31h236l-141 -664h-144z" />
    <glyph glyph-name="J" unicode="J" horiz-adv-x="336" 
d="M-1 -12l12 55q55 1 71.5 19.5t33.5 97.5l84 395q4 18 4 34q0 25 -17 34t-63 10l7 31h236l-97 -457q-25 -121 -86 -170t-185 -49z" />
    <glyph glyph-name="K" unicode="K" horiz-adv-x="684" 
d="M476 0l-199 286l-61 -286h-144l118 555q4 16 4 35q0 23 -16 32t-63 11l6 31h236l-61 -288l344 288h90l-344 -288l193 -279q44 -62 112 -66l-7 -31h-208z" />
    <glyph glyph-name="L" unicode="L" horiz-adv-x="601" 
d="M520 0h-448l118 555q4 20 4 34q0 25 -17 34t-63 10l7 31h236l-120 -566q-2 -7 -2 -21q0 -22 31 -22h123q58 0 91 23.5t76 93.5h31z" />
    <glyph glyph-name="M" unicode="M" horiz-adv-x="905" 
d="M467 168l304 496h134l-117 -551q-5 -25 -5 -41q0 -23 17 -31.5t62 -9.5l-7 -31h-236l102 478l-294 -478h-63l-113 539l-115 -539h-64l118 555q4 20 4 37q0 22 -16.5 30.5t-62.5 10.5l6 31h242z" />
    <glyph glyph-name="N" unicode="N" horiz-adv-x="722" 
d="M573 220l94 444h64l-141 -664h-68l-278 508l-81 -379q-7 -33 -7 -52q0 -26 15 -35.5t56 -10.5l-7 -31h-148l121 570q2 14 2 20q0 23 -17.5 32.5t-62.5 10.5l6 31h210z" />
    <glyph glyph-name="O" unicode="O" horiz-adv-x="714" 
d="M462 676q122 0 188 -63.5t66 -179.5q0 -96 -36.5 -188t-99.5 -153q-106 -104 -263 -104q-125 0 -191 62.5t-66 180.5q0 80 26.5 160t73.5 141q112 144 302 144zM451 621q-115 0 -175 -136q-29 -65 -47.5 -147.5t-18.5 -144.5q0 -150 118 -150q54 0 99.5 36t73.5 101
q28 64 46.5 148t18.5 143q0 150 -115 150z" />
    <glyph glyph-name="P" unicode="P" 
d="M273 267l-57 -267h-144l118 555q4 20 4 34q0 25 -17 34t-63 10l7 31h306q110 0 166.5 -40.5t56.5 -119.5q0 -78 -40 -133.5t-114 -80.5q-71 -23 -194 -23h-29zM284 321h43q75 0 118 39q27 23 43.5 65.5t16.5 87.5q0 70 -63 90q-22 6 -62 6q-25 0 -31 -7t-13 -40z" />
    <glyph glyph-name="Q" unicode="Q" horiz-adv-x="711" 
d="M618 -101l-6 -29q-84 -21 -135 -21q-154 0 -238 123q-11 17 -42 30q-71 32 -104 86.5t-33 139.5q0 82 27.5 163.5t75.5 143.5q112 141 299 141q119 0 185 -63.5t66 -179.5q0 -84 -29 -168.5t-79 -147.5q-42 -51 -87 -79t-116 -46q52 -94 168 -94q17 0 36 1h12zM451 621
q-115 0 -174 -133q-29 -66 -48.5 -151t-19.5 -147q0 -150 118 -150q53 0 98 36t73 101t47 150t19 146q0 148 -113 148z" />
    <glyph glyph-name="R" unicode="R" horiz-adv-x="642" 
d="M121 664h306q108 0 166 -41t58 -117q0 -82 -52 -139.5t-141 -74.5l90 -178q23 -45 43 -63.5t48 -19.5l-7 -31h-168l-146 281h-42l-60 -281h-144l118 555q4 22 4 34q0 25 -17 34t-63 10zM287 335h43q93 0 135 54q41 51 41 128q0 49 -29.5 70.5t-96.5 21.5
q-21 0 -28.5 -4.5t-10.5 -18.5z" />
    <glyph glyph-name="S" unicode="S" horiz-adv-x="544" 
d="M464 676l-11 -51q-95 -6 -147 -32q-24 -12 -40 -33t-16 -42q0 -28 24.5 -51t106.5 -70q85 -49 115.5 -86t30.5 -91q0 -96 -87 -164t-210 -68q-38 0 -105 14q-35 8 -64 12l-39 6l18 167h31q5 -40 15 -61.5t31 -39.5q45 -39 111 -39q57 0 104 39.5t47 86.5q0 32 -26.5 58.5
t-102.5 69.5q-78 44 -105 76.5t-27 82.5q0 111 105 169q45 24 99 35t142 12z" />
    <glyph glyph-name="T" unicode="T" horiz-adv-x="609" 
d="M665 500h-31q0 73 -20.5 91t-103.5 18h-44l-130 -609h-144l130 609h-46q-82 0 -110 -18t-59 -91h-31l44 164h571z" />
    <glyph glyph-name="U" unicode="U" horiz-adv-x="692" 
d="M713 664l-85 -402q-29 -139 -105 -206.5t-202 -67.5q-108 0 -164 46.5t-56 135.5q0 42 9 84l64 301q4 17 4 37q0 23 -16.5 31.5t-63.5 9.5l7 31h235l-89 -416q-9 -42 -9 -77q0 -124 120 -124q76 0 127.5 52.5t72.5 152.5l87 412h64z" />
    <glyph glyph-name="V" unicode="V" horiz-adv-x="634" 
d="M320 -8h-61l-129 581q-7 32 -24 45t-51 15l6 31h202l105 -484l300 484h67z" />
    <glyph glyph-name="W" unicode="W" horiz-adv-x="880" 
d="M606 -8h-61l-56 375l-209 -375h-61l-82 548q-8 54 -24 72.5t-58 20.5l6 31h202l65 -456l146 262l-11 70q-8 54 -24 72.5t-58 20.5l6 31h202l65 -456l253 456h74z" />
    <glyph glyph-name="X" unicode="X" horiz-adv-x="648" 
d="M-32 0l320 319l-125 256q-16 32 -35 44.5t-54 13.5l7 31h206l114 -232l232 232h80l-286 -286l131 -268q24 -50 41 -64t56 -15l-7 -31h-204l-130 266l-266 -266h-80z" />
    <glyph glyph-name="Y" unicode="Y" 
d="M420 302l-40 -189q-5 -27 -5 -42q0 -21 17 -30t63 -10l-7 -31h-236l64 302l-130 271q-19 34 -39 47t-53 13l7 31h204l137 -280l240 280h87z" />
    <glyph glyph-name="Z" unicode="Z" horiz-adv-x="587" 
d="M521 0h-561l8 37l505 572h-183l11 55h372l-7 -34l-508 -575h224q61 0 95.5 22.5t73.5 86.5h31z" />
    <glyph glyph-name="bracketleft" unicode="[" horiz-adv-x="332" 
d="M11 -148l180 848h240l-10 -47h-31q-53 0 -75 -10t-28 -37l-140 -660q-1 -3 -1 -10q0 -20 20.5 -28.5t70.5 -8.5h24l-10 -47h-240z" />
    <glyph glyph-name="backslash" unicode="\" horiz-adv-x="324" 
d="M172 -76l-42 784h77l41 -784h-76z" />
    <glyph glyph-name="bracketright" unicode="]" horiz-adv-x="332" 
d="M179 -148h-240l10 47q73 0 99.5 9.5t34.5 37.5l140 660l1 4v8q0 20 -18.5 27.5t-65.5 7.5h-31l10 47h240z" />
    <glyph glyph-name="asciicircum" unicode="^" horiz-adv-x="500" 
d="M156 380h-85l241 288h70l118 -288h-85l-86 205z" />
    <glyph glyph-name="underscore" unicode="_" horiz-adv-x="500" 
d="M432 -130h-500l14 64h500z" />
    <glyph glyph-name="grave" unicode="`" horiz-adv-x="336" 
d="M244 518l-98 82q-25 21 -25 52q0 24 17 40t43 16q45 0 61 -41l56 -149h-54z" />
    <glyph glyph-name="a" unicode="a" horiz-adv-x="526" 
d="M496 410l-68 -326l-1 -10q0 -10 7 -10q10 0 39 24l20 -18q-41 -43 -69.5 -60.5t-58.5 -17.5t-46.5 16.5t-16.5 46.5q0 9 2 23q-38 -47 -72.5 -66.5t-79.5 -19.5q-55 0 -88.5 35t-33.5 92q0 55 24.5 117t66.5 115q91 113 201 113q50 0 91 -35q20 -19 83 -19zM321 429
q-30 0 -61 -30t-57 -84q-47 -100 -47 -193q0 -31 12.5 -51t31.5 -20q54 0 110 119q55 113 55 201q0 26 -12.5 42t-31.5 16z" />
    <glyph glyph-name="b" unicode="b" horiz-adv-x="512" 
d="M299 706l-66 -308q33 37 61 51.5t69 14.5q60 0 95 -35.5t35 -96.5q0 -126 -93 -233t-203 -107q-61 0 -105 28t-44 66q0 22 15 95l92 433q3 16 3 18q0 8 -4.5 11t-18.5 3h-34l4 26zM322 408q-24 0 -50 -27.5t-45 -73.5q-58 -136 -58 -224q0 -25 11 -39.5t31 -14.5
q58 0 111 106q19 39 33 94.5t14 94.5q0 38 -13 61t-34 23z" />
    <glyph glyph-name="c" unicode="c" horiz-adv-x="410" 
d="M397 88l6 -28q-77 -68 -183 -68q-81 0 -129.5 46t-48.5 122q0 141 105 229q46 38 95.5 55t125.5 20l-9 -36q-53 -11 -81.5 -28.5t-53.5 -52.5q-54 -78 -54 -177q0 -119 114 -119q61 0 113 37z" />
    <glyph glyph-name="d" unicode="d" horiz-adv-x="529" 
d="M564 706l-130 -614q-3 -14 -3 -20q0 -9 8 -9q9 0 39 26l19 -19q-74 -78 -133 -78q-27 0 -42.5 17.5t-15.5 47.5q0 3 2 21q-42 -50 -73 -68t-75 -18q-57 0 -91.5 36t-34.5 96q0 127 91 233.5t198 106.5q26 0 38.5 -5t24.5 -21l38 176q3 14 3 19q0 13 -23 13h-34l4 26z
M325 426q-58 0 -108 -93q-56 -110 -56 -210q0 -32 12 -52t32 -20q53 0 109 120q22 45 38 105.5t16 95.5q0 25 -11.5 39.5t-31.5 14.5z" />
    <glyph glyph-name="e" unicode="e" horiz-adv-x="426" 
d="M297 23l-6 -26q-33 -5 -57 -5q-92 0 -142 41.5t-50 117.5q0 120 89 216.5t200 96.5q56 0 90.5 -25.5t34.5 -66.5q0 -91 -112 -137q-68 -26 -171 -29q-8 -43 -8 -66q0 -53 33 -84q29 -27 99 -33zM182 242q65 11 106 43q26 20 42 49.5t16 55.5q0 16 -8.5 26.5t-22.5 10.5
q-34 0 -69.5 -49.5t-63.5 -135.5z" />
    <glyph glyph-name="f" unicode="f" horiz-adv-x="346" 
d="M451 704l-8 -29q-49 -2 -88 -36t-50 -85l-21 -98h92l-9 -42h-92l-82 -385q-26 -123 -102 -190t-187 -67l6 29q113 8 148 169l95 444h-44l9 42h44q28 120 103 184t186 64z" />
    <glyph glyph-name="g" unicode="g" horiz-adv-x="496" 
d="M94 -228l9 29q86 5 146 36.5t60 70.5q0 41 -157 57q-139 12 -139 75q0 34 28 66.5t93 74.5q-50 40 -50 93q0 74 74 132.5t168 58.5q70 0 114.5 -37.5t44.5 -96.5q0 -76 -68 -133t-160 -57q-37 0 -88 18q-38 -38 -38 -57q0 -23 43 -28l35 -4q204 -26 204 -124
q0 -85 -87 -130q-80 -41 -232 -44zM317 426q-52 0 -87 -48t-35 -118q0 -37 18 -58.5t48 -21.5q44 0 77.5 51t33.5 117q0 36 -15 57t-40 21z" />
    <glyph glyph-name="h" unicode="h" horiz-adv-x="544" 
d="M472 89l19 -19q-73 -78 -132 -78q-26 0 -41.5 15t-15.5 40q0 34 14 99l36 162q10 43 10 70q0 28 -26 28q-36 0 -68 -49.5t-51 -133.5l-49 -223h-122l130 614q3 14 3 21q0 11 -23 11h-34l4 26l190 34l-62 -304q31 34 60.5 48t70.5 14q97 0 97 -94q0 -22 -8 -64l-44 -206
q-4 -17 -4 -29q0 -8 7 -8q8 0 39 26z" />
    <glyph glyph-name="i" unicode="i" horiz-adv-x="282" 
d="M260 464l-76 -372q-3 -14 -3 -20q0 -9 6 -9q12 0 41 26l19 -19q-72 -78 -132 -78q-25 0 -41 15.5t-16 39.5q0 33 14 99l48 226q3 15 3 19q0 13 -23 13h-34l4 26zM226 704q35 0 58.5 -23.5t23.5 -57.5t-23.5 -57.5t-57.5 -23.5q-33 0 -57 23.5t-24 56.5q0 35 23 58.5
t57 23.5z" />
    <glyph glyph-name="j" unicode="j" horiz-adv-x="289" 
d="M281 464l-96 -455q-25 -115 -98.5 -176t-186.5 -61l6 29q47 2 86.5 35t50.5 80l96 455q3 13 3 19q0 8 -5 11t-19 3h-32l4 26zM246 704q35 0 58.5 -23.5t23.5 -57.5t-23.5 -57.5t-57.5 -23.5q-33 0 -57 23.5t-24 56.5q0 35 23 58.5t57 23.5z" />
    <glyph glyph-name="k" unicode="k" horiz-adv-x="520" 
d="M318 706l-89 -425l206 174h79l-208 -177l109 -172q24 -39 37 -39t45 30l19 -19q-75 -86 -127 -86q-37 0 -79 64l-97 151l-43 -207h-122l130 614q3 15 3 19q0 13 -23 13h-34l4 26z" />
    <glyph glyph-name="l" unicode="l" horiz-adv-x="280" 
d="M303 706l-128 -612q-4 -19 -4 -23q0 -8 6 -8q9 0 41 26l19 -19q-72 -78 -132 -78q-26 0 -41.5 15t-15.5 40q0 29 17 111l98 456q3 15 3 18q0 8 -4.5 11t-18.5 3h-34l4 26z" />
    <glyph glyph-name="m" unicode="m" horiz-adv-x="780" 
d="M266 464l-12 -62q54 62 131 62q45 0 67.5 -17.5t29.5 -58.5q60 76 142 76q97 0 97 -88q0 -32 -8 -70l-44 -206q-4 -24 -4 -28q0 -9 6 -9q8 0 30 17l11 9l18 -19q-72 -78 -133 -78q-25 0 -40.5 15.5t-15.5 40.5q0 24 6 54l44 206q10 49 10 63q0 35 -26 35q-36 0 -68 -49.5
t-51 -133.5l-49 -223h-122l67 308q10 46 10 63q0 35 -26 35q-36 0 -68 -49.5t-51 -133.5l-49 -223h-122l80 372q3 15 3 19q0 13 -23 13h-34l4 26z" />
    <glyph glyph-name="n" unicode="n" horiz-adv-x="538" 
d="M470 89l19 -19q-72 -78 -133 -78q-25 0 -40.5 15.5t-15.5 40.5q0 33 17 110l33 150q10 48 10 70q0 28 -26 28q-36 0 -68 -49.5t-51 -133.5l-49 -223h-122l80 372q3 14 3 21q0 11 -23 11h-34l4 26l190 34l-12 -62q54 62 130 62q50 0 74 -22.5t24 -71.5q0 -22 -8 -64
l-44 -206q-4 -18 -4 -29q0 -8 6 -8q9 0 40 26z" />
    <glyph glyph-name="o" unicode="o" horiz-adv-x="502" 
d="M327 464q77 0 121.5 -44.5t44.5 -120.5q0 -116 -89.5 -211.5t-198.5 -95.5q-79 0 -125 43.5t-46 118.5q0 105 76 198q89 112 217 112zM308 427q-50 0 -85 -67q-62 -113 -62 -240q0 -41 16.5 -66t43.5 -25q49 0 84 63q60 112 60 241q0 44 -15 69t-42 25z" />
    <glyph glyph-name="p" unicode="p" horiz-adv-x="530" 
d="M251 466l-19 -88q42 49 74.5 67.5t75.5 18.5q58 0 93 -36t35 -95q0 -56 -22.5 -117t-62.5 -110q-92 -114 -208 -114q-38 0 -59 26l-52 -246h-120l125 602q2 14 2 19q0 13 -22 13h-34l4 26zM338 405q-25 0 -53 -30.5t-53 -85.5q-56 -119 -56 -207q0 -23 12 -37.5t31 -14.5
q64 0 117 112q47 97 47 191q0 32 -12.5 52t-32.5 20z" />
    <glyph glyph-name="q" unicode="q" horiz-adv-x="522" 
d="M494 408l-120 -568q-3 -17 -3 -19q0 -13 23 -13h34l-4 -26l-194 -34l66 310q-31 -36 -60 -51t-69 -15q-61 0 -96 35t-35 95q0 124 85 231q89 111 211 111q36 0 75 -27q25 -18 39 -22.5t48 -6.5zM320 427q-56 0 -108 -97t-52 -201q0 -36 13.5 -58.5t33.5 -22.5q47 0 94 99
q25 53 42 118.5t17 108.5q0 24 -10.5 38.5t-29.5 14.5z" />
    <glyph glyph-name="r" unicode="r" horiz-adv-x="378" 
d="M418 460l-26 -122q-43 39 -77 39q-65 0 -95 -133l-54 -244h-122l80 372q3 14 3 19q0 13 -23 13h-34l4 26l190 34l-12 -62q30 34 58.5 48t67.5 14q14 0 35 -3q3 -1 5 -1z" />
    <glyph glyph-name="s" unicode="s" horiz-adv-x="390" 
d="M314 464l-8 -33q-56 -4 -80 -19.5t-24 -48.5q0 -18 13 -35t55 -50q53 -44 72 -72.5t19 -64.5q0 -56 -39 -92q-62 -57 -181 -57q-42 0 -116 25v98h26q5 -43 28.5 -66.5t62.5 -23.5q40 0 66 22.5t26 56.5q0 24 -16 47t-57 57q-45 37 -63.5 65t-18.5 59q0 53 41 86
q31 24 74 34t120 12z" />
    <glyph glyph-name="t" unicode="t" horiz-adv-x="317" 
d="M252 456h85l-9 -42h-85l-68 -330q-2 -10 -2 -12q0 -9 7 -9q11 0 40 26l19 -19q-72 -78 -132 -78q-26 0 -41.5 15t-15.5 40q0 33 14 99l67 310q57 51 79.5 77t44.5 71h28z" />
    <glyph glyph-name="u" unicode="u" horiz-adv-x="505" 
d="M450 89l19 -19q-73 -78 -132 -78q-24 0 -40.5 15t-16.5 37q0 9 1 15q-33 -37 -64 -52t-73 -15q-96 0 -96 87q0 33 8 71l47 222q3 14 3 18q0 8 -4.5 11t-18.5 3h-34l4 26l190 34l-69 -332q-6 -30 -6 -49q0 -33 26 -33q36 0 68.5 50t50.5 133l48 223h123l-77 -356
q-4 -19 -4 -28t7 -9q10 0 40 26z" />
    <glyph glyph-name="v" unicode="v" horiz-adv-x="456" 
d="M414 456h42q-5 -91 -20 -146.5t-51 -118.5q-47 -82 -116.5 -141.5t-119.5 -59.5q-20 0 -31.5 15.5t-11.5 42.5q0 44 11 132q11 91 11 149q0 70 -28 70q-17 0 -50 -22v30q80 57 131 57q28 0 45 -44t17 -117q0 -52 -18 -193q-2 -18 -2 -22q0 -10 6 -10q10 0 46.5 39.5
t60.5 76.5q39 59 56.5 118t21.5 144z" />
    <glyph glyph-name="w" unicode="w" horiz-adv-x="716" 
d="M375 456h116q13 -90 13 -149q0 -69 -14 -156q-8 -46 -8 -62q0 -12 7 -12q10 0 46 39.5t61 76.5q39 59 56.5 118.5t21.5 144.5h42q-4 -73 -12 -113.5t-27 -86.5q-43 -105 -125 -185.5t-145 -80.5q-18 0 -29.5 15.5t-11.5 38.5q0 30 14 138q-56 -87 -122 -141
q-65 -51 -109 -51q-20 0 -31.5 15.5t-11.5 40.5q0 45 11 134q11 90 11 146q0 73 -28 73q-16 0 -50 -22v30q80 57 131 57q29 0 45.5 -44t16.5 -119q0 -57 -11 -138q-9 -72 -9 -76q0 -9 6 -9q11 0 50.5 43.5t63.5 82.5q26 42 36 73t10 69q0 48 -14 110z" />
    <glyph glyph-name="x" unicode="x" horiz-adv-x="472" 
d="M482 456l-179 -203l26 -105q22 -91 57 -91q17 0 51 22v-30q-82 -57 -132 -57q-54 0 -84 130l-7 30l-134 -152h-60l181 205l-25 103q-23 91 -57 91q-17 0 -51 -22v30q80 57 131 57q27 0 47 -30.5t38 -99.5l7 -27l131 149h60z" />
    <glyph glyph-name="y" unicode="y" horiz-adv-x="462" 
d="M211 -25l-71 333q-8 39 -24 65t-32 26q-20 0 -52 -22v30q80 57 132 57q56 0 84 -130l50 -232q121 195 132 354h42q-8 -118 -69.5 -257.5t-154.5 -253.5q-74 -88 -142.5 -129t-143.5 -44l8 37q54 4 120.5 50t120.5 116z" />
    <glyph glyph-name="z" unicode="z" horiz-adv-x="449" 
d="M355 0h-375l7 31l304 382h-127l9 43h276l-7 -31l-304 -382h81q67 0 93 15.5t58 74.5h27z" />
    <glyph glyph-name="braceleft" unicode="{" horiz-adv-x="414" 
d="M312 -198l-7 -34q-58 7 -89 16.5t-60 29.5q-54 36 -54 104q0 34 20 110q16 63 16 89q0 38 -21.5 58t-76.5 31l9 44q83 16 114 51t45 130q18 129 79.5 183.5t212.5 73.5l-7 -34q-80 -15 -115 -55.5t-47 -132.5q-13 -106 -56 -156t-147 -82q63 -22 92 -53.5t29 -79.5
q0 -37 -20 -109q-17 -58 -17 -85q0 -43 23 -66t77 -33z" />
    <glyph glyph-name="bar" unicode="|" horiz-adv-x="288" 
d="M52 -68l164 776h76l-164 -776h-76z" />
    <glyph glyph-name="braceright" unicode="}" horiz-adv-x="414" 
d="M-69 -232l7 34q78 13 114 55t47 131q13 105 58 158t146 82q-59 17 -90.5 51t-31.5 82q0 34 19 106q17 61 17 92q0 40 -23 62t-75 33l7 34q116 -10 172 -66q30 -30 30 -86q0 -33 -20 -108q-17 -63 -17 -92q0 -36 22.5 -55.5t77.5 -30.5l-9 -44q-83 -16 -114.5 -51.5
t-44.5 -129.5q-15 -98 -43.5 -142.5t-96.5 -76.5q-71 -31 -152 -38z" />
    <glyph glyph-name="asciitilde" unicode="~" horiz-adv-x="576" 
d="M631 847h36q-34 -73 -75.5 -106.5t-97.5 -33.5q-45 0 -113 34q-59 28 -92 28q-60 0 -98 -57h-36q34 73 75.5 106.5t97.5 33.5q45 0 111 -33q59 -29 93 -29q59 0 99 57z" />
    <glyph glyph-name="uni00A0" unicode="&#xa0;" horiz-adv-x="294" 
 />
    <glyph glyph-name="exclamdown" unicode="&#xa1;" horiz-adv-x="340" 
d="M220 506q32 0 56 -24t24 -57q0 -34 -23.5 -57.5t-57.5 -23.5t-57.5 24t-23.5 58q0 33 24 56.5t58 23.5zM217 296l-23 -322q-4 -49 -11 -77q-16 -77 -91 -77q-61 0 -61 55q0 10 3 22q5 21 24 77l113 322h46z" />
    <glyph glyph-name="cent" unicode="&#xa2;" horiz-adv-x="411" 
d="M228 61l75 351q-59 -30 -91 -84q-42 -71 -42 -159q0 -80 58 -108zM337 572h56l-111 -521h4q61 0 111 37l6 -28q-47 -47 -133 -63l-24 -113h-56l23 108q-82 5 -128 51q-43 44 -43 117q0 116 73 198q37 43 82.5 66t115.5 36z" />
    <glyph glyph-name="sterling" unicode="&#xa3;" horiz-adv-x="555" 
d="M478 0h-400l66 312h-88l10 47h88q36 168 105.5 236.5t203.5 68.5l-10 -47q-111 0 -148 -168l-19 -90h128l-10 -47h-128l-48 -226q-2 -10 -2 -14q0 -21 31 -21h105q50 0 78 20t66 81h31z" />
    <glyph glyph-name="currency" unicode="&#xa4;" horiz-adv-x="620" 
d="M80 109l89 92q-50 67 -50 142q0 67 51 140l-93 92l36 36l92 -93q72 52 143 52t142 -52l93 92l35 -35l-92 -92q51 -67 51 -142q0 -38 -10.5 -69t-38.5 -71l91 -92l-35 -36l-92 92q-66 -51 -140 -51q-70 0 -146 51l-91 -91zM351 515q-73 0 -123.5 -49.5t-50.5 -121.5
t50 -122.5t121 -50.5t121 50.5t50 121.5q0 70 -50 121t-118 51z" />
    <glyph glyph-name="yen" unicode="&#xa5;" 
d="M272 282h-142l11 50h121l-116 241q-19 34 -39 47t-53 13l7 31h204l137 -280l240 280h87l-283 -332h123l-11 -50h-142l-10 -47h142l-11 -50h-142l-15 -72q-5 -27 -5 -42q0 -21 17 -30t63 -10l-7 -31h-236l39 185h-142l11 50h142z" />
    <glyph glyph-name="brokenbar" unicode="&#xa6;" horiz-adv-x="500" 
d="M324 667h76l-70 -330h-76zM215 153h76l-68 -320h-76z" />
    <glyph glyph-name="section" unicode="&#xa7;" horiz-adv-x="595" 
d="M309 444l-27 10q-122 45 -122 123q0 67 72 108q77 46 263 49l-11 -50q-195 -8 -195 -66q0 -18 22 -32t116 -57q86 -39 119.5 -72t33.5 -79q0 -59 -47 -102t-136 -65q64 -29 92.5 -59t28.5 -68q0 -70 -83.5 -119.5t-200.5 -49.5q-41 0 -143 17l-67 8l19 173h30
q7 -59 37 -92q45 -50 122 -50q53 0 97 25t44 56q0 19 -29 39t-108 56t-103 59q-35 32 -35 78q0 64 51.5 103t159.5 57zM381 410q-157 -17 -157 -82q0 -22 22.5 -40t81.5 -45q50 15 79.5 41.5t29.5 57.5q0 19 -12 33.5t-44 34.5z" />
    <glyph glyph-name="dieresis" unicode="&#xa8;" horiz-adv-x="352" 
d="M357 659q28 0 48 -20t20 -48t-20 -48.5t-48 -20.5q-29 0 -49 20t-20 49q0 28 20 48t49 20zM166 659q28 0 48 -20t20 -48q0 -29 -20 -49t-49 -20q-28 0 -48 20t-20 49q0 28 20 48t49 20z" />
    <glyph glyph-name="copyright" unicode="&#xa9;" horiz-adv-x="656" 
d="M464 192l8 -18q-51 -58 -116 -58q-74 0 -119 44t-45 116q0 48 24 85t66 57q37 17 114 18v-26q-63 -5 -89 -29q-33 -30 -33 -82q0 -61 32.5 -101t82.5 -40q38 0 75 34zM351 512q-102 0 -173 -68t-71 -166q0 -99 70.5 -168.5t170.5 -69.5q99 0 169.5 69.5t70.5 166.5
q0 96 -70 166t-167 70zM353 560q116 0 200 -84t84 -200q0 -118 -84.5 -201t-204.5 -83q-121 0 -205 83.5t-84 202.5q0 118 86 200t208 82z" />
    <glyph glyph-name="ordfeminine" unicode="&#xaa;" horiz-adv-x="414" 
d="M392 430l-6 -26q-42 -24 -70 -24q-18 0 -29 9t-13 23q-32 -32 -82 -32q-31 0 -50.5 16.5t-19.5 41.5q0 38 32 68q43 40 146 53l4 16q5 25 5 33q0 17 -11 23.5t-40 9.5l5 26q65 -1 92 -16.5t27 -52.5q0 -13 -3 -28l-28 -128l-1 -12q0 -11 11 -11q9 0 31 11zM281 471l13 61
q-89 -20 -89 -84q0 -28 22 -28q17 0 33.5 15.5t20.5 35.5zM372 334l-12 -54h-279l12 54h279z" />
    <glyph glyph-name="guillemotleft" unicode="&#xab;" horiz-adv-x="456" 
d="M354 51l-140 185l219 185l40 -12l-120 -173l46 -173zM166 51l-136 185l215 185l44 -11l-124 -174l50 -174z" />
    <glyph glyph-name="logicalnot" unicode="&#xac;" horiz-adv-x="500" 
d="M399 0v215h-374v69h450v-284h-76z" />
    <glyph glyph-name="uni00AD" unicode="&#xad;" horiz-adv-x="383" 
d="M330 198h-272l16 76h272z" />
    <glyph glyph-name="registered" unicode="&#xae;" horiz-adv-x="656" 
d="M340 412h26q37 0 51.5 12t14.5 41q0 47 -56 47q-22 0 -29 -6.5t-7 -27.5v-66zM532 328h24q-3 -40 -20 -57t-54 -17q-39 0 -56 16.5t-22 57.5q-8 60 -52 60h-12v-130h-72v220q0 17 -11 24.5t-41 9.5v24h160q72 0 101 -16t29 -55q0 -65 -84 -69q55 -6 56 -64q1 -22 7 -31
t21 -9q24 0 26 36zM375 628q-102 0 -173 -68.5t-71 -166.5q0 -99 70.5 -168.5t170.5 -69.5q99 0 169.5 69.5t70.5 167.5q0 96 -70 166t-167 70zM377 676q116 0 200 -84t84 -200q0 -118 -84.5 -201t-204.5 -83q-121 0 -205 83.5t-84 202.5q0 118 86 200t208 82z" />
    <glyph glyph-name="macron" unicode="&#xaf;" horiz-adv-x="344" 
d="M98 538l14 64h296l-14 -64h-296z" />
    <glyph glyph-name="degree" unicode="&#xb0;" horiz-adv-x="384" 
d="M264 660q56 0 96.5 -41t40.5 -97q0 -57 -40.5 -97.5t-97.5 -40.5q-58 0 -98 40.5t-40 98.5q0 57 40.5 97t98.5 40zM264 590q-29 0 -49 -19.5t-20 -47.5q0 -29 19.5 -49t48.5 -20q28 0 48 20t20 48t-20 48t-47 20z" />
    <glyph glyph-name="plusminus" unicode="&#xb1;" horiz-adv-x="592" 
d="M496 0h-480l16 76h480zM364 319l-43 -202h-80l43 202h-200l16 76h200l43 202h80l-43 -202h200l-16 -76h-200z" />
    <glyph glyph-name="twosuperior" unicode="&#xb2;" horiz-adv-x="323" 
d="M285 266h-259q21 89 60.5 137.5t121.5 85.5q49 23 67 41t18 45q0 45 -78 48l7 37q63 -5 88 -18q48 -26 48 -74q0 -55 -45 -98q-29 -28 -95 -60t-86.5 -46.5t-27.5 -34.5h132q29 0 41 8t31 40l22 -5z" />
    <glyph glyph-name="threesuperior" unicode="&#xb3;" horiz-adv-x="323" 
d="M190 626l7 33q9 1 21 1q61 0 96 -20.5t35 -55.5q0 -30 -20.5 -55.5t-57.5 -41.5q56 -24 56 -80q0 -60 -58 -104t-136 -44q-53 0 -88 23l8 38q44 -22 73 -22q44 0 78.5 30t34.5 70q0 27 -18.5 40t-59.5 16l7 34q39 4 61 22q33 28 33 65q0 48 -72 51z" />
    <glyph glyph-name="acute" unicode="&#xb4;" horiz-adv-x="336" 
d="M232 518h-54l119 149q19 25 32 33t33 8q21 0 35.5 -13t14.5 -32q0 -34 -39 -58z" />
    <glyph glyph-name="mu" unicode="&#xb5;" horiz-adv-x="505" 
d="M-24 -228l127 600q3 16 3 19q0 13 -23 13h-34l4 26l190 34l-68 -332q-7 -31 -7 -49q0 -33 26 -33q36 0 68.5 50t50.5 133l48 223h123l-76 -356q-4 -22 -4 -28q0 -9 6 -9q11 0 40 26l19 -19q-73 -78 -132 -78q-24 0 -40.5 15t-16.5 37q0 9 1 15q-57 -67 -139 -67l-45 -220
h-121z" />
    <glyph glyph-name="paragraph" unicode="&#xb6;" horiz-adv-x="556" 
d="M462 585v-757h-60v757h-56v-757h-60v388h-40q-75 0 -140 52q-76 61 -76 158q0 90 65.5 152t160.5 62h274v-55h-68z" />
    <glyph glyph-name="periodcentered" unicode="&#xb7;" horiz-adv-x="292" 
d="M152 336q35 0 58.5 -23.5t23.5 -57.5t-23.5 -57.5t-57.5 -23.5q-33 0 -57 23.5t-24 56.5q0 35 23 58.5t57 23.5z" />
    <glyph glyph-name="cedilla" unicode="&#xb8;" horiz-adv-x="338" 
d="M165 12l-30 -52q9 1 15 1q37 0 59 -17.5t22 -46.5q0 -49 -43 -81t-109 -32q-39 0 -88 20l23 42q32 -11 50 -11q26 0 44 14.5t18 36.5q0 20 -21 20q-9 0 -18 -8h-45l65 114h58z" />
    <glyph glyph-name="onesuperior" unicode="&#xb9;" horiz-adv-x="323" 
d="M132 267l64 301q2 10 2 17q0 11 -13 11q-11 0 -49 -15l6 25l125 53h32l-70 -327q-2 -12 -2 -17q0 -14 9.5 -19t36.5 -6l-5 -23h-136z" />
    <glyph glyph-name="ordmasculine" unicode="&#xba;" horiz-adv-x="414" 
d="M309 667q55 0 86 -29t31 -80q0 -72 -52 -125t-123 -53q-56 0 -88 28.5t-32 78.5q0 75 52 127.5t126 52.5zM299 638q-41 0 -64 -52q-22 -47 -22 -101q0 -76 48 -76q37 0 61 50q22 49 22 103q0 76 -45 76zM382 334l-12 -54h-287l12 54h287z" />
    <glyph glyph-name="guillemotright" unicode="&#xbb;" horiz-adv-x="456" 
d="M45 51l-40 12l119 173l-45 173l44 12l141 -185zM233 51l-45 11l124 174l-50 174l50 11l136 -185z" />
    <glyph glyph-name="onequarter" unicode="&#xbc;" horiz-adv-x="701" 
d="M639 644l-439 -652h-76l438 652h77zM126 267l65 301q2 11 2 17q0 11 -13 11q-8 0 -29 -7l-20 -8l5 25l126 53h31l-69 -327q-2 -8 -2 -17q0 -14 9.5 -19t35.5 -6l-5 -23h-136zM595 89l-19 -89h-78l19 89h-166l9 41l237 256h61l-52 -247h65l-11 -50h-65zM559 288l-139 -149
h107z" />
    <glyph glyph-name="onehalf" unicode="&#xbd;" horiz-adv-x="701" 
d="M639 644l-439 -652h-76l438 652h77zM126 267l65 301q2 11 2 17q0 11 -13 11q-8 0 -29 -7l-20 -8l5 25l126 53h31l-69 -327q-2 -8 -2 -17q0 -14 9.5 -19t35.5 -6l-5 -23h-136zM601 0h-259q21 90 60.5 138t121.5 85q56 25 71 46q14 19 14 40q0 44 -78 48l7 36q62 -4 88 -17
q48 -26 48 -75q0 -54 -45 -97q-29 -28 -95 -60q-65 -31 -86 -46t-28 -35h132q29 0 41 8t31 40l22 -5z" />
    <glyph glyph-name="threequarters" unicode="&#xbe;" horiz-adv-x="701" 
d="M638 644l-438 -652h-76l438 652h76zM595 89l-19 -89h-78l18 89h-165l9 41l236 256h62l-53 -247h65l-10 -50h-65zM559 288l-139 -149h107zM178 626l7 33q10 1 22 1q61 0 95.5 -20.5t34.5 -55.5q0 -30 -20.5 -55.5t-57.5 -41.5q56 -24 56 -80q0 -60 -58 -104t-136 -44
q-53 0 -88 23l8 38q44 -22 73 -22q45 0 79 30.5t34 70.5q0 26 -18.5 39t-59.5 16l7 34q39 4 61 22q33 28 33 65q0 48 -72 51z" />
    <glyph glyph-name="questiondown" unicode="&#xbf;" horiz-adv-x="420" 
d="M238 -129l-11 -51q-14 -1 -35 -1q-195 0 -195 118q0 61 36.5 110t135.5 120q56 39 73.5 61t28.5 68h46l-9 -43q-10 -43 -26 -70t-64 -80q-57 -61 -71 -89q-18 -36 -18 -72q0 -35 26 -52.5t83 -18.5zM319 506q34 0 57.5 -24t23.5 -58q0 -33 -24 -56.5t-58 -23.5
q-32 0 -56 24t-24 57q0 34 23.5 57.5t57.5 23.5z" />
    <glyph glyph-name="Agrave" unicode="&#xc0;" horiz-adv-x="646" 
d="M440 0l-35 186h-252l-112 -186h-65l329 546q25 42 25 58q0 28 -78 29l7 31h203l111 -577q6 -31 22 -43.5t48 -12.5l-7 -31h-196zM345 502l-159 -262h209zM380 729l-104 86q-18 16 -18 40q0 25 20 44.5t46 19.5q39 0 54 -40l56 -150h-54z" />
    <glyph glyph-name="Aacute" unicode="&#xc1;" horiz-adv-x="646" 
d="M440 0l-35 186h-252l-112 -186h-65l329 546q25 42 25 58q0 28 -78 29l7 31h203l111 -577q6 -31 22 -43.5t48 -12.5l-7 -31h-196zM345 502l-159 -262h209zM443 729h-54l120 150q31 40 70 40q20 0 32 -11.5t12 -30.5q0 -17 -11 -34.5t-29 -27.5z" />
    <glyph glyph-name="Acircumflex" unicode="&#xc2;" horiz-adv-x="646" 
d="M440 0l-35 186h-252l-112 -186h-65l329 546q25 42 25 58q0 28 -78 29l7 31h203l111 -577q6 -31 22 -43.5t48 -12.5l-7 -31h-196zM345 502l-159 -262h209zM502 735l-95 68l-127 -68h-54l166 160h68l98 -160h-56z" />
    <glyph glyph-name="Atilde" unicode="&#xc3;" horiz-adv-x="646" 
d="M440 0l-35 186h-252l-112 -186h-65l329 546q25 42 25 58q0 28 -78 29l7 31h203l111 -577q6 -31 22 -43.5t48 -12.5l-7 -31h-196zM345 502l-159 -262h209zM548 869h45q-22 -69 -57.5 -106.5t-79.5 -37.5q-30 0 -75 27q-37 21 -54 21q-30 0 -52 -44h-46q22 70 57.5 107
t79.5 37q30 0 74 -27q35 -21 55 -21q29 0 53 44z" />
    <glyph glyph-name="Adieresis" unicode="&#xc4;" horiz-adv-x="646" 
d="M440 0l-35 186h-252l-112 -186h-65l329 546q25 42 25 58q0 28 -78 29l7 31h203l111 -577q6 -31 22 -43.5t48 -12.5l-7 -31h-196zM345 502l-159 -262h209zM322 870q28 0 48 -20t20 -48t-20 -48.5t-49 -20.5q-28 0 -48 20t-20 49q0 28 20 48t49 20zM512 870q28 0 48 -20
t20 -48t-20 -48.5t-49 -20.5q-28 0 -48 20t-20 49q0 28 20 48t49 20z" />
    <glyph glyph-name="Aring" unicode="&#xc5;" horiz-adv-x="646" 
d="M440 0l-35 186h-252l-112 -186h-65l329 546q25 42 25 58q0 28 -78 29l7 31h203l111 -577q6 -31 22 -43.5t48 -12.5l-7 -31h-196zM345 502l-159 -262h209zM410 907q40 0 69.5 -29.5t29.5 -70.5t-29.5 -70.5t-70.5 -29.5q-42 0 -71 29.5t-29 71.5q0 41 29.5 70t71.5 29z
M409 853q-19 0 -32.5 -13.5t-13.5 -32.5t13.5 -32.5t32.5 -13.5t32.5 13.5t13.5 32.5t-13.5 32.5t-32.5 13.5z" />
    <glyph glyph-name="AE" unicode="&#xc6;" horiz-adv-x="916" 
d="M417 270l63 300l-232 -300h169zM819 0h-460l46 215h-197l-164 -215h-74q369 481 425 554l2 3q33 44 33 55q0 12 -11.5 16t-48.5 5l7 31h570l-21 -141h-31q-1 55 -21 70.5t-91 15.5h-118q-22 0 -28.5 -7.5t-13.5 -39.5l-40 -187h168l-12 -55h-168l-44 -211q-5 -25 -5 -32
q0 -14 13 -18t60 -4h109q52 0 94 39q23 21 52 70h31z" />
    <glyph glyph-name="Ccedilla" unicode="&#xc7;" 
d="M206 -102l55 97q-94 17 -147.5 85t-53.5 169q0 86 32.5 165.5t90.5 135.5q70 67 176 101q71 22 192 25l-10 -51q-58 -3 -94 -13.5t-73 -35.5q-73 -49 -116 -142t-43 -202q0 -185 161 -185q81 0 178 50l8 -45q-111 -64 -225 -64q-12 0 -22 1l-16 -29q8 1 15 1
q37 0 59 -17.5t22 -46.5q0 -49 -43 -81t-109 -32q-39 0 -88 20l23 42q32 -11 50 -11q26 0 44 14.5t18 36.5q0 20 -21 20q-10 0 -18 -8h-45z" />
    <glyph glyph-name="Egrave" unicode="&#xc8;" horiz-adv-x="629" 
d="M532 0h-460l118 555q4 17 4 36q0 23 -16.5 32t-62.5 10l6 31h538l-21 -141h-31q-1 55 -20.5 70.5t-90.5 15.5h-118q-22 0 -28.5 -7.5t-13.5 -39.5l-40 -187h168l-12 -55h-168l-45 -211q-5 -25 -5 -34q0 -12 14.5 -16t59.5 -4h108q53 0 94 39q23 21 52 70h31zM405 729
l-103 86q-19 16 -19 40q0 26 20 45t47 19q38 0 53 -40l56 -150h-54z" />
    <glyph glyph-name="Eacute" unicode="&#xc9;" horiz-adv-x="629" 
d="M532 0h-460l118 555q4 17 4 36q0 23 -16.5 32t-62.5 10l6 31h538l-21 -141h-31q-1 55 -20.5 70.5t-90.5 15.5h-118q-22 0 -28.5 -7.5t-13.5 -39.5l-40 -187h168l-12 -55h-168l-45 -211q-5 -25 -5 -34q0 -12 14.5 -16t59.5 -4h108q53 0 94 39q23 21 52 70h31zM442 729h-54
l120 150q32 40 70 40q20 0 32 -11.5t12 -30.5q0 -17 -11 -34.5t-29 -27.5z" />
    <glyph glyph-name="Ecircumflex" unicode="&#xca;" horiz-adv-x="629" 
d="M532 0h-460l118 555q4 17 4 36q0 23 -16.5 32t-62.5 10l6 31h538l-21 -141h-31q-1 55 -20.5 70.5t-90.5 15.5h-118q-22 0 -28.5 -7.5t-13.5 -39.5l-40 -187h168l-12 -55h-168l-45 -211q-5 -25 -5 -34q0 -12 14.5 -16t59.5 -4h108q53 0 94 39q23 21 52 70h31zM528 735
l-95 68l-127 -68h-54l166 160h68l98 -160h-56z" />
    <glyph glyph-name="Edieresis" unicode="&#xcb;" horiz-adv-x="629" 
d="M532 0h-460l118 555q4 17 4 36q0 23 -16.5 32t-62.5 10l6 31h538l-21 -141h-31q-1 55 -20.5 70.5t-90.5 15.5h-118q-22 0 -28.5 -7.5t-13.5 -39.5l-40 -187h168l-12 -55h-168l-45 -211q-5 -25 -5 -34q0 -12 14.5 -16t59.5 -4h108q53 0 94 39q23 21 52 70h31zM342 870
q28 0 48 -20t20 -48t-20 -48.5t-49 -20.5q-28 0 -48 20t-20 49q0 28 20 48t49 20zM532 870q28 0 48 -20t20 -48t-20 -48.5t-49 -20.5q-28 0 -48 20t-20 49q0 28 20 48t49 20z" />
    <glyph glyph-name="Igrave" unicode="&#xcc;" horiz-adv-x="326" 
d="M72 0l118 555q4 17 4 37q0 23 -16.5 31.5t-62.5 9.5l6 31h236l-141 -664h-144zM292 729l-104 86q-18 15 -18 40t20 44.5t46 19.5q39 0 53 -40l57 -150h-54z" />
    <glyph glyph-name="Iacute" unicode="&#xcd;" horiz-adv-x="326" 
d="M72 0l118 555q4 17 4 37q0 23 -16.5 31.5t-62.5 9.5l6 31h236l-141 -664h-144zM309 729h-54l120 150q32 40 70 40q20 0 32.5 -11.5t12.5 -30.5q0 -37 -41 -62z" />
    <glyph glyph-name="Icircumflex" unicode="&#xce;" horiz-adv-x="326" 
d="M72 0l118 555q4 17 4 37q0 23 -16.5 31.5t-62.5 9.5l6 31h236l-141 -664h-144zM403 735l-95 68l-127 -68h-54l166 160h68l98 -160h-56z" />
    <glyph glyph-name="Idieresis" unicode="&#xcf;" horiz-adv-x="326" 
d="M72 0l118 555q4 17 4 37q0 23 -16.5 31.5t-62.5 9.5l6 31h236l-141 -664h-144zM213 870q28 0 48 -20t20 -48t-20.5 -48.5t-48.5 -20.5t-48 20t-20 49q0 28 20 48t49 20zM392 870q28 0 48 -20t20 -48t-20 -48.5t-49 -20.5q-28 0 -48 20t-20 49q0 28 20 48t49 20z" />
    <glyph glyph-name="Eth" unicode="&#xd0;" horiz-adv-x="734" 
d="M151 375l39 180q4 26 4 37q0 23 -16.5 31.5t-62.5 9.5l6 31h280q335 0 335 -235q0 -75 -24 -148.5t-66 -126.5q-122 -154 -382 -154h-192l68 320h-92l12 55h91zM282 320l-45 -215q-5 -20 -5 -28q0 -12 8.5 -17t29.5 -5q150 0 229 100q39 50 63 127t24 153q0 174 -200 174
q-30 0 -37 -7t-15 -43l-40 -184h142l-12 -55h-142z" />
    <glyph glyph-name="Ntilde" unicode="&#xd1;" horiz-adv-x="722" 
d="M573 220l94 444h64l-141 -664h-68l-278 508l-81 -379q-7 -33 -7 -52q0 -26 15 -35.5t56 -10.5l-7 -31h-148l121 570q2 14 2 20q0 23 -17.5 32.5t-62.5 10.5l6 31h210zM624 869h45q-21 -68 -57 -106t-80 -38q-30 0 -75 27q-35 21 -53 21q-31 0 -53 -44h-46q46 144 138 144
q31 0 73 -27q37 -21 56 -21q29 0 52 44z" />
    <glyph glyph-name="Ograve" unicode="&#xd2;" horiz-adv-x="714" 
d="M462 676q122 0 188 -63.5t66 -179.5q0 -96 -36.5 -188t-99.5 -153q-106 -104 -263 -104q-125 0 -191 62.5t-66 180.5q0 80 26.5 160t73.5 141q112 144 302 144zM451 621q-116 0 -175 -136q-29 -64 -47.5 -146.5t-18.5 -145.5q0 -150 118 -150q54 0 99.5 36t73.5 101
q28 64 46.5 148t18.5 143q0 150 -115 150zM469 729l-103 86q-19 16 -19 40q0 26 20 45t47 19q38 0 53 -40l56 -150h-54z" />
    <glyph glyph-name="Oacute" unicode="&#xd3;" horiz-adv-x="714" 
d="M462 676q122 0 188 -63.5t66 -179.5q0 -96 -36.5 -188t-99.5 -153q-106 -104 -263 -104q-125 0 -191 62.5t-66 180.5q0 80 26.5 160t73.5 141q112 144 302 144zM451 621q-116 0 -175 -136q-29 -64 -47.5 -146.5t-18.5 -145.5q0 -150 118 -150q54 0 99.5 36t73.5 101
q28 64 46.5 148t18.5 143q0 150 -115 150zM515 729h-54l120 150q32 40 70 40q20 0 32 -11.5t12 -30.5q0 -17 -11 -34.5t-29 -27.5z" />
    <glyph glyph-name="Ocircumflex" unicode="&#xd4;" horiz-adv-x="714" 
d="M462 676q122 0 188 -63.5t66 -179.5q0 -96 -36.5 -188t-99.5 -153q-106 -104 -263 -104q-125 0 -191 62.5t-66 180.5q0 80 26.5 160t73.5 141q112 144 302 144zM451 621q-116 0 -175 -136q-29 -64 -47.5 -146.5t-18.5 -145.5q0 -150 118 -150q54 0 99.5 36t73.5 101
q28 64 46.5 148t18.5 143q0 150 -115 150zM602 735l-95 68l-127 -68h-54l166 160h68l98 -160h-56z" />
    <glyph glyph-name="Otilde" unicode="&#xd5;" horiz-adv-x="714" 
d="M462 676q122 0 188 -63.5t66 -179.5q0 -96 -36.5 -188t-99.5 -153q-106 -104 -263 -104q-125 0 -191 62.5t-66 180.5q0 80 26.5 160t73.5 141q112 144 302 144zM451 621q-116 0 -175 -136q-29 -64 -47.5 -146.5t-18.5 -145.5q0 -150 118 -150q54 0 99.5 36t73.5 101
q28 64 46.5 148t18.5 143q0 150 -115 150zM628 869h45q-22 -68 -58 -106t-79 -38q-30 0 -75 27q-37 21 -54 21q-32 0 -52 -44h-46q22 70 57.5 107t79.5 37q30 0 74 -27q35 -21 55 -21q29 0 53 44z" />
    <glyph glyph-name="Odieresis" unicode="&#xd6;" horiz-adv-x="714" 
d="M462 676q122 0 188 -63.5t66 -179.5q0 -96 -36.5 -188t-99.5 -153q-106 -104 -263 -104q-125 0 -191 62.5t-66 180.5q0 80 26.5 160t73.5 141q112 144 302 144zM451 621q-116 0 -175 -136q-29 -64 -47.5 -146.5t-18.5 -145.5q0 -150 118 -150q54 0 99.5 36t73.5 101
q28 64 46.5 148t18.5 143q0 150 -115 150zM391 870q28 0 48 -20t20 -48t-20.5 -48.5t-48.5 -20.5t-48 20t-20 49q0 28 20 48t49 20zM581 870q28 0 48 -20t20 -48t-20.5 -48.5t-48.5 -20.5t-48 20t-20 49q0 28 20 48t49 20z" />
    <glyph glyph-name="multiply" unicode="&#xd7;" horiz-adv-x="592" 
d="M371 241l112 -142l-69 -57l-112 142l-171 -141l-44 55l172 141l-112 142l68 57l112 -142l172 141l44 -55z" />
    <glyph glyph-name="Oslash" unicode="&#xd8;" horiz-adv-x="714" 
d="M150 31l-77 -88l-59 9l99 112q-54 68 -54 169q0 95 37 186.5t100 152.5q108 105 262 105q89 0 157 -39l79 89l56 -9l-96 -111q61 -71 61 -176q0 -95 -37 -187t-100 -153q-107 -104 -263 -104q-96 0 -165 44zM563 504l-342 -392q27 -69 103 -69q84 0 139.5 74.5
t87.5 230.5q14 73 14 122q0 18 -2 34zM209 176l340 386q-30 59 -101 59q-83 0 -140.5 -79.5t-85.5 -233.5q-13 -70 -13 -132z" />
    <glyph glyph-name="Ugrave" unicode="&#xd9;" horiz-adv-x="692" 
d="M713 664l-85 -402q-29 -139 -105 -206.5t-202 -67.5q-108 0 -164 46.5t-56 135.5q0 42 9 84l64 301q4 17 4 37q0 23 -16.5 31.5t-63.5 9.5l7 31h235l-89 -416q-9 -42 -9 -77q0 -124 120 -124q76 0 127.5 52.5t72.5 152.5l87 412h64zM463 729l-103 86q-19 16 -19 40
q0 26 20 45t47 19q38 0 53 -40l56 -150h-54z" />
    <glyph glyph-name="Uacute" unicode="&#xda;" horiz-adv-x="692" 
d="M713 664l-85 -402q-29 -139 -105 -206.5t-202 -67.5q-108 0 -164 46.5t-56 135.5q0 42 9 84l64 301q4 17 4 37q0 23 -16.5 31.5t-63.5 9.5l7 31h235l-89 -416q-9 -42 -9 -77q0 -124 120 -124q76 0 127.5 52.5t72.5 152.5l87 412h64zM497 729h-54l120 150q32 40 70 40
q20 0 32 -11.5t12 -30.5q0 -17 -11 -34.5t-29 -27.5z" />
    <glyph glyph-name="Ucircumflex" unicode="&#xdb;" horiz-adv-x="692" 
d="M713 664l-85 -402q-29 -139 -105 -206.5t-202 -67.5q-108 0 -164 46.5t-56 135.5q0 42 9 84l64 301q4 17 4 37q0 23 -16.5 31.5t-63.5 9.5l7 31h235l-89 -416q-9 -42 -9 -77q0 -124 120 -124q76 0 127.5 52.5t72.5 152.5l87 412h64zM589 735l-96 68l-126 -68h-54l166 160
h68l98 -160h-56z" />
    <glyph glyph-name="Udieresis" unicode="&#xdc;" horiz-adv-x="692" 
d="M713 664l-85 -402q-29 -139 -105 -206.5t-202 -67.5q-108 0 -164 46.5t-56 135.5q0 42 9 84l64 301q4 17 4 37q0 23 -16.5 31.5t-63.5 9.5l7 31h235l-89 -416q-9 -42 -9 -77q0 -124 120 -124q76 0 127.5 52.5t72.5 152.5l87 412h64zM407 870q28 0 48 -20t20 -48
t-20.5 -48.5t-48.5 -20.5t-48 20t-20 49q0 28 20 48t49 20zM597 870q28 0 48 -20t20 -48t-20.5 -48.5t-48.5 -20.5t-48 20t-20 49q0 28 20 48t49 20z" />
    <glyph glyph-name="Yacute" unicode="&#xdd;" 
d="M420 302l-40 -189q-5 -27 -5 -42q0 -21 17 -30t63 -10l-7 -31h-236l64 302l-130 271q-19 34 -39 47t-53 13l7 31h204l137 -280l240 280h87zM483 729h-54l120 150q32 40 70 40q20 0 32 -11.5t12 -30.5q0 -17 -11 -34.5t-29 -27.5z" />
    <glyph glyph-name="Thorn" unicode="&#xde;" 
d="M248 148l-32 -148h-144l118 555q4 18 4 34q0 25 -17 34t-63 10l7 31h236l-25 -119h70q110 0 166.5 -40.5t56.5 -119.5q0 -78 -40 -133.5t-114 -80.5q-71 -23 -194 -23h-29zM259 202h43q74 0 118 39q27 23 43.5 65.5t16.5 87.5q0 70 -63 90q-22 6 -63 6q-25 0 -30 -6
t-13 -41z" />
    <glyph glyph-name="germandbls" unicode="&#xdf;" horiz-adv-x="522" 
d="M20 0l96 458q47 222 238 222q78 0 121 -32.5t43 -90.5q0 -65 -40 -115.5t-109 -75.5q72 -20 100 -49.5t28 -79.5q0 -106 -81.5 -174t-208.5 -71l10 46q57 13 84 46q19 23 29 37t21.5 47.5t11.5 72.5q0 46 -27 68.5t-87 30.5l11 50q67 18 97.5 59.5t30.5 123.5
q0 65 -48 65q-35 0 -56 -30.5t-37 -107.5l-106 -500h-121z" />
    <glyph glyph-name="agrave" unicode="&#xe0;" horiz-adv-x="526" 
d="M339 518l-98 82q-25 21 -25 52q0 24 17 40t43 16q45 0 61 -41l56 -149h-54zM496 410l-68 -326l-1 -10q0 -10 7 -10q10 0 39 24l20 -18q-41 -43 -69.5 -60.5t-58.5 -17.5t-46.5 16.5t-16.5 46.5q0 9 2 23q-38 -47 -72.5 -66.5t-79.5 -19.5q-55 0 -88.5 35t-33.5 92
q0 55 24.5 117t66.5 115q91 113 201 113q50 0 91 -35q20 -19 83 -19zM321 429q-30 0 -61 -30t-57 -84q-47 -100 -47 -193q0 -31 12.5 -51t31.5 -20q54 0 110 119q55 113 55 201q0 26 -12.5 42t-31.5 16z" />
    <glyph glyph-name="aacute" unicode="&#xe1;" horiz-adv-x="526" 
d="M368 518h-54l119 149q20 25 32.5 33t32.5 8t34.5 -13t14.5 -32q0 -34 -38 -58zM496 410l-68 -326l-1 -10q0 -10 7 -10q10 0 39 24l20 -18q-41 -43 -69.5 -60.5t-58.5 -17.5t-46.5 16.5t-16.5 46.5q0 9 2 23q-38 -47 -72.5 -66.5t-79.5 -19.5q-55 0 -88.5 35t-33.5 92
q0 55 24.5 117t66.5 115q91 113 201 113q50 0 91 -35q20 -19 83 -19zM321 429q-30 0 -61 -30t-57 -84q-47 -100 -47 -193q0 -31 12.5 -51t31.5 -20q54 0 110 119q55 113 55 201q0 26 -12.5 42t-31.5 16z" />
    <glyph glyph-name="acircumflex" unicode="&#xe2;" horiz-adv-x="526" 
d="M448 524l-97 68l-125 -68h-55l166 160h68l98 -160h-55zM496 410l-68 -326l-1 -10q0 -10 7 -10q10 0 39 24l20 -18q-41 -43 -69.5 -60.5t-58.5 -17.5t-46.5 16.5t-16.5 46.5q0 9 2 23q-38 -47 -72.5 -66.5t-79.5 -19.5q-55 0 -88.5 35t-33.5 92q0 55 24.5 117t66.5 115
q91 113 201 113q50 0 91 -35q20 -19 83 -19zM321 429q-30 0 -61 -30t-57 -84q-47 -100 -47 -193q0 -31 12.5 -51t31.5 -20q54 0 110 119q55 113 55 201q0 26 -12.5 42t-31.5 16z" />
    <glyph glyph-name="atilde" unicode="&#xe3;" horiz-adv-x="526" 
d="M484 658h45q-21 -68 -57 -106t-80 -38q-30 0 -75 27q-35 21 -54 21q-30 0 -52 -44h-46q46 144 138 144q31 0 73 -27q37 -21 55 -21q30 0 53 44zM496 410l-68 -326l-1 -10q0 -10 7 -10q10 0 39 24l20 -18q-41 -43 -69.5 -60.5t-58.5 -17.5t-46.5 16.5t-16.5 46.5q0 9 2 23
q-38 -47 -72.5 -66.5t-79.5 -19.5q-55 0 -88.5 35t-33.5 92q0 55 24.5 117t66.5 115q91 113 201 113q50 0 91 -35q20 -19 83 -19zM321 429q-30 0 -61 -30t-57 -84q-47 -100 -47 -193q0 -31 12.5 -51t31.5 -20q54 0 110 119q55 113 55 201q0 26 -12.5 42t-31.5 16z" />
    <glyph glyph-name="adieresis" unicode="&#xe4;" horiz-adv-x="526" 
d="M444 659q28 0 48 -20t20 -48t-20 -48.5t-48 -20.5q-29 0 -49 20t-20 49q0 28 20 48t49 20zM253 659q28 0 48 -20t20 -48q0 -29 -20.5 -49t-48.5 -20t-48 20t-20 49q0 28 20 48t49 20zM496 410l-68 -326l-1 -10q0 -10 7 -10q10 0 39 24l20 -18q-41 -43 -69.5 -60.5
t-58.5 -17.5t-46.5 16.5t-16.5 46.5q0 9 2 23q-38 -47 -72.5 -66.5t-79.5 -19.5q-55 0 -88.5 35t-33.5 92q0 55 24.5 117t66.5 115q91 113 201 113q50 0 91 -35q20 -19 83 -19zM321 429q-30 0 -61 -30t-57 -84q-47 -100 -47 -193q0 -31 12.5 -51t31.5 -20q54 0 110 119
q55 113 55 201q0 26 -12.5 42t-31.5 16z" />
    <glyph glyph-name="aring" unicode="&#xe5;" horiz-adv-x="526" 
d="M355 660q-19 0 -32.5 -13.5t-13.5 -32.5t13.5 -32.5t32.5 -13.5t32.5 13.5t13.5 32.5t-13.5 32.5t-32.5 13.5zM356 714q40 0 69.5 -29.5t29.5 -70.5t-29.5 -70.5t-70.5 -29.5q-42 0 -71 29.5t-29 71.5q0 41 29.5 70t71.5 29zM496 410l-68 -326l-1 -10q0 -10 7 -10
q10 0 39 24l20 -18q-41 -43 -69.5 -60.5t-58.5 -17.5t-46.5 16.5t-16.5 46.5q0 9 2 23q-38 -47 -72.5 -66.5t-79.5 -19.5q-55 0 -88.5 35t-33.5 92q0 55 24.5 117t66.5 115q91 113 201 113q50 0 91 -35q20 -19 83 -19zM321 429q-30 0 -61 -30t-57 -84q-47 -100 -47 -193
q0 -31 12.5 -51t31.5 -20q54 0 110 119q55 113 55 201q0 26 -12.5 42t-31.5 16z" />
    <glyph glyph-name="ae" unicode="&#xe6;" horiz-adv-x="648" 
d="M266 143l18 79q-151 -12 -151 -114q0 -23 10.5 -36.5t27.5 -13.5q31 0 59 25t36 60zM226 421l9 43q70 1 102 -7.5t48 -32.5q3 -5 11 -17q76 57 156 57q57 0 91.5 -25t34.5 -67q0 -86 -101 -126q-67 -25 -178 -26q-12 -41 -12 -83q0 -54 32 -82t100 -32l-6 -26
q-32 -4 -56 -4q-60 0 -98.5 15.5t-68.5 50.5q-78 -67 -172 -67q-54 0 -86 25t-32 68q0 41 28 79t75 61q70 34 191 43l9 49q7 38 7 50q0 29 -18.5 40.5t-65.5 13.5zM410 260q74 0 116 39t42 92q0 16 -9 26t-23 10q-35 0 -67.5 -43.5t-58.5 -123.5z" />
    <glyph glyph-name="ccedilla" unicode="&#xe7;" horiz-adv-x="410" 
d="M116 -102l56 99q-62 14 -96 56.5t-34 106.5q0 141 105 229q46 38 95.5 55t125.5 20l-9 -36q-53 -11 -81.5 -28.5t-53.5 -52.5q-54 -78 -54 -177q0 -119 114 -119q61 0 113 37l6 -28q-63 -63 -176 -68l-18 -32q8 1 15 1q37 0 59 -17.5t22 -46.5q0 -49 -43 -81t-109 -32
q-39 0 -88 20l23 42q32 -11 50 -11q26 0 44 14.5t18 36.5q0 20 -21 20q-9 0 -18 -8h-45z" />
    <glyph glyph-name="egrave" unicode="&#xe8;" horiz-adv-x="426" 
d="M297 23l-6 -26q-33 -5 -57 -5q-92 0 -142 41.5t-50 117.5q0 120 89 216.5t200 96.5q56 0 90.5 -25.5t34.5 -66.5q0 -91 -112 -137q-68 -26 -171 -29q-8 -43 -8 -66q0 -53 33 -84q29 -27 99 -33zM182 242q65 11 106 43q26 20 42 49.5t16 55.5q0 16 -8.5 26.5t-22.5 10.5
q-34 0 -69.5 -49.5t-63.5 -135.5zM325 518l-98 82q-25 21 -25 52q0 24 17 40t43 16q45 0 61 -41l56 -149h-54z" />
    <glyph glyph-name="eacute" unicode="&#xe9;" horiz-adv-x="426" 
d="M297 23l-6 -26q-33 -5 -57 -5q-92 0 -142 41.5t-50 117.5q0 120 89 216.5t200 96.5q56 0 90.5 -25.5t34.5 -66.5q0 -91 -112 -137q-68 -26 -171 -29q-8 -43 -8 -66q0 -53 33 -84q29 -27 99 -33zM182 242q65 11 106 43q26 20 42 49.5t16 55.5q0 16 -8.5 26.5t-22.5 10.5
q-34 0 -69.5 -49.5t-63.5 -135.5zM352 518h-54l119 149q20 25 33 33t32 8q21 0 35.5 -13t14.5 -32q0 -34 -39 -58z" />
    <glyph glyph-name="ecircumflex" unicode="&#xea;" horiz-adv-x="426" 
d="M297 23l-6 -26q-33 -5 -57 -5q-92 0 -142 41.5t-50 117.5q0 120 89 216.5t200 96.5q56 0 90.5 -25.5t34.5 -66.5q0 -91 -112 -137q-68 -26 -171 -29q-8 -43 -8 -66q0 -53 33 -84q29 -27 99 -33zM182 242q65 11 106 43q26 20 42 49.5t16 55.5q0 16 -8.5 26.5t-22.5 10.5
q-34 0 -69.5 -49.5t-63.5 -135.5zM444 524l-97 68l-125 -68h-55l166 160h68l98 -160h-55z" />
    <glyph glyph-name="edieresis" unicode="&#xeb;" horiz-adv-x="426" 
d="M297 23l-6 -26q-33 -5 -57 -5q-92 0 -142 41.5t-50 117.5q0 120 89 216.5t200 96.5q56 0 90.5 -25.5t34.5 -66.5q0 -91 -112 -137q-68 -26 -171 -29q-8 -43 -8 -66q0 -53 33 -84q29 -27 99 -33zM182 242q65 11 106 43q26 20 42 49.5t16 55.5q0 16 -8.5 26.5t-22.5 10.5
q-34 0 -69.5 -49.5t-63.5 -135.5zM430 659q28 0 48 -20t20 -48t-20 -48.5t-48 -20.5q-29 0 -49 20t-20 49q0 28 20 48t49 20zM239 659q28 0 48 -20t20 -48q0 -29 -20.5 -49t-48.5 -20t-48 20t-20 49q0 28 20 48t49 20z" />
    <glyph glyph-name="igrave" unicode="&#xec;" horiz-adv-x="282" 
d="M260 464l-76 -372q-3 -14 -3 -20q0 -9 6 -9q12 0 41 26l19 -19q-72 -78 -132 -78q-25 0 -41 15.5t-16 39.5q0 26 14 99l48 226q3 15 3 19q0 13 -23 13h-34l4 26zM186 518l-98 82q-25 21 -25 52q0 24 17 40t43 16q45 0 61 -41l56 -149h-54z" />
    <glyph glyph-name="iacute" unicode="&#xed;" horiz-adv-x="282" 
d="M260 464l-76 -372q-3 -14 -3 -20q0 -9 6 -9q12 0 41 26l19 -19q-72 -78 -132 -78q-25 0 -41 15.5t-16 39.5q0 26 14 99l48 226q3 15 3 19q0 13 -23 13h-34l4 26zM214 518h-54l119 149q20 25 33 33t32 8q21 0 35.5 -13t14.5 -32q0 -34 -39 -58z" />
    <glyph glyph-name="icircumflex" unicode="&#xee;" horiz-adv-x="282" 
d="M260 464l-76 -372q-3 -16 -3 -20q0 -9 6 -9q10 0 41 26l19 -19q-72 -78 -132 -78q-25 0 -41 15.5t-16 39.5q0 27 15 99l47 226q3 14 3 19q0 13 -23 13h-34l4 26zM318 524l-91 68l-118 -68h-55l159 160h68l92 -160h-55z" />
    <glyph glyph-name="idieresis" unicode="&#xef;" horiz-adv-x="282" 
d="M260 464l-76 -372q-3 -14 -3 -20q0 -9 6 -9q12 0 41 26l19 -19q-72 -78 -132 -78q-25 0 -41 15.5t-16 39.5q0 26 14 99l48 226q3 15 3 19q0 13 -23 13h-34l4 26zM137 659q28 0 48 -20t20 -48q0 -29 -20.5 -49t-48.5 -20t-48 20t-20 49q0 28 20 48t49 20zM316 659
q28 0 48 -20t20 -48q0 -29 -20 -49t-49 -20q-28 0 -48 20t-20 49q0 28 20 48t49 20z" />
    <glyph glyph-name="eth" unicode="&#xf0;" horiz-adv-x="523" 
d="M354 560l-94 -47l-24 49l94 47q-30 47 -63 47q-20 0 -53 -11l6 28q76 33 135 33q42 0 78 -45l78 40l25 -49l-75 -38q44 -99 44 -207q0 -97 -24.5 -181.5t-67.5 -137.5q-81 -96 -203 -96q-75 0 -123.5 51t-48.5 129q0 91 61 182q35 51 89 80.5t112 29.5q53 0 84 -38
q-4 65 -30 134zM300 426q-54 0 -93 -89q-40 -89 -40 -187q0 -56 17 -88t47 -32q51 0 89 87q42 99 42 191q0 118 -62 118z" />
    <glyph glyph-name="ntilde" unicode="&#xf1;" horiz-adv-x="538" 
d="M470 89l19 -19q-72 -78 -133 -78q-25 0 -40.5 15.5t-15.5 40.5q0 33 17 110l33 150q10 48 10 70q0 28 -26 28q-36 0 -68 -49.5t-51 -133.5l-49 -223h-122l80 372q3 14 3 21q0 11 -23 11h-34l4 26l190 34l-12 -62q54 62 130 62q50 0 74 -22.5t24 -71.5q0 -22 -8 -64
l-44 -206q-4 -18 -4 -29q0 -8 6 -8q9 0 40 26zM488 658h45q-22 -68 -58 -106t-79 -38q-30 0 -75 27q-37 21 -54 21q-32 0 -52 -44h-46q22 70 57.5 107t79.5 37q30 0 74 -27q35 -21 55 -21q29 0 53 44z" />
    <glyph glyph-name="ograve" unicode="&#xf2;" horiz-adv-x="502" 
d="M327 464q77 0 121.5 -44.5t44.5 -120.5q0 -116 -89.5 -211.5t-198.5 -95.5q-79 0 -125 43.5t-46 118.5q0 105 76 198q89 112 217 112zM308 427q-50 0 -85 -67q-62 -113 -62 -240q0 -41 16.5 -66t43.5 -25q49 0 84 63q60 112 60 241q0 44 -15 69t-42 25zM340 518l-98 82
q-25 21 -25 52q0 24 17 40t43 16q45 0 61 -41l56 -149h-54z" />
    <glyph glyph-name="oacute" unicode="&#xf3;" horiz-adv-x="502" 
d="M327 464q77 0 121.5 -44.5t44.5 -120.5q0 -116 -89.5 -211.5t-198.5 -95.5q-79 0 -125 43.5t-46 118.5q0 105 76 198q89 112 217 112zM308 427q-50 0 -85 -67q-62 -113 -62 -240q0 -41 16.5 -66t43.5 -25q49 0 84 63q60 112 60 241q0 44 -15 69t-42 25zM328 518h-54
l119 149q20 25 32.5 33t32.5 8t34.5 -13t14.5 -32q0 -34 -38 -58z" />
    <glyph glyph-name="ocircumflex" unicode="&#xf4;" horiz-adv-x="502" 
d="M327 464q77 0 121.5 -44.5t44.5 -120.5q0 -116 -89.5 -211.5t-198.5 -95.5q-79 0 -125 43.5t-46 118.5q0 105 76 198q89 112 217 112zM308 427q-50 0 -85 -67q-62 -113 -62 -240q0 -41 16.5 -66t43.5 -25q49 0 84 63q60 112 60 241q0 44 -15 69t-42 25zM446 524l-97 68
l-125 -68h-55l166 160h68l98 -160h-55z" />
    <glyph glyph-name="otilde" unicode="&#xf5;" horiz-adv-x="502" 
d="M327 464q77 0 121.5 -44.5t44.5 -120.5q0 -116 -89.5 -211.5t-198.5 -95.5q-79 0 -125 43.5t-46 118.5q0 105 76 198q89 112 217 112zM308 427q-50 0 -85 -67q-62 -113 -62 -240q0 -41 16.5 -66t43.5 -25q49 0 84 63q60 112 60 241q0 44 -15 69t-42 25zM485 658h45
q-22 -68 -58 -106t-79 -38q-30 0 -75 27q-37 21 -54 21q-32 0 -52 -44h-46q22 70 57.5 107t79.5 37q30 0 74 -27q35 -21 55 -21q29 0 53 44z" />
    <glyph glyph-name="odieresis" unicode="&#xf6;" horiz-adv-x="502" 
d="M327 464q77 0 121.5 -44.5t44.5 -120.5q0 -116 -89.5 -211.5t-198.5 -95.5q-79 0 -125 43.5t-46 118.5q0 105 76 198q89 112 217 112zM308 427q-50 0 -85 -67q-62 -113 -62 -240q0 -41 16.5 -66t43.5 -25q49 0 84 63q60 112 60 241q0 44 -15 69t-42 25zM445 659
q28 0 48 -20t20 -48t-20 -48.5t-48 -20.5q-29 0 -49 20t-20 49q0 28 20 48t49 20zM254 659q28 0 48 -20t20 -48q0 -29 -20 -49t-49 -20q-28 0 -48 20t-20 49q0 28 20 48t49 20z" />
    <glyph glyph-name="divide" unicode="&#xf7;" horiz-adv-x="592" 
d="M539 201h-480l16 78h480zM338 490q35 0 58.5 -23.5t23.5 -57.5t-23.5 -57.5t-57.5 -23.5q-33 0 -57 23.5t-24 56.5q0 35 23 58.5t57 23.5zM271 154q35 0 58.5 -23.5t23.5 -57.5t-23.5 -57.5t-57.5 -23.5q-33 0 -57 23.5t-24 56.5q0 35 23 58.5t57 23.5z" />
    <glyph glyph-name="oslash" unicode="&#xf8;" horiz-adv-x="529" 
d="M531 529l-81 -100q67 -54 67 -144q0 -120 -85.5 -206.5t-203.5 -86.5q-62 0 -108 23l-74 -92l-46 12l84 104q-52 52 -52 132q0 58 24.5 115t66.5 98q83 80 201 80q50 0 88 -15l73 92zM384 345l-211 -263q22 -51 69 -51q84 0 128 145q18 63 18 119q0 23 -4 50zM161 135
l206 258q-22 32 -58 32q-49 0 -85 -48t-55 -137q-9 -43 -9 -81q0 -12 1 -24z" />
    <glyph glyph-name="ugrave" unicode="&#xf9;" horiz-adv-x="505" 
d="M290 518l-98 82q-25 21 -25 52q0 24 17 40t43 16q46 0 61 -41l56 -149h-54zM450 89l19 -19q-73 -78 -132 -78q-24 0 -40.5 15t-16.5 37q0 9 1 15q-33 -37 -64 -52t-73 -15q-96 0 -96 87q0 33 8 71l47 222q3 14 3 18q0 8 -4.5 11t-18.5 3h-34l4 26l190 34l-69 -332
q-6 -30 -6 -49q0 -33 26 -33q36 0 68.5 50t50.5 133l48 223h123l-77 -356q-4 -19 -4 -28t7 -9q10 0 40 26z" />
    <glyph glyph-name="uacute" unicode="&#xfa;" horiz-adv-x="505" 
d="M325 518h-54l119 149q20 25 33 33t32 8q21 0 35.5 -13t14.5 -32q0 -34 -39 -58zM450 89l19 -19q-73 -78 -132 -78q-24 0 -40.5 15t-16.5 37q0 9 1 15q-33 -37 -64 -52t-73 -15q-96 0 -96 87q0 33 8 71l47 222q3 14 3 18q0 8 -4.5 11t-18.5 3h-34l4 26l190 34l-69 -332
q-6 -30 -6 -49q0 -33 26 -33q36 0 68.5 50t50.5 133l48 223h123l-77 -356q-4 -19 -4 -28t7 -9q10 0 40 26z" />
    <glyph glyph-name="ucircumflex" unicode="&#xfb;" horiz-adv-x="505" 
d="M423 524l-97 68l-125 -68h-55l166 160h68l98 -160h-55zM450 89l19 -19q-73 -78 -132 -78q-24 0 -40.5 15t-16.5 37q0 9 1 15q-33 -37 -64 -52t-73 -15q-96 0 -96 87q0 33 8 71l47 222q3 14 3 18q0 8 -4.5 11t-18.5 3h-34l4 26l190 34l-69 -332q-6 -30 -6 -49
q0 -33 26 -33q36 0 68.5 50t50.5 133l48 223h123l-77 -356q-4 -19 -4 -28t7 -9q10 0 40 26z" />
    <glyph glyph-name="udieresis" unicode="&#xfc;" horiz-adv-x="505" 
d="M417 659q28 0 48 -20t20 -48t-20 -48.5t-48 -20.5q-29 0 -49 20t-20 49q0 28 20 48t49 20zM226 659q28 0 48 -20t20 -48q0 -29 -20 -49t-49 -20q-28 0 -48 20t-20 49q0 28 20 48t49 20zM450 89l19 -19q-73 -78 -132 -78q-24 0 -40.5 15t-16.5 37q0 9 1 15
q-33 -37 -64 -52t-73 -15q-96 0 -96 87q0 33 8 71l47 222q3 14 3 18q0 8 -4.5 11t-18.5 3h-34l4 26l190 34l-69 -332q-6 -30 -6 -49q0 -33 26 -33q36 0 68.5 50t50.5 133l48 223h123l-77 -356q-4 -19 -4 -28t7 -9q10 0 40 26z" />
    <glyph glyph-name="yacute" unicode="&#xfd;" horiz-adv-x="462" 
d="M211 -25l-71 333q-8 39 -24 65t-32 26q-20 0 -52 -22v30q80 57 132 57q56 0 84 -130l50 -232q121 195 132 354h42q-8 -118 -69.5 -257.5t-154.5 -253.5q-74 -88 -142.5 -129t-143.5 -44l8 37q54 4 120.5 50t120.5 116zM323 518h-54l119 149q20 25 33 33t32 8
q21 0 35.5 -13t14.5 -32q0 -34 -39 -58z" />
    <glyph glyph-name="thorn" unicode="&#xfe;" horiz-adv-x="530" 
d="M108 646l4 26l190 34l-68 -325q40 46 73 64.5t75 18.5q58 0 93 -36t35 -95q0 -56 -22.5 -117t-62.5 -110q-92 -114 -209 -114q-37 0 -58 26l-52 -246h-120l176 842q3 12 3 18q0 8 -4.5 11t-18.5 3h-34zM338 405q-25 0 -53 -30.5t-53 -85.5q-56 -119 -56 -207
q0 -23 12 -37.5t31 -14.5q64 0 117 112q47 97 47 191q0 32 -12.5 52t-32.5 20z" />
    <glyph glyph-name="ydieresis" unicode="&#xff;" horiz-adv-x="462" 
d="M420 659q28 0 48 -20t20 -48q0 -29 -20 -49t-49 -20q-28 0 -48 20t-20 49q0 28 20 48t49 20zM230 659q28 0 48 -20t20 -48q0 -29 -20 -49t-49 -20q-28 0 -48 20t-20 49q0 28 20 48t49 20zM211 -25l-71 333q-8 39 -24 65t-32 26q-18 0 -52 -22v30q80 57 132 57
q56 0 84 -130l50 -232q121 195 132 354h42q-8 -118 -69.5 -257.5t-154.5 -253.5q-74 -88 -142.5 -129t-143.5 -44l8 37q54 4 120.5 50t120.5 116z" />
    <glyph glyph-name="Amacron" unicode="&#x100;" horiz-adv-x="646" 
d="M440 0l-35 186h-252l-112 -186h-65l329 546q25 42 25 58q0 28 -78 29l7 31h203l111 -577q6 -31 22 -43.5t48 -12.5l-7 -31h-196zM345 502l-159 -262h209zM253 750l14 64h310l-14 -64h-310z" />
    <glyph glyph-name="amacron" unicode="&#x101;" horiz-adv-x="526" 
d="M189 538l14 64h296l-14 -64h-296zM496 410l-68 -326l-1 -10q0 -10 7 -10q10 0 39 24l20 -18q-41 -43 -69.5 -60.5t-58.5 -17.5t-46.5 16.5t-16.5 46.5q0 9 2 23q-38 -47 -72.5 -66.5t-79.5 -19.5q-55 0 -88.5 35t-33.5 92q0 55 24.5 117t66.5 115q91 113 201 113
q50 0 91 -35q20 -19 83 -19zM321 429q-30 0 -61 -30t-57 -84q-47 -100 -47 -193q0 -31 12.5 -51t31.5 -20q54 0 110 119q55 113 55 201q0 26 -12.5 42t-31.5 16z" />
    <glyph glyph-name="Abreve" unicode="&#x102;" horiz-adv-x="646" 
d="M440 0l-35 186h-252l-112 -186h-65l329 546q25 42 25 58q0 28 -78 29l7 31h203l111 -577q6 -31 22 -43.5t48 -12.5l-7 -31h-196zM345 502l-159 -262h209zM525 883h44q-43 -162 -168 -162q-106 0 -106 112q0 19 5 50h44v-8q0 -70 75 -70q77 0 106 78z" />
    <glyph glyph-name="abreve" unicode="&#x103;" horiz-adv-x="526" 
d="M457 674h44q-43 -162 -168 -162q-106 0 -106 112q0 19 5 50h44q0 -41 17.5 -59.5t57.5 -18.5q75 0 106 78zM496 410l-68 -326l-1 -10q0 -10 7 -10q10 0 39 24l20 -18q-41 -43 -69.5 -60.5t-58.5 -17.5t-46.5 16.5t-16.5 46.5q0 9 2 23q-38 -47 -72.5 -66.5t-79.5 -19.5
q-55 0 -88.5 35t-33.5 92q0 55 24.5 117t66.5 115q91 113 201 113q50 0 91 -35q20 -19 83 -19zM321 429q-30 0 -61 -30t-57 -84q-47 -100 -47 -193q0 -31 12.5 -51t31.5 -20q54 0 110 119q55 113 55 201q0 26 -12.5 42t-31.5 16z" />
    <glyph glyph-name="Aogonek" unicode="&#x104;" horiz-adv-x="646" 
d="M636 0h-68q-63 -61 -63 -106q0 -14 12 -23t32 -9q25 0 59 14l-14 -62q-48 -18 -89 -18q-50 0 -81.5 20.5t-31.5 53.5q0 38 35 75q19 20 75 55h-62l-35 186h-252l-112 -186h-65l329 546q25 42 25 58q0 28 -78 29l7 31h203l111 -577q6 -31 22 -43.5t48 -12.5zM345 502
l-159 -262h209z" />
    <glyph glyph-name="aogonek" unicode="&#x105;" horiz-adv-x="526" 
d="M439 -124l-14 -62q-48 -18 -89 -18q-50 0 -81.5 20.5t-31.5 53.5q0 38 35 75q18 19 74 54q-30 16 -30 56q0 9 2 23q-38 -47 -72.5 -66.5t-79.5 -19.5q-55 0 -88.5 35t-33.5 92q0 55 24.5 117t66.5 115q91 113 201 113q50 0 91 -35q22 -20 83 -19l-68 -326q-1 -6 -1 -10
q0 -10 7 -10q10 0 39 24l20 -18q-56 -60 -98 -74q-59 -61 -59 -102q0 -32 44 -32q25 0 59 14zM321 429q-30 0 -61 -30t-57 -84q-47 -100 -47 -194q0 -30 12.5 -50t31.5 -20q54 0 110 119q55 115 55 201q0 26 -12.5 42t-31.5 16z" />
    <glyph glyph-name="Cacute" unicode="&#x106;" 
d="M554 97l8 -45q-111 -64 -226 -64q-128 0 -202 70t-74 191q0 86 32.5 165.5t90.5 135.5q70 67 176 101q71 22 192 25l-10 -51q-58 -3 -94 -13.5t-73 -35.5q-73 -49 -116 -142t-43 -202q0 -185 161 -185q81 0 178 50zM484 729h-54l120 150q32 40 70 40q20 0 32 -11.5
t12 -30.5q0 -17 -11 -34.5t-29 -27.5z" />
    <glyph glyph-name="cacute" unicode="&#x107;" horiz-adv-x="410" 
d="M397 88l6 -28q-77 -68 -183 -68q-81 0 -129.5 46t-48.5 122q0 141 105 229q46 38 95.5 55t125.5 20l-9 -36q-53 -11 -81.5 -28.5t-53.5 -52.5q-54 -78 -54 -177q0 -119 114 -119q61 0 113 37zM287 518h-54l119 149q20 25 32.5 33t32.5 8t34.5 -13t14.5 -32q0 -34 -38 -58
z" />
    <glyph glyph-name="Ccircumflex" unicode="&#x108;" 
d="M554 97l8 -45q-111 -64 -226 -64q-128 0 -202 70t-74 191q0 86 32.5 165.5t90.5 135.5q70 67 176 101q71 22 192 25l-10 -51q-58 -3 -94 -13.5t-73 -35.5q-73 -49 -116 -142t-43 -202q0 -185 161 -185q81 0 178 50zM541 735l-95 68l-127 -68h-54l166 160h68l98 -160h-56z
" />
    <glyph glyph-name="Cdotaccent" unicode="&#x10a;" 
d="M554 97l8 -45q-111 -64 -226 -64q-128 0 -202 70t-74 191q0 86 32.5 165.5t90.5 135.5q70 67 176 101q71 22 192 25l-10 -51q-58 -3 -94 -13.5t-73 -35.5q-73 -49 -116 -142t-43 -202q0 -185 161 -185q81 0 178 50zM456 885q32 0 56 -24t24 -57q0 -34 -23.5 -57.5
t-57.5 -23.5t-57.5 24t-23.5 58q0 33 24 56.5t58 23.5z" />
    <glyph glyph-name="cdotaccent" unicode="&#x10b;" horiz-adv-x="410" 
d="M397 88l6 -28q-77 -68 -183 -68q-81 0 -129.5 46t-48.5 122q0 141 105 229q46 38 95.5 55t125.5 20l-9 -36q-53 -11 -81.5 -28.5t-53.5 -52.5q-54 -78 -54 -177q0 -119 114 -119q61 0 113 37zM315 704q32 0 56 -24t24 -57q0 -34 -23.5 -57.5t-57.5 -23.5t-57.5 24
t-23.5 58q0 33 24 56.5t58 23.5z" />
    <glyph glyph-name="Ccaron" unicode="&#x10c;" 
d="M554 97l8 -45q-111 -64 -226 -64q-128 0 -202 70t-74 191q0 86 32.5 165.5t90.5 135.5q70 67 176 101q71 22 192 25l-10 -51q-58 -3 -94 -13.5t-73 -35.5q-73 -49 -116 -142t-43 -202q0 -185 161 -185q81 0 178 50zM387 882l97 -68l125 68h56l-166 -160h-68l-98 160h54z
" />
    <glyph glyph-name="ccaron" unicode="&#x10d;" horiz-adv-x="410" 
d="M397 88l6 -28q-77 -68 -183 -68q-81 0 -129.5 46t-48.5 122q0 141 105 229q46 38 95.5 55t125.5 20l-9 -36q-53 -11 -81.5 -28.5t-53.5 -52.5q-54 -78 -54 -177q0 -119 114 -119q61 0 113 37zM217 684l97 -68l125 68h55l-166 -160h-68l-98 160h55z" />
    <glyph glyph-name="Dcaron" unicode="&#x10e;" horiz-adv-x="734" 
d="M121 664h280q336 0 336 -235q0 -75 -24 -148.5t-66 -126.5q-122 -154 -383 -154h-192l118 555q4 17 4 37q0 23 -16.5 31.5t-62.5 9.5zM334 559l-97 -454q-4 -16 -4 -28t8.5 -17t29.5 -5q150 0 229 100q39 50 63 127t24 153q0 174 -201 174q-29 0 -37 -7t-15 -43zM363 882
l98 -68l124 68h56l-166 -160h-68l-98 160h54z" />
    <glyph glyph-name="dcaron" unicode="&#x10f;" horiz-adv-x="593" 
d="M564 706l-130 -614q-3 -14 -3 -20q0 -9 8 -9q9 0 39 26l19 -19q-74 -78 -133 -78q-27 0 -42.5 17.5t-15.5 47.5q0 3 2 21q-42 -50 -73 -68t-75 -18q-57 0 -91.5 36t-34.5 96q0 127 91 233.5t198 106.5q26 0 38.5 -5t24.5 -21l38 176q3 14 3 19q0 13 -23 13h-34l4 26z
M325 426q-58 0 -108 -93q-56 -110 -56 -210q0 -32 12 -52t32 -20q53 0 109 120q22 45 38 105.5t16 95.5q0 25 -11.5 39.5t-31.5 14.5zM586 455l-27 21q42 28 67 66q15 22 15 29q0 3 -4 5q-19 5 -33 24t-14 39q0 27 20.5 47t48.5 20q27 0 48 -20.5t21 -46.5q0 -30 -21 -67
q-37 -68 -121 -117z" />
    <glyph glyph-name="Dcroat" unicode="&#x110;" horiz-adv-x="734" 
d="M151 375l39 180q4 26 4 37q0 23 -16.5 31.5t-62.5 9.5l6 31h280q335 0 335 -235q0 -75 -24 -148.5t-66 -126.5q-122 -154 -382 -154h-192l68 320h-92l12 55h91zM282 320l-45 -215q-5 -20 -5 -28q0 -12 8.5 -17t29.5 -5q150 0 229 100q39 50 63 127t24 153q0 174 -200 174
q-30 0 -37 -7t-15 -43l-40 -184h142l-12 -55h-142z" />
    <glyph glyph-name="dcroat" unicode="&#x111;" horiz-adv-x="529" 
d="M416 579l8 35q3 14 3 19q0 13 -23 13h-34l4 26l190 34l-27 -127h67l-12 -55h-66l-92 -432q-3 -14 -3 -20q0 -9 8 -9q9 0 39 26l19 -19q-74 -78 -133 -78q-27 0 -42.5 17.5t-15.5 47.5q0 3 2 21q-42 -50 -73 -68t-75 -18q-57 0 -91.5 36t-34.5 96q0 127 91 233.5
t198 106.5q26 0 38.5 -5t24.5 -21l19 86h-114l12 55h113zM325 426q-58 0 -108 -93q-56 -110 -56 -210q0 -32 12 -52t32 -20q53 0 109 120q22 45 38 105.5t16 95.5q0 25 -11.5 39.5t-31.5 14.5z" />
    <glyph glyph-name="Emacron" unicode="&#x112;" horiz-adv-x="629" 
d="M532 0h-460l118 555q4 17 4 36q0 23 -16.5 32t-62.5 10l6 31h538l-21 -141h-31q-1 55 -20.5 70.5t-90.5 15.5h-118q-22 0 -28.5 -7.5t-13.5 -39.5l-40 -187h168l-12 -55h-168l-45 -211q-5 -25 -5 -34q0 -12 14.5 -16t59.5 -4h108q53 0 94 39q23 21 52 70h31zM280 750
l14 64h310l-14 -64h-310z" />
    <glyph glyph-name="emacron" unicode="&#x113;" horiz-adv-x="426" 
d="M297 23l-6 -26q-33 -5 -57 -5q-92 0 -142 41.5t-50 117.5q0 120 89 216.5t200 96.5q56 0 90.5 -25.5t34.5 -66.5q0 -91 -112 -137q-68 -26 -171 -29q-8 -43 -8 -66q0 -53 33 -84q29 -27 99 -33zM182 242q65 11 106 43q26 20 42 49.5t16 55.5q0 16 -8.5 26.5t-22.5 10.5
q-34 0 -69.5 -49.5t-63.5 -135.5zM175 538l14 64h296l-14 -64h-296z" />
    <glyph glyph-name="Ebreve" unicode="&#x114;" horiz-adv-x="629" 
d="M532 0h-460l118 555q4 17 4 36q0 23 -16.5 32t-62.5 10l6 31h538l-21 -141h-31q-1 55 -20.5 70.5t-90.5 15.5h-118q-22 0 -28.5 -7.5t-13.5 -39.5l-40 -187h168l-12 -55h-168l-45 -211q-5 -25 -5 -34q0 -12 14.5 -16t59.5 -4h108q53 0 94 39q23 21 52 70h31zM567 883h44
q-43 -162 -168 -162q-106 0 -106 112q0 19 5 50h44v-8q0 -70 75 -70q77 0 106 78z" />
    <glyph glyph-name="ebreve" unicode="&#x115;" horiz-adv-x="426" 
d="M297 23l-6 -26q-33 -5 -57 -5q-92 0 -142 41.5t-50 117.5q0 120 89 216.5t200 96.5q56 0 90.5 -25.5t34.5 -66.5q0 -91 -112 -137q-68 -26 -171 -29q-8 -43 -8 -66q0 -53 33 -84q29 -27 99 -33zM182 242q65 11 106 43q26 20 42 49.5t16 55.5q0 16 -8.5 26.5t-22.5 10.5
q-34 0 -69.5 -49.5t-63.5 -135.5zM443 674h44q-43 -162 -168 -162q-106 0 -106 112q0 19 5 50h44v-8q0 -70 75 -70t106 78z" />
    <glyph glyph-name="Edotaccent" unicode="&#x116;" horiz-adv-x="629" 
d="M532 0h-460l118 555q4 17 4 36q0 23 -16.5 32t-62.5 10l6 31h538l-21 -141h-31q-1 55 -20.5 70.5t-90.5 15.5h-118q-22 0 -28.5 -7.5t-13.5 -39.5l-40 -187h168l-12 -55h-168l-45 -211q-5 -25 -5 -34q0 -12 14.5 -16t59.5 -4h108q53 0 94 39q23 21 52 70h31zM425 885
q32 0 56 -24t24 -57q0 -34 -23.5 -57.5t-57.5 -23.5t-57.5 24t-23.5 58q0 33 24 56.5t58 23.5z" />
    <glyph glyph-name="edotaccent" unicode="&#x117;" horiz-adv-x="426" 
d="M297 23l-6 -26q-33 -5 -57 -5q-92 0 -142 41.5t-50 117.5q0 120 89 216.5t200 96.5q56 0 90.5 -25.5t34.5 -66.5q0 -91 -112 -137q-68 -26 -171 -29q-8 -43 -8 -66q0 -53 33 -84q29 -27 99 -33zM182 242q65 11 106 43q26 20 42 49.5t16 55.5q0 16 -8.5 26.5t-22.5 10.5
q-34 0 -69.5 -49.5t-63.5 -135.5zM343 704q32 0 56 -24t24 -57q0 -34 -23.5 -57.5t-57.5 -23.5t-57.5 24t-23.5 58q0 33 24 56.5t58 23.5z" />
    <glyph glyph-name="Eogonek" unicode="&#x118;" horiz-adv-x="629" 
d="M417 0h-345l118 555q4 17 4 37q0 22 -16.5 31t-62.5 10l6 31h538l-21 -141h-31q-1 55 -20.5 70.5t-90.5 15.5h-118q-22 0 -28.5 -7.5t-13.5 -39.5l-40 -187h168l-12 -55h-168l-45 -211q-5 -25 -5 -34q0 -12 14.5 -16t59.5 -4h108q53 0 94 39q23 21 52 70h31l-61 -164h-49
q-63 -60 -63 -106q0 -14 12 -23t32 -9q25 0 59 14l-14 -62q-48 -18 -89 -18q-50 0 -81.5 20.5t-31.5 53.5q0 34 25.5 64t84.5 66z" />
    <glyph glyph-name="eogonek" unicode="&#x119;" horiz-adv-x="426" 
d="M334 -124l-14 -62q-48 -18 -89 -18q-50 0 -81.5 20.5t-31.5 53.5q0 38 35 75q14 16 63 48q-85 5 -129.5 45t-44.5 113q0 120 89 216.5t200 96.5q56 0 90.5 -25.5t34.5 -66.5q0 -91 -112 -137q-68 -26 -171 -29q-8 -43 -8 -66q0 -53 33 -84q29 -27 99 -33l-6 -26
q-60 -65 -60 -103q0 -14 12 -23t32 -9q25 0 59 14zM182 242q65 11 106 43q26 20 42 49.5t16 55.5q0 16 -8.5 26.5t-22.5 10.5q-34 0 -69.5 -49.5t-63.5 -135.5z" />
    <glyph glyph-name="Ecaron" unicode="&#x11a;" horiz-adv-x="629" 
d="M532 0h-460l118 555q4 17 4 36q0 23 -16.5 32t-62.5 10l6 31h538l-21 -141h-31q-1 55 -20.5 70.5t-90.5 15.5h-118q-22 0 -28.5 -7.5t-13.5 -39.5l-40 -187h168l-12 -55h-168l-45 -211q-5 -25 -5 -34q0 -12 14.5 -16t59.5 -4h108q53 0 94 39q23 21 52 70h31zM343 882
l98 -68l124 68h56l-166 -160h-68l-98 160h54z" />
    <glyph glyph-name="ecaron" unicode="&#x11b;" horiz-adv-x="426" 
d="M297 23l-6 -26q-33 -5 -57 -5q-92 0 -142 41.5t-50 117.5q0 120 89 216.5t200 96.5q56 0 90.5 -25.5t34.5 -66.5q0 -91 -112 -137q-68 -26 -171 -29q-8 -43 -8 -66q0 -53 33 -84q29 -27 99 -33zM182 242q65 11 106 43q26 20 42 49.5t16 55.5q0 16 -8.5 26.5t-22.5 10.5
q-34 0 -69.5 -49.5t-63.5 -135.5zM243 684l97 -68l125 68h55l-166 -160h-68l-98 160h55z" />
    <glyph glyph-name="Gcircumflex" unicode="&#x11c;" horiz-adv-x="660" 
d="M663 308l-52 -247q-5 -26 -96.5 -49.5t-184.5 -23.5q-124 0 -197 71t-73 190q0 86 32.5 165.5t90.5 135.5q70 67 176 101q71 22 192 25l-10 -51q-68 -5 -108.5 -19t-79.5 -44q-64 -50 -101 -138.5t-37 -191.5q0 -185 163 -185q85 0 91 27l28 128q3 17 3 32
q0 25 -16.5 33.5t-63.5 9.5l7 31h236zM572 735l-96 68l-126 -68h-54l166 160h68l98 -160h-56z" />
    <glyph glyph-name="gcircumflex" unicode="&#x11d;" horiz-adv-x="496" 
d="M94 -227l9 29q86 5 146 36t60 70q0 41 -157 57q-139 12 -139 75q0 34 28 66.5t93 74.5q-50 40 -50 93q0 74 74 132.5t168 58.5q70 0 114.5 -37.5t44.5 -96.5q0 -76 -68 -133t-160 -57q-37 0 -88 18q-38 -38 -38 -57q0 -23 43 -28l35 -4q204 -26 204 -124q0 -85 -87 -130
q-78 -40 -232 -43zM317 426q-52 0 -87 -48t-35 -118q0 -37 18 -58.5t48 -21.5q44 0 77.5 51t33.5 117q0 36 -15 57t-40 21zM431 524l-97 68l-125 -68h-55l166 160h68l98 -160h-55z" />
    <glyph glyph-name="Gbreve" unicode="&#x11e;" horiz-adv-x="660" 
d="M663 308l-52 -247q-5 -26 -96.5 -49.5t-184.5 -23.5q-124 0 -197 71t-73 190q0 86 32.5 165.5t90.5 135.5q70 67 176 101q71 22 192 25l-10 -51q-68 -5 -108.5 -19t-79.5 -44q-64 -50 -101 -138.5t-37 -191.5q0 -185 163 -185q85 0 91 27l28 128q3 17 3 32
q0 25 -16.5 33.5t-63.5 9.5l7 31h236zM580 883h44q-43 -162 -168 -162q-106 0 -106 112q0 19 5 50h44v-8q0 -70 75 -70q77 0 106 78z" />
    <glyph glyph-name="gbreve" unicode="&#x11f;" horiz-adv-x="496" 
d="M94 -227l9 29q86 5 146 36t60 70q0 41 -157 57q-139 12 -139 75q0 34 28 66.5t93 74.5q-50 40 -50 93q0 74 74 132.5t168 58.5q70 0 114.5 -37.5t44.5 -96.5q0 -76 -68 -133t-160 -57q-37 0 -88 18q-38 -38 -38 -57q0 -23 43 -28l35 -4q204 -26 204 -124q0 -85 -87 -130
q-78 -40 -232 -43zM317 426q-52 0 -87 -48t-35 -118q0 -37 18 -58.5t48 -21.5q44 0 77.5 51t33.5 117q0 36 -15 57t-40 21zM445 674h44q-45 -162 -168 -162q-107 0 -107 112q0 20 6 50h44q-1 -4 -1 -8q0 -70 75 -70q76 0 107 78z" />
    <glyph glyph-name="Gdotaccent" unicode="&#x120;" horiz-adv-x="660" 
d="M663 308l-52 -247q-5 -26 -96.5 -49.5t-184.5 -23.5q-124 0 -197 71t-73 190q0 86 32.5 165.5t90.5 135.5q70 67 176 101q71 22 192 25l-10 -51q-68 -5 -108.5 -19t-79.5 -44q-64 -50 -101 -138.5t-37 -191.5q0 -185 163 -185q85 0 91 27l28 128q3 17 3 32
q0 25 -16.5 33.5t-63.5 9.5l7 31h236zM450 885q32 0 56 -24t24 -57q0 -34 -23.5 -57.5t-57.5 -23.5t-57.5 24t-23.5 58q0 33 24 56.5t58 23.5z" />
    <glyph glyph-name="gdotaccent" unicode="&#x121;" horiz-adv-x="496" 
d="M94 -227l9 29q86 5 146 36t60 70q0 41 -157 57q-139 12 -139 75q0 34 28 66.5t93 74.5q-50 40 -50 93q0 74 74 132.5t168 58.5q70 0 114.5 -37.5t44.5 -96.5q0 -76 -68 -133t-160 -57q-37 0 -88 18q-38 -38 -38 -57q0 -23 43 -28l35 -4q204 -26 204 -124q0 -85 -87 -130
q-78 -40 -232 -43zM317 426q-52 0 -87 -48t-35 -118q0 -37 18 -58.5t48 -21.5q44 0 77.5 51t33.5 117q0 36 -15 57t-40 21zM346 704q32 0 56 -24t24 -57q0 -34 -23.5 -57.5t-57.5 -23.5t-57.5 24t-23.5 58q0 33 24 56.5t58 23.5z" />
    <glyph glyph-name="Gcommaaccent" unicode="&#x122;" horiz-adv-x="660" 
d="M663 308l-52 -247q-5 -26 -96.5 -49.5t-184.5 -23.5q-124 0 -197 71t-73 190q0 86 32.5 165.5t90.5 135.5q70 67 176 101q71 22 192 25l-10 -51q-68 -5 -108.5 -19t-79.5 -44q-64 -50 -101 -138.5t-37 -191.5q0 -185 163 -185q85 0 91 27l28 128q3 17 3 32
q0 25 -16.5 33.5t-63.5 9.5l7 31h236zM268 -313l-27 21q29 19 55.5 50t26.5 45q0 3 -4 5q-19 5 -33 24t-14 39q0 27 21 47t48 20t48 -20t21 -46q0 -31 -21 -68q-37 -68 -121 -117z" />
    <glyph glyph-name="gcommaaccent" unicode="&#x123;" horiz-adv-x="496" 
d="M94 -227l9 29q86 5 146 36t60 70q0 41 -157 57q-139 12 -139 75q0 34 28 66.5t93 74.5q-50 40 -50 93q0 74 74 132.5t168 58.5q70 0 114.5 -37.5t44.5 -96.5q0 -76 -68 -133t-160 -57q-37 0 -88 18q-38 -38 -38 -57q0 -23 43 -28l35 -4q204 -26 204 -124q0 -85 -87 -130
q-78 -40 -232 -43zM317 426q-52 0 -87 -48t-35 -118q0 -37 18 -58.5t48 -21.5q44 0 77.5 51t33.5 117q0 36 -15 57t-40 21zM425 772l27 -21q-29 -20 -55.5 -50.5t-26.5 -45.5q0 -3 4 -5q19 -5 33 -24t14 -39q0 -27 -20.5 -47t-48.5 -20q-27 0 -48 20.5t-21 46.5q0 30 21 67
q37 68 121 118z" />
    <glyph glyph-name="Hcircumflex" unicode="&#x124;" horiz-adv-x="765" 
d="M470 0l68 320h-254l-68 -320h-144l118 555q4 16 4 34q0 25 -17 34t-63 10l7 31h236l-61 -289h254l61 289h144l-117 -551q-5 -25 -5 -40q0 -24 16.5 -32.5t63.5 -9.5l-7 -31h-236zM594 735l-96 68l-126 -68h-54l166 160h68l98 -160h-56z" />
    <glyph glyph-name="Hbar" unicode="&#x126;" horiz-adv-x="766" 
d="M716 481l-78 -367q-5 -25 -5 -41q0 -23 17 -31.5t63 -9.5l-7 -32h-236l68 320h-254l-68 -320h-144l102 481h-92l12 54h92l4 19q4 26 4 36q0 23 -17 32t-63 10l7 32h236l-27 -129h254l27 129h144l-27 -129h92l-12 -54h-92zM572 481h-254l-23 -107h254z" />
    <glyph glyph-name="hbar" unicode="&#x127;" horiz-adv-x="544" 
d="M157 524h-63l12 55h63l7 35q3 14 3 21q0 11 -23 11h-36l6 26l190 34l-26 -127h117l-12 -55h-116l-25 -122q31 34 60.5 48t70.5 14q97 0 97 -94q0 -22 -8 -64l-44 -206q-4 -17 -4 -29q0 -8 7 -8q8 0 39 26l19 -19q-73 -78 -132 -78q-26 0 -41.5 15t-15.5 40q0 34 14 99
l36 162q10 43 10 70q0 28 -26 28q-36 0 -68 -49.5t-51 -133.5l-49 -223h-122z" />
    <glyph glyph-name="Imacron" unicode="&#x12a;" horiz-adv-x="326" 
d="M72 0l118 555q4 17 4 37q0 23 -16.5 31.5t-62.5 9.5l6 31h236l-141 -664h-144zM140 750l14 64h293l-14 -64h-293z" />
    <glyph glyph-name="imacron" unicode="&#x12b;" horiz-adv-x="282" 
d="M260 464l-76 -372q-3 -14 -3 -20q0 -9 6 -9q12 0 41 26l19 -19q-72 -78 -132 -78q-25 0 -41 15.5t-16 39.5q0 26 14 99l48 226q3 15 3 19q0 13 -23 13h-34l4 26zM77 538l14 64h244l-14 -64h-244z" />
    <glyph glyph-name="ibreve" unicode="&#x12d;" horiz-adv-x="282" 
d="M260 464l-76 -372q-3 -14 -3 -20q0 -9 6 -9q12 0 41 26l19 -19q-72 -78 -132 -78q-25 0 -41 15.5t-16 39.5q0 26 14 99l48 226q3 15 3 19q0 13 -23 13h-34l4 26zM320 674h44q-43 -162 -161 -162q-100 0 -100 110q0 21 6 52h44q-1 -6 -1 -13q0 -31 18 -48t50 -17
q71 0 100 78z" />
    <glyph glyph-name="Iogonek" unicode="&#x12e;" horiz-adv-x="326" 
d="M113 0h-41l118 555q4 17 4 37q0 23 -16.5 31.5t-62.5 9.5l6 31h236l-141 -664h-37q-63 -61 -63 -106q0 -32 44 -32q25 0 59 14l-14 -62q-48 -18 -89 -18q-50 0 -81.5 20.5t-31.5 53.5q0 34 26 64.5t84 65.5z" />
    <glyph glyph-name="iogonek" unicode="&#x12f;" horiz-adv-x="282" 
d="M212 -124l-14 -62q-48 -18 -89 -18q-50 0 -81.5 20.5t-31.5 53.5q0 38 35 75q20 20 66 50q-39 11 -39 52q0 26 14 99l48 226q3 15 3 19q0 13 -23 13h-34l4 26l190 34l-76 -372q-3 -14 -3 -20q0 -9 6 -9q12 0 41 26l19 -19q-15 -16 -37 -36q-101 -86 -101 -140
q0 -14 12 -23t32 -9q25 0 59 14zM226 704q35 0 58.5 -23.5t23.5 -57.5t-23.5 -57.5t-57.5 -23.5q-33 0 -57 23.5t-24 56.5q0 35 23 58.5t57 23.5z" />
    <glyph glyph-name="Idotaccent" unicode="&#x130;" horiz-adv-x="326" 
d="M72 0l118 555q4 17 4 37q0 23 -16.5 31.5t-62.5 9.5l6 31h236l-141 -664h-144zM296 885q32 0 56 -24t24 -57q0 -34 -23.5 -57.5t-57.5 -23.5t-57.5 24t-23.5 58q0 33 24 56.5t58 23.5z" />
    <glyph glyph-name="dotlessi" unicode="&#x131;" horiz-adv-x="282" 
d="M260 464l-76 -372q-3 -14 -3 -20q0 -9 6 -9q12 0 41 26l19 -19q-72 -78 -132 -78q-25 0 -41 15.5t-16 39.5q0 26 14 99l48 226q3 15 3 19q0 13 -23 13h-34l4 26z" />
    <glyph glyph-name="IJ" unicode="&#x132;" horiz-adv-x="662" 
d="M72 0l118 555q4 17 4 37q0 23 -16.5 31.5t-62.5 9.5l6 31h236l-141 -664h-144zM325 -12l12 55q55 1 71.5 19.5t33.5 97.5l84 395q4 16 4 34q0 25 -17 34t-63 10l7 31h236l-97 -457q-26 -121 -86.5 -170t-184.5 -49z" />
    <glyph glyph-name="Kcommaaccent" unicode="&#x136;" horiz-adv-x="684" 
d="M476 0l-199 286l-61 -286h-144l118 555q4 16 4 35q0 23 -16 32t-63 11l6 31h236l-61 -288l344 288h90l-344 -288l193 -279q44 -62 112 -66l-7 -31h-208zM259 -313l-27 21q29 19 55.5 50t26.5 45q0 3 -4 5q-19 5 -33 24t-14 39q0 27 21 47t48 20t48 -20t21 -46
q0 -31 -21 -68q-37 -68 -121 -117z" />
    <glyph glyph-name="kcommaaccent" unicode="&#x137;" horiz-adv-x="520" 
d="M318 706l-89 -425l206 174h79l-208 -177l109 -172q24 -39 37 -39t45 30l19 -19q-75 -86 -127 -86q-37 0 -79 64l-97 151l-43 -207h-122l130 614q3 15 3 19q0 13 -23 13h-34l4 26zM189 -313l-27 21q41 27 67 66q14 23 14 29q0 3 -4 5q-19 5 -32.5 24t-13.5 39q0 27 21 47
t48 20t48 -20t21 -46q0 -31 -21 -68q-20 -36 -48 -63t-73 -54z" />
    <glyph glyph-name="Lacute" unicode="&#x139;" horiz-adv-x="601" 
d="M520 0h-448l118 555q4 16 4 34q0 25 -17 34t-63 10l7 31h236l-120 -566q-2 -7 -2 -21q0 -22 31 -22h123q58 0 91 23.5t76 93.5h31zM309 729h-54l120 150q32 40 70 40q20 0 32.5 -11.5t12.5 -30.5q0 -37 -41 -62z" />
    <glyph glyph-name="lacute" unicode="&#x13a;" horiz-adv-x="280" 
d="M303 706l-128 -612q-4 -19 -4 -23q0 -8 6 -8q9 0 41 26l19 -19q-72 -78 -132 -78q-26 0 -41.5 15t-15.5 40q0 29 17 111l98 456q3 15 3 18q0 8 -4.5 11t-18.5 3h-34l4 26zM262 729h-54l88 150q23 40 61 40q23 0 39 -15t16 -37q0 -32 -28 -52z" />
    <glyph glyph-name="Lcommaaccent" unicode="&#x13b;" horiz-adv-x="601" 
d="M520 0h-448l118 555q4 16 4 34q0 25 -17 34t-63 10l7 31h236l-120 -566q-2 -7 -2 -21q0 -22 31 -22h123q58 0 91 23.5t76 93.5h31zM236 -313l-27 21q29 19 55.5 50t26.5 45q0 3 -4 5q-19 5 -33 24t-14 39q0 27 21 47t48 20t48 -20t21 -46q0 -31 -21 -68
q-37 -68 -121 -117z" />
    <glyph glyph-name="lcommaaccent" unicode="&#x13c;" horiz-adv-x="280" 
d="M303 706l-128 -612q-4 -16 -4 -23q0 -8 6 -8q11 0 41 26l19 -19q-73 -78 -132 -78q-26 0 -41.5 15t-15.5 40q0 33 17 111l98 456q3 12 3 18q0 8 -4.5 11t-18.5 3h-34l4 26zM18 -313l-27 21q29 19 55.5 50t26.5 45q0 3 -4 5q-19 5 -33 24t-14 39q0 27 21 47t48 20t48 -20
t21 -46q0 -31 -21 -68q-37 -68 -121 -117z" />
    <glyph glyph-name="Lcaron" unicode="&#x13d;" horiz-adv-x="601" 
d="M520 0h-448l118 555q4 16 4 34q0 25 -17 34t-63 10l7 31h236l-120 -566q-2 -7 -2 -21q0 -22 31 -22h123q58 0 91 23.5t76 93.5h31zM418 413l-26 21q29 19 55 49.5t26 45.5q0 3 -4 5q-19 5 -32.5 24t-13.5 39q0 26 20.5 46.5t48.5 20.5q27 0 47.5 -20.5t20.5 -46.5
q0 -30 -21 -67q-37 -68 -121 -117z" />
    <glyph glyph-name="lcaron" unicode="&#x13e;" horiz-adv-x="346" 
d="M303 706l-128 -612q-4 -19 -4 -23q0 -8 6 -8q9 0 41 26l19 -19q-72 -78 -132 -78q-26 0 -41.5 15t-15.5 40q0 29 17 111l98 456q3 15 3 18q0 8 -4.5 11t-18.5 3h-34l4 26zM333 455l-27 21q29 19 55.5 49.5t26.5 45.5q0 3 -4 5q-19 5 -33 24t-14 39q0 27 20.5 47t48.5 20
q27 0 48 -20.5t21 -46.5q0 -30 -21 -67q-37 -68 -121 -117z" />
    <glyph glyph-name="Ldot" unicode="&#x13f;" horiz-adv-x="601" 
d="M520 0h-448l118 555q4 16 4 34q0 25 -17 34t-63 10l7 31h236l-120 -566q-2 -7 -2 -21q0 -22 31 -22h123q58 0 91 23.5t76 93.5h31zM505 389q32 0 56 -24t24 -57q0 -34 -23.5 -57.5t-57.5 -23.5t-57.5 24t-23.5 58q0 33 24 56.5t58 23.5z" />
    <glyph glyph-name="ldot" unicode="&#x140;" horiz-adv-x="382" 
d="M303 706l-128 -612q-4 -19 -4 -23q0 -8 6 -8q9 0 41 26l19 -19q-72 -78 -132 -78q-26 0 -41.5 15t-15.5 40q0 29 17 111l98 456q3 15 3 18q0 8 -4.5 11t-18.5 3h-34l4 26zM354 390q32 0 56 -24t24 -57q0 -34 -23.5 -57.5t-57.5 -23.5t-57.5 24t-23.5 58q0 33 24 56.5
t58 23.5z" />
    <glyph glyph-name="Lslash" unicode="&#x141;" horiz-adv-x="601" 
d="M289 344l-52 -246q-3 -12 -3 -21q0 -22 32 -22h123q58 0 91 23.5t76 93.5h31l-67 -172h-448l44 210l-110 -86l16 73l110 86l58 272q4 24 4 35q0 24 -17 33t-63 10l7 31h236l-52 -246l129 101l-16 -74z" />
    <glyph glyph-name="lslash" unicode="&#x142;" horiz-adv-x="280" 
d="M236 383l86 67l-16 -74l-86 -67l-45 -215q-4 -20 -4 -23q0 -8 6 -8q9 0 41 26l19 -19q-72 -78 -132 -78q-26 0 -41.5 15t-15.5 40q0 27 17 111l8 37l-71 -56l16 74l71 56l74 345q3 10 3 18t-4.5 11t-18.5 3h-34l4 26l190 34z" />
    <glyph glyph-name="Nacute" unicode="&#x143;" horiz-adv-x="722" 
d="M573 220l94 444h64l-141 -664h-68l-278 508l-81 -379q-7 -33 -7 -52q0 -26 15 -35.5t56 -10.5l-7 -31h-148l121 570q2 14 2 20q0 23 -17.5 32.5t-62.5 10.5l6 31h210zM495 729h-54l120 150q32 40 70 40q20 0 32 -11.5t12 -30.5q0 -17 -11 -34.5t-29 -27.5z" />
    <glyph glyph-name="nacute" unicode="&#x144;" horiz-adv-x="538" 
d="M470 89l19 -19q-72 -78 -133 -78q-25 0 -40.5 15.5t-15.5 40.5q0 33 17 110l33 150q10 48 10 70q0 28 -26 28q-36 0 -68 -49.5t-51 -133.5l-49 -223h-122l80 372q3 14 3 21q0 11 -23 11h-34l4 26l190 34l-12 -62q54 62 130 62q50 0 74 -22.5t24 -71.5q0 -22 -8 -64
l-44 -206q-4 -18 -4 -29q0 -8 6 -8q9 0 40 26zM331 518h-54l119 149q20 25 32.5 33t32.5 8t34.5 -13t14.5 -32q0 -34 -38 -58z" />
    <glyph glyph-name="Ncommaaccent" unicode="&#x145;" horiz-adv-x="722" 
d="M573 220l94 444h64l-141 -664h-68l-278 508l-81 -379q-7 -33 -7 -52q0 -26 15 -35.5t56 -10.5l-7 -31h-148l121 570q2 14 2 20q0 23 -17.5 32.5t-62.5 10.5l6 31h210zM272 -313l-27 21q29 19 55.5 50t26.5 45q0 3 -4 5q-19 5 -33 24t-14 39q0 27 21 47t48 20t48 -20
t21 -46q0 -31 -21 -68q-37 -68 -121 -117z" />
    <glyph glyph-name="ncommaaccent" unicode="&#x146;" horiz-adv-x="538" 
d="M470 89l19 -19q-72 -78 -133 -78q-25 0 -40.5 15.5t-15.5 40.5q0 33 17 110l33 150q10 48 10 70q0 28 -26 28q-36 0 -68 -49.5t-51 -133.5l-49 -223h-122l80 372q3 14 3 21q0 11 -23 11h-34l4 26l190 34l-12 -62q54 62 130 62q50 0 74 -22.5t24 -71.5q0 -22 -8 -64
l-44 -206q-4 -18 -4 -29q0 -8 6 -8q9 0 40 26zM154 -313l-27 21q41 27 67 66q15 22 15 29q0 3 -4 5q-19 5 -32.5 24t-13.5 39q0 27 20.5 47t48.5 20q26 0 47 -20.5t21 -45.5q0 -31 -21 -68q-37 -68 -121 -117z" />
    <glyph glyph-name="Ncaron" unicode="&#x147;" horiz-adv-x="722" 
d="M573 220l94 444h64l-141 -664h-68l-278 508l-81 -379q-7 -33 -7 -52q0 -26 15 -35.5t56 -10.5l-7 -31h-148l121 570q2 14 2 20q0 23 -17.5 32.5t-62.5 10.5l6 31h210zM390 882l98 -68l124 68h56l-166 -160h-68l-98 160h54z" />
    <glyph glyph-name="ncaron" unicode="&#x148;" horiz-adv-x="538" 
d="M470 89l19 -19q-72 -78 -133 -78q-25 0 -40.5 15.5t-15.5 40.5q0 33 17 110l33 150q10 48 10 70q0 28 -26 28q-36 0 -68 -49.5t-51 -133.5l-49 -223h-122l80 372q3 14 3 21q0 11 -23 11h-34l4 26l190 34l-12 -62q54 62 130 62q50 0 74 -22.5t24 -71.5q0 -22 -8 -64
l-44 -206q-4 -18 -4 -29q0 -8 6 -8q9 0 40 26zM261 684l97 -68l125 68h55l-166 -160h-68l-98 160h55z" />
    <glyph glyph-name="napostrophe" unicode="&#x149;" horiz-adv-x="538" 
d="M470 89l19 -19q-72 -78 -132 -78q-25 0 -41 15.5t-16 40.5q0 29 17 110l33 150q10 41 10 70q0 28 -26 28q-36 0 -68 -49.5t-51 -133.5l-49 -223h-122l80 372q3 14 3 21q0 11 -23 11h-34l4 26l190 34l-12 -62q54 62 130 62q50 0 74 -22.5t24 -71.5q0 -31 -8 -64l-44 -206
q-4 -22 -4 -29q0 -8 7 -8q8 0 39 26zM31 472l-27 21q29 19 55.5 49.5t26.5 45.5q0 3 -4 5q-19 5 -33 24t-14 39q0 27 21 47t48 20t48 -20t21 -46q0 -31 -21 -68q-37 -68 -121 -117z" />
    <glyph glyph-name="Omacron" unicode="&#x14c;" horiz-adv-x="714" 
d="M462 676q122 0 188 -63.5t66 -179.5q0 -96 -36.5 -188t-99.5 -153q-106 -104 -263 -104q-125 0 -191 62.5t-66 180.5q0 80 26.5 160t73.5 141q112 144 302 144zM451 621q-116 0 -175 -136q-29 -64 -47.5 -146.5t-18.5 -145.5q0 -150 118 -150q54 0 99.5 36t73.5 101
q28 64 46.5 148t18.5 143q0 150 -115 150zM332 750l14 64h310l-14 -64h-310z" />
    <glyph glyph-name="omacron" unicode="&#x14d;" horiz-adv-x="502" 
d="M327 464q77 0 121.5 -44.5t44.5 -120.5q0 -116 -89.5 -211.5t-198.5 -95.5q-79 0 -125 43.5t-46 118.5q0 105 76 198q89 112 217 112zM308 427q-50 0 -85 -67q-62 -113 -62 -240q0 -41 16.5 -66t43.5 -25q49 0 84 63q60 112 60 241q0 44 -15 69t-42 25zM183 538l14 64
h296l-14 -64h-296z" />
    <glyph glyph-name="Ohungarumlaut" unicode="&#x150;" horiz-adv-x="714" 
d="M462 676q122 0 188 -63.5t66 -179.5q0 -96 -36.5 -188t-99.5 -153q-106 -104 -263 -104q-125 0 -191 62.5t-66 180.5q0 80 26.5 160t73.5 141q112 144 302 144zM451 621q-116 0 -175 -136q-29 -64 -47.5 -146.5t-18.5 -145.5q0 -150 118 -150q54 0 99.5 36t73.5 101
q28 64 46.5 148t18.5 143q0 150 -115 150zM415 729h-54l106 149q30 41 67 41q21 0 34.5 -12.5t13.5 -32.5q0 -36 -34 -58zM589 729h-54l106 149q30 41 67 41q21 0 34.5 -12.5t13.5 -32.5q0 -36 -34 -58z" />
    <glyph glyph-name="ohungarumlaut" unicode="&#x151;" horiz-adv-x="502" 
d="M327 464q77 0 121.5 -44.5t44.5 -120.5q0 -116 -89.5 -211.5t-198.5 -95.5q-79 0 -125 43.5t-46 118.5q0 105 76 198q89 112 217 112zM308 427q-50 0 -85 -67q-62 -113 -62 -240q0 -41 16.5 -66t43.5 -25q49 0 84 63q60 112 60 241q0 44 -15 69t-42 25zM263 518h-54
l119 149q34 41 72 41q20 0 32 -11t12 -29q0 -38 -40 -63zM437 518h-54l119 149q34 41 72 41q20 0 32 -11t12 -29q0 -38 -40 -63z" />
    <glyph glyph-name="OE" unicode="&#x152;" horiz-adv-x="986" 
d="M458 137l83 390q3 17 3 33q0 61 -86 61q-62 0 -111 -36t-77 -104q-28 -66 -46.5 -150t-18.5 -147q0 -137 129 -137q58 0 85.5 20t38.5 70zM889 0h-420q-21 0 -74 -4q-60 -4 -81 -4q-124 0 -189.5 60t-65.5 174q0 99 35 189.5t96 150.5q109 106 284 106q29 0 78 -4
q45 -4 70 -4h394l-21 -141h-31q-1 56 -20.5 71t-90.5 15h-118q-22 0 -28.5 -7.5t-13.5 -39.5l-40 -187h168l-12 -55h-168l-45 -211q-5 -20 -5 -32q0 -14 13.5 -18t60.5 -4h109q52 0 93 39q23 21 52 70h32z" />
    <glyph glyph-name="oe" unicode="&#x153;" horiz-adv-x="727" 
d="M598 23l-6 -26q-32 -5 -57 -5q-115 0 -164 64q-81 -64 -168 -64q-78 0 -123.5 43.5t-45.5 118.5q0 105 76 198q90 112 217 112q95 0 138 -65q79 65 167 65q56 0 90.5 -25.5t34.5 -66.5q0 -43 -29.5 -79t-82.5 -58q-66 -26 -170 -29q-9 -34 -9 -66q0 -53 33 -84
q29 -27 99 -33zM308 427q-50 0 -85 -67q-62 -114 -62 -241q0 -41 16.5 -65.5t43.5 -24.5q49 0 84 63q60 112 60 241q0 43 -15.5 68.5t-41.5 25.5zM483 242q65 11 106 43q26 20 42 49.5t16 55.5q0 16 -8.5 26.5t-22.5 10.5q-34 0 -69.5 -49.5t-63.5 -135.5z" />
    <glyph glyph-name="Racute" unicode="&#x154;" horiz-adv-x="642" 
d="M121 664h306q108 0 166 -41t58 -117q0 -82 -52 -139.5t-141 -74.5l90 -178q23 -45 43 -63.5t48 -19.5l-7 -31h-168l-146 281h-42l-60 -281h-144l118 555q4 22 4 34q0 25 -17 34t-63 10zM287 335h43q93 0 135 54q41 51 41 128q0 49 -29.5 70.5t-96.5 21.5
q-21 0 -28.5 -4.5t-10.5 -18.5zM421 729h-54l120 150q32 40 70 40q20 0 32 -11.5t12 -30.5q0 -37 -40 -62z" />
    <glyph glyph-name="racute" unicode="&#x155;" horiz-adv-x="378" 
d="M418 460l-26 -122q-43 39 -77 39q-65 0 -95 -133l-54 -244h-122l80 372q3 14 3 19q0 13 -23 13h-34l4 26l190 34l-12 -62q30 34 58.5 48t67.5 14q14 0 35 -3q3 -1 5 -1zM295 518h-54l119 149q19 25 32 33t33 8q21 0 35.5 -13t14.5 -32q0 -34 -39 -58z" />
    <glyph glyph-name="Rcommaaccent" unicode="&#x156;" horiz-adv-x="642" 
d="M121 664h306q108 0 166 -41t58 -117q0 -82 -52 -139.5t-141 -74.5l90 -178q23 -45 43 -63.5t48 -19.5l-7 -31h-168l-146 281h-42l-60 -281h-144l118 555q4 22 4 34q0 25 -17 34t-63 10zM287 335h43q93 0 135 54q41 51 41 128q0 49 -29.5 70.5t-96.5 21.5
q-21 0 -28.5 -4.5t-10.5 -18.5zM250 -313l-27 21q29 19 55.5 50t26.5 45q0 3 -4 5q-19 5 -33 24t-14 39q0 27 21 47t48 20t48 -20t21 -46q0 -31 -21 -68q-37 -68 -121 -117z" />
    <glyph glyph-name="rcommaaccent" unicode="&#x157;" horiz-adv-x="378" 
d="M418 460l-26 -122q-43 39 -77 39q-65 0 -95 -133l-54 -244h-122l80 372q3 12 3 19q0 13 -23 13h-34l4 26l190 34l-12 -62q55 62 127 62q15 0 34 -3q3 -1 5 -1zM10 -313l-27 21q29 19 55.5 50t26.5 45q0 3 -4 5q-19 5 -33 24t-14 39q0 27 21 47t48 20t48 -20t21 -46
q0 -31 -21 -68q-37 -68 -121 -117z" />
    <glyph glyph-name="Rcaron" unicode="&#x158;" horiz-adv-x="642" 
d="M121 664h306q108 0 166 -41t58 -117q0 -82 -52 -139.5t-141 -74.5l90 -178q23 -45 43 -63.5t48 -19.5l-7 -31h-168l-146 281h-42l-60 -281h-144l118 555q4 22 4 34q0 25 -17 34t-63 10zM287 335h43q93 0 135 54q41 51 41 128q0 49 -29.5 70.5t-96.5 21.5
q-21 0 -28.5 -4.5t-10.5 -18.5zM325 882l97 -68l125 68h56l-166 -160h-68l-98 160h54z" />
    <glyph glyph-name="rcaron" unicode="&#x159;" horiz-adv-x="378" 
d="M418 460l-26 -122q-43 39 -77 39q-65 0 -95 -133l-54 -244h-122l80 372q3 14 3 19q0 13 -23 13h-34l4 26l190 34l-12 -62q30 34 58.5 48t67.5 14q14 0 35 -3q3 -1 5 -1zM191 684l97 -68l125 68h55l-166 -160h-68l-98 160h55z" />
    <glyph glyph-name="Sacute" unicode="&#x15a;" horiz-adv-x="544" 
d="M391 729h-54l119 150q33 40 71 40q20 0 32 -11.5t12 -30.5q0 -37 -40 -62zM464 676l-11 -51q-95 -6 -147 -32q-24 -12 -40 -33t-16 -42q0 -28 24.5 -51t106.5 -70q85 -49 115.5 -86t30.5 -91q0 -96 -87 -164t-210 -68q-38 0 -105 14q-35 8 -64 12l-39 6l18 167h31
q5 -40 15 -61.5t31 -39.5q45 -39 111 -39q57 0 104 39.5t47 86.5q0 32 -26.5 58.5t-102.5 69.5q-78 44 -105 76.5t-27 82.5q0 111 105 169q45 24 99 35t142 12z" />
    <glyph glyph-name="sacute" unicode="&#x15b;" horiz-adv-x="390" 
d="M314 464l-8 -33q-56 -4 -80 -19.5t-24 -48.5q0 -18 13 -35t55 -50q53 -44 72 -72.5t19 -64.5q0 -56 -39 -92q-62 -57 -181 -57q-42 0 -116 25v98h26q5 -43 28.5 -66.5t62.5 -23.5q40 0 66 22.5t26 56.5q0 24 -16 47t-57 57q-45 37 -63.5 65t-18.5 59q0 53 41 86
q31 24 74 34t120 12zM257 518h-54l119 149q19 25 32 33t33 8q21 0 35.5 -13t14.5 -32q0 -34 -39 -58z" />
    <glyph glyph-name="Scircumflex" unicode="&#x15c;" horiz-adv-x="544" 
d="M483 735l-96 68l-126 -68h-54l166 160h68l98 -160h-56zM464 676l-11 -51q-95 -6 -147 -32q-24 -12 -40 -33t-16 -42q0 -28 24.5 -51t106.5 -70q85 -49 115.5 -86t30.5 -91q0 -96 -87 -164t-210 -68q-38 0 -105 14q-35 8 -64 12l-39 6l18 167h31q5 -40 15 -61.5t31 -39.5
q45 -39 111 -39q57 0 104 39.5t47 86.5q0 32 -26.5 58.5t-102.5 69.5q-78 44 -105 76.5t-27 82.5q0 111 105 169q45 24 99 35t142 12z" />
    <glyph glyph-name="scircumflex" unicode="&#x15d;" horiz-adv-x="390" 
d="M314 464l-8 -33q-56 -4 -80 -19.5t-24 -48.5q0 -18 13 -35t55 -50q53 -44 72 -72.5t19 -64.5q0 -56 -39 -92q-62 -57 -181 -57q-42 0 -116 25v98h26q5 -43 28.5 -66.5t62.5 -23.5q40 0 66 22.5t26 56.5q0 24 -16 47t-57 57q-45 37 -63.5 65t-18.5 59q0 53 41 86
q31 24 74 34t120 12zM375 524l-97 68l-125 -68h-55l166 160h68l98 -160h-55z" />
    <glyph glyph-name="Scedilla" unicode="&#x15e;" horiz-adv-x="544" 
d="M464 676l-11 -51q-95 -6 -147 -32q-24 -12 -40 -33t-16 -42q0 -28 24.5 -51t106.5 -70q85 -49 115.5 -86t30.5 -91q0 -90 -78 -156.5t-192 -74.5l-17 -29q9 1 16 1q37 0 58.5 -17.5t21.5 -46.5q0 -49 -43 -81t-109 -32q-37 0 -88 20l23 42q33 -11 50 -11q26 0 44 14.5
t18 36.5q0 20 -20 20q-10 0 -19 -8h-45l52 92q-37 4 -74 12q-35 8 -64 12l-39 6l18 167h31q5 -40 15 -61.5t31 -39.5q45 -39 111 -39q57 0 104 39.5t47 86.5q0 32 -26.5 58.5t-102.5 69.5q-78 44 -105 76.5t-27 82.5q0 111 105 169q45 24 99 35t142 12z" />
    <glyph glyph-name="scedilla" unicode="&#x15f;" horiz-adv-x="390" 
d="M66 -102l54 95q-33 3 -95 24v98h26q5 -43 28.5 -66.5t62.5 -23.5q40 0 66 22.5t26 56.5q0 24 -16 47t-57 57q-45 37 -63.5 65t-18.5 59q0 53 41 86q31 24 74 34t120 12l-8 -33q-56 -4 -80 -19.5t-24 -48.5q0 -18 13.5 -34.5t54.5 -51.5q53 -43 72 -71.5t19 -64.5
q0 -56 -39 -92q-46 -42 -143 -55l-20 -34q9 1 15 1q37 0 59 -17.5t22 -46.5q0 -49 -43 -81t-109 -32q-39 0 -88 20l23 42q32 -11 50 -11q26 0 44 14.5t18 36.5q0 20 -21 20q-9 0 -18 -8h-45z" />
    <glyph glyph-name="Scaron" unicode="&#x160;" horiz-adv-x="544" 
d="M301 882l98 -68l124 68h56l-166 -160h-68l-98 160h54zM464 676l-11 -51q-95 -6 -147 -32q-24 -12 -40 -33t-16 -42q0 -28 24.5 -51t106.5 -70q85 -49 115.5 -86t30.5 -91q0 -96 -87 -164t-210 -68q-38 0 -105 14q-35 8 -64 12l-39 6l18 167h31q5 -40 15 -61.5t31 -39.5
q45 -39 111 -39q57 0 104 39.5t47 86.5q0 32 -26.5 58.5t-102.5 69.5q-78 44 -105 76.5t-27 82.5q0 111 105 169q45 24 99 35t142 12z" />
    <glyph glyph-name="scaron" unicode="&#x161;" horiz-adv-x="390" 
d="M314 464l-8 -33q-56 -4 -80 -19.5t-24 -48.5q0 -18 13 -35t55 -50q53 -44 72 -72.5t19 -64.5q0 -56 -39 -92q-62 -57 -181 -57q-42 0 -116 25v98h26q5 -43 28.5 -66.5t62.5 -23.5q40 0 66 22.5t26 56.5q0 24 -16 47t-57 57q-45 37 -63.5 65t-18.5 59q0 53 41 86
q31 24 74 34t120 12zM187 684l97 -68l125 68h55l-166 -160h-68l-98 160h55z" />
    <glyph glyph-name="Tcommaaccent" unicode="&#x162;" horiz-adv-x="609" 
d="M665 500h-31q0 74 -20 91.5t-104 17.5h-44l-130 -609h-144l130 609h-46q-82 0 -110 -18t-59 -91h-31l44 164h571zM168 -313l-26 21q42 29 66 66q15 22 15 29q0 3 -4 5q-19 5 -32.5 24t-13.5 39q0 27 20.5 47t48.5 20q26 0 47 -20.5t21 -45.5q0 -31 -21 -68
q-37 -68 -121 -117z" />
    <glyph glyph-name="tcommaaccent" unicode="&#x163;" horiz-adv-x="317" 
d="M25 -313l-27 21q29 19 55.5 50t26.5 45q0 3 -4 5q-19 5 -33 24t-14 39q0 27 21 47t48 20t48 -20t21 -46q0 -31 -21 -68q-37 -68 -121 -117zM252 456h85l-9 -42h-85l-68 -330q-2 -10 -2 -12q0 -9 7 -9q11 0 40 26l19 -19q-72 -78 -132 -78q-26 0 -41.5 15t-15.5 40
q0 33 14 99l67 310q57 51 79.5 77t44.5 71h28z" />
    <glyph glyph-name="Tcaron" unicode="&#x164;" horiz-adv-x="609" 
d="M665 500h-31q0 73 -20.5 91t-103.5 18h-44l-130 -609h-144l130 609h-46q-82 0 -110 -18t-59 -91h-31l44 164h571zM335 882l98 -68l124 68h56l-166 -160h-68l-98 160h54z" />
    <glyph glyph-name="tcaron" unicode="&#x165;" horiz-adv-x="317" 
d="M320 503l-27 21q41 27 67 66q15 22 15 29q0 3 -4 5q-19 5 -33 24t-14 39q0 27 20.5 47t48.5 20q27 0 48 -20t21 -46q0 -31 -21 -68q-37 -68 -121 -117zM252 456h85l-9 -42h-85l-68 -330q-2 -10 -2 -12q0 -9 7 -9q11 0 40 26l19 -19q-72 -78 -132 -78q-26 0 -41.5 15
t-15.5 40q0 33 14 99l67 310q57 51 79.5 77t44.5 71h28z" />
    <glyph glyph-name="utilde" unicode="&#x169;" horiz-adv-x="505" 
d="M460 658h45q-21 -68 -57 -106t-79 -38q-30 0 -75 27q-37 21 -54 21q-31 0 -53 -44h-46q46 144 138 144q31 0 73 -27q37 -21 56 -21q29 0 52 44zM450 89l19 -19q-73 -78 -132 -78q-24 0 -40.5 15t-16.5 37q0 9 1 15q-33 -37 -64 -52t-73 -15q-96 0 -96 87q0 33 8 71
l47 222q3 14 3 18q0 8 -4.5 11t-18.5 3h-34l4 26l190 34l-69 -332q-6 -30 -6 -49q0 -33 26 -33q36 0 68.5 50t50.5 133l48 223h123l-77 -356q-4 -19 -4 -28t7 -9q10 0 40 26z" />
    <glyph glyph-name="Umacron" unicode="&#x16a;" horiz-adv-x="692" 
d="M713 664l-85 -402q-29 -139 -105 -206.5t-202 -67.5q-108 0 -164 46.5t-56 135.5q0 42 9 84l64 301q4 18 4 37q0 23 -16.5 31.5t-63.5 9.5l7 31h235l-89 -416q-9 -42 -9 -77q0 -124 120 -124q76 0 127.5 52.5t72.5 152.5l87 412h64zM341 750l13 64h310l-13 -64h-310z" />
    <glyph glyph-name="umacron" unicode="&#x16b;" horiz-adv-x="505" 
d="M159 538l14 64h296l-14 -64h-296zM450 89l19 -19q-73 -78 -132 -78q-24 0 -40.5 15t-16.5 37q0 9 1 15q-33 -37 -64 -52t-73 -15q-96 0 -96 87q0 33 8 71l47 222q3 14 3 18q0 8 -4.5 11t-18.5 3h-34l4 26l190 34l-69 -332q-6 -30 -6 -49q0 -33 26 -33q36 0 68.5 50
t50.5 133l48 223h123l-77 -356q-4 -19 -4 -28t7 -9q10 0 40 26z" />
    <glyph glyph-name="ubreve" unicode="&#x16d;" horiz-adv-x="505" 
d="M435 674h44q-45 -162 -168 -162q-106 0 -106 112q0 19 5 50h44q0 -30 8 -45q16 -33 67 -33q75 0 106 78zM450 89l19 -19q-73 -78 -132 -78q-24 0 -40.5 15t-16.5 37q0 9 1 15q-33 -37 -64 -52t-73 -15q-96 0 -96 87q0 33 8 71l47 222q3 14 3 18q0 8 -4.5 11t-18.5 3h-34
l4 26l190 34l-69 -332q-6 -30 -6 -49q0 -33 26 -33q36 0 68.5 50t50.5 133l48 223h123l-77 -356q-4 -19 -4 -28t7 -9q10 0 40 26z" />
    <glyph glyph-name="Uring" unicode="&#x16e;" horiz-adv-x="692" 
d="M713 664l-85 -402q-29 -139 -105 -206.5t-202 -67.5q-108 0 -164 46.5t-56 135.5q0 42 9 84l64 301q4 20 4 37q0 23 -16.5 31.5t-63.5 9.5l7 31h235l-89 -416q-9 -42 -9 -77q0 -124 120 -124q76 0 127.5 52.5t72.5 152.5l87 412h64zM489 907q40 0 69.5 -29.5t29.5 -70.5
t-29.5 -70.5t-70.5 -29.5q-42 0 -71 29.5t-29 71.5q0 41 29.5 70t71.5 29zM488 853q-19 0 -32.5 -13.5t-13.5 -32.5t13.5 -32.5t32.5 -13.5t32.5 13.5t13.5 32.5t-13.5 32.5t-32.5 13.5z" />
    <glyph glyph-name="uring" unicode="&#x16f;" horiz-adv-x="505" 
d="M326 660q-19 0 -32.5 -13.5t-13.5 -32.5t13.5 -32.5t32.5 -13.5t32.5 13.5t13.5 32.5t-13.5 32.5t-32.5 13.5zM327 714q40 0 69.5 -29.5t29.5 -70.5t-29.5 -70.5t-70.5 -29.5q-42 0 -71 29.5t-29 71.5q0 41 29.5 70t71.5 29zM450 89l19 -19q-73 -78 -132 -78
q-24 0 -40.5 15t-16.5 37q0 9 1 15q-33 -37 -64 -52t-73 -15q-96 0 -96 87q0 33 8 71l47 222q3 14 3 18q0 8 -4.5 11t-18.5 3h-34l4 26l190 34l-69 -332q-6 -30 -6 -49q0 -33 26 -33q36 0 68.5 50t50.5 133l48 223h123l-77 -356q-4 -19 -4 -28t7 -9q10 0 40 26z" />
    <glyph glyph-name="Uhungarumlaut" unicode="&#x170;" horiz-adv-x="692" 
d="M713 664l-85 -402q-29 -139 -105 -206.5t-202 -67.5q-108 0 -164 46.5t-56 135.5q0 42 9 84l64 301q4 18 4 37q0 23 -16.5 31.5t-63.5 9.5l7 31h235l-89 -416q-9 -42 -9 -77q0 -124 120 -124q76 0 127.5 52.5t72.5 152.5l87 412h64zM421 729h-54l106 149q30 41 68 41
q21 0 34.5 -12.5t13.5 -32.5q0 -36 -35 -58zM595 729h-54l106 149q30 41 68 41q21 0 34.5 -12.5t13.5 -32.5q0 -36 -35 -58z" />
    <glyph glyph-name="uhungarumlaut" unicode="&#x171;" horiz-adv-x="505" 
d="M234 518h-54l119 149q34 41 72 41q20 0 32 -11t12 -29q0 -38 -40 -63zM408 518h-54l119 149q34 41 72 41q20 0 32 -11t12 -29q0 -38 -40 -63zM450 89l19 -19q-73 -78 -132 -78q-24 0 -40.5 15t-16.5 37q0 9 1 15q-33 -37 -64 -52t-73 -15q-96 0 -96 87q0 33 8 71l47 222
q3 14 3 18q0 8 -4.5 11t-18.5 3h-34l4 26l190 34l-69 -332q-6 -30 -6 -49q0 -33 26 -33q36 0 68.5 50t50.5 133l48 223h123l-77 -356q-4 -19 -4 -28t7 -9q10 0 40 26z" />
    <glyph glyph-name="Uogonek" unicode="&#x172;" horiz-adv-x="692" 
d="M497 -124l-14 -62q-46 -18 -88 -18q-50 0 -81.5 20.5t-31.5 53.5q0 32 22.5 60.5t73.5 61.5q-25 -4 -57 -4q-108 0 -164 46t-56 135q0 43 9 85l64 301q4 18 4 37q0 23 -17 31.5t-63 9.5l7 31h235l-89 -416q-9 -42 -9 -77q0 -124 120 -124q76 0 127.5 52.5t72.5 152.5
l87 412h64l-85 -402q-22 -91 -51 -140t-90 -98q-92 -76 -92 -130q0 -32 44 -32q26 0 58 14z" />
    <glyph glyph-name="uogonek" unicode="&#x173;" horiz-adv-x="505" 
d="M431 -124l-14 -62q-48 -18 -89 -18q-50 0 -81.5 20.5t-31.5 53.5q0 38 36 74q20 20 69 49q-17 5 -28.5 19.5t-11.5 31.5q0 9 1 15q-33 -37 -64 -52t-73 -15q-96 0 -96 87q0 33 8 71l47 222q3 14 3 19q0 13 -23 13h-34l4 26l190 34l-69 -332q-6 -30 -6 -49q0 -33 26 -33
q36 0 68.5 50t50.5 133l48 223h123l-76 -356q-5 -22 -5 -28q0 -9 7 -9q10 0 40 26l19 -19q-18 -19 -45 -41q-44 -35 -70 -71.5t-26 -63.5q0 -32 44 -32q25 0 59 14z" />
    <glyph glyph-name="Wcircumflex" unicode="&#x174;" horiz-adv-x="880" 
d="M606 -8h-61l-56 375l-209 -375h-61l-82 548q-8 54 -24 72.5t-58 20.5l6 31h202l65 -456l146 262l-11 70q-8 54 -24 72.5t-58 20.5l6 31h202l65 -456l253 456h74zM659 735l-95 68l-127 -68h-54l166 160h68l98 -160h-56z" />
    <glyph glyph-name="Ycircumflex" unicode="&#x176;" 
d="M420 302l-40 -189q-5 -27 -5 -42q0 -21 17 -30t63 -10l-7 -31h-236l64 302l-130 271q-19 34 -39 47t-53 13l7 31h204l137 -280l240 280h87zM561 735l-96 68l-126 -68h-54l166 160h68l98 -160h-56z" />
    <glyph glyph-name="ycircumflex" unicode="&#x177;" horiz-adv-x="462" 
d="M211 -25l-71 333q-8 39 -24 65t-32 26q-20 0 -52 -22v30q80 57 132 57q56 0 84 -130l50 -232q121 195 132 354h42q-8 -118 -69.5 -257.5t-154.5 -253.5q-74 -88 -142.5 -129t-143.5 -44l8 37q54 4 120.5 50t120.5 116zM399 524l-97 68l-125 -68h-55l166 160h68l98 -160
h-55z" />
    <glyph glyph-name="Ydieresis" unicode="&#x178;" 
d="M420 302l-40 -189q-5 -27 -5 -42q0 -21 17 -30t63 -10l-7 -31h-236l64 302l-130 271q-19 34 -39 47t-53 13l7 31h204l137 -280l240 280h87zM368 870q28 0 48 -20t20 -48t-20 -48.5t-49 -20.5q-28 0 -48 20t-20 49q0 28 20 48t49 20zM558 870q28 0 48 -20t20 -48
t-20 -48.5t-49 -20.5q-28 0 -48 20t-20 49q0 28 20 48t49 20z" />
    <glyph glyph-name="Zacute" unicode="&#x179;" horiz-adv-x="587" 
d="M521 0h-561l8 37l505 572h-183l11 55h372l-7 -34l-508 -575h224q61 0 95.5 22.5t73.5 86.5h31zM420 729h-54l120 150q33 40 70 40q20 0 32.5 -11.5t12.5 -30.5q0 -37 -40 -62z" />
    <glyph glyph-name="zacute" unicode="&#x17a;" horiz-adv-x="449" 
d="M355 0h-375l7 31l304 382h-127l9 43h276l-7 -31l-304 -382h81q67 0 93 15.5t58 74.5h27zM279 518h-54l119 149q20 25 32.5 33t32.5 8t34.5 -13t14.5 -32q0 -34 -38 -58z" />
    <glyph glyph-name="Zdotaccent" unicode="&#x17b;" horiz-adv-x="587" 
d="M521 0h-561l8 37l505 572h-183l11 55h372l-7 -34l-508 -575h224q61 0 95.5 22.5t73.5 86.5h31zM427 885q32 0 56 -24t24 -57q0 -34 -23.5 -57.5t-57.5 -23.5t-57.5 24t-23.5 58q0 33 24 56.5t58 23.5z" />
    <glyph glyph-name="zdotaccent" unicode="&#x17c;" horiz-adv-x="449" 
d="M355 0h-375l7 31l304 382h-127l9 43h276l-7 -31l-304 -382h81q67 0 93 15.5t58 74.5h27zM307 704q32 0 56 -24t24 -57q0 -34 -23.5 -57.5t-57.5 -23.5t-57.5 24t-23.5 58q0 33 24 56.5t58 23.5z" />
    <glyph glyph-name="Zcaron" unicode="&#x17d;" horiz-adv-x="587" 
d="M521 0h-561l8 37l505 572h-183l11 55h372l-7 -34l-508 -575h224q61 0 95.5 22.5t73.5 86.5h31zM329 882l98 -68l124 68h56l-166 -160h-68l-98 160h54z" />
    <glyph glyph-name="zcaron" unicode="&#x17e;" horiz-adv-x="449" 
d="M355 0h-375l7 31l304 382h-127l9 43h276l-7 -31l-304 -382h81q67 0 93 15.5t58 74.5h27zM209 684l97 -68l125 68h55l-166 -160h-68l-98 160h55z" />
    <glyph glyph-name="uni018F" unicode="&#x18f;" horiz-adv-x="714" 
d="M76 359h477q6 44 6 65q0 101 -54 153q-24 23 -56 34t-92 15l11 50q83 -2 127.5 -10t91.5 -31q128 -62 128 -210q0 -77 -28 -157t-75 -139q-112 -141 -299 -141q-122 0 -188 63t-66 178q0 65 17 130zM542 305h-322q-12 -76 -12 -113q0 -150 117 -150q154 0 217 263z" />
    <glyph glyph-name="florin" unicode="&#x192;" horiz-adv-x="499" 
d="M298 456l18 42q54 129 124 188.5t166 59.5h55l-14 -40q-54 -2 -99.5 -30.5t-65.5 -75.5l-61 -144h73l-9 -44h-83l-125 -293q-59 -137 -129 -193t-184 -56q-4 0 -13 0.5t-14 0.5l9 40q54 2 99.5 30.5t65.5 75.5l168 395h-60l9 44h70z" />
    <glyph glyph-name="uni01CD" unicode="&#x1cd;" horiz-adv-x="646" 
d="M440 0l-35 186h-252l-112 -186h-65l329 546q25 42 25 58q0 28 -78 29l7 31h203l111 -577q6 -31 22 -43.5t48 -12.5l-7 -31h-196zM345 502l-159 -262h209zM328 882l98 -68l124 68h56l-166 -160h-68l-98 160h54z" />
    <glyph glyph-name="uni01CE" unicode="&#x1ce;" horiz-adv-x="526" 
d="M257 684l97 -68l125 68h55l-166 -160h-68l-98 160h55zM496 410l-68 -326l-1 -10q0 -10 7 -10q10 0 39 24l20 -18q-41 -43 -69.5 -60.5t-58.5 -17.5t-46.5 16.5t-16.5 46.5q0 9 2 23q-38 -47 -72.5 -66.5t-79.5 -19.5q-55 0 -88.5 35t-33.5 92q0 55 24.5 117t66.5 115
q91 113 201 113q50 0 91 -35q20 -19 83 -19zM321 429q-30 0 -61 -30t-57 -84q-47 -100 -47 -193q0 -31 12.5 -51t31.5 -20q54 0 110 119q55 113 55 201q0 26 -12.5 42t-31.5 16z" />
    <glyph glyph-name="uni01D3" unicode="&#x1d3;" horiz-adv-x="692" 
d="M713 664l-85 -402q-29 -139 -105 -206.5t-202 -67.5q-108 0 -164 46.5t-56 135.5q0 42 9 84l64 301q4 18 4 37q0 23 -16.5 31.5t-63.5 9.5l7 31h235l-89 -416q-9 -42 -9 -77q0 -124 120 -124q76 0 127.5 52.5t72.5 152.5l87 412h64zM390 882l98 -68l124 68h56l-166 -160
h-68l-98 160h54z" />
    <glyph glyph-name="uni01D4" unicode="&#x1d4;" horiz-adv-x="505" 
d="M233 684l97 -68l125 68h55l-166 -160h-68l-98 160h55zM450 89l19 -19q-73 -78 -132 -78q-24 0 -40.5 15t-16.5 37q0 9 1 15q-33 -37 -64 -52t-73 -15q-96 0 -96 87q0 33 8 71l47 222q3 14 3 18q0 8 -4.5 11t-18.5 3h-34l4 26l190 34l-69 -332q-6 -30 -6 -49q0 -33 26 -33
q36 0 68.5 50t50.5 133l48 223h123l-77 -356q-4 -19 -4 -28t7 -9q10 0 40 26z" />
    <glyph glyph-name="Gcaron" unicode="&#x1e6;" horiz-adv-x="660" 
d="M663 308l-52 -247q-5 -26 -96.5 -49.5t-184.5 -23.5q-124 0 -197 71t-73 190q0 86 32.5 165.5t90.5 135.5q70 67 176 101q71 22 192 25l-10 -51q-68 -5 -108.5 -19t-79.5 -44q-64 -50 -101 -138.5t-37 -191.5q0 -185 163 -185q85 0 91 27l28 128q3 17 3 32
q0 25 -16.5 33.5t-63.5 9.5l7 31h236zM368 882l97 -68l125 68h56l-166 -160h-68l-98 160h54z" />
    <glyph glyph-name="gcaron" unicode="&#x1e7;" horiz-adv-x="496" 
d="M94 -227l9 29q86 5 146 36t60 70q0 41 -157 57q-139 12 -139 75q0 34 28 66.5t93 74.5q-50 40 -50 93q0 74 74 132.5t168 58.5q70 0 114.5 -37.5t44.5 -96.5q0 -76 -68 -133t-160 -57q-37 0 -88 18q-38 -38 -38 -57q0 -23 43 -28l35 -4q204 -26 204 -124q0 -85 -87 -130
q-78 -40 -232 -43zM317 426q-52 0 -87 -48t-35 -118q0 -37 18 -58.5t48 -21.5q44 0 77.5 51t33.5 117q0 36 -15 57t-40 21zM243 684l97 -68l125 68h55l-166 -160h-68l-98 160h55z" />
    <glyph glyph-name="Scommaaccent" unicode="&#x218;" horiz-adv-x="544" 
d="M173 -313l-27 21q29 19 55.5 50t26.5 45q0 3 -4 5q-19 5 -33 24t-14 39q0 27 21 47t48 20t48 -20t21 -46q0 -31 -21 -68q-37 -68 -121 -117zM464 676l-11 -51q-95 -6 -147 -32q-24 -12 -40 -33t-16 -42q0 -28 24.5 -51t106.5 -70q85 -49 115.5 -86t30.5 -91
q0 -96 -87 -164t-210 -68q-38 0 -105 14q-35 8 -64 12l-39 6l18 167h31q5 -40 15 -61.5t31 -39.5q45 -39 111 -39q57 0 104 39.5t47 86.5q0 32 -26.5 58.5t-102.5 69.5q-78 44 -105 76.5t-27 82.5q0 111 105 169q45 24 99 35t142 12z" />
    <glyph glyph-name="scommaaccent" unicode="&#x219;" horiz-adv-x="390" 
d="M314 464l-8 -33q-56 -4 -80 -19.5t-24 -48.5q0 -18 13 -35t55 -50q53 -44 72 -72.5t19 -64.5q0 -56 -39 -92q-62 -57 -181 -57q-42 0 -116 25v98h26q5 -43 28.5 -66.5t62.5 -23.5q40 0 66 22.5t26 56.5q0 24 -16 47t-57 57q-45 37 -63.5 65t-18.5 59q0 53 41 86
q31 24 74 34t120 12zM99 -313l-26 21q42 29 66 66q15 22 15 29q0 3 -4 5q-19 5 -32.5 24t-13.5 39q0 27 20.5 47t48.5 20q26 0 47 -20.5t21 -45.5q0 -31 -21 -68q-37 -68 -121 -117z" />
    <glyph glyph-name="uni021A" unicode="&#x21a;" horiz-adv-x="609" 
d="M665 500h-31q0 74 -20 91.5t-104 17.5h-44l-130 -609h-144l130 609h-46q-82 0 -110 -18t-59 -91h-31l44 164h571zM168 -313l-26 21q42 29 66 66q15 22 15 29q0 3 -4 5q-19 5 -32.5 24t-13.5 39q0 27 20.5 47t48.5 20q26 0 47 -20.5t21 -45.5q0 -31 -21 -68
q-37 -68 -121 -117z" />
    <glyph glyph-name="uni021B" unicode="&#x21b;" horiz-adv-x="317" 
d="M25 -313l-27 21q29 19 55.5 50t26.5 45q0 3 -4 5q-19 5 -33 24t-14 39q0 27 21 47t48 20t48 -20t21 -46q0 -31 -21 -68q-37 -68 -121 -117zM252 456h85l-9 -42h-85l-68 -330q-2 -10 -2 -12q0 -9 7 -9q11 0 40 26l19 -19q-72 -78 -132 -78q-26 0 -41.5 15t-15.5 40
q0 33 14 99l67 310q57 51 79.5 77t44.5 71h28z" />
    <glyph glyph-name="uni0259" unicode="&#x259;" horiz-adv-x="426" 
d="M153 433l6 26q32 5 57 5q92 0 142 -41.5t50 -117.5q0 -120 -89 -216.5t-200 -96.5q-56 0 -90.5 25.5t-34.5 66.5q0 91 113 137q63 26 170 29q8 49 8 66q0 54 -33 84q-30 29 -99 33zM268 214q-62 -9 -106 -43q-26 -20 -42 -49.5t-16 -55.5q0 -16 9 -26.5t22 -10.5
q34 0 69.5 49.5t63.5 135.5z" />
    <glyph glyph-name="circumflex" unicode="&#x2c6;" horiz-adv-x="340" 
d="M352 524l-97 68l-125 -68h-55l166 160h68l98 -160h-55z" />
    <glyph glyph-name="caron" unicode="&#x2c7;" horiz-adv-x="340" 
d="M164 684l97 -68l125 68h55l-166 -160h-68l-98 160h55z" />
    <glyph glyph-name="uni02C9" unicode="&#x2c9;" horiz-adv-x="344" 
d="M98 538l14 64h296l-14 -64h-296z" />
    <glyph glyph-name="breve" unicode="&#x2d8;" horiz-adv-x="332" 
d="M360 674h44q-43 -162 -168 -162q-106 0 -106 112q0 19 5 50h44v-8q0 -70 75 -70t106 78z" />
    <glyph glyph-name="dotaccent" unicode="&#x2d9;" horiz-adv-x="340" 
d="M263 704q32 0 56 -24t24 -57q0 -34 -23.5 -57.5t-57.5 -23.5t-57.5 24t-23.5 58q0 33 24 56.5t58 23.5z" />
    <glyph glyph-name="ring" unicode="&#x2da;" horiz-adv-x="336" 
d="M260 660q-19 0 -32.5 -13.5t-13.5 -32.5t13.5 -32.5t32.5 -13.5t32.5 13.5t13.5 32.5t-13.5 32.5t-32.5 13.5zM261 714q40 0 69.5 -29.5t29.5 -70.5t-29.5 -70.5t-70.5 -29.5q-42 0 -71 29.5t-29 71.5q0 41 29.5 70t71.5 29z" />
    <glyph glyph-name="ogonek" unicode="&#x2db;" horiz-adv-x="336" 
d="M280 -124l-14 -62q-48 -18 -89 -18q-50 0 -81.5 20.5t-31.5 53.5q0 36 30.5 69.5t100.5 73.5q4 2 26 15h48q-92 -86 -92 -134q0 -32 44 -32q25 0 59 14z" />
    <glyph glyph-name="tilde" unicode="&#x2dc;" horiz-adv-x="340" 
d="M391 658h45q-21 -68 -57 -106t-80 -38q-30 0 -75 27q-35 21 -54 21q-30 0 -52 -44h-46q46 144 138 144q31 0 73 -27q37 -21 55 -21q30 0 53 44z" />
    <glyph glyph-name="hungarumlaut" unicode="&#x2dd;" horiz-adv-x="340" 
d="M140 518h-54l106 149q29 41 67 41q21 0 34.5 -12.5t13.5 -32.5q0 -36 -34 -58zM314 518h-54l106 149q29 41 67 41q21 0 34.5 -12.5t13.5 -32.5q0 -36 -34 -58z" />
    <glyph glyph-name="tonos" unicode="&#x384;" horiz-adv-x="236" 
d="M184 512h-42q-11 126 -11 148q0 36 21 58t55 22q26 0 41.5 -14t15.5 -36q0 -24 -27 -77q-6 -11 -53 -101z" />
    <glyph glyph-name="dieresistonos" unicode="&#x385;" horiz-adv-x="352" 
d="M405 654q25 0 44 -19t19 -44q0 -26 -18.5 -45t-44.5 -19q-27 0 -45.5 18.5t-18.5 45.5q0 26 19 44.5t45 18.5zM275 512h-42q-10 114 -10 146q0 37 20.5 59.5t54.5 22.5q26 0 40.5 -13.5t14.5 -37.5q0 -17 -9.5 -39.5t-68.5 -137.5zM145 654q25 0 44 -19t19 -44
q0 -26 -18.5 -45t-44.5 -19q-27 0 -45.5 18.5t-18.5 45.5q0 26 19 44.5t45 18.5z" />
    <glyph glyph-name="Alphatonos" unicode="&#x386;" horiz-adv-x="646" 
d="M440 0l-35 186h-252l-112 -186h-65l329 546q25 42 25 58q0 28 -78 29l7 31h203l111 -577q6 -31 22 -43.5t48 -12.5l-7 -31h-196zM345 502l-159 -262h209zM146 512h-42q-12 117 -12 148q0 36 21 58t55 22q26 0 41.5 -14t15.5 -36q0 -24 -27 -77q-14 -24 -52 -101z" />
    <glyph glyph-name="uni0387" unicode="&#x387;" horiz-adv-x="292" 
d="M152 336q35 0 58.5 -23.5t23.5 -57.5t-23.5 -57.5t-57.5 -23.5q-33 0 -57 23.5t-24 56.5q0 35 23 58.5t57 23.5z" />
    <glyph glyph-name="Epsilontonos" unicode="&#x388;" horiz-adv-x="684" 
d="M587 0h-460l118 555q4 17 4 36q0 23 -16.5 32t-62.5 10l6 31h538l-21 -141h-31q-1 55 -20.5 70.5t-90.5 15.5h-118q-22 0 -28.5 -7.5t-13.5 -39.5l-40 -187h168l-12 -55h-168l-45 -211q-5 -23 -5 -34q0 -12 14.5 -16t59.5 -4h108q52 0 94 39q23 21 52 70h31zM80 512h-42
q-11 126 -11 148q0 36 21 58t55 22q26 0 41.5 -14t15.5 -36q0 -24 -27 -77q-6 -11 -53 -101z" />
    <glyph glyph-name="Etatonos" unicode="&#x389;" horiz-adv-x="819" 
d="M525 0l68 320h-254l-68 -320h-144l118 555q4 24 4 34q0 25 -17 34t-63 10l7 31h236l-61 -289h254l61 289h144l-117 -551q-5 -23 -5 -40q0 -24 16.5 -32.5t63.5 -9.5l-7 -31h-236zM80 512h-42q-11 126 -11 148q0 36 21 58t55 22q26 0 41.5 -14t15.5 -36q0 -24 -27 -77
q-6 -11 -53 -101z" />
    <glyph glyph-name="Iotatonos" unicode="&#x38a;" horiz-adv-x="380" 
d="M127 0l118 555q4 26 4 37q0 23 -16.5 31.5t-62.5 9.5l6 31h236l-141 -664h-144zM80 512h-42q-11 126 -11 148q0 36 21 58t55 22q26 0 41.5 -14t15.5 -36q0 -24 -27 -77q-6 -11 -53 -101z" />
    <glyph glyph-name="Omicrontonos" unicode="&#x38c;" horiz-adv-x="714" 
d="M462 676q121 0 187 -63.5t66 -179.5q0 -96 -36.5 -187.5t-98.5 -153.5q-106 -104 -263 -104q-125 0 -191 62.5t-66 180.5q0 80 26.5 160t73.5 141q112 144 302 144zM450 621q-115 0 -175 -136q-28 -64 -46.5 -146.5t-18.5 -145.5q0 -150 117 -150q55 0 100 36t73 101
t46.5 148t18.5 143q0 150 -115 150zM109 512h-42q-11 126 -11 148q0 36 21 58t55 22q26 0 41.5 -14t15.5 -36q0 -24 -27 -77q-6 -11 -53 -101z" />
    <glyph glyph-name="Upsilontonos" unicode="&#x38e;" horiz-adv-x="719" 
d="M531 302l-40 -189q-5 -27 -5 -42q0 -21 17 -30t63 -10l-7 -31h-236l64 302l-130 271q-19 34 -39 47t-53 13l7 31h204l137 -280l240 280h87zM80 512h-42q-11 126 -11 148q0 36 21 58t55 22q26 0 41.5 -14t15.5 -36q0 -24 -27 -77q-6 -11 -53 -101z" />
    <glyph glyph-name="Omegatonos" unicode="&#x38f;" horiz-adv-x="768" 
d="M300 0h-248l7 172h30q10 -69 31.5 -93.5t69.5 -24.5h8q50 0 61 29q-166 45 -166 213q0 69 25.5 137.5t70.5 118.5q109 124 301 124q130 0 200 -59t70 -167q0 -68 -26 -136.5t-71 -118.5q-73 -82 -192 -111q-1 -2 -1 -5q-1 -13 11 -19t38 -6h8q48 0 80 24.5t72 93.5h30
l-67 -172h-248l26 123q70 19 115 87q29 44 51 123.5t22 142.5q0 146 -129 146q-57 0 -102.5 -30t-73.5 -85q-26 -52 -43 -122t-17 -124q0 -115 83 -139zM123 512h-43q-11 120 -11 148q0 36 21 58t55 22q26 0 41.5 -14t15.5 -36q0 -24 -27 -77q-33 -63 -52 -101z" />
    <glyph glyph-name="iotadieresistonos" unicode="&#x390;" horiz-adv-x="282" 
d="M260 464l-76 -372q-3 -13 -3 -20q0 -9 6 -9q10 0 41 26l19 -19q-73 -78 -133 -78q-25 0 -40.5 15.5t-15.5 39.5q0 33 14 99l48 226q3 15 3 19q0 13 -23 13h-34l4 26zM345 654q25 0 44 -19t19 -44q0 -26 -18.5 -45t-44.5 -19q-27 0 -45.5 18.5t-18.5 45.5q0 26 19 44.5
t45 18.5zM215 512h-42q-10 114 -10 146q0 37 20.5 59.5t54.5 22.5q26 0 40.5 -13.5t14.5 -37.5q0 -16 -11 -41t-67 -136zM85 654q25 0 44 -19t19 -44q0 -26 -18.5 -45t-44.5 -19q-27 0 -45.5 18.5t-18.5 45.5q0 26 19 44.5t45 18.5z" />
    <glyph glyph-name="Alpha" unicode="&#x391;" horiz-adv-x="646" 
d="M440 0l-35 186h-252l-112 -186h-65l329 546q25 42 25 58q0 28 -78 29l7 31h203l111 -577q6 -31 22 -43.5t48 -12.5l-7 -31h-196zM345 502l-159 -262h209z" />
    <glyph glyph-name="Beta" unicode="&#x392;" horiz-adv-x="660" 
d="M121 664h290q129 0 184 -34t55 -113q0 -63 -29.5 -101.5t-96.5 -62.5q51 -17 74 -45.5t23 -74.5q0 -109 -86 -171t-237 -62h-226l118 555q4 17 4 37q0 23 -16.5 31.5t-62.5 9.5zM296 375h58q67 0 108 42.5t41 113.5q0 42 -28.5 60t-94.5 18q-24 0 -30.5 -7t-13.5 -40z
M284 320l-46 -218q-3 -12 -3 -26q0 -13 9.5 -17.5t37.5 -4.5q106 0 148 55q37 48 37 117q0 94 -127 94h-56z" />
    <glyph glyph-name="Gamma" unicode="&#x393;" horiz-adv-x="601" 
d="M216 0h-144l118 555q4 16 4 35q0 24 -17 33t-63 10l7 31h540l-6 -172h-31q-13 70 -36 93.5t-81 23.5h-123q-21 0 -32 -9.5t-15 -33.5z" />
    <glyph glyph-name="uni0394" unicode="&#x394;" horiz-adv-x="646" 
d="M-24 0l329 546q25 42 25 58q0 28 -78 29l7 31h203l111 -577q6 -31 22 -43.5t48 -12.5l-7 -31h-660zM345 502l-271 -448h356z" />
    <glyph glyph-name="Epsilon" unicode="&#x395;" horiz-adv-x="629" 
d="M532 0h-460l118 555q4 17 4 36q0 23 -16.5 32t-62.5 10l6 31h538l-21 -141h-31q-1 55 -20.5 70.5t-90.5 15.5h-118q-22 0 -28.5 -7.5t-13.5 -39.5l-40 -187h168l-12 -55h-168l-45 -211q-5 -25 -5 -34q0 -12 14.5 -16t59.5 -4h108q53 0 94 39q23 21 52 70h31z" />
    <glyph glyph-name="Zeta" unicode="&#x396;" horiz-adv-x="587" 
d="M521 0h-561l8 37l505 572h-183l11 55h372l-7 -34l-508 -575h224q61 0 95.5 22.5t73.5 86.5h31z" />
    <glyph glyph-name="Eta" unicode="&#x397;" horiz-adv-x="765" 
d="M470 0l68 320h-254l-68 -320h-144l118 555q4 16 4 34q0 25 -17 34t-63 10l7 31h236l-61 -289h254l61 289h144l-117 -551q-5 -25 -5 -40q0 -24 16.5 -32.5t63.5 -9.5l-7 -31h-236z" />
    <glyph glyph-name="Theta" unicode="&#x398;" horiz-adv-x="714" 
d="M290 461h31q1 -54 20 -70t82 -16h95l-21 -141h-31q-1 55 -20.5 70.5t-90.5 15.5h-86zM462 676q122 0 188 -63.5t66 -179.5q0 -96 -36.5 -188t-99.5 -153q-106 -104 -263 -104q-125 0 -191 62.5t-66 180.5q0 80 26.5 160t73.5 141q112 144 302 144zM451 621
q-116 0 -175 -136q-29 -64 -47.5 -146.5t-18.5 -145.5q0 -150 118 -150q54 0 99.5 36t73.5 101q28 64 46.5 148t18.5 143q0 150 -115 150z" />
    <glyph glyph-name="Iota" unicode="&#x399;" horiz-adv-x="326" 
d="M72 0l118 555q4 17 4 37q0 23 -16.5 31.5t-62.5 9.5l6 31h236l-141 -664h-144z" />
    <glyph glyph-name="Kappa" unicode="&#x39a;" horiz-adv-x="684" 
d="M476 0l-199 286l-61 -286h-144l118 555q4 16 4 35q0 23 -16 32t-63 11l6 31h236l-61 -288l344 288h90l-344 -288l193 -279q44 -62 112 -66l-7 -31h-208z" />
    <glyph glyph-name="Lambda" unicode="&#x39b;" horiz-adv-x="634" 
d="M384 672h61l129 -581q8 -32 24.5 -45t50.5 -15l-6 -31h-202l-105 484l-300 -484h-67z" />
    <glyph glyph-name="Mu" unicode="&#x39c;" horiz-adv-x="905" 
d="M467 168l304 496h134l-117 -551q-5 -25 -5 -41q0 -23 17 -31.5t62 -9.5l-7 -31h-236l102 478l-294 -478h-63l-113 539l-115 -539h-64l118 555q4 17 4 37q0 22 -16.5 30.5t-62.5 10.5l6 31h242z" />
    <glyph glyph-name="Nu" unicode="&#x39d;" horiz-adv-x="722" 
d="M573 220l94 444h64l-141 -664h-68l-278 508l-81 -379q-7 -33 -7 -52q0 -26 15 -35.5t56 -10.5l-7 -31h-148l121 570q2 14 2 20q0 23 -17.5 32.5t-62.5 10.5l6 31h210z" />
    <glyph glyph-name="Xi" unicode="&#x39e;" horiz-adv-x="629" 
d="M6 0l9 164h31q6 -49 24 -74q27 -35 75 -35h399l-12 -55h-526zM161 664h498l-21 -141h-31q-1 55 -20.5 70.5t-90.5 15.5h-346zM188 461h31q1 -54 20 -70t82 -16h207l-21 -141h-31q-1 55 -20.5 70.5t-90.5 15.5h-198z" />
    <glyph glyph-name="Omicron" unicode="&#x39f;" horiz-adv-x="714" 
d="M462 676q122 0 188 -63.5t66 -179.5q0 -96 -36.5 -188t-99.5 -153q-106 -104 -263 -104q-125 0 -191 62.5t-66 180.5q0 80 26.5 160t73.5 141q112 144 302 144zM451 621q-116 0 -175 -136q-29 -64 -47.5 -146.5t-18.5 -145.5q0 -150 118 -150q54 0 99.5 36t73.5 101
q28 64 46.5 148t18.5 143q0 150 -115 150z" />
    <glyph glyph-name="Pi" unicode="&#x3a0;" horiz-adv-x="765" 
d="M470 0l129 609h-254l-129 -609h-144l118 555q4 16 4 35q0 24 -17 33t-63 10l7 31h634l-117 -551q-5 -25 -5 -41q0 -23 17 -31.5t63 -9.5l-7 -31h-236z" />
    <glyph glyph-name="Rho" unicode="&#x3a1;" 
d="M273 267l-57 -267h-144l118 555q4 16 4 34q0 25 -17 34t-63 10l7 31h306q110 0 166.5 -40.5t56.5 -119.5q0 -78 -40 -133.5t-114 -80.5q-71 -23 -194 -23h-29zM284 321h43q75 0 118 39q27 23 43.5 65.5t16.5 87.5q0 70 -63 90q-22 6 -62 6q-24 0 -30.5 -6.5t-13.5 -40.5z
" />
    <glyph glyph-name="Sigma" unicode="&#x3a3;" horiz-adv-x="587" 
d="M275 332l-132 295l8 37h372l-11 -55h-186l124 -277l-292 -277h224q61 0 95.5 22.5t73.5 86.5h31l-61 -164h-561l8 37z" />
    <glyph glyph-name="Tau" unicode="&#x3a4;" horiz-adv-x="609" 
d="M665 500h-31q0 73 -20.5 91t-103.5 18h-44l-130 -609h-144l130 609h-46q-82 0 -110 -18t-59 -91h-31l44 164h571z" />
    <glyph glyph-name="Upsilon" unicode="&#x3a5;" 
d="M420 302l-40 -189q-5 -27 -5 -42q0 -21 17 -30t63 -10l-7 -31h-236l64 302l-130 271q-19 34 -39 47t-53 13l7 31h204l137 -280l240 280h87z" />
    <glyph glyph-name="Phi" unicode="&#x3a6;" horiz-adv-x="845" 
d="M312 0l13 62q-83 3 -136 23q-129 48 -129 183q0 78 39.5 149t107.5 114q86 55 227 62q-1 22 -17.5 30t-61.5 10l6 31h236l-16 -71q83 -3 136 -23q129 -48 129 -183q0 -78 -39.5 -149t-107.5 -114q-89 -58 -230 -62l-13 -62h-144zM570 540l-90 -424q59 1 104 32
q51 35 79 111q30 82 30 156q0 120 -123 125zM336 116l90 424q-77 -3 -126 -52q-38 -36 -62.5 -105.5t-24.5 -140.5q0 -121 123 -126z" />
    <glyph glyph-name="Chi" unicode="&#x3a7;" horiz-adv-x="648" 
d="M-32 0l320 319l-125 256q-17 32 -36 44.5t-53 13.5l7 31h206l114 -232l232 232h80l-286 -286l131 -268q23 -50 40.5 -64t56.5 -15l-7 -31h-204l-130 266l-266 -266h-80z" />
    <glyph glyph-name="Psi" unicode="&#x3a8;" horiz-adv-x="853" 
d="M71 633l7 31h236l-47 -219q-11 -55 -11 -98q0 -56 26 -89.5t75 -38.5l71 336q5 23 5 38q0 22 -16.5 30.5t-60.5 9.5l7 31h233l-95 -444q141 13 186 225l47 219h144l-48 -223q-25 -117 -117.5 -190t-221.5 -78l-37 -173h-144l37 173q-109 5 -170 59.5t-61 147.5q0 31 6 61
l24 114q5 23 5 38q0 22 -17 30.5t-63 9.5z" />
    <glyph glyph-name="uni03A9" unicode="&#x3a9;" horiz-adv-x="768" 
d="M300 0h-248l7 172h30q10 -69 31.5 -93.5t69.5 -24.5h8q50 0 61 29q-166 45 -166 213q0 69 25.5 137.5t70.5 118.5q109 124 301 124q130 0 200 -59t70 -167q0 -68 -26 -136.5t-71 -118.5q-73 -82 -192 -111q-1 -4 -1 -5q-1 -13 11 -19t38 -6h8q48 0 80 24.5t72 93.5h30
l-67 -172h-248l26 123q70 19 115 87q29 44 51 123.5t22 142.5q0 146 -129 146q-57 0 -102.5 -30t-73.5 -85q-26 -52 -43 -122t-17 -124q0 -115 83 -139z" />
    <glyph glyph-name="Iotadieresis" unicode="&#x3aa;" horiz-adv-x="326" 
d="M72 0l118 555q4 17 4 37q0 23 -16.5 31.5t-62.5 9.5l6 31h236l-141 -664h-144zM198 870q28 0 48 -20t20 -48t-20 -48.5t-49 -20.5q-28 0 -48 20t-20 49q0 28 20 48t49 20zM377 870q28 0 48 -20t20 -48t-20.5 -48.5t-48.5 -20.5t-48 20t-20 49q0 28 20 48t49 20z" />
    <glyph glyph-name="Upsilondieresis" unicode="&#x3ab;" 
d="M420 302l-40 -189q-5 -27 -5 -42q0 -21 17 -30t63 -10l-7 -31h-236l64 302l-130 271q-19 34 -39 47t-53 13l7 31h204l137 -280l240 280h87zM368 870q28 0 48 -20t20 -48t-20 -48.5t-49 -20.5q-28 0 -48 20t-20 49q0 28 20 48t49 20zM558 870q28 0 48 -20t20 -48
t-20 -48.5t-49 -20.5q-28 0 -48 20t-20 49q0 28 20 48t49 20z" />
    <glyph glyph-name="alphatonos" unicode="&#x3ac;" horiz-adv-x="526" 
d="M370 512h-42q-11 126 -11 148q0 36 21 58t55 22q26 0 41.5 -14t15.5 -36q0 -24 -27 -77zM582 456l-140 -235l-10 -146q0 -11 7 -11q10 0 39 24l20 -18q-40 -42 -69 -60t-59 -18q-59 0 -59 63q0 8 3 26q-50 -50 -85.5 -69.5t-76.5 -19.5q-54 0 -88 35t-34 91q0 82 49 169
q45 82 110 129.5t132 47.5q41 0 64.5 -18.5t37.5 -62.5l37 73h122zM340 225l13 55q12 54 12 93q0 24 -12.5 40t-31.5 16q-30 0 -61 -30t-56 -84q-48 -99 -48 -194q0 -30 12.5 -50t31.5 -20q40 0 91 82q27 45 49 92z" />
    <glyph glyph-name="epsilontonos" unicode="&#x3ad;" horiz-adv-x="410" 
d="M416 108l7 -29q-58 -50 -103 -68.5t-110 -18.5q-82 0 -130 31t-48 84q0 61 49 99q37 30 104 42q-37 7 -57 27t-20 49q0 65 57.5 102t158.5 37q32 0 69 -4l-8 -36q-28 1 -40 1q-58 0 -84 -33q-24 -31 -24 -73q0 -22 12.5 -33.5t46.5 -19.5l-8 -39q-61 -4 -85 -21
q-17 -13 -28.5 -36.5t-11.5 -47.5q0 -68 87 -68q93 0 166 55zM317 512h-42q-11 126 -11 148q0 36 21 58t55 22q26 0 41.5 -14t15.5 -36q0 -24 -27 -77z" />
    <glyph glyph-name="etatonos" unicode="&#x3ae;" horiz-adv-x="531" 
d="M423 -131l19 -19q-72 -78 -133 -78q-25 0 -40.5 15.5t-15.5 40.5q0 29 17 110l80 370q10 43 10 70q0 13 -7.5 20.5t-18.5 7.5q-36 0 -68 -49.5t-51 -133.5l-49 -223h-122l80 372q3 14 3 21q0 11 -23 11h-34l4 26l190 34l-12 -62q54 62 130 62q50 0 74 -22.5t24 -71.5
q0 -22 -8 -64l-91 -426q-4 -20 -4 -29q0 -8 6 -8q11 0 40 26zM322 512h-42q-11 126 -11 148q0 36 21 58t55 22q26 0 41.5 -14t15.5 -36q0 -25 -28 -77z" />
    <glyph glyph-name="iotatonos" unicode="&#x3af;" horiz-adv-x="282" 
d="M260 464l-76 -372q-3 -14 -3 -20q0 -9 6 -9q12 0 41 26l19 -19q-72 -78 -132 -78q-25 0 -41 15.5t-16 39.5q0 26 14 99l48 226q3 15 3 19q0 13 -23 13h-34l4 26zM224 512h-42q-11 122 -11 148q0 36 21 58t55 22q26 0 41.5 -14t15.5 -36q0 -25 -28 -77z" />
    <glyph glyph-name="upsilondieresistonos" unicode="&#x3b0;" horiz-adv-x="483" 
d="M478 456l-65 -303q-34 -161 -201 -161q-155 0 -155 117q0 28 5 48l46 215q2 14 2 19q0 13 -24 13h-34l6 26l191 34l-66 -309q-5 -27 -5 -45q0 -29 20 -47.5t51 -18.5q91 0 115 117l63 295h51zM465 654q25 0 44 -19t19 -44q0 -26 -18.5 -45t-44.5 -19q-27 0 -45.5 18.5
t-18.5 45.5q0 26 19 44.5t45 18.5zM335 512h-42q-9 126 -9 146q0 37 20.5 59.5t53.5 22.5q26 0 40.5 -13.5t14.5 -37.5q0 -15 -10.5 -39.5t-67.5 -137.5zM205 654q25 0 44 -19t19 -44q0 -26 -18.5 -45t-44.5 -19q-27 0 -45.5 18.5t-18.5 45.5q0 26 19 44.5t45 18.5z" />
    <glyph glyph-name="alpha" unicode="&#x3b1;" horiz-adv-x="526" 
d="M582 456l-140 -235l-10 -146q0 -11 7 -11q10 0 39 24l20 -18q-40 -42 -69 -60t-59 -18q-59 0 -59 63q0 8 3 26q-50 -50 -85.5 -69.5t-76.5 -19.5q-54 0 -88 35t-34 91q0 82 49 169q45 82 110 129.5t132 47.5q41 0 64.5 -18.5t37.5 -62.5l37 73h122zM340 225l13 55
q12 54 12 93q0 24 -12.5 40t-31.5 16q-30 0 -61 -30t-56 -84q-48 -99 -48 -194q0 -30 12.5 -50t31.5 -20q40 0 91 82q27 45 49 92z" />
    <glyph glyph-name="beta" unicode="&#x3b2;" horiz-adv-x="530" 
d="M161 23l-53 -251h-122l150 707q48 225 233 225q73 0 112 -33t39 -94q0 -63 -38.5 -115.5t-104.5 -79.5q60 -17 86 -45q31 -33 31 -82q0 -85 -54 -159q-70 -98 -201 -98q-53 0 -78 25zM267 521l-92 -434q4 -49 46 -49q27 0 56 20.5t46 51.5q39 68 39 151q0 46 -21.5 68
t-74.5 30l9 42q48 12 73 39.5t39 81.5q11 42 11 82q0 63 -41 63q-40 0 -64 -52q-12 -27 -26 -94z" />
    <glyph glyph-name="gamma" unicode="&#x3b3;" horiz-adv-x="462" 
d="M211 -25l-71 333q-8 39 -24 65t-32 26q-20 0 -52 -22v30q80 57 132 57q56 0 84 -130l50 -232q121 195 132 354h42q-8 -118 -69.5 -257.5t-154.5 -253.5q-74 -88 -142.5 -129t-143.5 -44l8 37q54 4 120.5 50t120.5 116z" />
    <glyph glyph-name="delta" unicode="&#x3b4;" horiz-adv-x="502" 
d="M465 675l-22 -2q-44 -4 -72 -23t-28 -47q0 -11 8 -22t35 -37q62 -61 85.5 -108.5t23.5 -109.5q0 -133 -86.5 -233.5t-202.5 -100.5q-77 0 -123.5 45.5t-46.5 121.5q0 63 27 125.5t73 107.5q60 59 142 67q-39 33 -53.5 55t-14.5 48q0 29 21.5 58t58.5 50q60 34 156 34h25z
M302 424q-34 0 -64 -42q-31 -43 -54 -122.5t-23 -143.5q0 -39 15 -63t40 -24q67 0 115 147q26 80 26 144q0 47 -15 75.5t-40 28.5z" />
    <glyph glyph-name="epsilon" unicode="&#x3b5;" horiz-adv-x="410" 
d="M416 108l7 -29q-58 -50 -103 -68.5t-110 -18.5q-82 0 -130 31t-48 84q0 61 49 99q37 30 104 42q-37 7 -57 27t-20 49q0 65 57.5 102t158.5 37q32 0 69 -4l-8 -36q-28 1 -40 1q-58 0 -84 -33q-24 -31 -24 -73q0 -22 12.5 -33.5t46.5 -19.5l-8 -39q-61 -4 -85 -21
q-17 -13 -28.5 -36.5t-11.5 -47.5q0 -68 87 -68q93 0 166 55z" />
    <glyph glyph-name="zeta" unicode="&#x3b6;" horiz-adv-x="410" 
d="M120 -228l7 36l14 2q43 5 73 37t30 71q0 17 -13 28t-54 28q-73 31 -104 74t-31 114t29.5 133.5t108.5 155.5l176 210h-145l9 43h285l-7 -31l-220 -273q-108 -136 -108 -226q0 -41 19.5 -63t78.5 -45q53 -22 76 -50t23 -71q0 -56 -35.5 -97t-100.5 -61q-40 -12 -111 -15z
" />
    <glyph glyph-name="eta" unicode="&#x3b7;" horiz-adv-x="531" 
d="M423 -131l19 -19q-72 -78 -133 -78q-25 0 -40.5 15.5t-15.5 40.5q0 29 17 110l80 370q10 43 10 70q0 13 -7.5 20.5t-18.5 7.5q-36 0 -68 -49.5t-51 -133.5l-49 -223h-122l80 372q3 14 3 21q0 11 -23 11h-34l4 26l190 34l-12 -62q54 62 130 62q50 0 74 -22.5t24 -71.5
q0 -22 -8 -64l-91 -426q-4 -20 -4 -29q0 -8 6 -8q11 0 40 26z" />
    <glyph glyph-name="theta" unicode="&#x3b8;" horiz-adv-x="544" 
d="M222 370h179q22 114 22 186q0 111 -46 111q-79 0 -155 -297zM392 328h-179q-24 -123 -24 -188q0 -111 50 -111q81 0 153 299zM401 704q65 0 104.5 -58t39.5 -155q0 -79 -25.5 -166t-70.5 -162q-49 -81 -108 -126t-118 -45q-73 0 -114 55.5t-41 153.5q0 129 62 265
q52 114 122.5 176t148.5 62z" />
    <glyph glyph-name="iota" unicode="&#x3b9;" horiz-adv-x="282" 
d="M260 464l-76 -372q-3 -14 -3 -20q0 -9 6 -9q12 0 41 26l19 -19q-72 -78 -132 -78q-25 0 -41 15.5t-16 39.5q0 26 14 99l48 226q3 15 3 19q0 13 -23 13h-34l4 26z" />
    <glyph glyph-name="kappa" unicode="&#x3ba;" horiz-adv-x="520" 
d="M268 464l-40 -190l207 181h79l-209 -184l110 -166q15 -23 22.5 -30.5t14.5 -7.5q13 0 45 30l19 -19q-75 -86 -127 -86q-39 0 -80 62l-97 146l-43 -200h-122l80 372q3 14 3 19q0 13 -23 13h-34l5 26z" />
    <glyph glyph-name="lambda" unicode="&#x3bb;" horiz-adv-x="462" 
d="M258 342l-222 -342h-57l268 413l-22 130q-7 41 -21.5 67.5t-30.5 26.5q-17 0 -52 -19v29q90 57 136 57q59 0 82 -134l68 -417q6 -40 21 -67t31 -27q19 0 52 19v-29q-91 -57 -136 -57q-60 0 -81 134z" />
    <glyph glyph-name="uni03BC" unicode="&#x3bc;" horiz-adv-x="505" 
d="M-24 -228l127 600q3 12 3 18q0 8 -4.5 11t-18.5 3h-34l6 26l190 34l-70 -332q-7 -34 -7 -49q0 -33 26 -33q36 0 68.5 50t50.5 133l48 223h123l-76 -356q-4 -21 -4 -28q0 -9 6 -9q11 0 40 26l19 -19q-73 -78 -131 -78q-25 0 -41.5 15t-16.5 37q0 9 1 15q-60 -67 -134 -67
h-8l-47 -220h-116z" />
    <glyph glyph-name="nu" unicode="&#x3bd;" horiz-adv-x="456" 
d="M414 456h42q-5 -91 -20 -146.5t-51 -118.5q-47 -82 -116.5 -141.5t-119.5 -59.5q-20 0 -31.5 15.5t-11.5 42.5q0 44 11 132q11 91 11 149q0 70 -28 70q-17 0 -50 -22v30q80 57 131 57q28 0 45 -44t17 -117q0 -52 -18 -193q-2 -18 -2 -22q0 -10 6 -10q10 0 46.5 39.5
t60.5 76.5q39 59 56.5 118t21.5 144z" />
    <glyph glyph-name="xi" unicode="&#x3be;" horiz-adv-x="410" 
d="M120 -228l7 36l14 2q43 5 73 37t30 71q0 18 -13 28.5t-54 27.5q-137 57 -137 171q0 105 62 169q39 39 124 64q-63 36 -63 101q0 72 49 127q25 29 79 55h-101l9 43h294l-9 -43h-19q-50 0 -92.5 -23t-62.5 -62q-27 -52 -27 -109q0 -36 14 -52.5t48 -19.5l-9 -42h-14
q-78 0 -119 -71q-33 -58 -33 -114q0 -37 20.5 -58.5t77.5 -43.5q53 -22 76 -50t23 -71q0 -56 -35.5 -97t-100.5 -61q-40 -12 -111 -15z" />
    <glyph glyph-name="omicron" unicode="&#x3bf;" horiz-adv-x="502" 
d="M327 464q77 0 121.5 -44.5t44.5 -120.5q0 -116 -89.5 -211.5t-198.5 -95.5q-79 0 -125 43.5t-46 118.5q0 105 76 198q89 112 217 112zM308 427q-50 0 -85 -67q-62 -114 -62 -241q0 -41 16.5 -65.5t43.5 -24.5q49 0 84 63q60 112 60 241q0 43 -15.5 68.5t-41.5 25.5z" />
    <glyph glyph-name="pi" unicode="&#x3c0;" horiz-adv-x="591" 
d="M414 414h-119l-88 -414h-120l87 411q-33 -5 -52.5 -22.5t-44.5 -64.5h-26l40 132h524l-9 -42h-72l-68 -322q-4 -16 -4 -20q0 -9 6 -9q10 0 41 26l19 -19q-72 -78 -132 -78q-24 0 -40 14.5t-16 35.5q0 23 8 60z" />
    <glyph glyph-name="rho" unicode="&#x3c1;" horiz-adv-x="530" 
d="M-22 -228l75 351q19 89 30 124.5t30 69.5q39 68 99 107.5t124 39.5q74 0 117 -45.5t43 -122.5q0 -118 -82 -211t-186 -93q-45 0 -76 27l-52 -247h-122zM329 427q-63 0 -115 -147q-37 -105 -37 -180q0 -70 52 -70q73 0 120 151q28 87 28 163q0 39 -12.5 61t-35.5 22z" />
    <glyph glyph-name="uni03C2" unicode="&#x3c2;" horiz-adv-x="410" 
d="M368 464l-9 -36q-68 -15 -104.5 -45.5t-61.5 -94.5q-23 -61 -23 -116q0 -40 20 -61.5t78 -44.5q53 -22 76 -50t23 -71q0 -56 -35.5 -97t-100.5 -61q-40 -12 -111 -15l7 36l14 2q43 5 73 37t30 71q0 17 -13 28t-54 28q-73 30 -104 73t-31 113q0 90 46 162q61 97 179 130
q37 9 101 12z" />
    <glyph glyph-name="sigma" unicode="&#x3c3;" horiz-adv-x="512" 
d="M543 414h-89q39 -45 39 -115q0 -117 -89.5 -212t-200.5 -95q-78 0 -123.5 43.5t-45.5 118.5q0 105 76 198q90 112 217 112q31 0 58 -8h167zM308 427q-50 0 -85 -67q-62 -114 -62 -241q0 -41 16.5 -65.5t43.5 -24.5q49 0 84 63q60 112 60 241q0 43 -15.5 68.5t-41.5 25.5z
" />
    <glyph glyph-name="tau" unicode="&#x3c4;" horiz-adv-x="385" 
d="M303 413l-88 -413h-121l88 413h-7q-44 0 -69 -18.5t-53 -71.5h-27l42 133h367l-14 -133h-27q-5 44 -16 62q-16 28 -68 28h-7z" />
    <glyph glyph-name="upsilon" unicode="&#x3c5;" horiz-adv-x="483" 
d="M478 456l-65 -303q-34 -161 -201 -161q-155 0 -155 117q0 28 5 48l46 215q2 14 2 19q0 13 -24 13h-34l6 26l191 34l-66 -309q-5 -27 -5 -45q0 -29 20 -47.5t51 -18.5q91 0 115 117l63 295h51z" />
    <glyph glyph-name="phi" unicode="&#x3c6;" horiz-adv-x="704" 
d="M261 29l49 228q18 84 53 128q29 36 74 57.5t92 21.5q76 0 120 -46t44 -124q0 -77 -42 -153t-105 -113q-34 -20 -64.5 -26.5t-105.5 -9.5l-47 -220h-122l47 220q-87 3 -128 23q-39 17 -62 54.5t-23 84.5q0 38 11.5 84t29.5 79q26 49 72.5 90t94.5 57l25 -29
q-41 -32 -69 -106q-42 -107 -42 -200q0 -48 23 -72t75 -28zM430 247l-47 -219q62 5 83 16q52 26 87 158q22 85 22 145q0 80 -49 80q-31 0 -53 -41t-43 -139z" />
    <glyph glyph-name="chi" unicode="&#x3c7;" horiz-adv-x="472" 
d="M485 456l-202 -307l19 -201q11 -119 39 -119q17 0 51 22v-30q-83 -57 -132 -57q-57 0 -69 132l-10 102l-149 -226h-60l202 306l-21 219q-10 102 -36 102q-14 0 -49 -22v30q82 57 132 57q31 0 45.5 -31t22.5 -110l8 -92l149 225h60z" />
    <glyph glyph-name="psi" unicode="&#x3c8;" horiz-adv-x="680" 
d="M289 43l88 413h122l-88 -414q74 15 107.5 46t48.5 99l58 269h50l-58 -276q-22 -88 -71.5 -131t-144.5 -54l-48 -223h-122l47 221q-118 4 -167 35t-49 102q0 24 5 54l41 188q2 14 2 20q0 12 -24 12h-34l6 26l191 34l-59 -278q-6 -28 -6 -52q0 -37 24 -57.5t81 -33.5z" />
    <glyph glyph-name="omega" unicode="&#x3c9;" horiz-adv-x="629" 
d="M309 231h114l-5 -25q-15 -69 -15 -110q0 -21 8.5 -34t22.5 -13q45 0 88 87t43 178q0 37 -9 59.5t-38 60.5l39 30q61 -61 61 -158q0 -61 -21.5 -125.5t-56.5 -111.5q-58 -76 -131 -76q-34 0 -57 17.5t-43 59.5q-60 -77 -131 -77q-62 0 -98 43t-36 117q0 210 202 311
l29 -30q-32 -38 -46.5 -62t-28.5 -61q-29 -76 -29 -165q0 -46 11 -71.5t31 -25.5q59 0 92 162z" />
    <glyph glyph-name="iotadieresis" unicode="&#x3ca;" horiz-adv-x="282" 
d="M260 464l-76 -372q-3 -14 -3 -20q0 -9 6 -9q12 0 41 26l19 -19q-72 -78 -132 -78q-25 0 -41 15.5t-16 39.5q0 26 14 99l48 226q3 15 3 19q0 13 -23 13h-34l4 26zM128 659q28 0 48 -20t20 -48q0 -29 -20 -49t-49 -20q-28 0 -48 20t-20 49q0 28 20 48t49 20zM307 659
q28 0 48 -20t20 -48q0 -29 -20.5 -49t-48.5 -20t-48 20t-20 49q0 28 20 48t49 20z" />
    <glyph glyph-name="upsilondieresis" unicode="&#x3cb;" horiz-adv-x="483" 
d="M478 456l-65 -303q-34 -161 -201 -161q-155 0 -155 117q0 28 5 48l46 215q2 14 2 19q0 13 -24 13h-34l6 26l191 34l-66 -309q-5 -27 -5 -45q0 -29 20 -47.5t51 -18.5q91 0 115 117l63 295h51zM407 659q28 0 48 -20t20 -48t-20 -48.5t-48 -20.5q-29 0 -49 20t-20 49
q0 28 20 48t49 20zM216 659q28 0 48 -20t20 -48q0 -29 -20 -49t-49 -20q-28 0 -48 20t-20 49q0 28 20 48t49 20z" />
    <glyph glyph-name="omicrontonos" unicode="&#x3cc;" horiz-adv-x="502" 
d="M327 464q77 0 121.5 -44.5t44.5 -120.5q0 -116 -89.5 -211.5t-198.5 -95.5q-79 0 -125 43.5t-46 118.5q0 105 76 198q89 112 217 112zM308 427q-50 0 -85 -67q-62 -113 -62 -240q0 -41 16.5 -66t43.5 -25q49 0 84 63q60 112 60 241q0 44 -15 69t-42 25zM357 512h-43
q-11 131 -11 148q0 36 21 58t55 22q26 0 41.5 -14t15.5 -36q0 -24 -27 -77q-17 -30 -52 -101z" />
    <glyph glyph-name="upsilontonos" unicode="&#x3cd;" horiz-adv-x="483" 
d="M478 456l-65 -303q-34 -161 -201 -161q-155 0 -155 117q0 28 5 48l46 215q2 14 2 19q0 13 -24 13h-34l6 26l191 34l-66 -309q-5 -27 -5 -45q0 -29 20 -47.5t51 -18.5q91 0 115 117l63 295h51zM359 512h-42q-11 121 -11 148q0 36 21 58t55 22q26 0 41.5 -14t15.5 -36
q0 -24 -27 -77z" />
    <glyph glyph-name="omegatonos" unicode="&#x3ce;" horiz-adv-x="629" 
d="M309 231h114l-5 -25q-15 -69 -15 -110q0 -21 8.5 -34t22.5 -13q45 0 88 87t43 178q0 37 -9 59.5t-38 60.5l39 30q61 -61 61 -158q0 -61 -21.5 -125.5t-56.5 -111.5q-58 -76 -131 -76q-34 0 -57 17.5t-43 59.5q-60 -77 -131 -77q-62 0 -98 43t-36 117q0 210 202 311
l29 -30q-32 -38 -46.5 -62t-28.5 -61q-29 -76 -29 -165q0 -46 11 -71.5t31 -25.5q59 0 92 162zM421 512h-42q-12 125 -12 148q0 36 21 58t55 22q26 0 41.5 -14t15.5 -36q0 -27 -27 -77q-18 -33 -52 -101z" />
    <glyph glyph-name="theta1" unicode="&#x3d1;" horiz-adv-x="545" 
d="M40 289l6 26l190 34l-47 -217q-7 -34 -7 -55q0 -46 36 -46q23 0 49 20t46 54q25 41 42 92t43 163h-25q-121 0 -179 42q-46 34 -46 97q0 81 72 143t166 62q77 0 117.5 -55t40.5 -158q0 -38 -8 -89h57l-9 -42h-57q-19 -84 -58.5 -160.5t-89.5 -127.5q-42 -43 -86 -61.5
t-103 -18.5q-125 0 -125 94q0 38 8 71l21 100q3 15 3 19q0 13 -23 13h-34zM406 402q16 87 16 163q0 102 -53 102q-37 0 -63.5 -39t-26.5 -92q0 -55 37 -94.5t90 -39.5z" />
    <glyph glyph-name="Upsilon1" unicode="&#x3d2;" 
d="M455 31l-7 -31h-236l35 164q10 43 10 107q0 92 -27 184t-67 135q-37 41 -79 42q-16 0 -29 1l7 31h88q86 0 125.5 -20t71.5 -79q34 -60 56 -183q151 257 319 282l-11 -53q-87 -28 -185 -155q-58 -78 -86.5 -140.5t-48.5 -155.5l-11 -47q-5 -27 -5 -42q0 -21 17 -30t63 -10
z" />
    <glyph glyph-name="phi1" unicode="&#x3d5;" horiz-adv-x="702" 
d="M209 -228l46 220q-105 3 -160.5 46.5t-55.5 123.5q0 103 85 194q91 97 232 108l31 150q3 10 3 18t-4.5 11t-18.5 3h-35l5 26l190 34l-51 -242q103 -1 159.5 -46t56.5 -127q0 -70 -44.5 -139.5t-115.5 -110.5q-72 -41 -156 -49l-47 -220h-120zM262 26l86 404
q-67 -9 -111 -67q-71 -94 -71 -218q0 -52 25 -83t71 -36zM469 430l-86 -404q69 9 111 64q69 91 69 212q0 58 -24.5 90.5t-69.5 37.5z" />
    <glyph glyph-name="afii10023" unicode="&#x401;" horiz-adv-x="629" 
d="M532 0h-460l118 555q4 17 4 36q0 23 -16.5 32t-62.5 10l6 31h538l-21 -141h-31q-1 55 -20.5 70.5t-90.5 15.5h-118q-22 0 -28.5 -7.5t-13.5 -39.5l-40 -187h168l-12 -55h-168l-45 -211q-5 -25 -5 -34q0 -12 14.5 -16t59.5 -4h108q53 0 94 39q23 21 52 70h31zM342 870
q28 0 48 -20t20 -48t-20 -48.5t-49 -20.5q-28 0 -48 20t-20 49q0 28 20 48t49 20zM532 870q28 0 48 -20t20 -48t-20 -48.5t-49 -20.5q-28 0 -48 20t-20 49q0 28 20 48t49 20z" />
    <glyph glyph-name="afii10051" unicode="&#x402;" horiz-adv-x="831" 
d="M478 -118l11 54q54 0 71.5 19t33.5 96l29 139q7 35 7 59q0 52 -28.5 80.5t-80.5 28.5q-53 0 -113 -18l-72 -340h-144l129 609h-34q-64 0 -93 -7.5t-46.5 -28.5t-39.5 -73h-32l43 164h572l-12 -55h-214l-46 -216q75 19 133 19q115 0 168 -38.5t53 -121.5q0 -36 -8 -71
l-17 -81q-26 -121 -86 -169.5t-184 -48.5z" />
    <glyph glyph-name="afii10052" unicode="&#x403;" horiz-adv-x="601" 
d="M216 0h-144l118 555q4 20 4 35q0 24 -17 33t-63 10l7 31h540l-6 -172h-31q-13 70 -36 93.5t-81 23.5h-123q-21 0 -31.5 -9.5t-15.5 -33.5zM426 729h-54l120 150q33 40 70 40q20 0 32.5 -11.5t12.5 -30.5q0 -37 -40 -62z" />
    <glyph glyph-name="afii10053" unicode="&#x404;" 
d="M476 320h-253q-8 -41 -8 -88q0 -185 161 -185q81 0 178 50l8 -45q-111 -64 -226 -64q-128 0 -202 70t-74 191q0 86 32.5 165.5t90.5 135.5q70 67 176 101q71 22 192 25l-10 -51q-110 0 -190.5 -66t-114.5 -184h252z" />
    <glyph glyph-name="afii10054" unicode="&#x405;" horiz-adv-x="544" 
d="M464 676l-11 -51q-95 -6 -147 -32q-24 -12 -40 -33t-16 -42q0 -28 24.5 -51t106.5 -70q85 -49 115.5 -86t30.5 -91q0 -96 -87 -164t-210 -68q-38 0 -105 14q-35 8 -64 12l-39 6l18 167h31q5 -40 15 -61.5t31 -39.5q45 -39 111 -39q57 0 104 39.5t47 86.5q0 32 -26.5 58.5
t-102.5 69.5q-78 44 -105 76.5t-27 82.5q0 111 105 169q45 24 99 35t142 12z" />
    <glyph glyph-name="afii10055" unicode="&#x406;" horiz-adv-x="326" 
d="M72 0l118 555q4 22 4 37q0 23 -16.5 31.5t-62.5 9.5l6 31h236l-141 -664h-144z" />
    <glyph glyph-name="afii10056" unicode="&#x407;" horiz-adv-x="326" 
d="M72 0l118 555q4 22 4 37q0 23 -16.5 31.5t-62.5 9.5l6 31h236l-141 -664h-144zM198 870q28 0 48 -20t20 -48t-20 -48.5t-49 -20.5q-28 0 -48 20t-20 49q0 28 20 48t49 20zM377 870q28 0 48 -20t20 -48t-20.5 -48.5t-48.5 -20.5t-48 20t-20 49q0 28 20 48t49 20z" />
    <glyph glyph-name="afii10057" unicode="&#x408;" horiz-adv-x="336" 
d="M-1 -12l12 55q55 1 71.5 19.5t33.5 97.5l84 395q4 22 4 34q0 25 -17 34t-63 10l7 31h236l-97 -457q-26 -121 -86.5 -170t-184.5 -49z" />
    <glyph glyph-name="afii10058" unicode="&#x409;" horiz-adv-x="981" 
d="M745 664l-57 -267h25q140 0 203 -33.5t63 -107.5q0 -56 -28 -111.5t-74 -87.5q-82 -57 -210 -57h-207l129 609h-190l-127 -422q-27 -91 -67 -135q-60 -63 -152 -63q-29 0 -50 1h-6l11 54h25q35 0 51 20t36 89l113 377q12 40 12 58q0 26 -16.5 35t-63.5 10l7 31h573z
M676 343l-50 -241q-6 -28 -6 -33q0 -8 6 -11t25 -3q73 0 117 38q28 25 44.5 66.5t16.5 86.5q0 97 -116 97h-37z" />
    <glyph glyph-name="afii10059" unicode="&#x40a;" horiz-adv-x="1004" 
d="M542 386l36 171q4 22 4 32q0 25 -17 34t-63 10l7 31h236l-59 -278h24q141 0 204 -32.5t63 -105.5q0 -55 -28 -108t-73 -84q-79 -56 -209 -56h-207l70 331h-244l-70 -331h-144l118 555q4 16 4 34q0 25 -17 34t-63 10l7 31h236l-59 -278h244zM674 332l-48 -230
q-6 -30 -6 -33q0 -8 6 -11t25 -3q73 0 116 37q27 23 43.5 62.5t16.5 82.5q0 95 -117 95h-36z" />
    <glyph glyph-name="afii10060" unicode="&#x40b;" horiz-adv-x="839" 
d="M408 340l-72 -340h-144l130 609h-46q-82 0 -110 -18t-59 -91h-31l44 164h571l-12 -55h-213l-46 -216q73 19 133 19q113 0 166.5 -38.5t53.5 -120.5q0 -34 -7 -72l-14 -67q-5 -22 -5 -39q0 -25 15 -33t64 -10l-7 -32h-236l41 190q6 30 6 59q0 52 -28.5 80.5t-80.5 28.5
q-49 0 -113 -18z" />
    <glyph glyph-name="afii10061" unicode="&#x40c;" horiz-adv-x="684" 
d="M476 0l-199 286l-61 -286h-144l118 555q4 18 4 35q0 23 -16 32t-63 11l6 31h236l-61 -288l344 288h90l-344 -288l193 -279q44 -62 112 -66l-7 -31h-208zM489 729h-54l120 150q32 40 70 40q20 0 32 -11.5t12 -30.5q0 -37 -40 -62z" />
    <glyph glyph-name="afii10062" unicode="&#x40e;" 
d="M5 -12l12 55q90 0 145 61l135 158l-151 311q-19 34 -39 47t-53 13l7 31h204l137 -280l240 280h87l-506 -592q-41 -47 -87 -65t-131 -19zM575 883h44q-45 -162 -168 -162q-106 0 -106 112q0 19 5 50h44v-8q2 -70 74 -70q77 0 107 78z" />
    <glyph glyph-name="afii10145" unicode="&#x40f;" horiz-adv-x="765" 
d="M336 -119h-36v12q0 67 -17 87t-76 20h-135l118 555q4 22 4 35q0 24 -17 33t-63 10l7 31h236l-129 -609h254l129 609h144l-117 -551q-5 -25 -5 -41q0 -23 17 -31.5t63 -9.5l-7 -31h-227q-61 0 -87 -22t-56 -97z" />
    <glyph glyph-name="afii10017" unicode="&#x410;" horiz-adv-x="646" 
d="M440 0l-35 186h-252l-112 -186h-65l329 546q25 42 25 58q0 28 -78 29l7 31h203l111 -577q6 -31 22 -43.5t48 -12.5l-7 -31h-196zM345 502l-159 -262h209z" />
    <glyph glyph-name="afii10018" unicode="&#x411;" horiz-adv-x="632" 
d="M346 609l-45 -212h29q143 0 205.5 -33t62.5 -108q0 -56 -28 -111.5t-74 -87.5q-82 -57 -210 -57h-214l118 557q4 28 4 32q0 25 -17 34t-63 10l7 31h491l-26 -164h-31q1 6 1 15q0 61 -22 77.5t-102 16.5h-86zM289 343l-51 -241q-6 -30 -6 -33q0 -8 6 -11t24 -3
q81 0 124 38q28 25 45 66.5t17 86.5q0 97 -116 97h-43z" />
    <glyph glyph-name="afii10019" unicode="&#x412;" horiz-adv-x="660" 
d="M121 664h290q129 0 184 -34t55 -113q0 -63 -29.5 -101.5t-96.5 -62.5q51 -17 74 -45.5t23 -74.5q0 -109 -86 -171t-237 -62h-226l118 555q4 20 4 37q0 23 -16.5 31.5t-62.5 9.5zM296 375h58q67 0 108 42.5t41 113.5q0 42 -28.5 60t-94.5 18q-24 0 -30.5 -7t-13.5 -40z
M284 320l-46 -218q-3 -12 -3 -26q0 -13 9.5 -17.5t37.5 -4.5q106 0 148 55q37 48 37 117q0 94 -127 94h-56z" />
    <glyph glyph-name="afii10020" unicode="&#x413;" horiz-adv-x="601" 
d="M216 0h-144l118 555q4 16 4 35q0 24 -17 33t-63 10l7 31h540l-6 -172h-31q-13 70 -36 93.5t-81 23.5h-123q-21 0 -32 -9.5t-15 -33.5z" />
    <glyph glyph-name="afii10021" unicode="&#x414;" horiz-adv-x="758" 
d="M674 -119h-36q1 13 1 28q0 53 -19.5 72t-74.5 19h-402q-45 0 -70.5 -12t-44.5 -42q-10 -16 -29 -65h-36l35 162h20q47 0 63.5 18t38.5 91l113 378q11 37 11 58q0 26 -16.5 35t-63.5 10l7 31h577l-117 -551q-4 -17 -4 -39q0 -24 15.5 -33.5t55.5 -9.5h8zM592 609h-196
l-126 -422q-27 -87 -72 -132h277z" />
    <glyph glyph-name="afii10022" unicode="&#x415;" horiz-adv-x="629" 
d="M532 0h-460l118 555q4 17 4 36q0 23 -16.5 32t-62.5 10l6 31h538l-21 -141h-31q-1 55 -20.5 70.5t-90.5 15.5h-118q-22 0 -28.5 -7.5t-13.5 -39.5l-40 -187h168l-12 -55h-168l-45 -211q-5 -25 -5 -34q0 -12 14.5 -16t59.5 -4h108q53 0 94 39q23 21 52 70h31z" />
    <glyph glyph-name="afii10024" unicode="&#x416;" horiz-adv-x="1013" 
d="M390 376l-131 171q-40 50 -64.5 66t-66.5 20l7 31h124l221 -288l38 179q4 16 4 35q0 23 -16 32t-63 11l6 31h236l-61 -288l344 288h90l-344 -288l193 -279q44 -62 112 -66l-7 -31h-208l-199 286l-61 -286h-144l61 286l-321 -286h-169z" />
    <glyph glyph-name="afii10025" unicode="&#x417;" 
d="M240 625l10 51l30 -1q174 -7 228 -31q84 -38 84 -128q0 -84 -67 -133q-24 -17 -61 -30q53 -18 75 -46t22 -77q0 -111 -99.5 -177t-266.5 -66q-75 0 -122 14t-99 51l27 45q49 -30 82.5 -40t85.5 -10q150 0 202 64q36 46 36 115q0 94 -127 94h-31l11 55h34q61 0 100 34
q21 19 35 52.5t14 66.5q0 50 -51 73q-34 14 -120 21z" />
    <glyph glyph-name="afii10026" unicode="&#x418;" horiz-adv-x="765" 
d="M611 664h144l-117 -551q-5 -25 -5 -40q0 -24 16.5 -32.5t63.5 -9.5l-7 -31h-236l111 521l-365 -521h-144l118 555q4 18 4 34q0 25 -17 34t-63 10l7 31h236l-111 -521z" />
    <glyph glyph-name="afii10027" unicode="&#x419;" horiz-adv-x="765" 
d="M610 883h44q-45 -162 -168 -162q-107 0 -107 112q0 20 6 50h44v-8q1 -70 74 -70q77 0 107 78zM611 664h144l-117 -551q-5 -25 -5 -40q0 -24 16.5 -32.5t63.5 -9.5l-7 -31h-236l111 521l-365 -521h-144l118 555q4 18 4 34q0 25 -17 34t-63 10l7 31h236l-111 -521z" />
    <glyph glyph-name="afii10028" unicode="&#x41a;" horiz-adv-x="684" 
d="M476 0l-199 286l-61 -286h-144l118 555q4 16 4 35q0 23 -16 32t-63 11l6 31h236l-61 -288l344 288h90l-344 -288l193 -279q44 -62 112 -66l-7 -31h-208z" />
    <glyph glyph-name="afii10029" unicode="&#x41b;" horiz-adv-x="765" 
d="M165 633l7 31h583l-117 -551q-5 -25 -5 -41q0 -23 17 -31.5t63 -9.5l-7 -31h-236l130 609h-201l-127 -422q-31 -103 -84 -150.5t-137 -47.5q-27 0 -48 1h-6l11 54h25q35 0 51 19.5t36 88.5l113 378q12 40 12 58q0 26 -16.5 35t-63.5 10z" />
    <glyph glyph-name="afii10030" unicode="&#x41c;" horiz-adv-x="910" 
d="M461 172l305 492h134l-117 -551q-5 -25 -5 -41q0 -23 17 -31.5t62 -9.5l-7 -31h-236l101 472l-293 -472h-63l-113 539l-115 -539h-64l118 555q4 17 4 37q0 22 -16.5 30.5t-62.5 10.5l6 31h242z" />
    <glyph glyph-name="afii10031" unicode="&#x41d;" horiz-adv-x="765" 
d="M470 0l68 320h-254l-68 -320h-144l118 555q4 20 4 34q0 25 -17 34t-63 10l7 31h236l-61 -289h254l61 289h144l-117 -551q-5 -25 -5 -40q0 -24 16.5 -32.5t63.5 -9.5l-7 -31h-236z" />
    <glyph glyph-name="afii10032" unicode="&#x41e;" horiz-adv-x="714" 
d="M462 676q122 0 188 -63.5t66 -179.5q0 -96 -36.5 -188t-99.5 -153q-106 -104 -263 -104q-125 0 -191 62.5t-66 180.5q0 80 26.5 160t73.5 141q112 144 302 144zM451 621q-116 0 -175 -136q-29 -64 -47.5 -146.5t-18.5 -145.5q0 -150 118 -150q54 0 99.5 36t73.5 101
q28 64 46.5 148t18.5 143q0 150 -115 150z" />
    <glyph glyph-name="afii10033" unicode="&#x41f;" horiz-adv-x="765" 
d="M470 0l129 609h-254l-129 -609h-144l118 555q4 20 4 34q0 25 -17 34t-63 10l7 31h634l-117 -551q-5 -25 -5 -40q0 -24 16.5 -32.5t63.5 -9.5l-7 -31h-236z" />
    <glyph glyph-name="afii10034" unicode="&#x420;" 
d="M273 267l-57 -267h-144l118 555q4 18 4 34q0 25 -17 34t-63 10l7 31h306q110 0 166.5 -40.5t56.5 -119.5q0 -78 -40 -133.5t-114 -80.5q-71 -23 -194 -23h-29zM284 321h43q75 0 118 39q27 23 43.5 65.5t16.5 87.5q0 70 -63 90q-22 6 -62 6q-22 0 -29.5 -7t-14.5 -40z" />
    <glyph glyph-name="afii10035" unicode="&#x421;" 
d="M554 97l8 -45q-111 -64 -226 -64q-128 0 -202 70t-74 191q0 86 32.5 165.5t90.5 135.5q70 67 176 101q71 22 192 25l-10 -51q-58 -3 -94 -13.5t-73 -35.5q-73 -49 -116 -142t-43 -202q0 -185 161 -185q81 0 178 50z" />
    <glyph glyph-name="afii10036" unicode="&#x422;" horiz-adv-x="609" 
d="M665 500h-31q0 73 -20.5 91t-103.5 18h-44l-130 -609h-144l130 609h-46q-82 0 -110 -18t-59 -91h-31l44 164h571z" />
    <glyph glyph-name="afii10037" unicode="&#x423;" 
d="M5 -12l12 55q93 0 145 61l135 158l-151 311q-19 34 -39 47t-53 13l7 31h204l137 -280l240 280h87l-506 -592q-41 -47 -87 -65t-131 -19z" />
    <glyph glyph-name="afii10038" unicode="&#x424;" horiz-adv-x="845" 
d="M312 0l13 62q-83 3 -136 23q-129 48 -129 183q0 78 39.5 149t107.5 114q86 55 227 62q-1 22 -17.5 30t-61.5 10l6 31h236l-16 -71q83 -3 136 -23q129 -48 129 -183q0 -78 -39.5 -149t-107.5 -114q-89 -58 -230 -62l-13 -62h-144zM336 116l90 424q-77 -3 -126 -52
q-38 -36 -62.5 -105.5t-24.5 -140.5q0 -121 123 -126zM570 540l-90 -424q59 1 104 32q51 35 79 111q30 82 30 156q0 120 -123 125z" />
    <glyph glyph-name="afii10039" unicode="&#x425;" horiz-adv-x="648" 
d="M-32 0l320 319l-125 256q-17 32 -36 44.5t-53 13.5l7 31h206l114 -232l232 232h80l-286 -286l131 -268q23 -50 40.5 -64t56.5 -15l-7 -31h-204l-130 266l-266 -266h-80z" />
    <glyph glyph-name="afii10040" unicode="&#x426;" horiz-adv-x="765" 
d="M72 0l118 555q4 22 4 35q0 24 -17 33t-63 10l7 31h236l-129 -609h254l129 609h144l-117 -551q-4 -22 -4 -38q0 -26 16 -34.5t63 -9.5l-32 -150h-36q1 12 1 28q0 53 -19.5 72t-74.5 19h-480z" />
    <glyph glyph-name="afii10041" unicode="&#x427;" horiz-adv-x="724" 
d="M73 633l7 31h236l-38 -179q-10 -47 -10 -79q0 -49 35.5 -78t96.5 -29q45 0 96 18l74 347h144l-117 -551q-5 -25 -5 -41q0 -23 17 -31.5t63 -9.5l-7 -31h-236l56 263q-71 -19 -127 -19q-122 0 -177.5 39t-55.5 124q0 33 9 78l15 70q4 22 4 35q0 24 -17 33t-63 10z" />
    <glyph glyph-name="afii10042" unicode="&#x428;" horiz-adv-x="1057" 
d="M72 0l118 555q4 18 4 34q0 25 -17 34t-63 10l7 31h236l-129 -609h200l107 500q4 24 4 34q0 25 -17 34t-63 10l6 31h237l-130 -609h201l130 609h144l-117 -551q-5 -23 -5 -40q0 -24 16.5 -32.5t63.5 -9.5l-7 -31h-926z" />
    <glyph glyph-name="afii10043" unicode="&#x429;" horiz-adv-x="1057" 
d="M1005 31l-32 -150h-36q0 53 -2 64q-6 31 -26.5 43t-64.5 12h-772l118 555q4 20 4 35q0 24 -17 33t-63 10l7 31h236l-129 -609h200l107 500q4 24 4 35q0 24 -17 33t-63 10l6 31h237l-130 -609h201l130 609h144l-117 -551q-5 -17 -5 -38q0 -26 16 -34.5t64 -9.5z" />
    <glyph glyph-name="afii10044" unicode="&#x42a;" horiz-adv-x="744" 
d="M321 609h-44q-83 0 -112.5 -18.5t-57.5 -90.5h-31l44 164h357l-57 -267h29q143 0 206 -33t63 -108q0 -56 -28 -111.5t-74 -87.5q-82 -57 -210 -57h-214zM408 343l-50 -241q-6 -30 -6 -33q0 -8 6 -11t24 -3q81 0 124 38q28 25 45 66.5t17 86.5q0 97 -117 97h-43z" />
    <glyph glyph-name="afii10045" unicode="&#x42b;" horiz-adv-x="864" 
d="M301 397h24q140 0 203 -33.5t63 -107.5q0 -56 -28 -111.5t-74 -87.5q-82 -57 -210 -57h-207l118 557q4 18 4 32q0 25 -17 34t-63 10l7 31h236zM289 343l-51 -241q-6 -30 -6 -33q0 -8 6 -11t25 -3q73 0 117 38q28 25 44.5 66.5t16.5 86.5q0 97 -116 97h-36zM610 0l118 555
q5 22 5 37q0 23 -16.5 31.5t-63.5 9.5l6 31h236l-141 -664h-144z" />
    <glyph glyph-name="afii10046" unicode="&#x42c;" horiz-adv-x="625" 
d="M301 397h29q143 0 205.5 -33t62.5 -108q0 -56 -28 -111.5t-74 -87.5q-82 -57 -210 -57h-214l118 557q4 18 4 32q0 25 -17 34t-63 10l7 31h236zM289 343l-51 -241q-6 -30 -6 -33q0 -8 6 -11t24 -3q81 0 124 38q28 25 45 66.5t17 86.5q0 97 -116 97h-43z" />
    <glyph glyph-name="afii10047" unicode="&#x42d;" 
d="M429 320h-253l11 55h252q3 39 3 51q0 105 -64 157q-25 22 -54.5 31t-82.5 11l10 51q120 -3 179 -24q169 -61 169 -228q0 -73 -28 -149.5t-76 -135.5q-125 -151 -321 -151q-115 0 -198 64l27 45q75 -50 154 -50q99 0 168.5 70t103.5 203z" />
    <glyph glyph-name="afii10048" unicode="&#x42e;" horiz-adv-x="1026" 
d="M296 375h97q43 144 142.5 222.5t238.5 78.5q121 0 187 -63.5t66 -179.5q0 -96 -36.5 -187.5t-98.5 -153.5q-107 -104 -266 -104q-121 0 -187.5 63t-66.5 176q0 38 8 93h-96l-68 -320h-144l118 555q4 16 4 35q0 24 -17 33t-63 10l7 31h236zM762 621q-127 0 -191 -175
q-49 -135 -49 -253q0 -150 117 -150q55 0 100 36t73 101t46.5 148t18.5 143q0 150 -115 150z" />
    <glyph glyph-name="afii10049" unicode="&#x42f;" horiz-adv-x="642" 
d="M724 664l-6 -31q-55 0 -77 -15.5t-32 -62.5l-95 -447q-4 -22 -4 -34q0 -25 16.5 -33.5t63.5 -9.5l-7 -31h-236l59 281h-28l-265 -281h-156l272 292q-121 24 -121 129q0 64 36 119t97 86q73 38 177 38h306zM418 335l53 251q1 5 1 10q0 8 -5.5 10.5t-25.5 2.5
q-98 0 -141 -53q-43 -51 -43 -130q0 -91 118 -91h43z" />
    <glyph glyph-name="afii10065" unicode="&#x430;" horiz-adv-x="526" 
d="M496 410l-68 -326l-1 -10q0 -10 7 -10q10 0 39 24l20 -18q-41 -43 -69.5 -60.5t-58.5 -17.5t-46.5 16.5t-16.5 46.5q0 9 2 23q-38 -47 -72.5 -66.5t-79.5 -19.5q-55 0 -88.5 35t-33.5 92q0 55 24.5 117t66.5 115q91 113 201 113q50 0 91 -35q20 -19 83 -19zM321 429
q-30 0 -61 -30t-57 -84q-47 -100 -47 -193q0 -31 12.5 -51t31.5 -20q54 0 110 119q55 113 55 201q0 26 -12.5 42t-31.5 16z" />
    <glyph glyph-name="afii10066" unicode="&#x431;" horiz-adv-x="495" 
d="M438 704l-6 -29q-65 0 -116 -59.5t-84 -173.5q38 22 87 22q73 0 118 -47t45 -123q0 -60 -24.5 -121t-67.5 -104q-72 -77 -174 -77q-81 0 -127 47t-46 130q0 117 52.5 249.5t128.5 204.5q84 81 200 81h14zM298 427q-57 0 -95 -92q-36 -93 -36 -187q0 -56 16.5 -87.5
t46.5 -31.5q34 0 63 42t48 121q16 63 16 123q0 53 -15.5 82.5t-43.5 29.5z" />
    <glyph glyph-name="afii10067" unicode="&#x432;" horiz-adv-x="486" 
d="M336 251q44 -11 68 -37t24 -61q0 -70 -64.5 -116t-161.5 -46q-82 0 -121 37.5t-39 117.5q0 139 78 228.5t199 89.5q67 0 102.5 -23t35.5 -67q0 -87 -121 -123zM186 260q93 20 123 46q34 29 34 76q0 20 -9 32.5t-23 12.5q-76 0 -125 -167zM172 209q-11 -46 -11 -88
q0 -92 44 -92q40 0 71 41.5t31 96.5q0 64 -49 64q-34 0 -86 -22z" />
    <glyph glyph-name="afii10068" unicode="&#x433;" horiz-adv-x="388" 
d="M192 427l8 37q87 -1 126 -16q58 -23 58 -78q0 -24 -13 -53q-13 -28 -37 -50.5t-79 -59.5q-63 -43 -86.5 -70.5t-23.5 -58.5q0 -22 14 -35t38 -13q23 0 80 11l-8 -37q-53 -12 -85 -12q-60 0 -105 24q-50 26 -50 82q0 28 14 59q13 30 41.5 56.5t89.5 66.5q45 29 62 43
t26 30q10 20 10 34q0 20 -17 28.5t-63 11.5z" />
    <glyph glyph-name="afii10069" unicode="&#x434;" horiz-adv-x="539" 
d="M604 704l-6 -29q-30 -1 -41 -4.5t-22 -14.5q-38 -51 -38 -185q-1 -190 -15 -242q-28 -103 -105 -170t-167 -67q-76 0 -121.5 44.5t-45.5 119.5q0 120 85.5 214t194.5 94q24 0 47 -10q4 83 26 134q26 61 69.5 88.5t114.5 27.5h24zM316 427q-23 0 -47 -20t-41 -55
q-61 -122 -61 -239q0 -38 14.5 -61t39.5 -23q70 0 118 151q28 87 28 161q0 86 -51 86z" />
    <glyph glyph-name="afii10070" unicode="&#x435;" horiz-adv-x="426" 
d="M297 23l-6 -26q-33 -5 -57 -5q-92 0 -142 41.5t-50 117.5q0 120 89 216.5t200 96.5q56 0 90.5 -25.5t34.5 -66.5q0 -91 -112 -137q-68 -26 -171 -29q-8 -43 -8 -66q0 -53 33 -84q29 -27 99 -33zM182 242q65 11 106 43q26 20 42 49.5t16 55.5q0 16 -8.5 26.5t-22.5 10.5
q-34 0 -69.5 -49.5t-63.5 -135.5z" />
    <glyph glyph-name="afii10072" unicode="&#x436;" horiz-adv-x="778" 
d="M331 404l5 26l190 34l-40 -190l208 181h79l-210 -184l111 -166q15 -23 22 -30.5t14 -7.5q14 0 46 30l19 -19q-77 -86 -127 -86q-39 0 -80 62l-98 146l-42 -200h-122l43 201l-220 -201h-140l295 274l-68 99q-21 31 -51 31q-28 0 -70 -31v31q44 35 62 45t36 10q32 0 66 -46
l104 -145l22 104q3 15 3 19q0 13 -23 13h-34z" />
    <glyph glyph-name="afii10073" unicode="&#x437;" horiz-adv-x="433" 
d="M-27 79l20 29q50 -55 139 -55q74 0 107 49q20 28 20 63q0 32 -18 44.5t-70 16.5l8 39q92 16 92 103q0 29 -17.5 42.5t-55.5 13.5q-21 0 -41 -1l8 36q39 4 71 4q80 0 123.5 -23.5t43.5 -66.5q0 -48 -32.5 -82t-87.5 -43q103 -20 103 -91t-67.5 -118t-170.5 -47
q-63 0 -101.5 19t-73.5 68z" />
    <glyph glyph-name="afii10074" unicode="&#x438;" horiz-adv-x="505" 
d="M450 89l19 -19q-73 -78 -132 -78q-24 0 -40.5 15t-16.5 37q0 9 1 15q-33 -37 -64 -52t-73 -15q-96 0 -96 87q0 33 8 71l47 222q3 14 3 18q0 8 -4.5 11t-18.5 3h-34l4 26l190 34l-69 -332q-6 -30 -6 -49q0 -33 26 -33q36 0 68.5 50t50.5 133l48 223h123l-77 -356
q-4 -19 -4 -28t7 -9q10 0 40 26z" />
    <glyph glyph-name="afii10075" unicode="&#x439;" horiz-adv-x="505" 
d="M440 674h44q-45 -162 -168 -162q-107 0 -107 112q0 20 6 50h44v-8q1 -70 74 -70q77 0 107 78zM450 89l19 -19q-73 -78 -132 -78q-24 0 -40.5 15t-16.5 37q0 9 1 15q-33 -37 -64 -52t-73 -15q-96 0 -96 87q0 33 8 71l47 222q3 14 3 18q0 8 -4.5 11t-18.5 3h-34l4 26
l190 34l-69 -332q-6 -30 -6 -49q0 -33 26 -33q36 0 68.5 50t50.5 133l48 223h123l-77 -356q-4 -19 -4 -28t7 -9q10 0 40 26z" />
    <glyph glyph-name="afii10076" unicode="&#x43a;" horiz-adv-x="520" 
d="M268 464l-40 -190l207 181h79l-209 -184l110 -166q15 -23 22.5 -30.5t14.5 -7.5q13 0 45 30l19 -19q-75 -86 -127 -86q-39 0 -80 62l-97 146l-43 -200h-122l80 372q3 14 3 19q0 13 -23 13h-34l5 26z" />
    <glyph glyph-name="afii10077" unicode="&#x43b;" horiz-adv-x="541" 
d="M376 414h-28q-28 0 -54.5 -25.5t-37.5 -63.5l-48 -160q-27 -89 -77.5 -131.5t-130.5 -42.5q-20 0 -48 1l6 29q53 0 82.5 29.5t52.5 105.5l42 143q25 83 80.5 120t155.5 37h136l-76 -356q-4 -16 -4 -29q0 -8 7 -8q9 0 40 26l19 -19q-72 -78 -133 -78q-25 0 -40.5 15.5
t-15.5 40.5q0 36 16 110z" />
    <glyph glyph-name="afii10078" unicode="&#x43c;" horiz-adv-x="659" 
d="M601 89l19 -19q-70 -78 -130 -78q-25 0 -40 15.5t-15 40.5t10 80l44 225l-185 -353h-92l-36 349l-83 -349h-46l86 358q4 20 4 28q0 18 -26 18h-29l5 24l197 36l33 -355l179 347h128l-66 -356q-4 -20 -4 -28q0 -9 7 -9q11 0 40 26z" />
    <glyph glyph-name="afii10079" unicode="&#x43d;" horiz-adv-x="538" 
d="M331 225h-117l-48 -225h-122l79 372q3 14 3 21q0 11 -23 11h-34l6 26l190 34l-42 -197h117l41 189h122l-76 -356q-4 -24 -4 -29q0 -8 7 -8q11 0 40 26l19 -19q-70 -78 -132 -78q-25 0 -41 15.5t-16 40.5q0 29 17 110z" />
    <glyph glyph-name="afii10080" unicode="&#x43e;" horiz-adv-x="502" 
d="M327 464q77 0 121.5 -44.5t44.5 -120.5q0 -116 -89.5 -211.5t-198.5 -95.5q-79 0 -125 43.5t-46 118.5q0 105 76 198q89 112 217 112zM308 427q-50 0 -85 -67q-62 -113 -62 -240q0 -41 16.5 -66t43.5 -25q49 0 84 63q60 112 60 241q0 44 -15 69t-42 25z" />
    <glyph glyph-name="afii10081" unicode="&#x43f;" horiz-adv-x="538" 
d="M470 89l19 -19q-72 -78 -133 -78q-25 0 -40.5 15.5t-15.5 40.5q0 33 17 110l33 150q10 48 10 70q0 28 -26 28q-36 0 -68 -49.5t-51 -133.5l-49 -223h-122l80 372q3 14 3 21q0 11 -23 11h-34l4 26l190 34l-12 -62q54 62 130 62q50 0 74 -22.5t24 -71.5q0 -22 -8 -64
l-44 -206q-4 -18 -4 -29q0 -8 6 -8q9 0 40 26z" />
    <glyph glyph-name="afii10082" unicode="&#x440;" horiz-adv-x="530" 
d="M251 466l-19 -88q42 49 74.5 67.5t75.5 18.5q58 0 93 -36t35 -95q0 -56 -22.5 -117t-62.5 -110q-92 -114 -208 -114q-38 0 -59 26l-52 -246h-120l125 602q2 14 2 19q0 13 -22 13h-34l4 26zM338 405q-25 0 -53 -30.5t-53 -85.5q-56 -119 -56 -207q0 -23 12 -37.5t31 -14.5
q64 0 117 112q47 97 47 191q0 32 -12.5 52t-32.5 20z" />
    <glyph glyph-name="afii10083" unicode="&#x441;" horiz-adv-x="410" 
d="M397 88l6 -28q-77 -68 -183 -68q-81 0 -129.5 46t-48.5 122q0 141 105 229q46 38 95.5 55t125.5 20l-9 -36q-53 -11 -81.5 -28.5t-53.5 -52.5q-54 -78 -54 -177q0 -119 114 -119q61 0 113 37z" />
    <glyph glyph-name="afii10084" unicode="&#x442;" horiz-adv-x="385" 
d="M303 413l-88 -413h-121l88 413h-7q-44 0 -69 -18.5t-53 -71.5h-27l42 133h367l-14 -133h-27q-5 44 -16 62q-16 28 -68 28h-7z" />
    <glyph glyph-name="afii10085" unicode="&#x443;" horiz-adv-x="462" 
d="M208 -29l-71 337q-9 40 -24 65.5t-30 25.5q-19 0 -51 -22v30q80 57 132 57q28 0 51 -34.5t36 -95.5l50 -229q51 75 88 176.5t41 174.5h42q-8 -118 -69.5 -257.5t-154.5 -253.5q-74 -88 -142.5 -129t-143.5 -44l8 37q55 7 111 45t127 117z" />
    <glyph glyph-name="afii10086" unicode="&#x444;" horiz-adv-x="759" 
d="M225 -228l56 263q-51 -43 -107 -43q-39 0 -72.5 23.5t-48.5 60.5q-11 30 -11 70q0 80 39 163q34 73 89.5 114t118.5 41q52 0 76 -34l39 184q3 15 3 18q0 8 -4.5 11t-18.5 3h-35l5 26l190 34l-60 -282q51 40 105 40q40 0 74 -22.5t49 -59.5q11 -30 11 -70q0 -79 -39 -162
q-35 -74 -90 -116t-119 -42q-50 0 -75 37l-54 -257h-121zM310 170l28 133q4 22 4 39q0 35 -15 59t-37 24q-60 0 -101 -139q-28 -92 -28 -162q0 -87 48 -87q33 0 60.5 36.5t40.5 96.5zM454 280l-29 -133q-4 -17 -4 -38q0 -34 14.5 -57t34.5 -23q63 0 104 136q28 94 28 165
q0 86 -45 86q-34 0 -62 -37.5t-41 -98.5z" />
    <glyph glyph-name="afii10087" unicode="&#x445;" horiz-adv-x="459" 
d="M475 456l-176 -200l26 -108q23 -91 54 -91q17 0 51 22v-30q-82 -57 -132 -57q-57 0 -87 130l-7 27l-131 -149h-60l178 202l-25 106q-22 91 -54 91q-17 0 -51 -22v30q82 57 131 57q57 0 88 -130l6 -24l129 146h60z" />
    <glyph glyph-name="afii10088" unicode="&#x446;" horiz-adv-x="538" 
d="M453 -119h-33q1 13 1 28q0 51 -23.5 71t-83.5 20h-270l79 372q3 14 3 21q0 11 -23 11h-34l6 26l190 34l-90 -422h118l88 414h122l-76 -360q-3 -14 -3 -25q0 -20 14 -29t47 -10z" />
    <glyph glyph-name="afii10089" unicode="&#x447;" horiz-adv-x="512" 
d="M291 158l5 22q-31 -11 -62 -11q-79 0 -116 26t-37 81q0 18 5 43l11 53q3 14 3 21q0 11 -23 11h-34l6 26l190 34l-33 -152q-4 -24 -4 -38q0 -63 57 -63q24 0 46 11l50 234h122l-76 -356q-4 -16 -4 -29q0 -8 7 -8q9 0 40 26l19 -19q-72 -78 -133 -78q-25 0 -40.5 15.5
t-15.5 40.5q0 26 17 110z" />
    <glyph glyph-name="afii10090" unicode="&#x448;" horiz-adv-x="751" 
d="M402 42h105l88 414h122l-77 -360q-3 -13 -3 -25q0 -20 14 -29t47 -10l-6 -32h-648l79 372q3 14 3 21q0 11 -23 11h-34l6 26l190 34l-90 -422h105l70 330q3 13 3 21q0 11 -23 11h-34l5 26l190 34z" />
    <glyph glyph-name="afii10091" unicode="&#x449;" horiz-adv-x="751" 
d="M402 42h105l88 414h122l-77 -360q-3 -13 -3 -25q0 -20 14 -29t47 -10l-32 -151h-33q2 13 2 28q0 51 -23.5 71t-83.5 20h-484l79 372q3 14 3 21q0 11 -23 11h-34l6 26l190 34l-90 -422h105l70 330q3 13 3 21q0 11 -23 11h-34l5 26l190 34z" />
    <glyph glyph-name="afii10092" unicode="&#x44a;" horiz-adv-x="508" 
d="M179 413h-7q-44 0 -69 -18.5t-53 -71.5h-27l42 133h244l-42 -197q56 26 110 26q113 0 113 -108q0 -76 -41 -119q-64 -67 -181 -67q-71 0 -110.5 31.5t-39.5 89.5q0 20 4 36zM258 215l-20 -95q-3 -14 -3 -28q0 -29 10.5 -46t28.5 -17q36 0 64.5 43.5t28.5 98.5
q0 60 -41 60q-29 0 -68 -16z" />
    <glyph glyph-name="afii10093" unicode="&#x44b;" horiz-adv-x="700" 
d="M63 404l6 26l190 34l-44 -205q53 26 106 26q110 0 110 -107q0 -77 -41 -120q-62 -67 -178 -67q-70 0 -108 31.5t-38 89.5q0 20 3 36l48 224q3 14 3 21q0 11 -23 11h-34zM206 215l-20 -95q-4 -20 -4 -30q0 -28 10.5 -44.5t26.5 -16.5q34 0 61.5 44.5t27.5 99.5
q0 58 -38 58q-25 0 -64 -16zM543 456h122l-75 -356q-5 -23 -5 -29q0 -8 7 -8q11 0 40 26l19 -19q-70 -78 -132 -78q-25 0 -41 15.5t-16 40.5q0 33 17 110z" />
    <glyph glyph-name="afii10094" unicode="&#x44c;" horiz-adv-x="457" 
d="M63 404l6 26l190 34l-44 -205q55 26 109 26q113 0 113 -108q0 -75 -41 -119q-62 -67 -181 -67q-71 0 -110 31.5t-39 89.5q0 20 3 36l48 224q3 14 3 21q0 11 -23 11h-34zM206 215l-21 -95q-3 -15 -3 -28q0 -29 11 -46t29 -17q35 0 63.5 43.5t28.5 98.5q0 60 -40 60
q-29 0 -68 -16z" />
    <glyph glyph-name="afii10095" unicode="&#x44d;" horiz-adv-x="410" 
d="M264 225h-142l9 42h141q1 19 1 33q0 52 -26 86q-22 29 -82 42l8 36q127 -4 182 -66q41 -45 41 -115q0 -120 -81 -205.5t-195 -85.5q-54 0 -93 18q-36 16 -61 50l18 28q36 -37 98 -37q136 0 182 174z" />
    <glyph glyph-name="afii10096" unicode="&#x44e;" horiz-adv-x="736" 
d="M223 267h69q40 91 112.5 144t156.5 53q77 0 121.5 -44.5t44.5 -120.5q0 -117 -89.5 -212t-200.5 -95q-78 0 -123.5 43.5t-45.5 118.5q0 30 10 71h-64l-48 -225h-122l79 372q3 14 3 21q0 11 -23 11h-34l6 26l190 34zM542 427q-50 0 -85 -67q-62 -114 -62 -241
q0 -41 16.5 -65.5t43.5 -24.5q49 0 84 63q60 112 60 241q0 43 -15.5 68.5t-41.5 25.5z" />
    <glyph glyph-name="afii10097" unicode="&#x44f;" horiz-adv-x="510" 
d="M276 201l-169 -201h-132l180 210q-18 4 -28 10q-38 21 -38 72q0 37 19 73.5t49 56.5q52 34 159 34h160l-76 -356q-4 -16 -4 -29q0 -8 7 -8q9 0 40 26l19 -19q-72 -78 -133 -78q-25 0 -40.5 15.5t-15.5 40.5q0 31 16 110l10 43h-23zM307 243l30 138q3 15 3 23q0 10 -20 10
q-53 0 -77 -27q-30 -34 -30 -89t55 -55h39z" />
    <glyph glyph-name="afii10071" unicode="&#x451;" horiz-adv-x="426" 
d="M297 23l-6 -26q-33 -5 -57 -5q-92 0 -142 41.5t-50 117.5q0 120 89 216.5t200 96.5q56 0 90.5 -25.5t34.5 -66.5q0 -91 -112 -137q-68 -26 -171 -29q-8 -43 -8 -66q0 -53 33 -84q29 -27 99 -33zM182 242q65 11 106 43q26 20 42 49.5t16 55.5q0 16 -8.5 26.5t-22.5 10.5
q-34 0 -69.5 -49.5t-63.5 -135.5zM430 659q28 0 48 -20t20 -48t-20 -48.5t-48 -20.5q-29 0 -49 20t-20 49q0 28 20 48t49 20zM239 659q28 0 48 -20t20 -48q0 -29 -20.5 -49t-48.5 -20t-48 20t-20 49q0 28 20 48t49 20z" />
    <glyph glyph-name="afii10099" unicode="&#x452;" horiz-adv-x="528" 
d="M126 -228l6 29q47 2 86.5 35t50.5 80l83 392q10 44 10 70q0 13 -7.5 20.5t-18.5 7.5q-36 0 -68.5 -50t-50.5 -133l-49 -223h-122l111 524h-63l12 55h63l7 35q3 14 3 21q0 11 -23 11h-36l6 26l190 34l-26 -127h117l-12 -55h-116l-25 -122q31 34 60.5 48t70.5 14
q97 0 97 -94q0 -22 -8 -64l-63 -297q-25 -115 -98.5 -176t-186.5 -61z" />
    <glyph glyph-name="afii10100" unicode="&#x453;" horiz-adv-x="388" 
d="M192 427l8 37q87 -1 126 -16q58 -23 58 -78q0 -24 -13 -53q-13 -28 -37 -50.5t-79 -59.5q-63 -43 -86.5 -70.5t-23.5 -58.5q0 -22 14 -35t38 -13q23 0 80 11l-8 -37q-53 -12 -85 -12q-60 0 -105 24q-50 26 -50 82q0 28 14 59q13 30 41.5 56.5t89.5 66.5q45 29 62 43
t26 30q10 20 10 34q0 20 -17 28.5t-63 11.5zM252 518h-54l119 149q19 25 32 33t33 8q21 0 35.5 -13t14.5 -32q0 -34 -39 -58z" />
    <glyph glyph-name="afii10101" unicode="&#x454;" horiz-adv-x="410" 
d="M317 225h-142q-5 -31 -5 -55q0 -119 114 -119q61 0 113 37l6 -28q-77 -68 -183 -68q-81 0 -129.5 46t-48.5 122q0 141 105 229q46 38 95.5 55t125.5 20l-8 -36q-67 -11 -108.5 -49t-66.5 -112h141z" />
    <glyph glyph-name="afii10102" unicode="&#x455;" horiz-adv-x="390" 
d="M314 464l-8 -33q-56 -4 -80 -19.5t-24 -48.5q0 -18 13 -35t55 -50q53 -44 72 -72.5t19 -64.5q0 -56 -39 -92q-62 -57 -181 -57q-42 0 -116 25v98h26q5 -43 28.5 -66.5t62.5 -23.5q40 0 66 22.5t26 56.5q0 24 -16 47t-57 57q-45 37 -63.5 65t-18.5 59q0 53 41 86
q31 24 74 34t120 12z" />
    <glyph glyph-name="afii10103" unicode="&#x456;" horiz-adv-x="282" 
d="M260 464l-76 -372q-3 -14 -3 -20q0 -9 6 -9q12 0 41 26l19 -19q-72 -78 -132 -78q-25 0 -41 15.5t-16 39.5q0 26 14 99l48 226q3 15 3 19q0 13 -23 13h-34l4 26zM226 704q35 0 58.5 -23.5t23.5 -57.5t-23.5 -57.5t-57.5 -23.5q-33 0 -57 23.5t-24 56.5q0 35 23 58.5
t57 23.5z" />
    <glyph glyph-name="afii10104" unicode="&#x457;" horiz-adv-x="282" 
d="M260 464l-76 -372q-3 -14 -3 -20q0 -9 6 -9q12 0 41 26l19 -19q-72 -78 -132 -78q-25 0 -41 15.5t-16 39.5q0 26 14 99l48 226q3 15 3 19q0 13 -23 13h-34l4 26zM128 659q28 0 48 -20t20 -48q0 -29 -20 -49t-49 -20q-28 0 -48 20t-20 49q0 28 20 48t49 20zM307 659
q28 0 48 -20t20 -48q0 -29 -20.5 -49t-48.5 -20t-48 20t-20 49q0 28 20 48t49 20z" />
    <glyph glyph-name="afii10105" unicode="&#x458;" horiz-adv-x="289" 
d="M281 464l-96 -455q-25 -115 -98.5 -176t-186.5 -61l6 29q47 2 86.5 35t50.5 80l96 455q3 13 3 19q0 8 -5 11t-19 3h-32l4 26zM246 704q35 0 58.5 -23.5t23.5 -57.5t-23.5 -57.5t-57.5 -23.5q-33 0 -57 23.5t-24 56.5q0 35 23 58.5t57 23.5z" />
    <glyph glyph-name="afii10106" unicode="&#x459;" horiz-adv-x="701" 
d="M371 414h-23q-28 0 -54.5 -25.5t-37.5 -63.5l-48 -160q-27 -89 -77.5 -131.5t-130.5 -42.5q-20 0 -48 1l6 29q51 0 81.5 30t53.5 105l42 143q25 83 80.5 120t155.5 37h130l-42 -197q56 26 110 26q113 0 113 -108q0 -76 -41 -119q-64 -67 -181 -67q-71 0 -110.5 31.5
t-39.5 89.5q0 20 4 36zM450 215l-20 -95q-3 -13 -3 -28q0 -29 10.5 -46t28.5 -17q36 0 64.5 43.5t28.5 98.5q0 60 -41 60q-29 0 -68 -16z" />
    <glyph glyph-name="afii10107" unicode="&#x45a;" horiz-adv-x="696" 
d="M324 225h-110l-48 -225h-122l79 372q3 14 3 21q0 11 -23 11h-34l6 26l190 34l-42 -197h111l40 189h121l-40 -189q54 18 105 18q116 0 116 -108q0 -76 -41 -119q-64 -67 -181 -67q-71 0 -110.5 31.5t-39.5 89.5q0 20 4 36zM446 223l-22 -103q-3 -13 -3 -28q0 -29 10.5 -46
t28.5 -17q36 0 64.5 43.5t28.5 98.5q0 60 -43 60q-27 0 -64 -8z" />
    <glyph glyph-name="afii10108" unicode="&#x45b;" horiz-adv-x="544" 
d="M157 524h-63l12 55h63l7 35q3 14 3 21q0 11 -23 11h-36l6 26l190 34l-26 -127h117l-12 -55h-116l-25 -122q31 34 60.5 48t70.5 14q97 0 97 -94q0 -22 -8 -64l-44 -206q-4 -17 -4 -29q0 -8 7 -8q8 0 39 26l19 -19q-73 -78 -132 -78q-26 0 -41.5 15t-15.5 40q0 32 14 99
l36 162q10 43 10 70q0 28 -26 28q-36 0 -68 -49.5t-51 -133.5l-49 -223h-122z" />
    <glyph glyph-name="afii10109" unicode="&#x45c;" horiz-adv-x="520" 
d="M268 464l-40 -190l207 181h79l-209 -184l110 -166q15 -23 22.5 -30.5t14.5 -7.5q13 0 45 30l19 -19q-75 -86 -127 -86q-39 0 -80 62l-97 146l-43 -200h-122l80 372q3 14 3 19q0 13 -23 13h-34l5 26zM329 518h-54l119 149q20 25 32.5 33t32.5 8t34.5 -13t14.5 -32
q0 -35 -38 -58z" />
    <glyph glyph-name="afii10110" unicode="&#x45e;" horiz-adv-x="462" 
d="M423 674h44q-45 -162 -168 -162q-107 0 -107 112q0 20 6 50h44q-1 -4 -1 -8q0 -70 75 -70q76 0 107 78zM208 -29l-71 337q-9 40 -24 65.5t-30 25.5q-19 0 -51 -22v30q80 57 132 57q28 0 51 -34.5t36 -95.5l50 -229q51 75 88 176.5t41 174.5h42q-8 -118 -69.5 -257.5
t-154.5 -253.5q-74 -88 -142.5 -129t-143.5 -44l8 37q55 7 111 45t127 117z" />
    <glyph glyph-name="afii10193" unicode="&#x45f;" horiz-adv-x="538" 
d="M217 -119h-34q2 26 2 28q0 51 -25 73q-21 18 -82 18h-34l79 372q3 14 3 21q0 11 -23 11h-34l6 26l190 34l-90 -422h118l88 414h122l-76 -360q-3 -12 -3 -25q0 -20 14 -29t47 -10l-7 -32h-106q-75 0 -108 -34q-29 -29 -47 -85z" />
    <glyph glyph-name="afii10050" unicode="&#x490;" horiz-adv-x="601" 
d="M650 610h-232q-45 0 -60.5 -8t-20.5 -34l-121 -568h-144l118 554q4 17 4 36q0 23 -17 32t-63 10l7 32h398q50 0 79 23.5t68 94.5h30z" />
    <glyph glyph-name="afii10098" unicode="&#x491;" horiz-adv-x="343" 
d="M-30 64l30 15q19 -38 43 -38q16 0 26 16.5t19 56.5l54 248q12 55 49 78.5t115 23.5q47 0 63.5 12.5t34.5 62.5h25q-1 -63 -7 -82q-13 -32 -53 -32q-9 0 -29 2.5t-32 2.5q-17 0 -26 -12t-16 -42l-52 -238q-19 -82 -50 -115q-36 -36 -88 -36q-75 0 -106 77z" />
    <glyph glyph-name="uni0492" unicode="&#x492;" horiz-adv-x="601" 
d="M140 320h-93l12 55h92l39 180q3 18 3 35q0 24 -16.5 33t-62.5 10l6 31h541l-6 -172h-31q-14 71 -37 94t-81 23h-123q-21 0 -31.5 -9.5t-15.5 -33.5l-41 -191h201l-12 -55h-200l-69 -320h-143z" />
    <glyph glyph-name="uni0493" unicode="&#x493;" horiz-adv-x="388" 
d="M335 267h63l-9 -42h-107q-3 -3 -27 -19q-64 -44 -87 -70.5t-23 -57.5q0 -22 14 -35t38 -13q21 0 80 11l-8 -37q-53 -12 -85 -12q-60 0 -105 24q-50 26 -50 82q0 70 69 127h-66l9 42h114l19 13q47 31 63 44.5t25 28.5q10 20 10 34q0 20 -17 28.5t-63 11.5l8 37
q87 -1 126 -16q58 -24 58 -79q0 -26 -13.5 -54.5t-35.5 -47.5z" />
    <glyph glyph-name="uni0496" unicode="&#x496;" horiz-adv-x="1013" 
d="M804 0l-199 286l-61 -286h-144l61 286l-321 -286h-169l419 376l-131 171q-40 50 -64.5 66t-66.5 20l7 31h124l221 -288l38 179q4 16 4 35q0 23 -16 32t-63 11l6 31h236l-61 -288l344 288h90l-344 -288l193 -279q44 -62 112 -66l-32 -150h-37q1 13 1 26q0 50 -23.5 71.5
t-77.5 21.5h-46z" />
    <glyph glyph-name="uni0497" unicode="&#x497;" horiz-adv-x="778" 
d="M796 32l-32 -151h-33q1 13 1 28q0 69 -48 85q-19 6 -80 6l-134 200l-42 -200h-122l43 201l-220 -201h-140l295 274l-68 99q-21 31 -51 31q-28 0 -70 -31v31q44 35 62 45t36 10q32 0 66 -46l104 -145l22 104q3 12 3 19q0 13 -23 13h-34l5 26l190 34l-40 -190l208 181h79
l-210 -184l111 -166q25 -40 48.5 -54t73.5 -19z" />
    <glyph glyph-name="uni049A" unicode="&#x49a;" horiz-adv-x="684" 
d="M659 -119h-38q2 12 2 26q0 49 -23 71t-76 22h-48l-199 286l-61 -286h-144l118 555q4 16 4 35q0 23 -16 32t-63 11l6 31h236l-61 -288l344 288h90l-344 -288l189 -274q25 -35 51.5 -51t64.5 -19z" />
    <glyph glyph-name="uni049B" unicode="&#x49b;" horiz-adv-x="520" 
d="M498 -119h-34q2 13 2 28q0 41 -16 63q-10 15 -23 20t-47 7q-23 2 -34.5 11t-36.5 44l-97 146l-43 -200h-122l80 372q3 14 3 19q0 13 -23 13h-34l5 26l190 34l-40 -190l207 181h79l-209 -184l110 -166q31 -46 52.5 -61t61.5 -16z" />
    <glyph glyph-name="uni049C" unicode="&#x49c;" horiz-adv-x="704" 
d="M426 468l233 196h90l-343 -288l167 -242q38 -59 65 -79.5t73 -24.5l-7 -30h-208l-130 187l-22 -105h-64l37 175l-35 51l-66 -308h-144l118 554q4 19 4 37q0 22 -17 31.5t-62 11.5l6 30h236l-65 -309l56 48l35 167h64z" />
    <glyph glyph-name="uni049D" unicode="&#x49d;" horiz-adv-x="534" 
d="M215 216l-46 -216h-122l80 372q3 14 3 19q0 13 -23 13h-34l5 26l190 34l-44 -205l40 35l23 110h42l-13 -65l133 116h79l-209 -184l110 -166q24 -38 37 -38t45 30l19 -19q-75 -86 -127 -86q-39 0 -79 62l-52 78l-15 -69h-42l25 116z" />
    <glyph glyph-name="uni04A2" unicode="&#x4a2;" horiz-adv-x="765" 
d="M681 -119h-36q1 13 1 29q0 52 -19.5 71t-71.5 19h-85l68 320h-254l-68 -320h-144l118 555q4 16 4 35q0 24 -17 33t-63 10l7 31h236l-61 -289h254l61 289h144l-117 -551q-4 -17 -4 -38q0 -24 16 -34t55 -10h8z" />
    <glyph glyph-name="uni04A3" unicode="&#x4a3;" horiz-adv-x="538" 
d="M332 225h-118l-48 -225h-122l79 372q3 14 3 21q0 11 -23 11h-34l6 26l190 34l-42 -197h118l40 189h122l-75 -351q-4 -26 -4 -37q0 -19 14 -27t47 -9l-32 -151h-33q1 13 1 28q0 50 -23 70.5t-81 20.5h-33z" />
    <glyph glyph-name="uni04AE" unicode="&#x4ae;" 
d="M420 302l-40 -189q-5 -27 -5 -42q0 -21 17 -30t63 -10l-7 -31h-236l64 302l-130 271q-19 34 -39 47t-53 13l7 31h204l137 -280l240 280h87z" />
    <glyph glyph-name="uni04AF" unicode="&#x4af;" horiz-adv-x="462" 
d="M172 22l-51 286q-7 39 -22 65t-31 26q-20 0 -52 -22v30q80 57 132 57q28 0 52.5 -36.5t34.5 -93.5l41 -229l175 351h55l-214 -434l-53 -250h-120z" />
    <glyph glyph-name="uni04B0" unicode="&#x4b0;" 
d="M409 248l-29 -135q-5 -27 -5 -42q0 -21 17 -30t63 -10l-7 -31h-236l53 248h-139l11 54h139l-130 271q-19 34 -39 47t-53 13l7 31h204l137 -280l240 280h87l-309 -362h139l-12 -54h-138z" />
    <glyph glyph-name="uni04B1" unicode="&#x4b1;" horiz-adv-x="462" 
d="M168 0h-108l9 42h100l-48 266q-8 39 -22.5 65t-30.5 26q-18 0 -52 -22v30q80 57 132 57q28 0 52.5 -36.5t34.5 -93.5l41 -229l175 351h55l-204 -414h101l-9 -42h-107l-48 -228h-120z" />
    <glyph glyph-name="uni04B2" unicode="&#x4b2;" horiz-adv-x="648" 
d="M655 32l-32 -151h-38q2 13 2 27q0 50 -24 71t-81 21h-38l-130 266l-266 -266h-80l320 319l-125 256q-17 32 -36 44.5t-53 13.5l7 31h206l114 -232l232 232h80l-286 -286l131 -268q23 -50 40 -63.5t57 -14.5z" />
    <glyph glyph-name="uni04B3" unicode="&#x4b3;" horiz-adv-x="459" 
d="M420 -125h-33q1 13 1 27q0 47 -20 68.5t-64 21.5q-32 0 -53.5 30t-39.5 100l-7 26l-131 -148h-60l178 202l-25 106q-22 91 -54 91q-16 0 -51 -22v30q80 57 131 57q57 0 88 -130l6 -24l129 146h60l-176 -200l26 -108q16 -65 43.5 -93.5t74.5 -28.5h9z" />
    <glyph glyph-name="uni04B6" unicode="&#x4b6;" horiz-adv-x="724" 
d="M672 31l-32 -150h-36q1 12 1 29q0 53 -19.5 71.5t-74.5 18.5h-82l56 263q-71 -19 -127 -19q-122 0 -177.5 39t-55.5 124q0 33 9 78l15 70q4 16 4 35q0 24 -17 33t-63 10l7 31h236l-38 -179q-10 -47 -10 -79q0 -49 36 -78t96 -29q45 0 96 18l74 347h144l-117 -551
q-4 -16 -4 -38q0 -26 16 -34.5t63 -9.5z" />
    <glyph glyph-name="uni04B7" unicode="&#x4b7;" horiz-adv-x="512" 
d="M458 32l-32 -151h-33q2 13 2 28q0 51 -23.5 71t-83.5 20h-30l38 180q-31 -11 -62 -11q-79 0 -116 26t-37 81q0 18 5 43l11 53q3 14 3 21q0 11 -23 11h-34l6 26l190 34l-33 -152q-4 -24 -4 -38q0 -63 57 -63q24 0 46 11l50 234h122l-76 -354q-3 -24 -3 -33q0 -20 13.5 -28
t46.5 -9z" />
    <glyph glyph-name="uni04B8" unicode="&#x4b8;" horiz-adv-x="724" 
d="M343 307l37 173h55l-39 -181q52 0 100 18l74 347h144l-117 -551q-5 -25 -5 -41q0 -23 17 -31.5t63 -9.5l-7 -31h-236l56 263q-54 -15 -100 -18l-31 -147h-55l31 147q-60 4 -92.5 12t-57.5 27q-55 41 -55 123q0 33 9 78l15 70q4 16 4 35q0 24 -17 33t-63 10l7 31h236
l-38 -179q-10 -47 -10 -79q0 -35 20 -61t55 -38z" />
    <glyph glyph-name="uni04B9" unicode="&#x4b9;" horiz-adv-x="512" 
d="M258 171l-24 -114h-42l24 113q-72 5 -103.5 29.5t-31.5 77.5q0 18 5 43l11 52q3 14 3 21q0 11 -23 11h-34l6 26l190 34l-33 -152q-4 -24 -4 -38q0 -38 24 -54l25 118h42l-27 -126q17 0 39 10l50 234h122l-76 -356q-4 -16 -4 -29q0 -8 7 -8q9 0 40 26l19 -19
q-73 -78 -133 -78q-25 0 -40.5 15.5t-15.5 41.5q0 27 17 109l5 22q-28 -8 -38 -9z" />
    <glyph glyph-name="uni04BA" unicode="&#x4ba;" horiz-adv-x="704" 
d="M713 31l-7 -31h-236l38 179q10 47 10 79q0 49 -36 78t-96 29q-45 0 -96 -18l-74 -347h-144l117 551q5 25 5 41q0 23 -17 31.5t-63 9.5l7 31h236l-56 -263q71 19 127 19q122 0 177.5 -39t55.5 -124q0 -32 -9 -78l-15 -70q-4 -16 -4 -35q0 -24 17 -33t63 -10z" />
    <glyph glyph-name="uni04BB" unicode="&#x4bb;" horiz-adv-x="544" 
d="M472 89l19 -19q-73 -78 -132 -78q-26 0 -41.5 15t-15.5 40q0 34 14 99l36 162q10 43 10 70q0 28 -26 28q-36 0 -68 -49.5t-51 -133.5l-49 -223h-122l130 614q3 14 3 21q0 11 -23 11h-34l4 26l190 34l-62 -304q31 34 60.5 48t70.5 14q97 0 97 -94q0 -22 -8 -64l-44 -206
q-4 -17 -4 -29q0 -8 7 -8q8 0 39 26z" />
    <glyph glyph-name="uni04C0" unicode="&#x4c0;" horiz-adv-x="326" 
d="M72 0l118 555q4 22 4 37q0 23 -16.5 31.5t-62.5 9.5l6 31h236l-141 -664h-144z" />
    <glyph glyph-name="uni04CF" unicode="&#x4cf;" horiz-adv-x="326" 
d="M72 0l118 555q4 22 4 37q0 23 -16.5 31.5t-62.5 9.5l6 31h236l-141 -664h-144z" />
    <glyph glyph-name="uni04D8" unicode="&#x4d8;" horiz-adv-x="714" 
d="M76 359h477q6 44 6 65q0 101 -54 153q-24 23 -56 34t-92 15l11 50q83 -2 127.5 -10t91.5 -31q128 -62 128 -210q0 -77 -28 -157t-75 -139q-112 -141 -299 -141q-122 0 -188 63t-66 178q0 65 17 130zM542 305h-322q-12 -76 -12 -113q0 -150 117 -150q154 0 217 263z" />
    <glyph glyph-name="afii10846" unicode="&#x4d9;" horiz-adv-x="426" 
d="M153 433l6 26q32 5 57 5q92 0 142 -41.5t50 -117.5q0 -120 -89 -216.5t-200 -96.5q-56 0 -90.5 25.5t-34.5 66.5q0 91 113 137q63 26 170 29q8 49 8 66q0 54 -33 84q-30 29 -99 33zM268 214q-62 -9 -106 -43q-26 -20 -42 -49.5t-16 -55.5q0 -16 9 -26.5t22 -10.5
q34 0 69.5 49.5t63.5 135.5z" />
    <glyph glyph-name="uni04E8" unicode="&#x4e8;" horiz-adv-x="714" 
d="M233 360h320q13 71 13 112q0 149 -116 149q-78 0 -130 -63t-87 -198zM542 305h-321q-11 -63 -11 -112q0 -150 118 -150q97 0 159 109q28 51 55 153zM462 676q122 0 188 -63.5t66 -179.5q0 -96 -36.5 -188t-99.5 -153q-106 -104 -263 -104q-125 0 -191 62.5t-66 180.5
q0 80 26.5 160t73.5 141q112 144 302 144z" />
    <glyph glyph-name="uni04E9" unicode="&#x4e9;" horiz-adv-x="502" 
d="M180 250h177q8 40 8 77q0 100 -56 100q-50 0 -86 -67q-23 -39 -43 -110zM348 208h-178q-9 -40 -9 -86q0 -43 16 -68t44 -25q80 0 127 179zM327 464q77 0 121.5 -44.5t44.5 -120.5q0 -116 -89.5 -211.5t-198.5 -95.5q-79 0 -125 43.5t-46 118.5q0 105 76 198
q89 112 217 112z" />
    <glyph glyph-name="Wdieresis" unicode="&#x1e84;" horiz-adv-x="880" 
d="M606 -8h-61l-56 375l-209 -375h-61l-82 548q-8 54 -24 72.5t-58 20.5l6 31h202l65 -456l146 262l-11 70q-8 54 -24 72.5t-58 20.5l6 31h202l65 -456l253 456h74zM459 870q28 0 48 -20t20 -48t-20.5 -48.5t-48.5 -20.5t-48 20t-20 49q0 28 20 48t49 20zM649 870
q28 0 48 -20t20 -48t-20.5 -48.5t-48.5 -20.5t-48 20t-20 49q0 28 20 48t49 20z" />
    <glyph glyph-name="uni2011" unicode="&#x2011;" horiz-adv-x="383" 
d="M330 198h-272l16 76h272z" />
    <glyph glyph-name="figuredash" unicode="&#x2012;" horiz-adv-x="565" 
d="M515 202h-456l13 64h456z" />
    <glyph glyph-name="endash" unicode="&#x2013;" horiz-adv-x="565" 
d="M515 202h-456l13 64h456z" />
    <glyph glyph-name="emdash" unicode="&#x2014;" horiz-adv-x="785" 
d="M735 202h-676l13 64h676z" />
    <glyph glyph-name="afii00208" unicode="&#x2015;" horiz-adv-x="785" 
d="M735 202h-676l13 64h676z" />
    <glyph glyph-name="quoteleft" unicode="&#x2018;" horiz-adv-x="300" 
d="M299 682l32 -25q-46 -30 -76 -72q-21 -31 -21 -41q0 -4 5 -6q24 -8 39.5 -29.5t15.5 -45.5q0 -32 -25 -56t-57 -24t-57 24t-25 55q0 47 40 105q25 36 52.5 60.5t76.5 54.5z" />
    <glyph glyph-name="quoteright" unicode="&#x2019;" horiz-adv-x="300" 
d="M144 377l-32 25q48 32 80 78q17 27 17 35q0 4 -5 6q-24 8 -39.5 29.5t-15.5 45.5q0 32 25 56t57 24t57 -24t25 -55q0 -34 -25 -81q-24 -43 -57 -75t-87 -64z" />
    <glyph glyph-name="quotesinglbase" unicode="&#x201a;" horiz-adv-x="268" 
d="M11 -147l-32 25q48 32 80 78q17 27 17 35q0 4 -5 6q-24 8 -39.5 29.5t-15.5 45.5q0 32 25 56t57 24t57 -24t25 -55q0 -34 -25 -81q-24 -43 -57 -75t-87 -64z" />
    <glyph glyph-name="quotedblleft" unicode="&#x201c;" horiz-adv-x="506" 
d="M284 682l32 -25q-46 -30 -76 -72q-21 -31 -21 -41q0 -4 5 -6q24 -8 39.5 -29.5t15.5 -45.5q0 -32 -25 -56t-57 -24t-57 24t-25 55q0 47 40 105q25 36 52.5 60.5t76.5 54.5zM515 682l32 -25q-47 -30 -77 -72q-21 -31 -21 -41q0 -4 5 -6q25 -9 40.5 -30t15.5 -45
q0 -32 -25 -56t-57 -24t-57 24t-25 55q0 48 39 105q25 37 53 61.5t77 53.5z" />
    <glyph glyph-name="quotedblright" unicode="&#x201d;" horiz-adv-x="506" 
d="M136 377l-32 25q47 30 76 71q21 32 21 42q0 4 -5 6q-24 8 -39.5 29.5t-15.5 45.5q0 31 25 55.5t57 24.5t57 -24t25 -55q0 -49 -40 -105q-25 -37 -52.5 -62t-76.5 -53zM368 377l-32 25q46 30 76 71q21 32 21 42q0 4 -5 6q-24 8 -39.5 29.5t-15.5 45.5q0 31 25 55.5
t57 24.5t57 -24t25 -55q0 -49 -40 -105q-25 -37 -52.5 -62t-76.5 -53z" />
    <glyph glyph-name="quotedblbase" unicode="&#x201e;" horiz-adv-x="474" 
d="M1 -147l-32 25q46 30 76 72q21 31 21 41q0 4 -5 6q-24 8 -39.5 29.5t-15.5 45.5q0 32 25 56t57 24t57 -24t25 -55q0 -47 -40 -105q-25 -36 -52.5 -60.5t-76.5 -54.5zM233 -147l-32 25q46 30 76 72q21 31 21 41q0 4 -5 6q-24 8 -39.5 29.5t-15.5 45.5q0 32 25 56t57 24
t57 -24t25 -55q0 -47 -40 -105q-25 -36 -52.5 -60.5t-76.5 -54.5z" />
    <glyph glyph-name="dagger" unicode="&#x2020;" horiz-adv-x="520" 
d="M293 372v32q-28 -1 -63 -27q-37 -27 -65 -27t-48 20.5t-20 49.5t20.5 49.5t48.5 20.5q30 0 68 -29q21 -15 30.5 -19t28.5 -6q-2 42 -27 89q-27 50 -27 86q0 27 20.5 46t49.5 19q30 0 50 -19t20 -48q0 -34 -27 -85q-17 -33 -21 -46.5t-6 -41.5q30 1 61 26q36 28 66 28
q28 0 48.5 -21t20.5 -49q0 -29 -20 -49.5t-48 -20.5q-29 0 -66 27q-22 16 -32.5 20.5t-29.5 6.5v-32q0 -59 37 -214q21 -84 21 -104q0 -24 -22.5 -43t-51.5 -19t-49.5 19t-20.5 45q0 18 20 107q34 151 34 209z" />
    <glyph glyph-name="daggerdbl" unicode="&#x2021;" horiz-adv-x="520" 
d="M315 417v-166q18 1 28.5 5.5t33.5 20.5q38 28 66 28t48 -20.5t20 -49.5q0 -28 -20.5 -49t-48.5 -21q-30 0 -66 28q-20 16 -31 20.5t-30 5.5q1 -24 5.5 -36t21.5 -43q27 -49 27 -81q0 -29 -20 -48t-50 -19q-29 0 -49.5 19t-20.5 46q0 34 27 82q25 45 27 80
q-19 -1 -28.5 -5.5t-30.5 -20.5q-39 -28 -68 -28q-28 0 -48.5 20.5t-20.5 49.5t20 49.5t48 20.5t65 -28q34 -25 63 -26v166q-29 -1 -63 -26q-37 -28 -65 -28t-48 20.5t-20 49.5t20.5 49.5t48.5 20.5q29 0 68 -28q21 -16 30.5 -20.5t28.5 -5.5q-2 35 -27 80q-27 48 -27 82
q0 27 20.5 46t49.5 19q30 0 50 -19t20 -48q0 -32 -27 -81q-17 -31 -21.5 -43t-5.5 -36q19 1 30 5.5t31 20.5q36 28 66 28q28 0 48.5 -21t20.5 -49q0 -29 -20 -49.5t-48 -20.5t-66 28q-23 16 -33.5 20.5t-28.5 5.5z" />
    <glyph glyph-name="bullet" unicode="&#x2022;" horiz-adv-x="456" 
d="M261 508q70 0 121 -51.5t51 -122.5q0 -72 -51 -123t-123 -51q-73 0 -123.5 51t-50.5 124q0 72 51.5 122.5t124.5 50.5z" />
    <glyph glyph-name="ellipsis" unicode="&#x2026;" horiz-adv-x="884" 
d="M125 154q35 0 58.5 -23.5t23.5 -57.5t-23.5 -57.5t-57.5 -23.5q-33 0 -57 23.5t-24 56.5q0 35 23 58.5t57 23.5zM413 154q35 0 58.5 -23.5t23.5 -57.5t-23.5 -57.5t-57.5 -23.5q-33 0 -57 23.5t-24 56.5q0 35 23 58.5t57 23.5zM701 154q35 0 58.5 -23.5t23.5 -57.5
t-23.5 -57.5t-57.5 -23.5q-33 0 -57 23.5t-24 56.5q0 35 23 58.5t57 23.5z" />
    <glyph glyph-name="perthousand" unicode="&#x2030;" horiz-adv-x="1212" 
d="M1092 354q-62 0 -115 -110q-34 -69 -34 -130q0 -68 42 -68q53 0 105.5 80t52.5 162q0 66 -51 66zM1099 406q50 0 76.5 -27t26.5 -77q0 -56 -21 -115.5t-58 -105.5q-68 -89 -163 -89q-61 0 -93.5 29t-32.5 85q0 118 80.5 209t184.5 91zM717 354q-63 0 -116 -110
q-34 -68 -34 -130q0 -68 43 -68q53 0 105.5 80t52.5 162q0 66 -51 66zM724 406q50 0 76.5 -27t26.5 -77q0 -56 -21 -115.5t-58 -105.5q-69 -89 -164 -89q-61 0 -93.5 29t-32.5 85q0 118 80.5 209t185.5 91zM329 644q50 0 76.5 -27t26.5 -77q0 -56 -21 -115.5t-58 -105.5
q-69 -89 -164 -89q-126 0 -126 115q0 117 81 208t185 91zM322 592q-52 0 -103 -84q-47 -81 -47 -157q0 -67 43 -67q53 0 105.5 80.5t52.5 162.5q0 65 -51 65zM272 -8h-90l441 652h90z" />
    <glyph glyph-name="second" unicode="&#x2033;" horiz-adv-x="506" 
d="M136 377l-32 25q47 30 76 71q21 32 21 42q0 4 -5 6q-24 8 -39.5 29.5t-15.5 45.5q0 31 25 55.5t57 24.5t57 -24t25 -55q0 -49 -40 -105q-25 -37 -52.5 -62t-76.5 -53zM368 377l-32 25q46 30 76 71q21 32 21 42q0 4 -5 6q-24 8 -39.5 29.5t-15.5 45.5q0 31 25 55.5
t57 24.5t57 -24t25 -55q0 -49 -40 -105q-25 -37 -52.5 -62t-76.5 -53z" />
    <glyph glyph-name="guilsinglleft" unicode="&#x2039;" horiz-adv-x="272" 
d="M166 51l-136 185l215 185l44 -11l-124 -174l50 -174z" />
    <glyph glyph-name="guilsinglright" unicode="&#x203a;" horiz-adv-x="272" 
d="M45 51l-40 12l119 173l-45 173l44 12l141 -185z" />
    <glyph glyph-name="uni203E" unicode="&#x203e;" horiz-adv-x="500" 
d="M88 847h500l-14 -64h-500z" />
    <glyph glyph-name="fraction" unicode="&#x2044;" horiz-adv-x="184" 
d="M264 644l-296 -652h-48l296 652h48z" />
    <glyph glyph-name="foursuperior" unicode="&#x2074;" horiz-adv-x="323" 
d="M280 355l-19 -88h-78l19 88h-166l9 41l236 256h62l-52 -247h64l-10 -50h-65zM244 554l-139 -149h107z" />
    <glyph glyph-name="franc" unicode="&#x20a3;" horiz-adv-x="624" 
d="M345 0l56 263q5 25 5 30q0 19 -28 19h-96l-66 -312h-144l118 554q4 26 4 36q0 22 -16.5 31.5t-62.5 12.5l6 30h538l-20 -140h-32q-1 55 -20 70.5t-87 15.5h-118q-23 0 -31.5 -8t-14.5 -36l-42 -200h229l-7 -41q29 31 53 41.5t67 10.5h12l-20 -94q-32 15 -62 15
q-31 0 -48.5 -24.5t-30.5 -83.5l-40 -190h-102z" />
    <glyph glyph-name="Euro" unicode="&#x20ac;" 
d="M232 254v-23q0 -90 41 -137t120 -47q81 0 178 50l8 -45q-111 -64 -226 -64q-130 0 -203 70.5t-73 195.5h-78l11 50h71q1 18 7 44h-68l11 50h72q49 135 169 206.5t296 71.5l-10 -51q-105 0 -182.5 -59t-115.5 -168h253l-10 -50h-257q-1 -6 -9 -44h258l-10 -50h-253z" />
    <glyph glyph-name="afii61248" unicode="&#x2105;" horiz-adv-x="838" 
d="M273 -8h-89l442 652h89zM331 644q50 0 76.5 -26t26.5 -76q0 -67 -28.5 -136t-75.5 -115q-61 -61 -138 -61q-127 0 -127 115q0 117 81 208t185 91zM324 591q-65 0 -119 -115q-31 -65 -31 -123q0 -68 43 -68q53 0 105.5 80t52.5 162q0 64 -51 64zM726 406q103 0 103 -104
q0 -66 -28 -133.5t-75 -114.5q-62 -62 -140 -62q-125 0 -125 114q0 118 80.5 209t184.5 91zM719 353q-65 0 -119 -115q-31 -65 -31 -123q0 -68 43 -68q54 0 106 79.5t52 161.5q0 65 -51 65z" />
    <glyph glyph-name="afii61352" unicode="&#x2116;" horiz-adv-x="1096" 
d="M573 220l94 444h64l-141 -664h-68l-278 508l-81 -379q-7 -33 -7 -52q0 -26 15 -35.5t56 -10.5l-7 -31h-148l121 570q2 14 2 20q0 23 -17.5 32.5t-62.5 10.5l6 31h210zM922 446q-47 0 -74 -59q-24 -56 -24 -115q0 -40 14.5 -62.5t40.5 -22.5q39 0 67 51t28 123
q0 85 -52 85zM936 489q66 0 103.5 -35t37.5 -96q0 -88 -62.5 -151.5t-148.5 -63.5q-68 0 -106 34t-38 95q0 90 62.5 153.5t151.5 63.5zM1026 101l-11 -54h-346l12 54h345z" />
    <glyph glyph-name="trademark" unicode="&#x2122;" horiz-adv-x="762" 
d="M639 352l46 220l-125 -220h-27l-35 222l-47 -222h-36l54 255q1 4 1 11q0 10 -6.5 12.5t-32.5 3.5l6 30h121l31 -190l108 190h80l-53 -251q-2 -10 -2 -13q0 -9 7.5 -12.5t31.5 -5.5l-6 -30h-116zM395 542h-30q-3 50 -14 67t-45 23l-59 -280h-72l59 280q-36 -7 -55.5 -24.5
t-41.5 -65.5h-31l40 122h266z" />
    <glyph glyph-name="uni2126" unicode="&#x2126;" horiz-adv-x="771" 
d="M303 0h-248l7 172h30q10 -69 31.5 -93.5t69.5 -24.5h8q50 0 61 29q-166 45 -166 213q0 69 25.5 137.5t70.5 118.5q109 124 301 124q130 0 200 -59t70 -167q0 -68 -26 -136.5t-71 -118.5q-73 -82 -192 -111q-1 -4 -1 -5q-1 -13 11 -19t38 -6h8q48 0 80 24.5t72 93.5h30
l-67 -172h-248l26 123q70 19 115 87q29 44 51 123.5t22 142.5q0 146 -129 146q-118 0 -176 -115q-26 -52 -43 -122t-17 -124q0 -115 83 -139z" />
    <glyph glyph-name="partialdiff" unicode="&#x2202;" horiz-adv-x="523" 
d="M214 645l6 28q75 33 134 33q63 0 109 -97q42 -90 42 -201q0 -98 -24.5 -183t-67.5 -137q-81 -96 -203 -96q-75 0 -123.5 51t-48.5 129q0 91 61 182q35 51 89 80.5t112 29.5q53 0 84 -38q-7 95 -42 162.5t-76 67.5q-15 0 -52 -11zM300 426q-54 0 -93 -89q-40 -93 -40 -186
q0 -57 17 -89t47 -32q51 0 89 87q42 99 42 191q0 118 -62 118z" />
    <glyph glyph-name="Delta" unicode="&#x2206;" horiz-adv-x="615" 
d="M429 54l-85 448l-270 -448h355zM-24 0l329 546q25 42 25 58q0 28 -78 29l7 31h203l111 -577q6 -31 22 -43.5t48 -12.5l-7 -31h-660z" />
    <glyph glyph-name="product" unicode="&#x220f;" horiz-adv-x="667" 
d="M536 610h-219l-130 -610h-144l118 554q4 26 4 36q0 23 -17 32t-63 10l7 32h599l-117 -550q-5 -25 -5 -41q0 -23 17 -31.5t63 -9.5l-7 -32h-236z" />
    <glyph glyph-name="summation" unicode="&#x2211;" horiz-adv-x="623" 
d="M488 331l-304 -276h226q62 0 95.5 21.5t74.5 87.5h31l-62 -164h-531l8 38l321 294l-138 298l8 34h340l-12 -55h-185z" />
    <glyph glyph-name="minus" unicode="&#x2212;" horiz-adv-x="592" 
d="M539 201h-480l16 78h480z" />
    <glyph glyph-name="radical" unicode="&#x221a;" horiz-adv-x="662" 
d="M672 705l-435 -732h-30l-67 316q-9 45 -21.5 60.5t-39.5 16.5l-8 1l7 31h154l47 -241l361 603h169l-12 -55h-125z" />
    <glyph glyph-name="infinity" unicode="&#x221e;" horiz-adv-x="667" 
d="M361 271q-81 -110 -189 -110q-62 0 -98 35.5t-36 96.5q0 92 62.5 157.5t149.5 65.5q52 0 89 -31q28 -22 51 -81q49 61 91.5 86.5t95.5 25.5q63 0 99.5 -35.5t36.5 -96.5q0 -91 -62 -157t-147 -66q-62 0 -96 34q-32 33 -47 76zM420 336q16 -44 37 -60.5t63 -16.5
q52 0 86 27.5t34 69.5q0 29 -23 45.5t-63 16.5q-44 0 -72.5 -17.5t-61.5 -64.5zM330 337q-13 46 -34.5 63.5t-64.5 17.5q-52 0 -86 -27.5t-34 -69.5q0 -29 23 -45.5t63 -16.5q43 0 70.5 16t62.5 62z" />
    <glyph glyph-name="integral" unicode="&#x222b;" horiz-adv-x="499" 
d="M-77 -129l9 40q53 1 98 30t67 76l205 481q59 138 129.5 193.5t187.5 55.5q18 0 28 -1l-14 -40q-53 -1 -98 -30t-67 -76l-205 -481q-46 -112 -106 -172q-43 -43 -90.5 -60t-124.5 -17q-11 0 -19 1z" />
    <glyph glyph-name="approxequal" unicode="&#x2248;" horiz-adv-x="576" 
d="M499 226h36q-35 -74 -76 -107.5t-97 -33.5q-44 0 -113 34q-57 28 -92 28q-60 0 -98 -57h-36q34 73 75.5 107t97.5 34q45 0 111 -33q59 -29 93 -29q59 0 99 57zM542 428h36q-35 -74 -76 -107.5t-97 -33.5q-45 0 -113 34q-57 28 -92 28q-60 0 -98 -57h-36q34 73 75.5 107
t97.5 34q45 0 111 -33q59 -29 93 -29q59 0 99 57z" />
    <glyph glyph-name="notequal" unicode="&#x2260;" horiz-adv-x="596" 
d="M307 294h-234l16 76h283l102 121l43 -32l-75 -89h143l-16 -76h-191l-81 -96h251l-16 -76h-300l-105 -124l-43 32l78 92h-126l16 76h174z" />
    <glyph glyph-name="lessequal" unicode="&#x2264;" horiz-adv-x="596" 
d="M79 302l13 60l525 210l-17 -78l-396 -162l327 -161l-16 -79zM495 0h-480l16 76h480z" />
    <glyph glyph-name="greaterequal" unicode="&#x2265;" horiz-adv-x="596" 
d="M565 302l-524 -210l16 79l397 161l-328 162l17 78l435 -210zM501 0h-480l16 76h480z" />
    <glyph glyph-name="dotmath" unicode="&#x22c5;" horiz-adv-x="292" 
d="M152 336q35 0 58.5 -23.5t23.5 -57.5t-23.5 -57.5t-57.5 -23.5q-33 0 -57 23.5t-24 56.5q0 35 23 58.5t57 23.5z" />
    <glyph glyph-name="lozenge" unicode="&#x25ca;" horiz-adv-x="667" 
d="M434 693l183 -359l-336 -360l-183 360zM415 604l-254 -270l139 -271l255 271z" />
    <glyph glyph-name="dotlessj" unicode="&#xf6be;" horiz-adv-x="289" 
d="M281 464l-96 -455q-25 -115 -98.5 -176t-186.5 -61l6 29q47 2 86.5 35t50.5 80l96 455q3 13 3 19q0 8 -5 11t-19 3h-32l4 26z" />
    <glyph glyph-name="commaaccent" unicode="&#xf6c3;" horiz-adv-x="336" 
d="M75 -313l-27 21q29 19 55.5 50t26.5 45q0 3 -4 5q-19 5 -33 24t-14 39q0 27 21 47t48 20t48 -20t21 -46q0 -31 -21 -68q-37 -68 -121 -117z" />
    <glyph glyph-name="Acute" unicode="&#xf6c9;" horiz-adv-x="336" 
d="M259 729h-54l120 150q32 40 70 40q20 0 32 -11.5t12 -30.5q0 -17 -11 -34.5t-29 -27.5z" />
    <glyph glyph-name="Caron" unicode="&#xf6ca;" horiz-adv-x="340" 
d="M158 882l98 -68l124 68h56l-166 -160h-68l-98 160h54z" />
    <glyph glyph-name="Dieresis" unicode="&#xf6cb;" horiz-adv-x="352" 
d="M153 870q28 0 48 -20t20 -48t-20.5 -48.5t-48.5 -20.5t-48 20t-20 49q0 28 20 48t49 20zM343 870q28 0 48 -20t20 -48t-20.5 -48.5t-48.5 -20.5t-48 20t-20 49q0 28 20 48t49 20z" />
    <glyph glyph-name="Grave" unicode="&#xf6ce;" horiz-adv-x="336" 
d="M351 729l-104 86q-18 16 -18 40q0 25 20 44.5t46 19.5q39 0 54 -40l56 -150h-54z" />
    <glyph glyph-name="Hungarumlaut" unicode="&#xf6cf;" horiz-adv-x="340" 
d="M143 729h-54l106 149q29 41 67 41q21 0 34.5 -12.5t13.5 -32.5q0 -36 -34 -58zM317 729h-54l106 149q29 41 67 41q21 0 34.5 -12.5t13.5 -32.5q0 -36 -34 -58z" />
    <glyph glyph-name="Macron" unicode="&#xf6d0;" horiz-adv-x="344" 
d="M87 750l14 64h310l-14 -64h-310z" />
    <glyph glyph-name="zerooldstyle" unicode="&#xf730;" horiz-adv-x="612" 
d="M365 468q104 0 163.5 -50.5t59.5 -136.5q0 -124 -96 -208.5t-229 -84.5q-103 0 -163 51t-60 136q0 126 95.5 209.5t229.5 83.5zM355 418q-68 0 -122.5 -73t-54.5 -182q0 -57 26 -91t71 -34q67 0 122 75t55 178q0 59 -26 93t-71 34z" />
    <glyph glyph-name="oneoldstyle" unicode="&#xf731;" horiz-adv-x="345" 
d="M39 347l7 34l207 87h48l-77 -362q-4 -16 -4 -30q0 -24 17 -33.5t58 -10.5l-6 -32h-219l68 320q3 16 3 27q0 23 -25 23q-9 0 -28.5 -6t-33.5 -12z" />
    <glyph glyph-name="twooldstyle" unicode="&#xf732;" horiz-adv-x="468" 
d="M180 102h64q75 0 107 7t54 33l27 -12l-86 -130h-365l9 44q4 2 28 18t37 23q119 78 165 121q73 67 73 126q0 74 -118 87l10 49q6 1 52 1q80 0 136.5 -34t56.5 -94q0 -69 -57.5 -125t-192.5 -114z" />
    <glyph glyph-name="threeoldstyle" unicode="&#xf733;" horiz-adv-x="419" 
d="M138 418l11 50q14 1 31 1q102 0 159 -33t57 -92q0 -51 -36.5 -94t-98.5 -66q97 -40 97 -136q0 -99 -96.5 -170t-222.5 -71q-85 0 -142 37l12 56q71 -34 117 -34q76 0 134.5 52t58.5 120q0 85 -129 94l10 50q68 7 112.5 48.5t44.5 100.5q0 38 -31 61t-88 26z" />
    <glyph glyph-name="fouroldstyle" unicode="&#xf734;" horiz-adv-x="532" 
d="M330 -179h-124l39 179h-275l13 63l384 393h98l-80 -380h108l-16 -76h-108zM86 76h175l49 230z" />
    <glyph glyph-name="fiveoldstyle" unicode="&#xf735;" horiz-adv-x="466" 
d="M16 -192l10 50q115 9 177.5 64t62.5 141q0 52 -31 83t-84 31q-40 0 -93 -27l-54 8l129 298h160q71 0 105 6.5t56 33.5l27 -12l-85 -130h-232l-51 -116q61 11 103 11q89 0 141.5 -44.5t52.5 -117.5q0 -126 -102.5 -200t-291.5 -79z" />
    <glyph glyph-name="sixoldstyle" unicode="&#xf736;" horiz-adv-x="515" 
d="M429 648l-10 -46q-66 -22 -121.5 -87.5t-80.5 -150.5q63 38 129 38q76 0 119 -39.5t43 -108.5q0 -113 -83 -189.5t-199 -76.5q-92 0 -140 53.5t-48 152.5q0 98 45.5 193t121.5 164q55 49 106 71t118 26zM296 344q-61 0 -92.5 -51t-31.5 -142q0 -53 17.5 -83t49.5 -30
q51 0 89 58.5t38 152.5q0 95 -70 95z" />
    <glyph glyph-name="sevenoldstyle" unicode="&#xf737;" horiz-adv-x="488" 
d="M174 -180h-130l331 558h-164q-54 0 -81.5 -17.5t-57.5 -70.5l-28 8l69 158h420l-7 -36z" />
    <glyph glyph-name="eightoldstyle" unicode="&#xf738;" horiz-adv-x="539" 
d="M391 356q67 -22 94 -54t27 -81q0 -97 -83 -163t-201 -66q-93 0 -148.5 42.5t-55.5 111.5q0 78 51 131.5t144 78.5q-51 20 -72.5 44.5t-21.5 62.5q0 77 71.5 131t170.5 54q79 0 128 -36t49 -92q0 -116 -153 -164zM357 602q-39 0 -69.5 -44t-30.5 -111q0 -69 53 -69
q38 0 69 43.5t31 110.5q0 70 -53 70zM299 328q-54 0 -96 -56t-42 -138q0 -44 20.5 -70t57.5 -26q52 0 94.5 57t42.5 137q0 45 -20.5 70.5t-56.5 25.5z" />
    <glyph glyph-name="nineoldstyle" unicode="&#xf739;" horiz-adv-x="514" 
d="M102 -192l9 46q66 22 121.5 87t81.5 151q-63 -38 -129 -38q-77 0 -120 39.5t-43 108.5q0 113 83.5 189.5t199.5 76.5q92 0 140 -54t48 -153q0 -98 -45.5 -193.5t-122.5 -163.5q-55 -49 -105.5 -70.5t-117.5 -25.5zM292 418q-51 0 -89 -58.5t-38 -152.5q0 -95 70 -95
q61 0 92.5 51t31.5 142q0 53 -17.5 83t-49.5 30z" />
    <glyph glyph-name="ahungarumlaut" horiz-adv-x="526" 
d="M276 515h-54l106 149q30 41 67 41q21 0 34.5 -12.5t13.5 -32.5q0 -36 -34 -58zM450 515h-54l106 149q30 41 67 41q21 0 34.5 -12.5t13.5 -32.5q0 -36 -34 -58zM496 410l-68 -326l-1 -10q0 -10 7 -10q10 0 39 24l20 -18q-41 -43 -69.5 -60.5t-58.5 -17.5t-46.5 16.5
t-16.5 46.5q0 9 2 23q-38 -47 -72.5 -66.5t-79.5 -19.5q-55 0 -88.5 35t-33.5 92q0 55 24.5 117t66.5 115q91 113 201 113q50 0 91 -35q20 -19 83 -19zM321 429q-30 0 -61 -30t-57 -84q-47 -100 -47 -193q0 -31 12.5 -51t31.5 -20q54 0 110 119q55 113 55 201q0 26 -12.5 42
t-31.5 16z" />
    <glyph glyph-name="adotaccent" horiz-adv-x="526" 
d="M376 704q32 0 56 -24t24 -57q0 -34 -23.5 -57.5t-57.5 -23.5t-57.5 24t-23.5 58q0 33 24 56.5t58 23.5zM496 410l-68 -326l-1 -10q0 -10 7 -10q10 0 39 24l20 -18q-41 -43 -69.5 -60.5t-58.5 -17.5t-46.5 16.5t-16.5 46.5q0 9 2 23q-38 -47 -72.5 -66.5t-79.5 -19.5
q-55 0 -88.5 35t-33.5 92q0 55 24.5 117t66.5 115q91 113 201 113q50 0 91 -35q20 -19 83 -19zM321 429q-30 0 -61 -30t-57 -84q-47 -100 -47 -193q0 -31 12.5 -51t31.5 -20q54 0 110 119q55 113 55 201q0 26 -12.5 42t-31.5 16z" />
    <glyph glyph-name="one.fitted" horiz-adv-x="348" 
d="M73 0l106 500q3 16 3 27q0 23 -25 23q-16 0 -77 -24l8 34l206 88h48l-115 -542q-4 -22 -4 -29q0 -25 17 -34.5t59 -10.5l-6 -32h-220z" />
    <glyph glyph-name="two.fitted" horiz-adv-x="513" 
d="M399 0h-426q34 145 99.5 225t200.5 140q87 40 115.5 69.5t28.5 77.5q0 76 -130 82l11 54q115 -7 167.5 -45t52.5 -106q0 -81 -52.5 -138.5t-179.5 -119.5q-113 -55 -146.5 -79t-46.5 -62h224q50 0 72.5 14.5t50.5 65.5l31 -8z" />
    <glyph glyph-name="three.fitted" horiz-adv-x="467" 
d="M219 598l10 50q14 1 31 1q102 0 159 -33t57 -92q0 -51 -36.5 -94t-98.5 -66q98 -41 98 -135q0 -99 -96.5 -170.5t-222.5 -71.5q-87 0 -143 37l12 56q71 -34 117 -34q76 0 134.5 52t58.5 120q0 85 -129 94l10 50q69 7 113 48t44 101q0 39 -30.5 61.5t-87.5 25.5z" />
    <glyph glyph-name="four.fitted" horiz-adv-x="536" 
d="M401 148l-31 -148h-124l31 148h-276l14 64l392 424h98l-88 -412h108l-16 -76h-108zM349 486l-244 -262h188z" />
    <glyph glyph-name="five.fitted" horiz-adv-x="470" 
d="M53 -12l11 50q115 9 177 64t62 141q0 52 -31 83t-84 31q-41 0 -92 -27l-55 8l130 298h160q49 0 71.5 1.5t48 10.5t40.5 28l28 -12l-86 -130h-232l-51 -116q60 11 104 11q89 0 141.5 -44.5t52.5 -117.5q0 -125 -103 -199.5t-292 -79.5z" />
    <glyph glyph-name="six.fitted" horiz-adv-x="524" 
d="M434 648l-10 -46q-66 -22 -121.5 -87.5t-80.5 -150.5q63 38 129 38q76 0 119 -39.5t43 -108.5q0 -113 -83 -189.5t-199 -76.5q-92 0 -140 53.5t-48 152.5q0 98 45.5 193t121.5 164q55 49 106 71t118 26zM301 344q-61 0 -92.5 -51t-31.5 -142q0 -53 17.5 -83t49.5 -30
q51 0 89 58.5t38 152.5q0 95 -70 95z" />
    <glyph glyph-name="seven.fitted" horiz-adv-x="489" 
d="M212 0h-130l330 558h-164q-54 0 -81.5 -17.5t-57.5 -70.5l-28 8l70 158h420l-8 -36z" />
    <glyph glyph-name="eight.fitted" horiz-adv-x="550" 
d="M396 356q67 -22 94 -54t27 -81q0 -97 -83 -163t-201 -66q-93 0 -148.5 42.5t-55.5 111.5q0 78 51 131.5t144 78.5q-51 20 -72.5 44.5t-21.5 62.5q0 77 71.5 131t170.5 54q79 0 128 -36t49 -92q0 -116 -153 -164zM362 602q-39 0 -69.5 -44t-30.5 -111q0 -69 53 -69
q38 0 69 43.5t31 110.5q0 70 -53 70zM304 328q-54 0 -96 -56t-42 -138q0 -44 20.5 -70t57.5 -26q52 0 94.5 57t42.5 137q0 45 -20.5 70.5t-56.5 25.5z" />
    <glyph glyph-name="nine.fitted" horiz-adv-x="524" 
d="M144 -12l10 46q66 22 121 87t81 151q-62 -38 -129 -38q-77 0 -119.5 39t-42.5 108q0 113 83 190t199 77q92 0 140 -54t48 -153q0 -98 -45.5 -193.5t-122.5 -163.5q-55 -49 -105.5 -70.5t-117.5 -25.5zM335 598q-51 0 -89.5 -58t-38.5 -152q0 -96 71 -96q61 0 92 52
t31 142q0 52 -17 82t-49 30z" />
    <glyph glyph-name="zero.fitted" horiz-adv-x="577" 
d="M388 648q93 0 142 -55.5t49 -159.5q0 -50 -12 -107q-34 -157 -120 -247.5t-201 -90.5q-93 0 -142.5 55t-49.5 158q0 52 14 120q32 153 117 240t203 87zM377 598q-58 0 -100 -70t-74 -222q-19 -86 -19 -149q0 -119 73 -119q56 0 97.5 68t72.5 210q21 99 21 163
q0 119 -71 119z" />
    <glyph glyph-name="Dotaccent" horiz-adv-x="340" 
d="M251 885q32 0 56 -24t24 -57q0 -34 -23.5 -57.5t-57.5 -23.5t-57.5 24t-23.5 58q0 33 24 56.5t58 23.5z" />
    <glyph glyph-name="Ring" horiz-adv-x="336" 
d="M252 907q40 0 69.5 -29.5t29.5 -70.5t-29.5 -70.5t-70.5 -29.5q-42 0 -71 29.5t-29 71.5q0 41 29.5 70t71.5 29zM251 853q-19 0 -32.5 -13.5t-13.5 -32.5t13.5 -32.5t32.5 -13.5t32.5 13.5t13.5 32.5t-13.5 32.5t-32.5 13.5z" />
    <glyph glyph-name="Circumflex" horiz-adv-x="340" 
d="M339 735l-96 68l-126 -68h-54l166 160h68l98 -160h-56z" />
    <glyph glyph-name="Breve" horiz-adv-x="332" 
d="M368 883h44q-43 -162 -168 -162q-106 0 -106 112q0 19 5 50h44v-8q0 -70 75 -70t106 78z" />
    <glyph glyph-name="Tilde" horiz-adv-x="340" 
d="M391 869h45q-21 -68 -57 -106t-80 -38q-30 0 -75 27q-35 21 -54 21q-30 0 -52 -44h-46q46 144 138 144q31 0 73 -27q37 -21 55 -21q30 0 53 44z" />
    <glyph glyph-name="Cedilla" horiz-adv-x="338" 
d="M165 12l-30 -52q9 1 15 1q37 0 59 -17.5t22 -46.5q0 -49 -43 -81t-109 -32q-39 0 -88 20l23 42q32 -11 50 -11q26 0 44 14.5t18 36.5q0 20 -21 20q-9 0 -18 -8h-45l65 114h58z" />
    <glyph glyph-name="Ogonek" horiz-adv-x="336" 
d="M280 -124l-14 -62q-48 -18 -89 -18q-50 0 -81.5 20.5t-31.5 53.5q0 36 30.5 69.5t100.5 73.5q4 2 26 15h48q-92 -86 -92 -134q0 -32 44 -32q25 0 59 14z" />
    <glyph glyph-name="commaaccent.sc" horiz-adv-x="336" 
d="M75 -313l-27 21q29 19 55.5 50t26.5 45q0 3 -4 5q-19 5 -33 24t-14 39q0 27 21 47t48 20t48 -20t21 -46q0 -31 -21 -68q-37 -68 -121 -117z" />
    <glyph glyph-name="Comma.high" horiz-adv-x="336" 
d="M266 413l-27 21q41 26 67 66q15 22 15 29q0 3 -4 5q-19 5 -33 24t-14 39q0 27 20.5 47t48.5 20q27 0 48 -20.5t21 -46.5q0 -30 -21 -67q-37 -68 -121 -117z" />
    <glyph glyph-name="Dieresis.alt" horiz-adv-x="352" 
d="M160 870q28 0 48 -20t20 -48t-20 -48.5t-49 -20.5q-28 0 -48 20t-20 49q0 28 20 48t49 20zM339 870q28 0 48 -20t20 -48t-20.5 -48.5t-48.5 -20.5t-48 20t-20 49q0 28 20 48t49 20z" />
    <glyph glyph-name="comma.high" horiz-adv-x="336" 
d="M305 455l-27 21q41 26 67 66q15 22 15 29q0 3 -4 5q-19 5 -33 24t-14 39q0 27 20.5 47t48.5 20q27 0 48 -20.5t21 -46.5q0 -30 -21 -67q-37 -68 -121 -117z" />
    <glyph glyph-name="dieresis.alt" horiz-adv-x="352" 
d="M154 659q28 0 48 -20t20 -48q0 -29 -20 -49t-49 -20q-28 0 -48 20t-20 49q0 28 20 48t49 20zM333 659q28 0 48 -20t20 -48q0 -29 -20.5 -49t-48.5 -20t-48 20t-20 49q0 28 20 48t49 20z" />
    <glyph glyph-name="one.taboldstyle" horiz-adv-x="576" 
d="M160 347l7 34l207 87h48l-77 -362q-4 -16 -4 -30q0 -24 17 -33.5t58 -10.5l-6 -32h-219l68 320q3 16 3 27q0 23 -25 23q-9 0 -28.5 -6t-34.5 -12z" />
    </font>
</defs>
</svg>
