<?xml version="1.0" encoding="UTF-8" standalone="no"?>
<!-- Created with Inkscape (http://www.inkscape.org/) -->

<svg
   xmlns:dc="http://purl.org/dc/elements/1.1/"
   xmlns:cc="http://creativecommons.org/ns#"
   xmlns:rdf="http://www.w3.org/1999/02/22-rdf-syntax-ns#"
   xmlns:svg="http://www.w3.org/2000/svg"
   xmlns="http://www.w3.org/2000/svg"
   xmlns:sodipodi="http://sodipodi.sourceforge.net/DTD/sodipodi-0.dtd"
   xmlns:inkscape="http://www.inkscape.org/namespaces/inkscape"
   width="9.0875559mm"
   height="9.0875559mm"
   viewBox="0 0 32.200001 32.200001"
   id="svg9996"
   version="1.1"
   inkscape:version="0.91 r13725"
   sodipodi:docname="twitter.svg">
  <defs
     id="defs9998" />
  <sodipodi:namedview
     id="base"
     pagecolor="#ffffff"
     bordercolor="#666666"
     borderopacity="1.0"
     inkscape:pageopacity="0.0"
     inkscape:pageshadow="2"
     inkscape:zoom="1.979899"
     inkscape:cx="-78.145919"
     inkscape:cy="13.56207"
     inkscape:document-units="px"
     inkscape:current-layer="layer1"
     showgrid="false"
     fit-margin-top="0"
     fit-margin-left="0"
     fit-margin-right="0"
     fit-margin-bottom="0"
     inkscape:window-width="1680"
     inkscape:window-height="1001"
     inkscape:window-x="0"
     inkscape:window-y="1"
     inkscape:window-maximized="1" />
  <metadata
     id="metadata10001">
    <rdf:RDF>
      <cc:Work
         rdf:about="">
        <dc:format>image/svg+xml</dc:format>
        <dc:type
           rdf:resource="http://purl.org/dc/dcmitype/StillImage" />
        <dc:title></dc:title>
      </cc:Work>
    </rdf:RDF>
  </metadata>
  <g
     inkscape:label="Calque 1"
     inkscape:groupmode="layer"
     id="layer1"
     transform="translate(-321.04285,-507.6908)">
    <g
       id="g5239"
       transform="translate(-590.85717,-1208.3092)">
      <rect
         id="twitter_x5F_background_7_"
         x="911.90002"
         y="1716"
         class="st2"
         width="32.200001"
         height="32.200001"
         style="fill:#0e2356" />
      <path
         id="twitter_x5F_logo_7_"
         class="st6"
         d="m 924.7,1739.4 c -2.1,0 -4,-0.6 -5.7,-1.7 0.3,0 0.6,0.1 0.9,0.1 1.7,0 3.3,-0.6 4.6,-1.6 -1.6,0 -3,-1.1 -3.5,-2.6 0.2,0 0.5,0.1 0.7,0.1 0.3,0 0.7,0 1,-0.1 -1.7,-0.3 -3,-1.8 -3,-3.6 0,0 0,0 0,0 0.5,0.3 1.1,0.4 1.7,0.5 -1,-0.7 -1.6,-1.8 -1.6,-3.1 0,-0.7 0.2,-1.3 0.5,-1.9 1.8,2.2 4.6,3.7 7.6,3.9 -0.1,-0.3 -0.1,-0.6 -0.1,-0.8 0,-2 1.7,-3.7 3.7,-3.7 1.1,0 2,0.4 2.7,1.2 0.8,-0.2 1.6,-0.5 2.4,-0.9 -0.3,0.9 -0.9,1.6 -1.6,2 0.7,-0.1 1.5,-0.3 2.1,-0.6 -0.5,0.7 -1.1,1.4 -1.8,1.9 0,0.2 0,0.3 0,0.5 -0.1,4.8 -3.8,10.4 -10.6,10.4"
         inkscape:connector-curvature="0"
         style="fill:#ffffff" />
    </g>
  </g>
</svg>
