<?xml version="1.0" encoding="UTF-8" standalone="no"?>
<!-- Generator: Adobe Illustrator 21.0.0, SVG Export Plug-In . SVG Version: 6.00 Build 0)  -->

<svg
   xmlns:dc="http://purl.org/dc/elements/1.1/"
   xmlns:cc="http://creativecommons.org/ns#"
   xmlns:rdf="http://www.w3.org/1999/02/22-rdf-syntax-ns#"
   xmlns:svg="http://www.w3.org/2000/svg"
   xmlns="http://www.w3.org/2000/svg"
   xmlns:sodipodi="http://sodipodi.sourceforge.net/DTD/sodipodi-0.dtd"
   xmlns:inkscape="http://www.inkscape.org/namespaces/inkscape"
   version="1.1"
   id="Calque_1"
   x="0px"
   y="0px"
   viewBox="0 0 321.25876 238.96724"
   xml:space="preserve"
   inkscape:version="0.91 r13725"
   sodipodi:docname="Illus_siteRH_coach_methodo.svg"
   width="321.25876"
   height="238.96724"><metadata
     id="metadata105"><rdf:RDF><cc:Work
         rdf:about=""><dc:format>image/svg+xml</dc:format><dc:type
           rdf:resource="http://purl.org/dc/dcmitype/StillImage" /><dc:title></dc:title></cc:Work></rdf:RDF></metadata><defs
     id="defs103" /><sodipodi:namedview
     pagecolor="#ffffff"
     bordercolor="#666666"
     borderopacity="1"
     objecttolerance="10"
     gridtolerance="10"
     guidetolerance="10"
     inkscape:pageopacity="0"
     inkscape:pageshadow="2"
     inkscape:window-width="740"
     inkscape:window-height="480"
     id="namedview101"
     showgrid="false"
     fit-margin-top="0"
     fit-margin-left="0"
     fit-margin-right="0"
     fit-margin-bottom="0"
     inkscape:zoom="0.52039691"
     inkscape:cx="-94.865387"
     inkscape:cy="127.25"
     inkscape:window-x="0"
     inkscape:window-y="23"
     inkscape:window-maximized="0"
     inkscape:current-layer="Calque_1" /><style
     type="text/css"
     id="style3">
	.st0{fill:#70B74E;}
	.st1{fill:#84BE60;}
	.st2{fill:#95C672;}
	.st3{fill:#A4CD85;}
	.st4{fill:#B2D498;}
	.st5{fill:#C1DCAA;}
	.st6{fill:#CEE3BD;}
	.st7{fill:#DBEACE;}
	.st8{fill:#E7F1DF;}
	.st9{fill:#F3F8F0;}
	.st10{fill:#232B51;}
	.st11{fill:#F1F1F5;}
	.st12{fill:#DEDCE5;}
	.st13{fill:#222B51;}
	.st14{fill:#86829C;}
	.st15{fill:#575677;}
	.st16{fill:#DBD9E3;}
	.st17{fill:#A7A3B7;}
	.st18{fill:#FFFFFF;}
	.st19{fill:#5F5D7D;}
	.st20{fill:#9D99AF;}
	.st21{fill:#CCC9D6;}
	.st22{fill:#BDB9C9;}
	.st23{fill:#AEAABD;}
	.st24{fill:#222B50;}
	.st25{fill:#827E99;}
	.st26{fill:#D0E8F1;}
	.st27{fill:#D6D4DE;}
	.st28{fill:#6C6987;}
	.st29{fill:#7D7995;}
	.st30{fill:#9692A9;}
	.st31{fill:#9894AB;}
	.st32{fill:#C7C4D2;}
	.st33{fill:#ACD8E7;}
	.st34{fill:#B3AFC1;}
	.st35{fill:#9A97AD;}
	.st36{fill:#E0F0F6;}
	.st37{fill-rule:evenodd;clip-rule:evenodd;fill:#ECEBF0;}
	.st38{fill-rule:evenodd;clip-rule:evenodd;fill:#222B51;}
	.st39{fill-rule:evenodd;clip-rule:evenodd;fill:#DBD9E3;}
	.st40{fill-rule:evenodd;clip-rule:evenodd;fill:#F0F0F0;}
	.st41{fill-rule:evenodd;clip-rule:evenodd;fill:#DEDCE5;}
	.st42{fill-rule:evenodd;clip-rule:evenodd;fill:#BAB7C7;}
	.st43{fill-rule:evenodd;clip-rule:evenodd;fill:#D6D4DE;}
	.st44{opacity:0.3;fill:#D1CFDA;}
	.st45{fill:#7B7793;}
	.st46{fill:#BFE1EC;}
	.st47{fill:#E1DFE7;}
	.st48{fill:#B1ADBF;}
	.st49{fill:#D1CFDA;}
	.st50{fill:#222B50;stroke:#222B50;stroke-miterlimit:10;}
	.st51{fill:none;stroke:#778692;stroke-width:0.8545;stroke-linecap:round;stroke-linejoin:round;stroke-miterlimit:10;}
	.st52{fill:none;stroke:#B1ADBF;stroke-width:3.1327;stroke-linecap:round;stroke-linejoin:round;stroke-miterlimit:10;}
	.st53{fill:none;stroke:#778692;stroke-width:0.8637;stroke-linecap:round;stroke-linejoin:round;stroke-miterlimit:10;}
	.st54{fill:#4D4D70;}
	.st55{fill-rule:evenodd;clip-rule:evenodd;fill:#222B50;}
	.st56{fill-rule:evenodd;clip-rule:evenodd;fill:#BDB9C9;}
	.st57{fill:#A0D5D5;}
	.st58{fill:#0C2637;}
	.st59{fill:#656382;}
	.st60{fill:#565677;}
	.st61{fill:#D1EAEA;}
	.st62{fill:#9ED4D4;}
	.st63{fill:#75718E;}
	.st64{fill:#A4A0B5;}
	.st65{fill:#A29EB3;}
	.st66{fill:#A5A8C5;}
	.st67{fill:#8C90B4;}
	.st68{fill:#ECEBF0;}
	.st69{fill:#E6E5EC;}
	.st70{fill:#E7E5EC;}
	.st71{fill:#212B51;}
	.st72{fill-rule:evenodd;clip-rule:evenodd;fill:#84BE60;}
	.st73{fill-rule:evenodd;clip-rule:evenodd;fill:#D0E8F1;}
	.st74{fill-rule:evenodd;clip-rule:evenodd;fill:#FFFFFF;}
	.st75{fill:none;stroke:#FFFFFF;stroke-width:1.816;stroke-linecap:round;stroke-linejoin:round;stroke-miterlimit:10;}
	.st76{fill:#00AFCB;}
	.st77{fill:none;stroke:#212B51;stroke-width:3.44;}
	.st78{fill:#D4D1DC;}
	.st79{fill:#46476A;}
	.st80{fill:#9DD4D4;}
	.st81{fill-rule:evenodd;clip-rule:evenodd;fill:#F2F0F5;}
	.st82{fill:#DB5A29;}
	.st83{fill:#7C7894;}
	.st84{fill:#706D8B;}
	.st85{fill:#B5DCEA;}
	.st86{fill:#EBF5FA;}
	.st87{fill:none;stroke:#778692;stroke-width:1.1677;stroke-linecap:round;stroke-linejoin:round;stroke-miterlimit:10;}
	.st88{fill:#A4D7D6;}
	.st89{fill-rule:evenodd;clip-rule:evenodd;fill:#F1F1F5;}
	.st90{fill:#444569;}
	.st91{fill-rule:evenodd;clip-rule:evenodd;fill:#212B51;}
	.st92{fill:#FCD946;stroke:#FFFFFF;stroke-width:0.55;stroke-linecap:round;stroke-linejoin:round;stroke-miterlimit:10;}
	.st93{fill:#5B5A7A;}
	.st94{fill:#47486B;}
	.st95{fill:#C0E2E2;}
	.st96{fill:#88849E;}
	.st97{fill:#E9E8EE;}
	.st98{fill-rule:evenodd;clip-rule:evenodd;fill:#C0E2E2;}
	.st99{fill-rule:evenodd;clip-rule:evenodd;fill:#4F4F71;}
	.st100{fill-rule:evenodd;clip-rule:evenodd;fill:#CCC9D6;}
	.st101{fill-rule:evenodd;clip-rule:evenodd;fill:#CECCD8;}
	.st102{fill-rule:evenodd;clip-rule:evenodd;fill:#E3E2E9;}
	.st103{fill-rule:evenodd;clip-rule:evenodd;fill:#B3AFC1;}
	.st104{fill:#494A6D;}
	.st105{fill:#BBE0E0;}
	.st106{fill:#6DC3C3;}
	.st107{fill:#00B0CC;}
	.st108{fill:#46B8D2;}
	.st109{fill:#222B50;stroke:#222B50;stroke-width:1.8392;stroke-miterlimit:10;}
	.st110{fill:none;stroke:#778692;stroke-width:1.5716;stroke-linecap:round;stroke-linejoin:round;stroke-miterlimit:10;}
	.st111{fill:none;stroke:#B1ADBF;stroke-width:5.7616;stroke-linecap:round;stroke-linejoin:round;stroke-miterlimit:10;}
	.st112{fill:none;stroke:#778692;stroke-width:1.5886;stroke-linecap:round;stroke-linejoin:round;stroke-miterlimit:10;}
	.st113{fill-rule:evenodd;clip-rule:evenodd;fill:#6DC3C3;}
	.st114{fill:none;stroke:#FFFFFF;stroke-width:2.83;stroke-linecap:round;stroke-linejoin:round;stroke-miterlimit:10;}
	.st115{fill:none;stroke:#212B51;stroke-width:5.3608;}
	.st116{fill:#A9D9D8;}
	.st117{fill:none;stroke:#778692;stroke-width:2.0467;stroke-linecap:round;stroke-linejoin:round;stroke-miterlimit:10;}
	.st118{fill:#FCD946;stroke:#FFFFFF;stroke-width:0.9639;stroke-linecap:round;stroke-linejoin:round;stroke-miterlimit:10;}
	.st119{fill:#B2B2B2;}
	.st120{fill:#989999;}
	.st121{fill:#E4E4E3;}
	.st122{fill:#D4D2DD;}
	.st123{fill:#414367;}
	.st124{fill:#3D3E3E;}
	.st125{fill:#020203;}
	.st126{fill:#87BBAD;}
	.st127{fill:#595879;}
	.st128{fill:#797591;}
	.st129{fill:none;stroke:#FFFFFF;stroke-width:2.4975;stroke-linecap:round;stroke-linejoin:round;stroke-miterlimit:10;}
	.st130{fill:none;stroke:#212B51;stroke-width:4.7309;}
</style><g
     id="g5"
     transform="translate(-66.041235,-115.03276)"><g
       id="g7"><path
         id="XMLID_502_"
         class="st20"
         d="m 180.5,282.8 94.5,-50 c 0.8,-0.4 4.2,-0.3 5.5,2.2 1.4,2.5 -0.2,4.8 -1,5.2 L 185.4,292"
         inkscape:connector-curvature="0"
         style="fill:#9d99af" /><path
         id="XMLID_501_"
         class="st109"
         d="m 185.8,302.2 c -2.9,1.1 -5.8,1.1 -8.6,-0.1 -2.9,-1.2 -4.9,-3.3 -6,-6.2 -1.1,-2.9 -1.1,-5.8 0.2,-8.6 1.2,-2.9 3.3,-4.9 6.2,-6 2.9,-1.2 5.8,-1.1 8.6,0.1 2.9,1.2 4.9,3.3 6,6.2 1.1,2.9 1.1,5.8 -0.1,8.7 -1.4,2.7 -3.4,4.7 -6.3,5.9"
         inkscape:connector-curvature="0"
         style="fill:#222b50;stroke:#222b50;stroke-width:1.83920002;stroke-miterlimit:10" /><path
         id="XMLID_498_"
         class="st24"
         d="m 167.2,212.5 c 0.8,-20.7 -15.2,-38.1 -35.9,-38.9 -20.7,-0.8 -38.1,15.2 -38.9,35.9 -0.8,20.7 15.2,38.1 35.9,38.9 20.6,0.8 38,-15.3 38.9,-35.9 M 66.1,208.1 c 1.4,-35.2 31.1,-62.6 66.3,-61.1 35.2,1.4 62.6,31.1 61.1,66.3 -1.4,35.2 -31.1,62.6 -66.3,61.1 C 92,273 64.6,243.3 66.1,208.1"
         inkscape:connector-curvature="0"
         style="fill:#222b50" /><path
         id="XMLID_495_"
         class="st14"
         d="m 184.3,170.8 c -1.7,-2.2 -2.5,-4.7 -2.2,-7.5 0.3,-2.8 1.6,-5 3.8,-6.8 2.2,-1.7 4.7,-2.4 7.5,-2.1 2.8,0.3 5.1,1.6 6.8,3.8 1.7,2.2 2.5,4.7 2.1,7.5 -0.3,2.8 -1.6,5.1 -3.8,6.8 -2.2,1.7 -4.7,2.4 -7.5,2.1 -2.7,-0.3 -5,-1.6 -6.7,-3.8 m -42.4,33.4 c -1.7,-2.2 -2.5,-4.7 -2.1,-7.5 0.3,-2.8 1.6,-5.1 3.8,-6.8 2.2,-1.7 4.7,-2.4 7.5,-2.1 2.8,0.3 5.1,1.6 6.8,3.8 1.7,2.2 2.5,4.7 2.2,7.5 -0.3,2.8 -1.6,5 -3.8,6.8 -2.2,1.7 -4.7,2.5 -7.5,2.1 -2.9,-0.3 -5.1,-1.6 -6.9,-3.8"
         inkscape:connector-curvature="0"
         style="fill:#86829c" /><g
         id="XMLID_481_"><g
           id="XMLID_483_" /></g><g
         id="clothes_12_"><g
           id="XMLID_479_"><path
             id="XMLID_480_"
             class="st24"
             d="m 167,300.8 c 0,-14.2 -16.2,-25.6 -36.1,-25.5 -19.9,0.1 -36,11.6 -36,25.8 l 0.1,44.9 72.1,-0.2 -0.1,-45 z"
             inkscape:connector-curvature="0"
             style="fill:#222b50" /></g><path
           id="XMLID_478_"
           class="st54"
           d="m 115.7,277.7 c -12,3.7 -21.4,14 -21.4,23.2 l 0.1,45.2 72.7,-0.2 -0.1,-45.2 c 0,-8.9 -4.9,-15.1 -14.7,-20.5 0,0 -1.9,-1 -6,-2.4 -2.8,-0.9 -1.9,6.5 -2.2,7.3 -2,4.8 -3.4,7.1 -13,7.1 -8.4,0 -11.8,-5.2 -14.8,-9.1"
           inkscape:connector-curvature="0"
           style="fill:#4d4d70" /></g><path
         id="XMLID_477_"
         class="st55"
         d="m 147.3,289.1 0,-1.3 0,0.4 -0.3,0.5 c -1,3.3 -3.1,6.2 -5.9,8.2 -2.7,2 -6.2,3.2 -9.9,3.2 -3.7,0 -7.1,-1.2 -9.9,-3.2 -2.8,-2 -4.5,-4.9 -5.5,-8.2 l 0.2,-0.5 0,-0.4 0,1.3 6.8,0 c 0.6,0 1.6,2.1 3,3.1 1.5,1.1 3.3,1.3 5.3,1.3 2,0 3.9,0 5.3,-1 1.4,-1 2.4,-3.3 3,-3.3 l 7.9,0 z"
         inkscape:connector-curvature="0"
         style="clip-rule:evenodd;fill:#222b50;fill-rule:evenodd" /><path
         id="XMLID_476_"
         class="st56"
         d="m 145.5,283.5 0,-0.4 0,0.4 0.2,0.5 c -0.9,3.3 -2.7,6.2 -5.4,8.2 -2.6,2 -5.8,3.2 -9.3,3.2 -3.5,0 -6.7,-1.2 -9.3,-3.2 -2.6,-2 -3.7,-4.9 -4.6,-8.2 l 0.8,-0.5 0,-0.4 0,0.4 -0.6,0 c 1.1,1.8 2.6,3.5 4.4,4.9 2.6,2 5.9,3 9.4,3 3.5,0 6.8,-0.9 9.4,-2.8 1.9,-1.4 3.4,-3.2 4.4,-5 l 0.6,0 z"
         inkscape:connector-curvature="0"
         style="clip-rule:evenodd;fill:#bdb9c9;fill-rule:evenodd" /><polygon
         id="XMLID_475_"
         class="st39"
         points="119.2,276.5 131.1,291.3 112.7,300 115.6,277.7 "
         style="clip-rule:evenodd;fill:#dbd9e3;fill-rule:evenodd" /><polygon
         id="XMLID_474_"
         class="st39"
         points="143.1,276.6 131.1,291.3 149.5,300 146.7,277.7 "
         style="clip-rule:evenodd;fill:#dbd9e3;fill-rule:evenodd" /><g
         id="g23"><rect
           id="XMLID_473_"
           x="94.300003"
           y="313.60001"
           transform="matrix(1,-0.00105342,0.00105342,1,-0.3341,0.1379)"
           class="st57"
           width="72.800003"
           height="7.1999998"
           style="fill:#a0d5d5" /><rect
           id="XMLID_472_"
           x="94.300003"
           y="311.79999"
           transform="matrix(1,-0.00105342,0.00105342,1,-0.3293,0.1379)"
           class="st58"
           width="72.800003"
           height="1.8"
           style="fill:#0c2637" /><rect
           id="XMLID_471_"
           x="94.300003"
           y="320.79999"
           transform="matrix(1,-0.00105342,0.00105342,1,-0.3389,0.1379)"
           class="st58"
           width="72.800003"
           height="1.8"
           style="fill:#0c2637" /><rect
           id="XMLID_470_"
           x="94.300003"
           y="331.70001"
           transform="matrix(1,-0.00105342,0.00105342,1,-0.3541,0.1379)"
           class="st57"
           width="72.800003"
           height="9.1000004"
           style="fill:#a0d5d5" /><rect
           id="XMLID_469_"
           x="94.300003"
           y="329.89999"
           transform="matrix(1,-0.00105342,0.00105342,1,-0.3484,0.1379)"
           class="st58"
           width="72.800003"
           height="1.8"
           style="fill:#0c2637" /><rect
           id="XMLID_468_"
           x="94.300003"
           y="340.79999"
           transform="matrix(1,-0.00105342,0.00105342,1,-0.3598,0.1379)"
           class="st58"
           width="72.800003"
           height="1.8"
           style="fill:#0c2637" /></g></g><path
       class="st49"
       d="m 333.8,354 -245.2,0 c -4,0 -7.4,-3.3 -7.4,-7.4 l 0,-1.9 c 0,-4 3.3,-7.4 7.4,-7.4 l 245.2,0 c 4,0 7.4,3.3 7.4,7.4 l 0,1.9 c -0.1,4.1 -3.4,7.4 -7.4,7.4 z"
       id="path31"
       inkscape:connector-curvature="0"
       style="fill:#d1cfda" /><path
       id="XMLID_467_"
       class="st24"
       d="m 255.8,223 c 0,0 -1,0 -1,-1 l 0,-22.5 c 0,0 0,-1 1,-1 l 22.5,0 c 0,0 1,0 1,1 l 0,14.5 -9,9 -14.5,0 z"
       inkscape:connector-curvature="0"
       style="fill:#222b50" /><polygon
       id="XMLID_466_"
       class="st59"
       points="279.3,214.1 270.5,214.1 270.5,223 "
       style="fill:#656382" /><polygon
       id="XMLID_465_"
       class="st60"
       points="279.3,203.7 279.3,198.5 254.8,198.5 254.8,198.5 254.8,203.7 "
       style="fill:#565677" /><g
       id="XMLID_463_"><path
         id="XMLID_464_"
         class="st106"
         d="m 285.3,223 c 0,0 -1,0 -1,-1 l 0,-22.5 c 0,0 0,-1 1,-1 l 22.5,0 c 0,0 1,0 1,1 l 0,14.5 -9,9 -14.5,0 z"
         inkscape:connector-curvature="0"
         style="fill:#6dc3c3" /></g><polygon
       id="XMLID_462_"
       class="st61"
       points="308.8,214.1 299.9,214.1 299.9,223 "
       style="fill:#d1eaea" /><polygon
       id="XMLID_461_"
       class="st62"
       points="308.8,203.7 308.8,198.5 284.3,198.5 284.3,198.5 284.3,203.7 "
       style="fill:#9ed4d4" /><g
       id="XMLID_459_"><path
         id="XMLID_460_"
         class="st106"
         d="m 314.8,223 c 0,0 -1,0 -1,-1 l 0,-22.5 c 0,0 0,-1 1,-1 l 22.5,0 c 0,0 1,0 1,1 l 0,14.5 -9,9 -14.5,0 z"
         inkscape:connector-curvature="0"
         style="fill:#6dc3c3" /></g><polygon
       id="XMLID_458_"
       class="st61"
       points="338.3,214.1 329.4,214.1 329.4,223 "
       style="fill:#d1eaea" /><polygon
       id="XMLID_457_"
       class="st62"
       points="338.3,203.7 338.3,198.5 313.8,198.5 313.8,198.5 313.8,203.7 "
       style="fill:#9ed4d4" /><g
       id="XMLID_455_"><path
         id="XMLID_456_"
         class="st106"
         d="m 225.7,233.7 c 0,0 -1,0 -1,-1 l 0,-22.5 c 0,0 0,-1 1,-1 l 22.5,0 c 0,0 1,0 1,1 l 0,14.5 -9,9 -14.5,0 z"
         inkscape:connector-curvature="0"
         style="fill:#6dc3c3" /></g><polygon
       id="XMLID_454_"
       class="st61"
       points="249.2,224.8 240.3,224.8 240.3,233.7 "
       style="fill:#d1eaea" /><polygon
       id="XMLID_453_"
       class="st62"
       points="249.2,214.4 249.2,209.2 224.7,209.2 224.7,209.2 224.7,214.4 "
       style="fill:#9ed4d4" /><g
       id="XMLID_451_"><path
         id="XMLID_452_"
         class="st63"
         d="m 287.8,280.7 c 0,0 -1,-0.1 -0.9,-1.1 l 1.6,-22.4 c 0,0 0.1,-1 1.1,-0.9 l 22.4,1.6 c 0,0 1,0.1 0.9,1.1 l -1,14.5 -9.6,8.3 -14.5,-1.1 z"
         inkscape:connector-curvature="0"
         style="fill:#75718e" /></g><polygon
       id="XMLID_450_"
       class="st64"
       points="311.9,273.5 303,272.9 302.4,281.8 "
       style="fill:#a4a0b5" /><polygon
       id="XMLID_449_"
       class="st65"
       points="312.6,263.1 312.9,257.9 288.5,256.2 288.5,256.2 288.1,261.4 "
       style="fill:#a29eb3" /><g
       id="XMLID_447_"><path
         id="XMLID_448_"
         class="st106"
         d="m 317.2,257 c 0,0 -1,0 -1,-1 l 0,-22.5 c 0,0 0,-1 1,-1 l 22.5,0 c 0,0 1,0 1,1 l 0,14.5 -9,9 -14.5,0 z"
         inkscape:connector-curvature="0"
         style="fill:#6dc3c3" /></g><polygon
       id="XMLID_446_"
       class="st61"
       points="340.7,248.1 331.9,248.1 331.9,257 "
       style="fill:#d1eaea" /><polygon
       id="XMLID_445_"
       class="st62"
       points="340.7,237.7 340.7,232.5 316.2,232.5 316.2,232.5 316.2,237.7 "
       style="fill:#9ed4d4" /><g
       id="XMLID_443_"><path
         id="XMLID_444_"
         class="st106"
         d="m 363.8,257 c 0,0 -1,0 -1,-1 l 0,-22.5 c 0,0 0,-1 1,-1 l 22.5,0 c 0,0 1,0 1,1 l 0,14.5 -9,9 -14.5,0 z"
         inkscape:connector-curvature="0"
         style="fill:#6dc3c3" /></g><polygon
       id="XMLID_442_"
       class="st61"
       points="387.3,248.1 378.4,248.1 378.4,257 "
       style="fill:#d1eaea" /><polygon
       id="XMLID_441_"
       class="st62"
       points="387.3,237.7 387.3,232.5 362.8,232.5 362.8,232.5 362.8,237.7 "
       style="fill:#9ed4d4" /><g
       id="XMLID_439_"><path
         id="XMLID_440_"
         class="st63"
         d="m 351.5,157.3 c 0,0 -1,0 -1,-1 l 0,-22.5 c 0,0 0,-1 1,-1 l 22.5,0 c 0,0 1,0 1,1 l 0,14.5 -9,9 -14.5,0 z"
         inkscape:connector-curvature="0"
         style="fill:#75718e" /></g><polygon
       id="XMLID_438_"
       class="st66"
       points="375,148.4 366.1,148.4 366.1,157.3 "
       style="fill:#a5a8c5" /><polygon
       id="XMLID_437_"
       class="st67"
       points="375,137.9 375,132.7 350.5,132.7 350.5,132.7 350.5,137.9 "
       style="fill:#8c90b4" /><g
       id="XMLID_435_"><path
         id="XMLID_436_"
         class="st106"
         d="m 256.7,194.8 c 0,0 -1,0.1 -1.1,-0.9 L 254,171.5 c 0,0 -0.1,-1 0.9,-1.1 l 22.4,-1.6 c 0,0 1,-0.1 1.1,0.9 l 1,14.5 -8.3,9.6 -14.4,1 z"
         inkscape:connector-curvature="0"
         style="fill:#6dc3c3" /></g><polygon
       id="XMLID_434_"
       class="st61"
       points="279.6,184.3 270.7,184.9 271.3,193.8 "
       style="fill:#d1eaea" /><polygon
       id="XMLID_433_"
       class="st62"
       points="278.8,173.9 278.5,168.7 254,170.4 254,170.4 254.4,175.6 "
       style="fill:#9ed4d4" /><g
       id="XMLID_431_"><path
         id="XMLID_432_"
         class="st63"
         d="m 285.3,194 c 0,0 -1,0 -1,-1 l 0,-22.5 c 0,0 0,-1 1,-1 l 22.5,0 c 0,0 1,0 1,1 l 0,14.5 -9,9 -14.5,0 z"
         inkscape:connector-curvature="0"
         style="fill:#75718e" /></g><polygon
       id="XMLID_430_"
       class="st64"
       points="308.8,185.2 299.9,185.2 299.9,194 "
       style="fill:#a4a0b5" /><polygon
       id="XMLID_429_"
       class="st65"
       points="308.8,174.7 308.8,169.5 284.3,169.5 284.3,169.5 284.3,174.7 "
       style="fill:#a29eb3" /><g
       id="XMLID_427_"><path
         id="XMLID_428_"
         class="st24"
         d="m 316.8,181.6 c 0,0 -1,0 -1,-1 l 0,-22.5 c 0,0 0,-1 1,-1 l 22.5,0 c 0,0 1,0 1,1 l 0,14.5 -9,9 -14.5,0 z"
         inkscape:connector-curvature="0"
         style="fill:#222b50" /></g><polygon
       id="XMLID_426_"
       class="st59"
       points="340.3,172.7 331.4,172.7 331.4,181.6 "
       style="fill:#656382" /><polygon
       id="XMLID_425_"
       class="st60"
       points="340.3,162.2 340.3,157 315.8,157 315.8,157 315.8,162.2 "
       style="fill:#565677" /><g
       id="XMLID_423_"><path
         id="XMLID_424_"
         class="st24"
         d="m 358.4,223.6 c 0,0 -1,-0.1 -0.9,-1.1 l 2.2,-22.4 c 0,0 0.1,-1 1.1,-0.9 l 22.4,2.2 c 0,0 1,0.1 0.9,1.1 l -1.4,14.5 -9.8,8 -14.5,-1.4 z"
         inkscape:connector-curvature="0"
         style="fill:#222b50" /></g><polygon
       id="XMLID_422_"
       class="st59"
       points="382.7,217.1 373.8,216.2 373,225.1 "
       style="fill:#656382" /><polygon
       id="XMLID_421_"
       class="st60"
       points="383.7,206.7 384.2,201.5 359.8,199.1 359.8,199.1 359.3,204.3 "
       style="fill:#565677" /><g
       id="XMLID_416_"><g
         id="XMLID_419_"><path
           id="XMLID_420_"
           class="st21"
           d="m 343.4,298 c 0,0 -1,0.2 -1.2,-0.8 l -3.9,-22.1 c 0,0 -0.2,-1 0.8,-1.2 l 22.1,-3.9 c 0,0 1,-0.2 1.2,0.8 l 2.6,14.2 -7.3,10.4 -14.3,2.6 z"
           inkscape:connector-curvature="0"
           style="fill:#ccc9d6" /></g><polygon
         id="XMLID_418_"
         class="st68"
         points="365,285.1 356.2,286.7 357.8,295.4 "
         style="fill:#ecebf0" /><polygon
         id="XMLID_417_"
         class="st69"
         points="363.2,274.9 362.3,269.7 338.1,274 338.1,274 339,279.1 "
         style="fill:#e6e5ec" /></g><g
       id="XMLID_414_"><path
         id="XMLID_415_"
         class="st21"
         d="m 345.8,194.4 c 0,0 -1,0 -1.1,-1 L 344,171 c 0,0 0,-1 1,-1.1 l 22.5,-0.8 c 0,0 1,0 1.1,1 l 0.5,14.5 -8.7,9.3 -14.6,0.5 z"
         inkscape:connector-curvature="0"
         style="fill:#ccc9d6" /></g><polygon
       id="XMLID_413_"
       class="st68"
       points="369,184.7 360.1,185 360.4,193.9 "
       style="fill:#ecebf0" /><polygon
       id="XMLID_408_"
       class="st70"
       points="368.7,174.3 368.5,169.1 344,170 344,170 344.1,175.2 "
       style="fill:#e7e5ec" /><g
       id="XMLID_406_"><path
         id="XMLID_407_"
         class="st106"
         d="m 285.3,164.4 c 0,0 -1,0 -1,-1 l 0,-22.5 c 0,0 0,-1 1,-1 l 22.5,0 c 0,0 1,0 1,1 l 0,14.5 -9,9 -14.5,0 z"
         inkscape:connector-curvature="0"
         style="fill:#6dc3c3" /></g><polygon
       id="XMLID_328_"
       class="st61"
       points="308.8,155.5 299.9,155.5 299.9,164.4 "
       style="fill:#d1eaea" /><polygon
       id="XMLID_325_"
       class="st62"
       points="308.8,145.1 308.8,139.9 284.3,139.9 284.3,139.9 284.3,145.1 "
       style="fill:#9ed4d4" /><g
       id="XMLID_315_"><path
         id="XMLID_317_"
         class="st63"
         d="m 249.5,151.9 c 0,0 -1,0 -1,-1 l 0,-22.5 c 0,0 0,-1 1,-1 l 22.5,0 c 0,0 1,0 1,1 l 0,14.5 -9,9 -14.5,0 z"
         inkscape:connector-curvature="0"
         style="fill:#75718e" /></g><polygon
       id="XMLID_258_"
       class="st64"
       points="273,143 264.1,143 264.1,151.9 "
       style="fill:#a4a0b5" /><polygon
       id="XMLID_177_"
       class="st65"
       points="273,132.6 273,127.4 248.5,127.4 248.5,127.4 248.5,132.6 "
       style="fill:#a29eb3" /><g
       id="XMLID_54_"><path
         id="XMLID_55_"
         class="st106"
         d="m 315.9,139.6 c 0,0 -1,-0.1 -0.9,-1.1 l 2.4,-22.4 c 0,0 0.1,-1 1.1,-0.9 l 22.4,2.4 c 0,0 1,0.1 0.9,1.1 l -1.5,14.5 -9.9,8 -14.5,-1.6 z"
         inkscape:connector-curvature="0"
         style="fill:#6dc3c3" /></g><polygon
       id="XMLID_53_"
       class="st61"
       points="340.2,133.2 331.3,132.2 330.4,141.1 "
       style="fill:#d1eaea" /><rect
       id="XMLID_51_"
       x="326.79999"
       y="106.7"
       transform="matrix(0.1045,-0.9945,0.9945,0.1045,176.6407,434.0566)"
       class="st62"
       width="5.1999998"
       height="24.5"
       style="fill:#9ed4d4" /></g></svg>