<?xml version="1.0" encoding="UTF-8" standalone="no"?>
<!-- Generator: Adobe Illustrator 21.0.0, SVG Export Plug-In . SVG Version: 6.00 Build 0)  -->

<svg
   xmlns:dc="http://purl.org/dc/elements/1.1/"
   xmlns:cc="http://creativecommons.org/ns#"
   xmlns:rdf="http://www.w3.org/1999/02/22-rdf-syntax-ns#"
   xmlns:svg="http://www.w3.org/2000/svg"
   xmlns="http://www.w3.org/2000/svg"
   xmlns:sodipodi="http://sodipodi.sourceforge.net/DTD/sodipodi-0.dtd"
   xmlns:inkscape="http://www.inkscape.org/namespaces/inkscape"
   version="1.1"
   id="Calque_1"
   x="0px"
   y="0px"
   viewBox="0 0 222.72185 213.60056"
   xml:space="preserve"
   inkscape:version="0.91 r13725"
   sodipodi:docname="Illus_siteRH_craft.svg"
   width="222.72185"
   height="213.60056"><metadata
     id="metadata172"><rdf:RDF><cc:Work
         rdf:about=""><dc:format>image/svg+xml</dc:format><dc:type
           rdf:resource="http://purl.org/dc/dcmitype/StillImage" /><dc:title></dc:title></cc:Work></rdf:RDF></metadata><defs
     id="defs170" /><sodipodi:namedview
     pagecolor="#ffffff"
     bordercolor="#666666"
     borderopacity="1"
     objecttolerance="10"
     gridtolerance="10"
     guidetolerance="10"
     inkscape:pageopacity="0"
     inkscape:pageshadow="2"
     inkscape:window-width="740"
     inkscape:window-height="480"
     id="namedview168"
     showgrid="false"
     fit-margin-top="0"
     fit-margin-left="0"
     fit-margin-right="0"
     fit-margin-bottom="0"
     inkscape:zoom="0.52039691"
     inkscape:cx="-144.8023"
     inkscape:cy="123.45"
     inkscape:window-x="0"
     inkscape:window-y="23"
     inkscape:window-maximized="0"
     inkscape:current-layer="Calque_1" /><style
     type="text/css"
     id="style3">
	.st0{fill:#70B74E;}
	.st1{fill:#84BE60;}
	.st2{fill:#95C672;}
	.st3{fill:#A4CD85;}
	.st4{fill:#B2D498;}
	.st5{fill:#C1DCAA;}
	.st6{fill:#CEE3BD;}
	.st7{fill:#DBEACE;}
	.st8{fill:#E7F1DF;}
	.st9{fill:#F3F8F0;}
	.st10{fill:#232B51;}
	.st11{fill:#F1F1F5;}
	.st12{fill:#DEDCE5;}
	.st13{fill:#222B51;}
	.st14{fill:#86829C;}
	.st15{fill:#575677;}
	.st16{fill:#DBD9E3;}
	.st17{fill:#A7A3B7;}
	.st18{fill:#FFFFFF;}
	.st19{fill:#5F5D7D;}
	.st20{fill:#9D99AF;}
	.st21{fill:#CCC9D6;}
	.st22{fill:#BDB9C9;}
	.st23{fill:#AEAABD;}
	.st24{fill:#222B50;}
	.st25{fill:#827E99;}
	.st26{fill:#D0E8F1;}
	.st27{fill:#D6D4DE;}
	.st28{fill:#6C6987;}
	.st29{fill:#7D7995;}
	.st30{fill:#9692A9;}
	.st31{fill:#9894AB;}
	.st32{fill:#C7C4D2;}
	.st33{fill:#ACD8E7;}
	.st34{fill:#B3AFC1;}
	.st35{fill:#9A97AD;}
	.st36{fill:#E0F0F6;}
	.st37{fill-rule:evenodd;clip-rule:evenodd;fill:#ECEBF0;}
	.st38{fill-rule:evenodd;clip-rule:evenodd;fill:#222B51;}
	.st39{fill-rule:evenodd;clip-rule:evenodd;fill:#DBD9E3;}
	.st40{fill-rule:evenodd;clip-rule:evenodd;fill:#F0F0F0;}
	.st41{fill-rule:evenodd;clip-rule:evenodd;fill:#DEDCE5;}
	.st42{fill-rule:evenodd;clip-rule:evenodd;fill:#BAB7C7;}
	.st43{fill-rule:evenodd;clip-rule:evenodd;fill:#D6D4DE;}
	.st44{opacity:0.3;fill:#D1CFDA;}
	.st45{fill:#7B7793;}
	.st46{fill:#BFE1EC;}
	.st47{fill:#E1DFE7;}
	.st48{fill:#B1ADBF;}
	.st49{fill:#D1CFDA;}
	.st50{fill:#222B50;stroke:#222B50;stroke-miterlimit:10;}
	.st51{fill:none;stroke:#778692;stroke-width:0.8545;stroke-linecap:round;stroke-linejoin:round;stroke-miterlimit:10;}
	.st52{fill:none;stroke:#B1ADBF;stroke-width:3.1327;stroke-linecap:round;stroke-linejoin:round;stroke-miterlimit:10;}
	.st53{fill:none;stroke:#778692;stroke-width:0.8637;stroke-linecap:round;stroke-linejoin:round;stroke-miterlimit:10;}
	.st54{fill:#4D4D70;}
	.st55{fill-rule:evenodd;clip-rule:evenodd;fill:#222B50;}
	.st56{fill-rule:evenodd;clip-rule:evenodd;fill:#BDB9C9;}
	.st57{fill:#A0D5D5;}
	.st58{fill:#0C2637;}
	.st59{fill:#656382;}
	.st60{fill:#565677;}
	.st61{fill:#D1EAEA;}
	.st62{fill:#9ED4D4;}
	.st63{fill:#75718E;}
	.st64{fill:#A4A0B5;}
	.st65{fill:#A29EB3;}
	.st66{fill:#A5A8C5;}
	.st67{fill:#8C90B4;}
	.st68{fill:#ECEBF0;}
	.st69{fill:#E6E5EC;}
	.st70{fill:#E7E5EC;}
	.st71{fill:#212B51;}
	.st72{fill-rule:evenodd;clip-rule:evenodd;fill:#84BE60;}
	.st73{fill-rule:evenodd;clip-rule:evenodd;fill:#D0E8F1;}
	.st74{fill-rule:evenodd;clip-rule:evenodd;fill:#FFFFFF;}
	.st75{fill:none;stroke:#FFFFFF;stroke-width:1.816;stroke-linecap:round;stroke-linejoin:round;stroke-miterlimit:10;}
	.st76{fill:#00AFCB;}
	.st77{fill:none;stroke:#212B51;stroke-width:3.44;}
	.st78{fill:#D4D1DC;}
	.st79{fill:#46476A;}
	.st80{fill:#9DD4D4;}
	.st81{fill-rule:evenodd;clip-rule:evenodd;fill:#F2F0F5;}
	.st82{fill:#DB5A29;}
	.st83{fill:#7C7894;}
	.st84{fill:#706D8B;}
	.st85{fill:#B5DCEA;}
	.st86{fill:#EBF5FA;}
	.st87{fill:none;stroke:#778692;stroke-width:1.1677;stroke-linecap:round;stroke-linejoin:round;stroke-miterlimit:10;}
	.st88{fill:#A4D7D6;}
	.st89{fill-rule:evenodd;clip-rule:evenodd;fill:#F1F1F5;}
	.st90{fill:#444569;}
	.st91{fill-rule:evenodd;clip-rule:evenodd;fill:#212B51;}
	.st92{fill:#FCD946;stroke:#FFFFFF;stroke-width:0.55;stroke-linecap:round;stroke-linejoin:round;stroke-miterlimit:10;}
	.st93{fill:#5B5A7A;}
	.st94{fill:#47486B;}
	.st95{fill:#C0E2E2;}
	.st96{fill:#88849E;}
	.st97{fill:#E9E8EE;}
	.st98{fill-rule:evenodd;clip-rule:evenodd;fill:#C0E2E2;}
	.st99{fill-rule:evenodd;clip-rule:evenodd;fill:#4F4F71;}
	.st100{fill-rule:evenodd;clip-rule:evenodd;fill:#CCC9D6;}
	.st101{fill-rule:evenodd;clip-rule:evenodd;fill:#CECCD8;}
	.st102{fill-rule:evenodd;clip-rule:evenodd;fill:#E3E2E9;}
	.st103{fill-rule:evenodd;clip-rule:evenodd;fill:#B3AFC1;}
	.st104{fill:#494A6D;}
	.st105{fill:#BBE0E0;}
	.st106{fill:#6DC3C3;}
	.st107{fill:#00B0CC;}
	.st108{fill:#46B8D2;}
	.st109{fill:#222B50;stroke:#222B50;stroke-width:1.8392;stroke-miterlimit:10;}
	.st110{fill:none;stroke:#778692;stroke-width:1.5716;stroke-linecap:round;stroke-linejoin:round;stroke-miterlimit:10;}
	.st111{fill:none;stroke:#B1ADBF;stroke-width:5.7616;stroke-linecap:round;stroke-linejoin:round;stroke-miterlimit:10;}
	.st112{fill:none;stroke:#778692;stroke-width:1.5886;stroke-linecap:round;stroke-linejoin:round;stroke-miterlimit:10;}
	.st113{fill-rule:evenodd;clip-rule:evenodd;fill:#6DC3C3;}
	.st114{fill:none;stroke:#FFFFFF;stroke-width:2.83;stroke-linecap:round;stroke-linejoin:round;stroke-miterlimit:10;}
	.st115{fill:none;stroke:#212B51;stroke-width:5.3608;}
	.st116{fill:#A9D9D8;}
	.st117{fill:none;stroke:#778692;stroke-width:2.0467;stroke-linecap:round;stroke-linejoin:round;stroke-miterlimit:10;}
	.st118{fill:#FCD946;stroke:#FFFFFF;stroke-width:0.9639;stroke-linecap:round;stroke-linejoin:round;stroke-miterlimit:10;}
	.st119{fill:#B2B2B2;}
	.st120{fill:#989999;}
	.st121{fill:#E4E4E3;}
	.st122{fill:#D4D2DD;}
	.st123{fill:#414367;}
	.st124{fill:#3D3E3E;}
	.st125{fill:#020203;}
	.st126{fill:#87BBAD;}
	.st127{fill:#595879;}
	.st128{fill:#797591;}
	.st129{fill:none;stroke:#FFFFFF;stroke-width:2.4975;stroke-linecap:round;stroke-linejoin:round;stroke-miterlimit:10;}
	.st130{fill:none;stroke:#212B51;stroke-width:4.7309;}
</style><g
     id="g5"
     transform="translate(-115.97815,-136.59945)"><path
       id="XMLID_612_"
       class="st24"
       d="m 198.3,147.9 c -33.8,-0.6 -61.7,26.3 -62.3,60.1 -0.6,33.8 26.3,61.7 60.1,62.3 33.8,0.6 61.7,-26.3 62.3,-60.1 0.6,-33.8 -26.3,-61.7 -60.1,-62.3 z m -37.1,63.6 c -0.1,-1.3 -0.2,-2.6 -0.2,-3.9 0.2,-11.3 6,-21.2 14.8,-27.1 6.2,-4.5 13.8,-7.2 22.1,-7 20,0.4 35.9,16.8 35.5,36.6 -0.4,19.9 -16.8,35.7 -36.8,35.3 -19.1,-0.3 -34.4,-15.3 -35.4,-33.9 z"
       inkscape:connector-curvature="0"
       style="fill:#222b50" /><g
       id="clothes_16_"><g
         id="XMLID_610_"><path
           id="XMLID_611_"
           class="st24"
           d="m 233.4,296.8 c 0,-13 -14.9,-23.5 -33.2,-23.5 -18.3,0.1 -33.1,10.7 -33,23.7 l 0.1,41.3 66.2,-0.2 -0.1,-41.3 z"
           inkscape:connector-curvature="0"
           style="fill:#222b50" /></g><path
         id="XMLID_609_"
         class="st106"
         d="m 182.2,277.1 c -9.1,4.2 -15.7,12.4 -15.6,19.7 l 0.1,41.5 66.8,-0.2 -0.1,-41.5 c 0,-8.1 -4.5,-13.9 -13.5,-18.8 0,0 -7.3,3.8 -7.6,4.4 -1.8,4.4 -3.1,6.5 -12,6.5 -7.7,0 -10.8,-4.8 -13.6,-8.3 l -4.5,-3.3"
         inkscape:connector-curvature="0"
         style="fill:#6dc3c3" /></g><g
       id="XMLID_607_"><circle
         id="XMLID_608_"
         class="st44"
         cx="185.7"
         cy="223.39999"
         r="11.6"
         style="opacity:0.3;fill:#d1cfda" /></g><g
       id="XMLID_602_"><g
         id="XMLID_605_"><path
           id="XMLID_606_"
           class="st13"
           d="m 202.5,198 c -1.4,0 -1.8,0.8 -0.3,1.5 1,0.5 2.2,0.6 3.4,0.3 1.2,-0.3 2.1,-1 2.8,-2 0.9,-1.4 0.2,-1.9 -1,-1.2 -0.7,0.4 -1.5,0.8 -2.3,1 -0.9,0.3 -1.8,0.4 -2.6,0.4 z"
           inkscape:connector-curvature="0"
           style="fill:#222b51" /></g><g
         id="XMLID_603_"><path
           id="XMLID_604_"
           class="st13"
           d="m 203.7,195.2 c -1.4,0 -1.8,0.8 -0.3,1.5 1,0.5 2.2,0.6 3.4,0.3 1.2,-0.3 2.1,-1 2.8,-2 0.9,-1.4 0.2,-1.9 -1,-1.2 -0.7,0.4 -1.5,0.8 -2.3,1 -0.9,0.3 -1.7,0.4 -2.6,0.4 z"
           inkscape:connector-curvature="0"
           style="fill:#222b51" /></g></g><g
       id="XMLID_597_"><g
         id="XMLID_600_"><path
           id="XMLID_601_"
           class="st13"
           d="m 264.4,151.6 c 0.6,-1.3 1.5,-1.3 1.5,0.4 0,1.1 -0.4,2.3 -1.1,3.2 -0.8,0.9 -1.8,1.5 -3,1.7 -1.6,0.3 -1.8,-0.6 -0.6,-1.4 0.7,-0.5 1.3,-1 1.9,-1.7 0.5,-0.7 1,-1.5 1.3,-2.2 z"
           inkscape:connector-curvature="0"
           style="fill:#222b51" /></g><g
         id="XMLID_598_"><path
           id="XMLID_599_"
           class="st13"
           d="m 261.4,151.6 c 0.6,-1.3 1.5,-1.3 1.5,0.4 0,1.1 -0.4,2.3 -1.1,3.2 -0.8,0.9 -1.8,1.5 -3,1.7 -1.6,0.3 -1.8,-0.6 -0.6,-1.4 0.7,-0.5 1.3,-1 1.9,-1.7 0.5,-0.8 0.9,-1.5 1.3,-2.2 z"
           inkscape:connector-curvature="0"
           style="fill:#222b51" /></g></g><path
       id="XMLID_596_"
       class="st18"
       d="m 200.9,287 c -0.1,0.7 -0.4,1.4 -0.7,2.1 -0.5,1 -1.3,1.9 -2.3,2.5 -2.4,1.3 -5.3,1.1 -7.7,0 -5.5,-1.9 -9.6,-6.9 -13.6,-11.2 0.6,-0.4 2.8,-2.4 7.3,-4.1 l 2,2.4 c 3.5,4.1 12.1,7.4 14.3,8.1 0.3,0.1 0.5,0.2 0.5,0.2 0,0 0.1,0.1 0.2,0 z"
       inkscape:connector-curvature="0"
       style="fill:#ffffff" /><path
       id="XMLID_595_"
       class="st18"
       d="m 200.9,287 c -0.1,0.7 -0.4,1.4 -0.7,2.1 -0.5,1 -1.3,1.9 -2.3,2.5 -2.4,1.3 -5.3,1.1 -7.7,0 -5.5,-1.9 -9.6,-6.9 -13.6,-11.2 0.6,-0.4 2.8,-2.4 7.3,-4.1 l 2,2.4 c 3.5,4.1 12.1,7.4 14.3,8.1 0.3,0.1 0.5,0.2 0.5,0.2 0,0 0.1,0.1 0.2,0 z"
       inkscape:connector-curvature="0"
       style="fill:#ffffff" /><path
       id="XMLID_594_"
       class="st18"
       d="m 200.6,287 c 0.1,0.7 0.4,1.4 0.7,2.1 0.5,1 1.3,1.9 2.3,2.5 2.4,1.3 5.3,1.1 7.7,0 5.5,-1.9 9.6,-6.9 13.6,-11.2 -0.6,-0.4 -2.8,-2.4 -7.3,-4.1 l -2,2.4 c -3.5,4.1 -12.1,7.4 -14.3,8.1 -0.3,0.1 -0.5,0.2 -0.5,0.2 0,0 -0.1,0.1 -0.2,0 z"
       inkscape:connector-curvature="0"
       style="fill:#ffffff" /><g
       id="XMLID_589_"><g
         id="XMLID_592_"><path
           id="XMLID_593_"
           class="st13"
           d="m 202.5,198.3 c -1.4,0 -1.8,0.8 -0.3,1.5 1,0.5 2.2,0.6 3.4,0.3 1.2,-0.3 2.1,-1 2.8,-2 0.9,-1.4 0.2,-1.9 -1,-1.1 -0.7,0.4 -1.5,0.8 -2.3,1 -0.9,0.2 -1.8,0.3 -2.6,0.3 z"
           inkscape:connector-curvature="0"
           style="fill:#222b51" /></g><g
         id="XMLID_590_"><path
           id="XMLID_591_"
           class="st13"
           d="m 203.7,195.5 c -1.4,0 -1.8,0.8 -0.3,1.5 1,0.5 2.2,0.6 3.4,0.3 1.2,-0.3 2.1,-1 2.8,-2 0.9,-1.4 0.2,-1.9 -1,-1.2 -0.7,0.4 -1.5,0.8 -2.3,1 -0.9,0.3 -1.7,0.4 -2.6,0.4 z"
           inkscape:connector-curvature="0"
           style="fill:#222b51" /></g></g><g
       id="XMLID_584_"><g
         id="XMLID_587_"><path
           id="XMLID_588_"
           class="st13"
           d="m 264.4,151.9 c 0.6,-1.3 1.5,-1.3 1.5,0.4 0,1.1 -0.4,2.3 -1.1,3.2 -0.8,0.9 -1.8,1.5 -3,1.7 -1.6,0.3 -1.8,-0.6 -0.6,-1.4 0.7,-0.5 1.3,-1 1.9,-1.7 0.5,-0.7 0.9,-1.4 1.3,-2.2 z"
           inkscape:connector-curvature="0"
           style="fill:#222b51" /></g><g
         id="XMLID_585_"><path
           id="XMLID_586_"
           class="st13"
           d="m 261.3,151.9 c 0.6,-1.3 1.5,-1.3 1.5,0.4 0,1.1 -0.4,2.3 -1.1,3.2 -0.8,0.9 -1.8,1.5 -3,1.7 -1.6,0.3 -1.8,-0.6 -0.6,-1.4 0.7,-0.5 1.3,-1 1.9,-1.7 0.5,-0.8 1,-1.5 1.3,-2.2 z"
           inkscape:connector-curvature="0"
           style="fill:#222b51" /></g></g><g
       id="XMLID_570_"><path
         id="XMLID_583_"
         class="st45"
         d="m 178.9,159.1 c 3.8,11.5 16.1,18 27.8,14.5 11.7,-3.5 18.3,-15.8 15,-27.5 l -42.8,13 z"
         inkscape:connector-curvature="0"
         style="fill:#7b7793" /><path
         id="XMLID_582_"
         class="st45"
         d="m 197.8,160.3 c -3.3,-11.7 -15.4,-18.6 -27.2,-15.5 -11.8,3.1 -18.9,15.1 -16,26.9 l 43.2,-11.4 z"
         inkscape:connector-curvature="0"
         style="fill:#7b7793" /><path
         id="XMLID_581_"
         class="st45"
         d="m 216.8,162.1 c 1.7,-12 -6.6,-23.2 -18.7,-25.2 -12.1,-2 -23.4,6.2 -25.5,18.1 l 44.2,7.1 z"
         inkscape:connector-curvature="0"
         style="fill:#7b7793" /><path
         id="XMLID_580_"
         class="st45"
         d="m 159.4,201.4 c -4.2,4.4 -4.2,11.4 0.1,15.7 4.3,4.3 11.3,4.4 15.7,0.2 l -15.8,-15.9 z"
         inkscape:connector-curvature="0"
         style="fill:#7b7793" /><path
         id="XMLID_579_"
         class="st45"
         d="m 143.2,213.5 c 10.5,6.1 24,2.8 30.4,-7.6 6.4,-10.4 3.2,-24 -7,-30.5 l -23.4,38.1 z"
         inkscape:connector-curvature="0"
         style="fill:#7b7793" /><path
         id="XMLID_578_"
         class="st45"
         d="m 160,184.1 c 10.5,6.1 24,2.8 30.4,-7.6 6.4,-10.4 3.2,-24 -7,-30.5 L 160,184.1 Z"
         inkscape:connector-curvature="0"
         style="fill:#7b7793" /><path
         id="XMLID_577_"
         class="st45"
         d="m 157,238.4 c 0,-6.9 1.7,-13.4 4.7,-19 -0.8,-3.1 -1.2,-6.3 -1.2,-9.6 0,-20.9 16.9,-37.8 37.8,-37.8 3.3,0 6.5,0.4 9.6,1.2 l 10.5,-21 c -27.5,-14.5 -67.2,-6.1 -82.6,27.5 -11,23.9 -1.7,62.9 25.2,78.5 l 0.6,-1.1 c -2.9,-5.6 -4.6,-11.9 -4.6,-18.7 z"
         inkscape:connector-curvature="0"
         style="fill:#7b7793" /><path
         id="XMLID_576_"
         class="st45"
         d="m 189.4,144.4 c -8.6,-8.6 -22.5,-8.9 -31.3,-0.4 -8.8,8.4 -9.3,22.3 -1.1,31.3 l 32.4,-30.9 z"
         inkscape:connector-curvature="0"
         style="fill:#7b7793" /><path
         id="XMLID_575_"
         class="st45"
         d="m 164.5,151.5 c -14.7,-4.5 -30.4,3.5 -35.3,18.1 -4.9,14.6 2.9,30.5 17.4,35.6 l 17.9,-53.7 z"
         inkscape:connector-curvature="0"
         style="fill:#7b7793" /><path
         id="XMLID_574_"
         class="st45"
         d="m 163.3,214.8 c 0,0 -0.7,21.9 14,31.5 14.7,9.6 16.2,32 0.4,38.1 -15.8,6.1 -23.5,12.8 -23.5,12.8 0,0 6.3,-29.5 -4.9,-45.7 -11.2,-16.2 -7,-48.7 -7,-48.7 l 21,12 z"
         inkscape:connector-curvature="0"
         style="fill:#7b7793" /><path
         id="XMLID_573_"
         class="st45"
         d="m 127.6,179 c 0,0 -13.5,7.1 -11.4,43.9 2.1,36.8 39.4,57.1 42.2,66 2.8,8.8 15.4,-11.3 15.4,-11.3 L 143.2,215.4 127.6,179 Z"
         inkscape:connector-curvature="0"
         style="fill:#7b7793" /><path
         id="XMLID_572_"
         class="st45"
         d="m 149.5,309.2 c -2.8,-5.7 -7.9,-9.4 -13.6,-10.5 -4.6,-1 -8.6,-3.9 -10.6,-8.2 l -1.8,-3.6 0.1,0 c -3.8,-9.4 0.2,-20.4 9.5,-25 3.8,-1.9 8,-2.4 11.9,-1.7 -0.2,3.3 0.4,6.8 1.9,10 2.5,5.1 6.8,8.5 11.8,10.1 4,1.2 7.2,4 9,7.8 l 0,0.1 0,0 c 4.3,9.6 0.2,20.9 -9.3,25.5 -2.3,1.1 -4.7,1.8 -7.1,1.9 -0.2,-2.2 -0.8,-4.4 -1.8,-6.4 z"
         inkscape:connector-curvature="0"
         style="fill:#7b7793" /><path
         id="XMLID_571_"
         class="st45"
         d="m 143.1,286.5 c 0.6,6.3 -1.7,12.1 -6,16.2 -3.4,3.3 -5.2,7.9 -4.7,12.6 l 0.4,4 0.1,0 c 1.7,10 11,17.2 21.3,16.1 4.2,-0.4 8,-2.2 11,-4.8 -2,-2.7 -3.3,-5.9 -3.7,-9.5 -0.6,-5.6 1.3,-10.9 4.7,-14.8 2.7,-3.1 4,-7.3 3.6,-11.4 l 0,-0.1 0,0 C 168.3,284.4 158.9,277 148.4,278 c -2.5,0.3 -4.9,1 -7,2.1 0.9,2 1.5,4.1 1.7,6.4 z"
         inkscape:connector-curvature="0"
         style="fill:#7b7793" /></g><g
       id="XMLID_567_"><path
         id="XMLID_569_"
         class="st14"
         d="m 263.7,157.1 c -1.7,-2.1 -3.9,-3.3 -6.6,-3.5 -2.7,-0.3 -5.1,0.5 -7.2,2.2 -2.1,1.7 -3.2,3.9 -3.5,6.6 -0.2,2.7 0.5,5.1 2.2,7.2 1.7,2.1 3.9,3.3 6.6,3.5 2.7,0.3 5.1,-0.5 7.1,-2.2 2.1,-1.7 3.3,-3.9 3.5,-6.6 0.3,-2.7 -0.4,-5.1 -2.1,-7.2 z"
         inkscape:connector-curvature="0"
         style="fill:#86829c" /><path
         id="XMLID_568_"
         class="st14"
         d="m 223.8,190.2 c -0.8,-1 -1.8,-1.8 -2.8,-2.4 -1.1,-0.6 -2.4,-1 -3.8,-1.1 -2.7,-0.3 -5.1,0.5 -7.1,2.2 -2.1,1.7 -3.3,3.9 -3.5,6.6 -0.3,2.7 0.5,5.1 2.2,7.2 1.7,2.1 3.9,3.3 6.6,3.5 2.7,0.3 5.1,-0.5 7.2,-2.2 2.1,-1.7 3.2,-3.9 3.5,-6.6 0,0 0,-0.1 0,-0.2 0.1,-2.7 -0.6,-5 -2.3,-7 z"
         inkscape:connector-curvature="0"
         style="fill:#86829c" /></g><g
       id="XMLID_534_"><g
         id="XMLID_559_"><circle
           id="XMLID_566_"
           class="st46"
           cx="175.89999"
           cy="301"
           r="3.3"
           style="fill:#bfe1ec" /><circle
           id="XMLID_565_"
           class="st46"
           cx="187.89999"
           cy="301"
           r="3.3"
           style="fill:#bfe1ec" /><circle
           id="XMLID_564_"
           class="st46"
           cx="199.89999"
           cy="301"
           r="3.3"
           style="fill:#bfe1ec" /><g
           id="XMLID_562_"><circle
             id="XMLID_563_"
             class="st46"
             cx="211.89999"
             cy="301"
             r="3.3"
             style="fill:#bfe1ec" /></g><g
           id="XMLID_560_"><circle
             id="XMLID_561_"
             class="st46"
             cx="223.89999"
             cy="301"
             r="3.3"
             style="fill:#bfe1ec" /></g></g><g
         id="XMLID_551_"><circle
           id="XMLID_558_"
           class="st46"
           cx="181.8"
           cy="311.5"
           r="3.3"
           style="fill:#bfe1ec" /><circle
           id="XMLID_557_"
           class="st46"
           cx="193.8"
           cy="311.5"
           r="3.3"
           style="fill:#bfe1ec" /><circle
           id="XMLID_556_"
           class="st46"
           cx="205.8"
           cy="311.5"
           r="3.3"
           style="fill:#bfe1ec" /><g
           id="XMLID_554_"><circle
             id="XMLID_555_"
             class="st46"
             cx="217.8"
             cy="311.5"
             r="3.3"
             style="fill:#bfe1ec" /></g><g
           id="XMLID_552_"><circle
             id="XMLID_553_"
             class="st46"
             cx="229.8"
             cy="311.5"
             r="3.3"
             style="fill:#bfe1ec" /></g></g><g
         id="XMLID_543_"><circle
           id="XMLID_550_"
           class="st46"
           cx="175.89999"
           cy="321.10001"
           r="3.3"
           style="fill:#bfe1ec" /><circle
           id="XMLID_549_"
           class="st46"
           cx="187.89999"
           cy="321.10001"
           r="3.3"
           style="fill:#bfe1ec" /><circle
           id="XMLID_548_"
           class="st46"
           cx="199.89999"
           cy="321.10001"
           r="3.3"
           style="fill:#bfe1ec" /><g
           id="XMLID_546_"><circle
             id="XMLID_547_"
             class="st46"
             cx="211.89999"
             cy="321.10001"
             r="3.3"
             style="fill:#bfe1ec" /></g><g
           id="XMLID_544_"><circle
             id="XMLID_545_"
             class="st46"
             cx="223.89999"
             cy="321.10001"
             r="3.3"
             style="fill:#bfe1ec" /></g></g><g
         id="XMLID_535_"><circle
           id="XMLID_542_"
           class="st46"
           cx="181.8"
           cy="331.60001"
           r="3.3"
           style="fill:#bfe1ec" /><circle
           id="XMLID_541_"
           class="st46"
           cx="193.8"
           cy="331.60001"
           r="3.3"
           style="fill:#bfe1ec" /><circle
           id="XMLID_540_"
           class="st46"
           cx="205.8"
           cy="331.60001"
           r="3.3"
           style="fill:#bfe1ec" /><g
           id="XMLID_538_"><circle
             id="XMLID_539_"
             class="st46"
             cx="217.8"
             cy="331.60001"
             r="3.3"
             style="fill:#bfe1ec" /></g><g
           id="XMLID_536_"><circle
             id="XMLID_537_"
             class="st46"
             cx="229.8"
             cy="331.60001"
             r="3.3"
             style="fill:#bfe1ec" /></g></g></g><g
       id="XMLID_485_"><path
         id="XMLID_533_"
         class="st47"
         d="m 318.2,330.9 0,-58.5 c 0,-1.7 -0.3,-2.4 -2.1,-2.4 l -82.3,0 c -1.7,0 -3.8,0.7 -3.8,2.4 l 0,58.5 88.2,0 z"
         inkscape:connector-curvature="0"
         style="fill:#e1dfe7" /><rect
         id="XMLID_532_"
         x="234.8"
         y="274.79999"
         class="st24"
         width="76.900002"
         height="56.099998"
         style="fill:#222b50" /><g
         id="XMLID_510_"><path
           id="XMLID_531_"
           class="st48"
           d="m 288.6,329.3 -63.4,0 0,1.5 c 0,3.6 3.1,6.5 6.8,6.5 l 56.6,0 29.1,0 c 3.6,0 5.2,-2.8 5.2,-6.5 l 0,-1.5 -34.3,0 z"
           inkscape:connector-curvature="0"
           style="fill:#b1adbf" /><rect
           id="XMLID_530_"
           x="231.60001"
           y="332.5"
           class="st13"
           width="4.8000002"
           height="1.6"
           style="fill:#222b51" /><rect
           id="XMLID_529_"
           x="238"
           y="332.5"
           class="st13"
           width="4.8000002"
           height="1.6"
           style="fill:#222b51" /><g
           id="XMLID_511_"><circle
             id="XMLID_528_"
             class="st13"
             cx="292.20001"
             cy="331.79999"
             r="1"
             style="fill:#222b51" /><circle
             id="XMLID_527_"
             class="st13"
             cx="295.60001"
             cy="331.79999"
             r="1"
             style="fill:#222b51" /><circle
             id="XMLID_526_"
             class="st13"
             cx="298.89999"
             cy="331.79999"
             r="1"
             style="fill:#222b51" /><circle
             id="XMLID_525_"
             class="st13"
             cx="302.20001"
             cy="331.79999"
             r="1"
             style="fill:#222b51" /><circle
             id="XMLID_524_"
             class="st13"
             cx="305.5"
             cy="331.79999"
             r="1"
             style="fill:#222b51" /><circle
             id="XMLID_523_"
             class="st13"
             cx="308.89999"
             cy="331.79999"
             r="1"
             style="fill:#222b51" /><circle
             id="XMLID_522_"
             class="st13"
             cx="312.20001"
             cy="331.79999"
             r="1"
             style="fill:#222b51" /><circle
             id="XMLID_521_"
             class="st13"
             cx="315.5"
             cy="331.79999"
             r="1"
             style="fill:#222b51" /><circle
             id="XMLID_520_"
             class="st13"
             cx="318.79999"
             cy="331.79999"
             r="1"
             style="fill:#222b51" /><circle
             id="XMLID_519_"
             class="st13"
             cx="293.89999"
             cy="334.5"
             r="1"
             style="fill:#222b51" /><circle
             id="XMLID_518_"
             class="st13"
             cx="297.20001"
             cy="334.5"
             r="1"
             style="fill:#222b51" /><circle
             id="XMLID_517_"
             class="st13"
             cx="300.60001"
             cy="334.5"
             r="1"
             style="fill:#222b51" /><circle
             id="XMLID_516_"
             class="st13"
             cx="303.89999"
             cy="334.5"
             r="1"
             style="fill:#222b51" /><circle
             id="XMLID_515_"
             class="st13"
             cx="307.20001"
             cy="334.5"
             r="1"
             style="fill:#222b51" /><circle
             id="XMLID_514_"
             class="st13"
             cx="310.5"
             cy="334.5"
             r="1"
             style="fill:#222b51" /><circle
             id="XMLID_513_"
             class="st13"
             cx="313.79999"
             cy="334.5"
             r="1"
             style="fill:#222b51" /><circle
             id="XMLID_512_"
             class="st13"
             cx="317.20001"
             cy="334.5"
             r="1"
             style="fill:#222b51" /></g></g><rect
         id="XMLID_509_"
         x="234.8"
         y="274.79999"
         class="st31"
         width="76.900002"
         height="6.4000001"
         style="fill:#9894ab" /><g
         id="XMLID_504_"><circle
           id="XMLID_508_"
           class="st108"
           cx="242.10001"
           cy="278.29999"
           r="1.5"
           style="fill:#46b8d2" /><circle
           id="XMLID_507_"
           class="st32"
           cx="247.2"
           cy="278.29999"
           r="1.5"
           style="fill:#c7c4d2" /><circle
           id="XMLID_506_"
           class="st13"
           cx="252.3"
           cy="278.29999"
           r="1.5"
           style="fill:#222b51" /><rect
           id="XMLID_505_"
           x="255.7"
           y="276.39999"
           class="st18"
           width="52.900002"
           height="3.2"
           style="fill:#ffffff" /></g><path
         class="st33"
         d="m 255.3,290.9 -14.5,0 c -0.6,0 -1.1,-1 -1.1,-1.6 0,-0.6 0.5,-1.6 1.1,-1.6 l 14.5,0 c 0.6,0 1.1,1 1.1,1.6 0,0.6 -0.5,1.6 -1.1,1.6 z"
         id="path118"
         inkscape:connector-curvature="0"
         style="fill:#acd8e7" /><path
         class="st108"
         d="m 267.7,290.9 -9.1,0 c -0.6,0 -1.1,-1 -1.1,-1.6 0,-0.6 0.5,-1.6 1.1,-1.6 l 9.1,0 c 0.6,0 1.1,1 1.1,1.6 0,0.6 -0.5,1.6 -1.1,1.6 z"
         id="path120"
         inkscape:connector-curvature="0"
         style="fill:#46b8d2" /><path
         class="st106"
         d="m 304.8,290.9 -9.1,0 c -0.6,0 -1.1,-1 -1.1,-1.6 0,-0.6 0.5,-1.6 1.1,-1.6 l 9.1,0 c 0.6,0 1.1,1 1.1,1.6 0,0.6 -0.5,1.6 -1.1,1.6 z"
         id="path122"
         inkscape:connector-curvature="0"
         style="fill:#6dc3c3" /><path
         class="st25"
         d="m 292.6,290.9 -3.8,0 c -0.6,0 -1.1,-1 -1.1,-1.6 0,-0.6 0.5,-1.6 1.1,-1.6 l 3.8,0 c 0.6,0 1.1,1 1.1,1.6 0,0.6 -0.5,1.6 -1.1,1.6 z"
         id="path124"
         inkscape:connector-curvature="0"
         style="fill:#827e99" /><path
         class="st34"
         d="m 285.5,290.9 -14.5,0 c -0.6,0 -1.1,-1 -1.1,-1.6 0,-0.6 0.5,-1.6 1.1,-1.6 l 14.5,0 c 0.6,0 1.1,1 1.1,1.6 0,0.6 -0.5,1.6 -1.1,1.6 z"
         id="path126"
         inkscape:connector-curvature="0"
         style="fill:#b3afc1" /><path
         class="st33"
         d="m 255.3,316.5 -14.5,0 c -0.6,0 -1.1,-0.2 -1.1,-0.8 0,-0.6 0.5,-0.8 1.1,-0.8 l 14.5,0 c 0.6,0 1.1,0.2 1.1,0.8 0,0.6 -0.5,0.8 -1.1,0.8 z"
         id="path128"
         inkscape:connector-curvature="0"
         style="fill:#acd8e7" /><path
         class="st13"
         d="m 304.8,316.5 -9.1,0 c -0.6,0 -1.1,-0.2 -1.1,-0.8 0,-0.6 0.5,-0.8 1.1,-0.8 l 9.1,0 c 0.6,0 1.1,0.2 1.1,0.8 0,0.6 -0.5,0.8 -1.1,0.8 z"
         id="path130"
         inkscape:connector-curvature="0"
         style="fill:#222b51" /><path
         class="st25"
         d="m 292.6,316.5 -3.8,0 c -0.6,0 -1.1,-0.2 -1.1,-0.8 0,-0.6 0.5,-0.8 1.1,-0.8 l 3.8,0 c 0.6,0 1.1,0.2 1.1,0.8 0,0.6 -0.5,0.8 -1.1,0.8 z"
         id="path132"
         inkscape:connector-curvature="0"
         style="fill:#827e99" /><path
         class="st34"
         d="m 285.5,316.5 -26.9,0 c -0.6,0 -1.1,-0.2 -1.1,-0.8 0,-0.6 0.5,-0.8 1.1,-0.8 l 26.9,0 c 0.6,0 1.1,0.2 1.1,0.8 0,0.6 -0.5,0.8 -1.1,0.8 z"
         id="path134"
         inkscape:connector-curvature="0"
         style="fill:#b3afc1" /><path
         class="st35"
         d="m 260.6,295.7 -13,0 c -0.6,0 -1.1,-0.2 -1.1,-0.8 0,-0.6 0.5,-0.8 1.1,-0.8 l 13,0 c 0.6,0 1.1,0.2 1.1,0.8 0,0.6 -0.5,0.8 -1.1,0.8 z"
         id="path136"
         inkscape:connector-curvature="0"
         style="fill:#9a97ad" /><path
         class="st106"
         d="m 273,295.7 -9.1,0 c -0.6,0 -1.1,-0.2 -1.1,-0.8 0,-0.6 0.5,-0.8 1.1,-0.8 l 9.1,0 c 0.6,0 1.1,0.2 1.1,0.8 0,0.6 -0.4,0.8 -1.1,0.8 z"
         id="path138"
         inkscape:connector-curvature="0"
         style="fill:#6dc3c3" /><path
         class="st25"
         d="m 304.8,295.7 -10.7,0 c -0.6,0 -1.1,-0.2 -1.1,-0.8 0,-0.6 0.5,-0.8 1.1,-0.8 l 10.7,0 c 0.6,0 1.1,0.2 1.1,0.8 0,0.6 -0.5,0.8 -1.1,0.8 z"
         id="path140"
         inkscape:connector-curvature="0"
         style="fill:#827e99" /><path
         class="st36"
         d="m 290.8,295.7 -14.5,0 c -0.6,0 -1.1,-0.2 -1.1,-0.8 0,-0.6 0.5,-0.8 1.1,-0.8 l 14.5,0 c 0.6,0 1.1,0.2 1.1,0.8 0,0.6 -0.4,0.8 -1.1,0.8 z"
         id="path142"
         inkscape:connector-curvature="0"
         style="fill:#e0f0f6" /><path
         class="st35"
         d="m 260.6,322.9 -13,0 c -0.6,0 -1.1,-1 -1.1,-1.6 0,-0.6 0.5,-1.6 1.1,-1.6 l 13,0 c 0.6,0 1.1,1 1.1,1.6 0,0.6 -0.5,1.6 -1.1,1.6 z"
         id="path144"
         inkscape:connector-curvature="0"
         style="fill:#9a97ad" /><path
         class="st106"
         d="m 273,322.9 -9.1,0 c -0.6,0 -1.1,-1 -1.1,-1.6 0,-0.6 0.5,-1.6 1.1,-1.6 l 9.1,0 c 0.6,0 1.1,1 1.1,1.6 0,0.6 -0.4,1.6 -1.1,1.6 z"
         id="path146"
         inkscape:connector-curvature="0"
         style="fill:#6dc3c3" /><path
         class="st25"
         d="m 304.8,322.9 -10.7,0 c -0.6,0 -1.1,-1 -1.1,-1.6 0,-0.6 0.5,-1.6 1.1,-1.6 l 10.7,0 c 0.6,0 1.1,1 1.1,1.6 0,0.6 -0.5,1.6 -1.1,1.6 z"
         id="path148"
         inkscape:connector-curvature="0"
         style="fill:#827e99" /><path
         class="st36"
         d="m 290.8,322.9 -14.5,0 c -0.6,0 -1.1,-1 -1.1,-1.6 0,-0.6 0.5,-1.6 1.1,-1.6 l 14.5,0 c 0.6,0 1.1,1 1.1,1.6 0,0.6 -0.4,1.6 -1.1,1.6 z"
         id="path150"
         inkscape:connector-curvature="0"
         style="fill:#e0f0f6" /><path
         class="st108"
         d="m 265.9,300.5 -11.4,0 c -0.6,0 -1.1,-0.2 -1.1,-0.8 0,-0.6 0.5,-0.8 1.1,-0.8 l 11.4,0 c 0.6,0 1.1,0.2 1.1,0.8 0,0.6 -0.4,0.8 -1.1,0.8 z"
         id="path152"
         inkscape:connector-curvature="0"
         style="fill:#46b8d2" /><path
         class="st34"
         d="m 278.4,300.5 -9.1,0 c -0.6,0 -1.1,-0.2 -1.1,-0.8 0,-0.6 0.5,-0.8 1.1,-0.8 l 9.1,0 c 0.6,0 1.1,0.2 1.1,0.8 0,0.6 -0.5,0.8 -1.1,0.8 z"
         id="path154"
         inkscape:connector-curvature="0"
         style="fill:#b3afc1" /><path
         class="st34"
         d="m 304.8,300.5 -5.3,0 c -0.6,0 -1.1,-0.2 -1.1,-0.8 0,-0.6 0.5,-0.8 1.1,-0.8 l 5.3,0 c 0.6,0 1.1,0.2 1.1,0.8 0,0.6 -0.5,0.8 -1.1,0.8 z"
         id="path156"
         inkscape:connector-curvature="0"
         style="fill:#b3afc1" /><path
         class="st106"
         d="m 296.2,300.5 -14.5,0 c -0.6,0 -1.1,-0.2 -1.1,-0.8 0,-0.6 0.5,-0.8 1.1,-0.8 l 14.5,0 c 0.6,0 1.1,0.2 1.1,0.8 0,0.6 -0.5,0.8 -1.1,0.8 z"
         id="path158"
         inkscape:connector-curvature="0"
         style="fill:#6dc3c3" /><path
         class="st106"
         d="m 270.5,306.9 -9.9,0 c -0.6,0 -1.1,-1 -1.1,-1.6 0,-0.6 0.5,-1.6 1.1,-1.6 l 9.9,0 c 0.6,0 1.1,1 1.1,1.6 0,0.6 -0.5,1.6 -1.1,1.6 z"
         id="path160"
         inkscape:connector-curvature="0"
         style="fill:#6dc3c3" /><path
         class="st36"
         d="m 283,306.9 -9.1,0 c -0.6,0 -1.1,-1 -1.1,-1.6 0,-0.6 0.5,-1.6 1.1,-1.6 l 9.1,0 c 0.6,0 1.1,1 1.1,1.6 0,0.6 -0.5,1.6 -1.1,1.6 z"
         id="path162"
         inkscape:connector-curvature="0"
         style="fill:#e0f0f6" /><path
         class="st106"
         d="m 304.6,306.9 -18.3,0 c -0.6,0 -1.1,-1 -1.1,-1.6 0,-0.6 0.5,-1.6 1.1,-1.6 l 18.3,0 c 0.6,0 1.1,1 1.1,1.6 0,0.6 -0.5,1.6 -1.1,1.6 z"
         id="path164"
         inkscape:connector-curvature="0"
         style="fill:#6dc3c3" /></g><path
       class="st49"
       d="m 332.3,350.2 -188.3,0 c -3.5,0 -6.4,-2.9 -6.4,-6.4 l 0,0 c 0,-3.5 2.9,-6.4 6.4,-6.4 l 188.3,0 c 3.5,0 6.4,2.9 6.4,6.4 l 0,0 c 0,3.5 -2.9,6.4 -6.4,6.4 z"
       id="path166"
       inkscape:connector-curvature="0"
       style="fill:#d1cfda" /></g></svg>