<?xml version="1.0" encoding="UTF-8" standalone="no"?>
<!-- Generator: Adobe Illustrator 21.0.0, SVG Export Plug-In . SVG Version: 6.00 Build 0)  -->

<svg
    xmlns:dc="http://purl.org/dc/elements/1.1/"
    xmlns:cc="http://creativecommons.org/ns#"
    xmlns:rdf="http://www.w3.org/1999/02/22-rdf-syntax-ns#"
    xmlns:sodipodi="http://sodipodi.sourceforge.net/DTD/sodipodi-0.dtd"
    xmlns:inkscape="http://www.inkscape.org/namespaces/inkscape"
    xmlns="http://www.w3.org/2000/svg"
    version="1.1"
    id="Calque_1"
    x="0px"
    y="0px"
    viewBox="0 0 294.1095 270.39999"
    xml:space="preserve"
    inkscape:version="0.91 r13725"
    sodipodi:docname="Illus_siteRH_data_geek.svg"
    width="294.1095"
    height="270.39999"><metadata
     id="metadata497"><rdf:RDF><cc:Work
         rdf:about=""><dc:format>image/svg+xml</dc:format><dc:type
    rdf:resource="http://purl.org/dc/dcmitype/StillImage"/><dc:title></dc:title></cc:Work></rdf:RDF></metadata>
    <defs
        id="defs495"/>
    <sodipodi:namedview
        pagecolor="#ffffff"
        bordercolor="#666666"
        borderopacity="1"
        objecttolerance="10"
        gridtolerance="10"
        guidetolerance="10"
        inkscape:pageopacity="0"
        inkscape:pageshadow="2"
        inkscape:window-width="740"
        inkscape:window-height="480"
        id="namedview493"
        showgrid="false"
        fit-margin-top="0"
        fit-margin-left="0"
        fit-margin-right="0"
        fit-margin-bottom="0"
        inkscape:zoom="0.52039691"
        inkscape:cx="-105.71465"
        inkscape:cy="126.75"
        inkscape:window-x="0"
        inkscape:window-y="23"
        inkscape:window-maximized="0"
        inkscape:current-layer="Calque_1"/>
    <style
        type="text/css"
        id="style3">
	.st0{fill:#70B74E;}
	.st1{fill:#84BE60;}
	.st2{fill:#95C672;}
	.st3{fill:#A4CD85;}
	.st4{fill:#B2D498;}
	.st5{fill:#C1DCAA;}
	.st6{fill:#CEE3BD;}
	.st7{fill:#DBEACE;}
	.st8{fill:#E7F1DF;}
	.st9{fill:#F3F8F0;}
	.st10{fill:#232B51;}
	.st11{fill:#F1F1F5;}
	.st12{fill:#DEDCE5;}
	.st13{fill:#222B51;}
	.st14{fill:#86829C;}
	.st15{fill:#575677;}
	.st16{fill:#DBD9E3;}
	.st17{fill:#A7A3B7;}
	.st18{fill:#FFFFFF;}
	.st19{fill:#5F5D7D;}
	.st20{fill:#9D99AF;}
	.st21{fill:#CCC9D6;}
	.st22{fill:#BDB9C9;}
	.st23{fill:#AEAABD;}
	.st24{fill:#222B50;}
	.st25{fill:#827E99;}
	.st26{fill:#D0E8F1;}
	.st27{fill:#D6D4DE;}
	.st28{fill:#6C6987;}
	.st29{fill:#7D7995;}
	.st30{fill:#9692A9;}
	.st31{fill:#9894AB;}
	.st32{fill:#C7C4D2;}
	.st33{fill:#ACD8E7;}
	.st34{fill:#B3AFC1;}
	.st35{fill:#9A97AD;}
	.st36{fill:#E0F0F6;}
	.st37{fill-rule:evenodd;clip-rule:evenodd;fill:#ECEBF0;}
	.st38{fill-rule:evenodd;clip-rule:evenodd;fill:#222B51;}
	.st39{fill-rule:evenodd;clip-rule:evenodd;fill:#DBD9E3;}
	.st40{fill-rule:evenodd;clip-rule:evenodd;fill:#F0F0F0;}
	.st41{fill-rule:evenodd;clip-rule:evenodd;fill:#DEDCE5;}
	.st42{fill-rule:evenodd;clip-rule:evenodd;fill:#BAB7C7;}
	.st43{fill-rule:evenodd;clip-rule:evenodd;fill:#D6D4DE;}
	.st44{opacity:0.3;fill:#D1CFDA;}
	.st45{fill:#7B7793;}
	.st46{fill:#BFE1EC;}
	.st47{fill:#E1DFE7;}
	.st48{fill:#B1ADBF;}
	.st49{fill:#D1CFDA;}
	.st50{fill:#222B50;stroke:#222B50;stroke-miterlimit:10;}
	.st51{fill:none;stroke:#778692;stroke-width:0.8545;stroke-linecap:round;stroke-linejoin:round;stroke-miterlimit:10;}
	.st52{fill:none;stroke:#B1ADBF;stroke-width:3.1327;stroke-linecap:round;stroke-linejoin:round;stroke-miterlimit:10;}
	.st53{fill:none;stroke:#778692;stroke-width:0.8637;stroke-linecap:round;stroke-linejoin:round;stroke-miterlimit:10;}
	.st54{fill:#4D4D70;}
	.st55{fill-rule:evenodd;clip-rule:evenodd;fill:#222B50;}
	.st56{fill-rule:evenodd;clip-rule:evenodd;fill:#BDB9C9;}
	.st57{fill:#A0D5D5;}
	.st58{fill:#0C2637;}
	.st59{fill:#656382;}
	.st60{fill:#565677;}
	.st61{fill:#D1EAEA;}
	.st62{fill:#9ED4D4;}
	.st63{fill:#75718E;}
	.st64{fill:#A4A0B5;}
	.st65{fill:#A29EB3;}
	.st66{fill:#A5A8C5;}
	.st67{fill:#8C90B4;}
	.st68{fill:#ECEBF0;}
	.st69{fill:#E6E5EC;}
	.st70{fill:#E7E5EC;}
	.st71{fill:#212B51;}
	.st72{fill-rule:evenodd;clip-rule:evenodd;fill:#84BE60;}
	.st73{fill-rule:evenodd;clip-rule:evenodd;fill:#D0E8F1;}
	.st74{fill-rule:evenodd;clip-rule:evenodd;fill:#FFFFFF;}
	.st75{fill:none;stroke:#FFFFFF;stroke-width:1.816;stroke-linecap:round;stroke-linejoin:round;stroke-miterlimit:10;}
	.st76{fill:#00AFCB;}
	.st77{fill:none;stroke:#212B51;stroke-width:3.44;}
	.st78{fill:#D4D1DC;}
	.st79{fill:#46476A;}
	.st80{fill:#9DD4D4;}
	.st81{fill-rule:evenodd;clip-rule:evenodd;fill:#F2F0F5;}
	.st82{fill:#DB5A29;}
	.st83{fill:#7C7894;}
	.st84{fill:#706D8B;}
	.st85{fill:#B5DCEA;}
	.st86{fill:#EBF5FA;}
	.st87{fill:none;stroke:#778692;stroke-width:1.1677;stroke-linecap:round;stroke-linejoin:round;stroke-miterlimit:10;}
	.st88{fill:#A4D7D6;}
	.st89{fill-rule:evenodd;clip-rule:evenodd;fill:#F1F1F5;}
	.st90{fill:#444569;}
	.st91{fill-rule:evenodd;clip-rule:evenodd;fill:#212B51;}
	.st92{fill:#FCD946;stroke:#FFFFFF;stroke-width:0.55;stroke-linecap:round;stroke-linejoin:round;stroke-miterlimit:10;}
	.st93{fill:#5B5A7A;}
	.st94{fill:#47486B;}
	.st95{fill:#C0E2E2;}
	.st96{fill:#88849E;}
	.st97{fill:#E9E8EE;}
	.st98{fill-rule:evenodd;clip-rule:evenodd;fill:#C0E2E2;}
	.st99{fill-rule:evenodd;clip-rule:evenodd;fill:#4F4F71;}
	.st100{fill-rule:evenodd;clip-rule:evenodd;fill:#CCC9D6;}
	.st101{fill-rule:evenodd;clip-rule:evenodd;fill:#CECCD8;}
	.st102{fill-rule:evenodd;clip-rule:evenodd;fill:#E3E2E9;}
	.st103{fill-rule:evenodd;clip-rule:evenodd;fill:#B3AFC1;}
	.st104{fill:#494A6D;}
	.st105{fill:#BBE0E0;}
	.st106{fill:#6DC3C3;}
	.st107{fill:#00B0CC;}
	.st108{fill:#46B8D2;}
	.st109{fill:#222B50;stroke:#222B50;stroke-width:1.8392;stroke-miterlimit:10;}
	.st110{fill:none;stroke:#778692;stroke-width:1.5716;stroke-linecap:round;stroke-linejoin:round;stroke-miterlimit:10;}
	.st111{fill:none;stroke:#B1ADBF;stroke-width:5.7616;stroke-linecap:round;stroke-linejoin:round;stroke-miterlimit:10;}
	.st112{fill:none;stroke:#778692;stroke-width:1.5886;stroke-linecap:round;stroke-linejoin:round;stroke-miterlimit:10;}
	.st113{fill-rule:evenodd;clip-rule:evenodd;fill:#6DC3C3;}
	.st114{fill:none;stroke:#FFFFFF;stroke-width:2.83;stroke-linecap:round;stroke-linejoin:round;stroke-miterlimit:10;}
	.st115{fill:none;stroke:#212B51;stroke-width:5.3608;}
	.st116{fill:#A9D9D8;}
	.st117{fill:none;stroke:#778692;stroke-width:2.0467;stroke-linecap:round;stroke-linejoin:round;stroke-miterlimit:10;}
	.st118{fill:#FCD946;stroke:#FFFFFF;stroke-width:0.9639;stroke-linecap:round;stroke-linejoin:round;stroke-miterlimit:10;}
	.st119{fill:#B2B2B2;}
	.st120{fill:#989999;}
	.st121{fill:#E4E4E3;}
	.st122{fill:#D4D2DD;}
	.st123{fill:#414367;}
	.st124{fill:#3D3E3E;}
	.st125{fill:#020203;}
	.st126{fill:#87BBAD;}
	.st127{fill:#595879;}
	.st128{fill:#797591;}
	.st129{fill:none;stroke:#FFFFFF;stroke-width:2.4975;stroke-linecap:round;stroke-linejoin:round;stroke-miterlimit:10;}
	.st130{fill:none;stroke:#212B51;stroke-width:4.7309;}
</style>
    <g
        id="g5"
        transform="translate(-76.890501,-83.1)"><g
       id="g7"><g
         id="g9"><path
           class="st71"
           d="m 257.8,87.3 c -2,0 -3.2,-0.5 -3.2,-1.6 0,-0.9 1.1,-1.6 3.1,-1.6 2.1,0 3.2,0.7 3.2,1.6 0.1,1.2 -1.2,1.6 -3.1,1.6 m 0,-4.2 c -2.5,0 -4,1.1 -4,2.6 0,1.7 1.5,2.7 4.1,2.7 2.5,0 3.9,-0.9 3.9,-2.6 0,-1.6 -1.4,-2.7 -4,-2.7"
           id="path11"
           inkscape:connector-curvature="0"
           style="fill:#212b51" /></g><polygon
        class="st71"
        points="261.6,91.8 260.7,90.1 259.9,90.3 260.7,91.7 260.7,91.7 254,91.7 254,92.7 261.6,92.7 "
        id="polygon13"
        style="fill:#212b51"/><g
        id="g15"><path
           class="st71"
           d="m 257.8,99.8 c -2,0 -3.2,-0.5 -3.2,-1.6 0,-1 1.1,-1.6 3.1,-1.6 2.1,0 3.2,0.7 3.2,1.6 0.1,1.1 -1.2,1.6 -3.1,1.6 m 0,-4.3 c -2.5,0 -4,1.1 -4,2.6 0,1.7 1.5,2.7 4.1,2.7 2.5,0 3.9,-1 3.9,-2.6 0,-1.6 -1.4,-2.7 -4,-2.7"
           id="path17"
           inkscape:connector-curvature="0"
           style="fill:#212b51" /></g><polygon
        class="st71"
        points="261.6,104.2 260.7,102.5 259.9,102.7 260.7,104.1 260.7,104.1 254,104.1 254,105.1 261.6,105.1 "
        id="polygon19"
        style="fill:#212b51"/><polygon
        class="st71"
        points="261.6,110.4 260.7,108.7 259.9,108.9 260.7,110.2 260.7,110.2 254,110.2 254,111.3 261.6,111.3 "
        id="polygon21"
        style="fill:#212b51"/><polygon
        class="st71"
        points="261.6,116.6 260.7,114.9 259.9,115.1 260.7,116.4 260.7,116.5 254,116.5 254,117.5 261.6,117.5 "
        id="polygon23"
        style="fill:#212b51"/><polygon
        class="st71"
        points="261.6,122.7 260.7,121 259.9,121.2 260.7,122.6 260.7,122.6 254,122.6 254,123.6 261.6,123.6 "
        id="polygon25"
        style="fill:#212b51"/><g
        id="g27"><path
           class="st71"
           d="m 257.8,130.6 c -2,0 -3.2,-0.5 -3.2,-1.6 0,-1 1.1,-1.6 3.1,-1.6 2.1,0 3.2,0.7 3.2,1.6 0.1,1.1 -1.2,1.6 -3.1,1.6 m 0,-4.2 c -2.5,0 -4,1.1 -4,2.6 0,1.7 1.5,2.7 4.1,2.7 2.5,0 3.9,-1 3.9,-2.6 0,-1.6 -1.4,-2.7 -4,-2.7"
           id="path29"
           inkscape:connector-curvature="0"
           style="fill:#212b51" />
        <path
            class="st71"
            d="m 257.8,136.8 c -2,0 -3.2,-0.5 -3.2,-1.6 0,-1 1.1,-1.6 3.1,-1.6 2.1,0 3.2,0.7 3.2,1.6 0.1,1.1 -1.2,1.6 -3.1,1.6 m 0,-4.2 c -2.5,0 -4,1.1 -4,2.6 0,1.7 1.5,2.7 4.1,2.7 2.5,0 3.9,-0.9 3.9,-2.6 0,-1.6 -1.4,-2.7 -4,-2.7"
            id="path31"
            inkscape:connector-curvature="0"
            style="fill:#212b51"/>
        <path
            class="st71"
            d="m 257.8,143 c -2,0 -3.2,-0.5 -3.2,-1.6 0,-1 1.1,-1.6 3.1,-1.6 2.1,0 3.2,0.7 3.2,1.6 0.1,1.1 -1.2,1.6 -3.1,1.6 m 0,-4.3 c -2.5,0 -4,1.1 -4,2.6 0,1.7 1.5,2.7 4.1,2.7 2.5,0 3.9,-0.9 3.9,-2.6 0,-1.5 -1.4,-2.7 -4,-2.7"
            id="path33"
            inkscape:connector-curvature="0"
            style="fill:#212b51"/>
        <path
            class="st71"
            d="m 257.8,149.2 c -2,0 -3.2,-0.5 -3.2,-1.6 0,-1 1.1,-1.6 3.1,-1.6 2.1,0 3.2,0.7 3.2,1.6 0.1,1.1 -1.2,1.6 -3.1,1.6 m 0,-4.3 c -2.5,0 -4,1.1 -4,2.6 0,1.7 1.5,2.7 4.1,2.7 2.5,0 3.9,-0.9 3.9,-2.6 0,-1.6 -1.4,-2.7 -4,-2.7"
            id="path35"
            inkscape:connector-curvature="0"
            style="fill:#212b51"/></g><polygon
        class="st71"
        points="261.6,153.7 260.7,152 259.9,152.2 260.7,153.5 260.7,153.5 254,153.5 254,154.6 261.6,154.6 "
        id="polygon37"
        style="fill:#212b51"/><g
        id="g39"><path
           class="st71"
           d="m 257.8,161.6 c -2,0 -3.2,-0.5 -3.2,-1.6 0,-1 1.1,-1.6 3.1,-1.6 2.1,0 3.2,0.7 3.2,1.6 0.1,1.1 -1.2,1.6 -3.1,1.6 m 0,-4.3 c -2.5,0 -4,1.1 -4,2.6 0,1.7 1.5,2.7 4.1,2.7 2.5,0 3.9,-0.9 3.9,-2.6 0,-1.6 -1.4,-2.7 -4,-2.7"
           id="path41"
           inkscape:connector-curvature="0"
           style="fill:#212b51" />
        <path
            class="st71"
            d="m 257.8,167.7 c -2,0 -3.2,-0.5 -3.2,-1.6 0,-1 1.1,-1.6 3.1,-1.6 2.1,0 3.2,0.7 3.2,1.6 0.1,1.1 -1.2,1.6 -3.1,1.6 m 0,-4.2 c -2.5,0 -4,1.1 -4,2.6 0,1.7 1.5,2.7 4.1,2.7 2.5,0 3.9,-0.9 3.9,-2.6 0,-1.6 -1.4,-2.7 -4,-2.7"
            id="path43"
            inkscape:connector-curvature="0"
            style="fill:#212b51"/></g><polygon
        class="st71"
        points="261.6,172.2 260.7,170.4 259.9,170.7 260.7,172 260.7,172 254,172 254,173.1 261.6,173.1 "
        id="polygon45"
        style="fill:#212b51"/><polygon
        class="st71"
        points="261.6,178.4 260.7,176.7 259.9,176.9 260.7,178.2 260.7,178.2 254,178.2 254,179.3 261.6,179.3 "
        id="polygon47"
        style="fill:#212b51"/><g
        id="g49"><path
           class="st71"
           d="m 257.8,186.3 c -2,0 -3.2,-0.5 -3.2,-1.6 0,-1 1.1,-1.6 3.1,-1.6 2.1,0 3.2,0.7 3.2,1.6 0.1,1.1 -1.2,1.6 -3.1,1.6 m 0,-4.3 c -2.5,0 -4,1.1 -4,2.6 0,1.7 1.5,2.7 4.1,2.7 2.5,0 3.9,-0.9 3.9,-2.6 0,-1.5 -1.4,-2.7 -4,-2.7"
           id="path51"
           inkscape:connector-curvature="0"
           style="fill:#212b51" /></g><polygon
        class="st71"
        points="261.6,190.7 260.7,189 259.9,189.2 260.7,190.6 260.7,190.6 254,190.6 254,191.6 261.6,191.6 "
        id="polygon53"
        style="fill:#212b51"/><polygon
        class="st71"
        points="261.6,196.9 260.7,195.2 259.9,195.4 260.7,196.8 260.7,196.8 254,196.8 254,197.8 261.6,197.8 "
        id="polygon55"
        style="fill:#212b51"/><g
        id="g57"><path
           class="st71"
           d="m 257.8,204.8 c -2,0 -3.2,-0.5 -3.2,-1.6 0,-1 1.1,-1.6 3.1,-1.6 2.1,0 3.2,0.7 3.2,1.6 0.1,1.1 -1.2,1.6 -3.1,1.6 m 0,-4.2 c -2.5,0 -4,1.1 -4,2.6 0,1.7 1.5,2.7 4.1,2.7 2.5,0 3.9,-0.9 3.9,-2.6 0,-1.6 -1.4,-2.7 -4,-2.7"
           id="path59"
           inkscape:connector-curvature="0"
           style="fill:#212b51" />
        <path
            class="st71"
            d="m 257.8,211 c -2,0 -3.2,-0.5 -3.2,-1.6 0,-1 1.1,-1.6 3.1,-1.6 2.1,0 3.2,0.7 3.2,1.6 0.1,1.1 -1.2,1.6 -3.1,1.6 m 0,-4.3 c -2.5,0 -4,1.1 -4,2.6 0,1.7 1.5,2.7 4.1,2.7 2.5,0 3.9,-0.9 3.9,-2.6 0,-1.6 -1.4,-2.7 -4,-2.7"
            id="path61"
            inkscape:connector-curvature="0"
            style="fill:#212b51"/>
        <path
            class="st71"
            d="m 257.8,217.2 c -2,0 -3.2,-0.5 -3.2,-1.6 0,-1 1.1,-1.6 3.1,-1.6 2.1,0 3.2,0.7 3.2,1.6 0.1,1.1 -1.2,1.6 -3.1,1.6 m 0,-4.3 c -2.5,0 -4,1.1 -4,2.6 0,1.7 1.5,2.7 4.1,2.7 2.5,0 3.9,-0.9 3.9,-2.6 0,-1.6 -1.4,-2.7 -4,-2.7"
            id="path63"
            inkscape:connector-curvature="0"
            style="fill:#212b51"/></g><polygon
        class="st71"
        points="261.6,221.6 260.7,219.9 259.9,220.1 260.7,221.5 260.7,221.5 254,221.5 254,222.5 261.6,222.5 "
        id="polygon65"
        style="fill:#212b51"/><polygon
        class="st71"
        points="261.6,227.8 260.7,226.1 259.9,226.3 260.7,227.7 260.7,227.7 254,227.7 254,228.7 261.6,228.7 "
        id="polygon67"
        style="fill:#212b51"/><g
        id="g69"><path
           class="st71"
           d="m 257.8,235.7 c -2,0 -3.2,-0.5 -3.2,-1.6 0,-1 1.1,-1.6 3.1,-1.6 2.1,0 3.2,0.7 3.2,1.6 0.1,1.1 -1.2,1.6 -3.1,1.6 m 0,-4.3 c -2.5,0 -4,1.1 -4,2.6 0,1.7 1.5,2.7 4.1,2.7 2.5,0 3.9,-0.9 3.9,-2.6 0,-1.5 -1.4,-2.7 -4,-2.7"
           id="path71"
           inkscape:connector-curvature="0"
           style="fill:#212b51" /></g><polygon
        class="st71"
        points="279.1,84.7 272.4,84.7 272.4,85.7 280.1,85.7 280.1,84.8 279.2,83.1 278.4,83.3 279.1,84.7 "
        id="polygon73"
        style="fill:#212b51"/><polygon
        class="st71"
        points="279.1,90.9 279.1,90.9 272.4,90.9 272.4,91.9 280.1,91.9 280.1,91 279.2,89.3 278.4,89.5 "
        id="polygon75"
        style="fill:#212b51"/><g
        id="g77"><path
           class="st71"
           d="m 276.3,98.9 c -2,0 -3.2,-0.5 -3.2,-1.6 0,-1 1.1,-1.6 3.1,-1.6 2.1,0 3.2,0.7 3.2,1.6 0,1.1 -1.3,1.6 -3.1,1.6 m -0.1,-4.2 c -2.5,0 -3.9,1.1 -3.9,2.6 0,1.7 1.4,2.7 4.1,2.7 2.5,0 3.9,-0.9 3.9,-2.6 -0.1,-1.6 -1.5,-2.7 -4.1,-2.7"
           id="path79"
           inkscape:connector-curvature="0"
           style="fill:#212b51" /></g><polygon
        class="st71"
        points="280.1,103.4 279.2,101.7 278.4,101.9 279.1,103.3 279.1,103.3 272.4,103.3 272.4,104.3 280.1,104.3 "
        id="polygon81"
        style="fill:#212b51"/><g
        id="g83"><path
           class="st71"
           d="m 276.3,111.3 c -2,0 -3.2,-0.5 -3.2,-1.6 0,-1 1.1,-1.6 3.1,-1.6 2.1,0 3.2,0.7 3.2,1.6 0,1.1 -1.3,1.6 -3.1,1.6 m -0.1,-4.3 c -2.5,0 -3.9,1.1 -3.9,2.6 0,1.7 1.4,2.7 4.1,2.7 2.5,0 3.9,-0.9 3.9,-2.6 -0.1,-1.6 -1.5,-2.7 -4.1,-2.7"
           id="path85"
           inkscape:connector-curvature="0"
           style="fill:#212b51" /></g><polygon
        class="st71"
        points="280.1,115.8 279.2,114 278.4,114.3 279.1,115.6 279.1,115.6 272.4,115.6 272.4,116.7 280.1,116.7 "
        id="polygon87"
        style="fill:#212b51"/><g
        id="g89"><path
           class="st71"
           d="m 276.3,123.6 c -2,0 -3.2,-0.5 -3.2,-1.6 0,-1 1.1,-1.6 3.1,-1.6 2.1,0 3.2,0.7 3.2,1.6 0,1.1 -1.3,1.6 -3.1,1.6 m -0.1,-4.2 c -2.5,0 -3.9,1.1 -3.9,2.6 0,1.7 1.4,2.7 4.1,2.7 2.5,0 3.9,-0.9 3.9,-2.6 -0.1,-1.6 -1.5,-2.7 -4.1,-2.7"
           id="path91"
           inkscape:connector-curvature="0"
           style="fill:#212b51" />
        <path
            class="st71"
            d="m 276.3,129.8 c -2,0 -3.2,-0.5 -3.2,-1.6 0,-1 1.1,-1.6 3.1,-1.6 2.1,0 3.2,0.7 3.2,1.6 0,1.1 -1.3,1.6 -3.1,1.6 m -0.1,-4.2 c -2.5,0 -3.9,1.1 -3.9,2.6 0,1.7 1.4,2.7 4.1,2.7 2.5,0 3.9,-0.9 3.9,-2.6 -0.1,-1.6 -1.5,-2.7 -4.1,-2.7"
            id="path93"
            inkscape:connector-curvature="0"
            style="fill:#212b51"/></g><polygon
        class="st71"
        points="280.1,134.3 279.2,132.6 278.4,132.8 279.1,134.1 279.1,134.1 272.4,134.1 272.4,135.2 280.1,135.2 "
        id="polygon95"
        style="fill:#212b51"/><g
        id="g97"><path
           class="st71"
           d="m 276.3,142.2 c -2,0 -3.2,-0.5 -3.2,-1.6 0,-0.9 1.1,-1.6 3.1,-1.6 2.1,0 3.2,0.7 3.2,1.6 0,1.1 -1.3,1.6 -3.1,1.6 m -0.1,-4.3 c -2.5,0 -3.9,1.1 -3.9,2.6 0,1.7 1.4,2.7 4.1,2.7 2.5,0 3.9,-0.9 3.9,-2.6 -0.1,-1.5 -1.5,-2.7 -4.1,-2.7"
           id="path99"
           inkscape:connector-curvature="0"
           style="fill:#212b51" />
        <path
            class="st71"
            d="m 276.3,148.3 c -2,0 -3.2,-0.5 -3.2,-1.6 0,-1 1.1,-1.6 3.1,-1.6 2.1,0 3.2,0.7 3.2,1.6 0,1.2 -1.3,1.6 -3.1,1.6 m -0.1,-4.2 c -2.5,0 -3.9,1.1 -3.9,2.6 0,1.7 1.4,2.7 4.1,2.7 2.5,0 3.9,-0.9 3.9,-2.6 -0.1,-1.6 -1.5,-2.7 -4.1,-2.7"
            id="path101"
            inkscape:connector-curvature="0"
            style="fill:#212b51"/></g><polygon
        class="st71"
        points="280.1,152.9 279.2,151.1 278.4,151.3 279.1,152.7 279.1,152.7 272.4,152.7 272.4,153.8 280.1,153.8 "
        id="polygon103"
        style="fill:#212b51"/><polygon
        class="st71"
        points="280.1,159 279.2,157.3 278.4,157.5 279.1,158.9 279.1,158.9 272.4,158.9 272.4,159.9 280.1,159.9 "
        id="polygon105"
        style="fill:#212b51"/><g
        id="g107"><path
           class="st71"
           d="m 276.3,166.9 c -2,0 -3.2,-0.5 -3.2,-1.6 0,-1 1.1,-1.6 3.1,-1.6 2.1,0 3.2,0.7 3.2,1.6 0,1.1 -1.3,1.6 -3.1,1.6 m -0.1,-4.2 c -2.5,0 -3.9,1.1 -3.9,2.6 0,1.7 1.4,2.7 4.1,2.7 2.5,0 3.9,-1 3.9,-2.6 -0.1,-1.6 -1.5,-2.7 -4.1,-2.7"
           id="path109"
           inkscape:connector-curvature="0"
           style="fill:#212b51" /></g><polygon
        class="st71"
        points="280.1,171.3 279.2,169.6 278.4,169.8 279.1,171.2 279.1,171.2 272.4,171.2 272.4,172.2 280.1,172.2 "
        id="polygon111"
        style="fill:#212b51"/><g
        id="g113"><path
           class="st71"
           d="m 276.3,179.3 c -2,0 -3.2,-0.5 -3.2,-1.6 0,-1 1.1,-1.6 3.1,-1.6 2.1,0 3.2,0.7 3.2,1.6 0,1.1 -1.3,1.6 -3.1,1.6 m -0.1,-4.3 c -2.5,0 -3.9,1.1 -3.9,2.6 0,1.7 1.4,2.7 4.1,2.7 2.5,0 3.9,-0.9 3.9,-2.6 -0.1,-1.5 -1.5,-2.7 -4.1,-2.7"
           id="path115"
           inkscape:connector-curvature="0"
           style="fill:#212b51" />
        <path
            class="st71"
            d="m 276.3,185.5 c -2,0 -3.2,-0.5 -3.2,-1.6 0,-0.9 1.1,-1.6 3.1,-1.6 2.1,0 3.2,0.7 3.2,1.6 0,1.1 -1.3,1.6 -3.1,1.6 m -0.1,-4.3 c -2.5,0 -3.9,1.1 -3.9,2.6 0,1.7 1.4,2.7 4.1,2.7 2.5,0 3.9,-1 3.9,-2.6 -0.1,-1.6 -1.5,-2.7 -4.1,-2.7"
            id="path117"
            inkscape:connector-curvature="0"
            style="fill:#212b51"/></g><polygon
        class="st71"
        points="280.1,189.9 279.2,188.2 278.4,188.4 279.1,189.7 279.1,189.8 272.4,189.8 272.4,190.8 280.1,190.8 "
        id="polygon119"
        style="fill:#212b51"/><polygon
        class="st71"
        points="280.1,196.1 279.2,194.4 278.4,194.6 279.1,196 279.1,196 272.4,196 272.4,197 280.1,197 "
        id="polygon121"
        style="fill:#212b51"/><g
        id="g123"><path
           class="st71"
           d="m 276.3,204 c -2,0 -3.2,-0.5 -3.2,-1.6 0,-1 1.1,-1.6 3.1,-1.6 2.1,0 3.2,0.7 3.2,1.6 0,1.1 -1.3,1.6 -3.1,1.6 m -0.1,-4.2 c -2.5,0 -3.9,1.1 -3.9,2.6 0,1.7 1.4,2.7 4.1,2.7 2.5,0 3.9,-0.9 3.9,-2.6 -0.1,-1.6 -1.5,-2.7 -4.1,-2.7"
           id="path125"
           inkscape:connector-curvature="0"
           style="fill:#212b51" />
        <path
            class="st71"
            d="m 276.3,210.1 c -2,0 -3.2,-0.5 -3.2,-1.6 0,-1 1.1,-1.6 3.1,-1.6 2.1,0 3.2,0.7 3.2,1.6 0,1.1 -1.3,1.6 -3.1,1.6 m -0.1,-4.2 c -2.5,0 -3.9,1.1 -3.9,2.6 0,1.7 1.4,2.7 4.1,2.7 2.5,0 3.9,-0.9 3.9,-2.6 -0.1,-1.6 -1.5,-2.7 -4.1,-2.7"
            id="path127"
            inkscape:connector-curvature="0"
            style="fill:#212b51"/>
        <path
            class="st71"
            d="m 276.3,216.3 c -2,0 -3.2,-0.5 -3.2,-1.6 0,-1 1.1,-1.6 3.1,-1.6 2.1,0 3.2,0.7 3.2,1.6 0,1.1 -1.3,1.6 -3.1,1.6 m -0.1,-4.2 c -2.5,0 -3.9,1.1 -3.9,2.6 0,1.7 1.4,2.7 4.1,2.7 2.5,0 3.9,-0.9 3.9,-2.6 -0.1,-1.6 -1.5,-2.7 -4.1,-2.7"
            id="path129"
            inkscape:connector-curvature="0"
            style="fill:#212b51"/></g><polygon
        class="st71"
        points="280.1,220.8 279.2,219.1 278.4,219.3 279.1,220.7 279.1,220.7 272.4,220.7 272.4,221.7 280.1,221.7 "
        id="polygon131"
        style="fill:#212b51"/><g
        id="g133"><path
           class="st71"
           d="m 276.3,228.7 c -2,0 -3.2,-0.5 -3.2,-1.6 0,-1 1.1,-1.6 3.1,-1.6 2.1,0 3.2,0.7 3.2,1.6 0,1.1 -1.3,1.6 -3.1,1.6 m -0.1,-4.2 c -2.5,0 -3.9,1.1 -3.9,2.6 0,1.7 1.4,2.7 4.1,2.7 2.5,0 3.9,-0.9 3.9,-2.6 -0.1,-1.6 -1.5,-2.7 -4.1,-2.7"
           id="path135"
           inkscape:connector-curvature="0"
           style="fill:#212b51" /></g><polygon
        class="st71"
        points="280.1,233.2 279.2,231.4 278.4,231.6 279.1,233 279.1,233 272.4,233 272.4,234.1 280.1,234.1 "
        id="polygon137"
        style="fill:#212b51"/><polygon
        class="st71"
        points="297.5,84.7 290.8,84.7 290.8,85.7 298.5,85.7 298.5,84.8 297.6,83.1 296.8,83.3 297.5,84.7 "
        id="polygon139"
        style="fill:#212b51"/><g
        id="g141"><path
           class="st71"
           d="m 294.7,92.7 c -2,0 -3.2,-0.5 -3.2,-1.6 0,-1 1.1,-1.6 3.1,-1.6 2.1,0 3.2,0.7 3.2,1.6 0,1.1 -1.2,1.6 -3.1,1.6 m -0.1,-4.2 c -2.5,0 -3.9,1.1 -3.9,2.6 0,1.7 1.4,2.7 4.1,2.7 2.5,0 3.9,-0.9 3.9,-2.6 -0.1,-1.6 -1.5,-2.7 -4.1,-2.7"
           id="path143"
           inkscape:connector-curvature="0"
           style="fill:#212b51" /></g><polygon
        class="st71"
        points="298.5,97.2 297.6,95.5 296.8,95.7 297.5,97.1 297.5,97.1 290.8,97.1 290.8,98.1 298.5,98.1 "
        id="polygon145"
        style="fill:#212b51"/><g
        id="g147"><path
           class="st71"
           d="m 294.7,105.1 c -2,0 -3.2,-0.5 -3.2,-1.6 0,-1 1.1,-1.6 3.1,-1.6 2.1,0 3.2,0.7 3.2,1.6 0,1.1 -1.2,1.6 -3.1,1.6 m -0.1,-4.2 c -2.5,0 -3.9,1.1 -3.9,2.6 0,1.7 1.4,2.7 4.1,2.7 2.5,0 3.9,-0.9 3.9,-2.6 -0.1,-1.6 -1.5,-2.7 -4.1,-2.7"
           id="path149"
           inkscape:connector-curvature="0"
           style="fill:#212b51" />
        <path
            class="st71"
            d="m 294.7,111.3 c -2,0 -3.2,-0.5 -3.2,-1.6 0,-1 1.1,-1.6 3.1,-1.6 2.1,0 3.2,0.7 3.2,1.6 0,1.1 -1.2,1.6 -3.1,1.6 m -0.1,-4.3 c -2.5,0 -3.9,1.1 -3.9,2.6 0,1.7 1.4,2.7 4.1,2.7 2.5,0 3.9,-0.9 3.9,-2.6 -0.1,-1.6 -1.5,-2.7 -4.1,-2.7"
            id="path151"
            inkscape:connector-curvature="0"
            style="fill:#212b51"/></g><polygon
        class="st71"
        points="298.5,115.8 297.6,114 296.8,114.3 297.5,115.6 297.5,115.6 290.8,115.6 290.8,116.7 298.5,116.7 "
        id="polygon153"
        style="fill:#212b51"/><g
        id="g155"><path
           class="st71"
           d="m 294.7,123.6 c -2,0 -3.2,-0.5 -3.2,-1.6 0,-1 1.1,-1.6 3.1,-1.6 2.1,0 3.2,0.7 3.2,1.6 0,1.1 -1.2,1.6 -3.1,1.6 m -0.1,-4.2 c -2.5,0 -3.9,1.1 -3.9,2.6 0,1.7 1.4,2.7 4.1,2.7 2.5,0 3.9,-0.9 3.9,-2.6 -0.1,-1.6 -1.5,-2.7 -4.1,-2.7"
           id="path157"
           inkscape:connector-curvature="0"
           style="fill:#212b51" /></g><polygon
        class="st71"
        points="298.5,128.1 297.6,126.4 296.8,126.6 297.5,128 297.5,128 290.8,128 290.8,129 298.5,129 "
        id="polygon159"
        style="fill:#212b51"/><g
        id="g161"><path
           class="st71"
           d="m 294.7,136 c -2,0 -3.2,-0.5 -3.2,-1.6 0,-1 1.1,-1.6 3.1,-1.6 2.1,0 3.2,0.7 3.2,1.6 0,1.1 -1.2,1.6 -3.1,1.6 m -0.1,-4.3 c -2.5,0 -3.9,1.1 -3.9,2.6 0,1.7 1.4,2.7 4.1,2.7 2.5,0 3.9,-0.9 3.9,-2.6 -0.1,-1.5 -1.5,-2.7 -4.1,-2.7"
           id="path163"
           inkscape:connector-curvature="0"
           style="fill:#212b51" /></g><polygon
        class="st71"
        points="298.5,140.5 297.6,138.7 296.8,139 297.5,140.3 297.5,140.3 290.8,140.3 290.8,141.4 298.5,141.4 "
        id="polygon165"
        style="fill:#212b51"/><g
        id="g167"><path
           class="st71"
           d="m 294.7,148.3 c -2,0 -3.2,-0.5 -3.2,-1.6 0,-1 1.1,-1.6 3.1,-1.6 2.1,0 3.2,0.7 3.2,1.6 0,1.2 -1.2,1.6 -3.1,1.6 m -0.1,-4.2 c -2.5,0 -3.9,1.1 -3.9,2.6 0,1.7 1.4,2.7 4.1,2.7 2.5,0 3.9,-0.9 3.9,-2.6 -0.1,-1.6 -1.5,-2.7 -4.1,-2.7"
           id="path169"
           inkscape:connector-curvature="0"
           style="fill:#212b51" /></g><polygon
        class="st71"
        points="298.5,152.9 297.6,151.1 296.8,151.3 297.5,152.7 297.5,152.7 290.8,152.7 290.8,153.8 298.5,153.8 "
        id="polygon171"
        style="fill:#212b51"/><g
        id="g173"><path
           class="st71"
           d="m 294.7,160.8 c -2,0 -3.2,-0.5 -3.2,-1.6 0,-1 1.1,-1.6 3.1,-1.6 2.1,0 3.2,0.7 3.2,1.6 0,1.1 -1.2,1.6 -3.1,1.6 m -0.1,-4.3 c -2.5,0 -3.9,1.1 -3.9,2.6 0,1.7 1.4,2.7 4.1,2.7 2.5,0 3.9,-0.9 3.9,-2.6 -0.1,-1.6 -1.5,-2.7 -4.1,-2.7"
           id="path175"
           inkscape:connector-curvature="0"
           style="fill:#212b51" /></g><polygon
        class="st71"
        points="298.5,165.2 297.6,163.5 296.8,163.7 297.5,165.1 297.5,165.1 290.8,165.1 290.8,166.1 298.5,166.1 "
        id="polygon177"
        style="fill:#212b51"/><g
        id="g179"><path
           class="st71"
           d="m 294.7,173.1 c -2,0 -3.2,-0.5 -3.2,-1.6 0,-1 1.1,-1.6 3.1,-1.6 2.1,0 3.2,0.7 3.2,1.6 0,1.1 -1.2,1.6 -3.1,1.6 m -0.1,-4.3 c -2.5,0 -3.9,1.1 -3.9,2.6 0,1.7 1.4,2.7 4.1,2.7 2.5,0 3.9,-0.9 3.9,-2.6 -0.1,-1.6 -1.5,-2.7 -4.1,-2.7"
           id="path181"
           inkscape:connector-curvature="0"
           style="fill:#212b51" />
        <path
            class="st71"
            d="m 294.7,179.3 c -2,0 -3.2,-0.5 -3.2,-1.6 0,-1 1.1,-1.6 3.1,-1.6 2.1,0 3.2,0.7 3.2,1.6 0,1.1 -1.2,1.6 -3.1,1.6 m -0.1,-4.3 c -2.5,0 -3.9,1.1 -3.9,2.6 0,1.7 1.4,2.7 4.1,2.7 2.5,0 3.9,-0.9 3.9,-2.6 -0.1,-1.5 -1.5,-2.7 -4.1,-2.7"
            id="path183"
            inkscape:connector-curvature="0"
            style="fill:#212b51"/></g><polygon
        class="st71"
        points="298.5,183.7 297.6,182 296.8,182.2 297.5,183.6 297.5,183.6 290.8,183.6 290.8,184.6 298.5,184.6 "
        id="polygon185"
        style="fill:#212b51"/><g
        id="g187"><path
           class="st71"
           d="m 294.7,191.6 c -2,0 -3.2,-0.5 -3.2,-1.6 0,-1 1.1,-1.6 3.1,-1.6 2.1,0 3.2,0.7 3.2,1.6 0,1.1 -1.2,1.6 -3.1,1.6 m -0.1,-4.2 c -2.5,0 -3.9,1.1 -3.9,2.6 0,1.7 1.4,2.7 4.1,2.7 2.5,0 3.9,-0.9 3.9,-2.6 -0.1,-1.6 -1.5,-2.7 -4.1,-2.7"
           id="path189"
           inkscape:connector-curvature="0"
           style="fill:#212b51" />
        <path
            class="st71"
            d="m 294.7,197.8 c -2,0 -3.2,-0.5 -3.2,-1.6 0,-1 1.1,-1.6 3.1,-1.6 2.1,0 3.2,0.7 3.2,1.6 0,1.1 -1.2,1.6 -3.1,1.6 m -0.1,-4.2 c -2.5,0 -3.9,1.1 -3.9,2.6 0,1.7 1.4,2.7 4.1,2.7 2.5,0 3.9,-0.9 3.9,-2.6 -0.1,-1.6 -1.5,-2.7 -4.1,-2.7"
            id="path191"
            inkscape:connector-curvature="0"
            style="fill:#212b51"/></g><polygon
        class="st71"
        points="298.5,202.3 297.6,200.6 296.8,200.8 297.5,202.1 297.5,202.2 290.8,202.2 290.8,203.2 298.5,203.2 "
        id="polygon193"
        style="fill:#212b51"/><g
        id="g195"><path
           class="st71"
           d="m 294.7,210.1 c -2,0 -3.2,-0.5 -3.2,-1.6 0,-1 1.1,-1.6 3.1,-1.6 2.1,0 3.2,0.7 3.2,1.6 0,1.1 -1.2,1.6 -3.1,1.6 m -0.1,-4.2 c -2.5,0 -3.9,1.1 -3.9,2.6 0,1.7 1.4,2.7 4.1,2.7 2.5,0 3.9,-0.9 3.9,-2.6 -0.1,-1.6 -1.5,-2.7 -4.1,-2.7"
           id="path197"
           inkscape:connector-curvature="0"
           style="fill:#212b51" /></g><polygon
        class="st71"
        points="298.5,214.6 297.6,212.9 296.8,213.1 297.5,214.5 297.5,214.5 290.8,214.5 290.8,215.5 298.5,215.5 "
        id="polygon199"
        style="fill:#212b51"/><g
        id="g201"><path
           class="st71"
           d="m 294.7,222.5 c -2,0 -3.2,-0.5 -3.2,-1.6 0,-1 1.1,-1.6 3.1,-1.6 2.1,0 3.2,0.7 3.2,1.6 0,1.1 -1.2,1.6 -3.1,1.6 m -0.1,-4.2 c -2.5,0 -3.9,1.1 -3.9,2.6 0,1.7 1.4,2.7 4.1,2.7 2.5,0 3.9,-0.9 3.9,-2.6 -0.1,-1.6 -1.5,-2.7 -4.1,-2.7"
           id="path203"
           inkscape:connector-curvature="0"
           style="fill:#212b51" /></g><polygon
        class="st71"
        points="298.5,227 297.6,225.3 296.8,225.5 297.5,226.9 297.5,226.9 290.8,226.9 290.8,227.9 298.5,227.9 "
        id="polygon205"
        style="fill:#212b51"/><g
        id="g207"><path
           class="st71"
           d="m 294.7,234.9 c -2,0 -3.2,-0.5 -3.2,-1.6 0,-1 1.1,-1.6 3.1,-1.6 2.1,0 3.2,0.7 3.2,1.6 0,1.1 -1.2,1.6 -3.1,1.6 m -0.1,-4.3 c -2.5,0 -3.9,1.1 -3.9,2.6 0,1.7 1.4,2.7 4.1,2.7 2.5,0 3.9,-0.9 3.9,-2.6 -0.1,-1.5 -1.5,-2.7 -4.1,-2.7"
           id="path209"
           inkscape:connector-curvature="0"
           style="fill:#212b51" />
        <path
            class="st71"
            d="m 313.1,87.3 c -2,0 -3.2,-0.5 -3.2,-1.6 0,-0.9 1.1,-1.6 3.1,-1.6 2.1,0 3.2,0.7 3.2,1.6 0,1.2 -1.2,1.6 -3.1,1.6 m 0,-4.2 c -2.5,0 -4,1.1 -4,2.6 0,1.7 1.5,2.7 4.1,2.7 2.4,0 3.9,-0.9 3.9,-2.6 0,-1.6 -1.5,-2.7 -4,-2.7"
            id="path211"
            inkscape:connector-curvature="0"
            style="fill:#212b51"/></g><polygon
        class="st71"
        points="316.9,91.8 316,90.1 315.2,90.3 316,91.7 316,91.7 309.2,91.7 309.2,92.7 316.9,92.7 "
        id="polygon213"
        style="fill:#212b51"/><polygon
        class="st71"
        points="316.9,98 316,96.3 315.2,96.5 316,97.9 316,97.9 309.2,97.9 309.2,98.9 316.9,98.9 "
        id="polygon215"
        style="fill:#212b51"/><polygon
        class="st71"
        points="316.9,104.2 316,102.5 315.2,102.7 316,104.1 316,104.1 309.2,104.1 309.2,105.1 316.9,105.1 "
        id="polygon217"
        style="fill:#212b51"/><g
        id="g219"><path
           class="st71"
           d="m 313.1,112.1 c -2,0 -3.2,-0.5 -3.2,-1.6 0,-1 1.1,-1.6 3.1,-1.6 2.1,0 3.2,0.7 3.2,1.6 0,1.1 -1.2,1.6 -3.1,1.6 m 0,-4.3 c -2.5,0 -4,1.1 -4,2.6 0,1.7 1.5,2.7 4.1,2.7 2.4,0 3.9,-0.9 3.9,-2.6 0,-1.5 -1.5,-2.7 -4,-2.7"
           id="path221"
           inkscape:connector-curvature="0"
           style="fill:#212b51" /></g><polygon
        class="st71"
        points="316.9,116.6 316,114.9 315.2,115.1 316,116.4 316,116.5 309.2,116.5 309.2,117.5 316.9,117.5 "
        id="polygon223"
        style="fill:#212b51"/><g
        id="g225"><path
           class="st71"
           d="m 313.1,124.5 c -2,0 -3.2,-0.5 -3.2,-1.6 0,-1 1.1,-1.6 3.1,-1.6 2.1,0 3.2,0.7 3.2,1.6 0,1.1 -1.2,1.6 -3.1,1.6 m 0,-4.3 c -2.5,0 -4,1.1 -4,2.6 0,1.7 1.5,2.7 4.1,2.7 2.4,0 3.9,-0.9 3.9,-2.6 0,-1.6 -1.5,-2.7 -4,-2.7"
           id="path227"
           inkscape:connector-curvature="0"
           style="fill:#212b51" /></g><polygon
        class="st71"
        points="316.9,128.9 316,127.2 315.2,127.4 316,128.8 316,128.8 309.2,128.8 309.2,129.8 316.9,129.8 "
        id="polygon229"
        style="fill:#212b51"/><g
        id="g231"><path
           class="st71"
           d="m 313.1,136.8 c -2,0 -3.2,-0.5 -3.2,-1.6 0,-1 1.1,-1.6 3.1,-1.6 2.1,0 3.2,0.7 3.2,1.6 0,1.1 -1.2,1.6 -3.1,1.6 m 0,-4.2 c -2.5,0 -4,1.1 -4,2.6 0,1.7 1.5,2.7 4.1,2.7 2.4,0 3.9,-0.9 3.9,-2.6 0,-1.6 -1.5,-2.7 -4,-2.7"
           id="path233"
           inkscape:connector-curvature="0"
           style="fill:#212b51" />
        <path
            class="st71"
            d="m 313.1,143 c -2,0 -3.2,-0.5 -3.2,-1.6 0,-1 1.1,-1.6 3.1,-1.6 2.1,0 3.2,0.7 3.2,1.6 0,1.1 -1.2,1.6 -3.1,1.6 m 0,-4.3 c -2.5,0 -4,1.1 -4,2.6 0,1.7 1.5,2.7 4.1,2.7 2.4,0 3.9,-0.9 3.9,-2.6 0,-1.5 -1.5,-2.7 -4,-2.7"
            id="path235"
            inkscape:connector-curvature="0"
            style="fill:#212b51"/></g><polygon
        class="st71"
        points="316.9,147.5 316,145.7 315.2,145.9 316,147.3 316,147.3 309.2,147.3 309.2,148.3 316.9,148.3 "
        id="polygon237"
        style="fill:#212b51"/><g
        id="g239"><path
           class="st71"
           d="m 313.1,155.4 c -2,0 -3.2,-0.5 -3.2,-1.6 0,-1 1.1,-1.6 3.1,-1.6 2.1,0 3.2,0.7 3.2,1.6 0,1.1 -1.2,1.6 -3.1,1.6 m 0,-4.3 c -2.5,0 -4,1.1 -4,2.6 0,1.7 1.5,2.7 4.1,2.7 2.4,0 3.9,-0.9 3.9,-2.6 0,-1.5 -1.5,-2.7 -4,-2.7"
           id="path241"
           inkscape:connector-curvature="0"
           style="fill:#212b51" /></g><polygon
        class="st71"
        points="316.9,159.8 316,158.1 315.2,158.3 316,159.7 316,159.7 309.2,159.7 309.2,160.7 316.9,160.7 "
        id="polygon243"
        style="fill:#212b51"/><polygon
        class="st71"
        points="316.9,166 316,164.3 315.2,164.5 316,165.9 316,165.9 309.2,165.9 309.2,166.9 316.9,166.9 "
        id="polygon245"
        style="fill:#212b51"/><g
        id="g247"><path
           class="st71"
           d="m 313.1,173.9 c -2,0 -3.2,-0.5 -3.2,-1.6 0,-1 1.1,-1.6 3.1,-1.6 2.1,0 3.2,0.7 3.2,1.6 0,1.1 -1.2,1.6 -3.1,1.6 m 0,-4.3 c -2.5,0 -4,1 -4,2.6 0,1.7 1.5,2.7 4.1,2.7 2.4,0 3.9,-1 3.9,-2.6 0,-1.5 -1.5,-2.7 -4,-2.7"
           id="path249"
           inkscape:connector-curvature="0"
           style="fill:#212b51" />
        <path
            class="st71"
            d="m 313.1,180.1 c -2,0 -3.2,-0.5 -3.2,-1.6 0,-1 1.1,-1.6 3.1,-1.6 2.1,0 3.2,0.7 3.2,1.6 0,1.1 -1.2,1.6 -3.1,1.6 m 0,-4.3 c -2.5,0 -4,1.1 -4,2.6 0,1.7 1.5,2.7 4.1,2.7 2.4,0 3.9,-0.9 3.9,-2.6 0,-1.5 -1.5,-2.7 -4,-2.7"
            id="path251"
            inkscape:connector-curvature="0"
            style="fill:#212b51"/></g><polygon
        class="st71"
        points="316.9,184.5 316,182.8 315.2,183 316,184.4 316,184.4 309.2,184.4 309.2,185.5 316.9,185.5 "
        id="polygon253"
        style="fill:#212b51"/><polygon
        class="st71"
        points="316.9,190.7 316,189 315.2,189.2 316,190.6 316,190.6 309.2,190.6 309.2,191.6 316.9,191.6 "
        id="polygon255"
        style="fill:#212b51"/><g
        id="g257"><path
           class="st71"
           d="m 313.1,198.7 c -2,0 -3.2,-0.5 -3.2,-1.6 0,-1 1.1,-1.6 3.1,-1.6 2.1,0 3.2,0.7 3.2,1.6 0,1.1 -1.2,1.6 -3.1,1.6 m 0,-4.3 c -2.5,0 -4,1 -4,2.6 0,1.7 1.5,2.7 4.1,2.7 2.4,0 3.9,-0.9 3.9,-2.6 0,-1.6 -1.5,-2.7 -4,-2.7"
           id="path259"
           inkscape:connector-curvature="0"
           style="fill:#212b51" />
        <path
            class="st71"
            d="m 313.1,204.8 c -2,0 -3.2,-0.5 -3.2,-1.6 0,-1 1.1,-1.6 3.1,-1.6 2.1,0 3.2,0.7 3.2,1.6 0,1.1 -1.2,1.6 -3.1,1.6 m 0,-4.2 c -2.5,0 -4,1.1 -4,2.6 0,1.7 1.5,2.7 4.1,2.7 2.4,0 3.9,-0.9 3.9,-2.6 0,-1.6 -1.5,-2.7 -4,-2.7"
            id="path261"
            inkscape:connector-curvature="0"
            style="fill:#212b51"/></g><polygon
        class="st71"
        points="316.9,209.2 316,207.5 315.2,207.7 316,209.1 316,209.1 309.2,209.1 309.2,210.1 316.9,210.1 "
        id="polygon263"
        style="fill:#212b51"/><g
        id="g265"><path
           class="st71"
           d="m 313.1,217.2 c -2,0 -3.2,-0.5 -3.2,-1.6 0,-1 1.1,-1.6 3.1,-1.6 2.1,0 3.2,0.7 3.2,1.6 0,1.1 -1.2,1.6 -3.1,1.6 m 0,-4.3 c -2.5,0 -4,1.1 -4,2.6 0,1.7 1.5,2.7 4.1,2.7 2.4,0 3.9,-0.9 3.9,-2.6 0,-1.6 -1.5,-2.7 -4,-2.7"
           id="path267"
           inkscape:connector-curvature="0"
           style="fill:#212b51" /></g><polygon
        class="st71"
        points="316.9,221.6 316,219.9 315.2,220.1 316,221.5 316,221.5 309.2,221.5 309.2,222.5 316.9,222.5 "
        id="polygon269"
        style="fill:#212b51"/><g
        id="g271"><path
           class="st71"
           d="m 313.1,229.5 c -2,0 -3.2,-0.5 -3.2,-1.6 0,-1 1.1,-1.6 3.1,-1.6 2.1,0 3.2,0.7 3.2,1.6 0,1.1 -1.2,1.6 -3.1,1.6 m 0,-4.2 c -2.5,0 -4,1.1 -4,2.6 0,1.7 1.5,2.7 4.1,2.7 2.4,0 3.9,-0.9 3.9,-2.6 0,-1.6 -1.5,-2.7 -4,-2.7"
           id="path273"
           inkscape:connector-curvature="0"
           style="fill:#212b51" /></g><polygon
        class="st71"
        points="316.9,234 316,232.3 315.2,232.5 316,233.8 316,233.9 309.2,233.9 309.2,234.9 316.9,234.9 "
        id="polygon275"
        style="fill:#212b51"/><polygon
        class="st71"
        points="334.4,84.7 327.7,84.7 327.7,85.7 335.3,85.7 335.3,84.8 334.4,83.1 333.7,83.3 334.4,84.7 "
        id="polygon277"
        style="fill:#212b51"/><polygon
        class="st71"
        points="327.7,90.9 327.7,91.9 335.3,91.9 335.3,91 334.4,89.3 333.7,89.5 334.4,90.9 334.4,90.9 "
        id="polygon279"
        style="fill:#212b51"/><polygon
        class="st71"
        points="327.7,97.1 327.7,98.1 335.3,98.1 335.3,97.2 334.4,95.5 333.7,95.7 334.4,97.1 334.4,97.1 "
        id="polygon281"
        style="fill:#212b51"/><g
        id="g283"><path
           class="st71"
           d="m 331.5,101.9 c 2.1,0 3.2,0.7 3.2,1.6 0,1.1 -1.2,1.6 -3.1,1.6 -2,0 -3.2,-0.5 -3.2,-1.6 -0.1,-0.9 1.1,-1.6 3.1,-1.6 m 0.1,4.3 c 2.5,0 3.9,-0.9 3.9,-2.6 0,-1.6 -1.4,-2.7 -4,-2.7 -2.5,0 -4,1.1 -4,2.6 0,1.7 1.5,2.7 4.1,2.7"
           id="path285"
           inkscape:connector-curvature="0"
           style="fill:#212b51" /></g><polygon
        class="st71"
        points="327.7,109.4 327.7,110.4 335.3,110.4 335.3,109.5 334.4,107.8 333.7,108 334.4,109.4 334.4,109.4 "
        id="polygon287"
        style="fill:#212b51"/><g
        id="g289"><path
           class="st71"
           d="m 331.5,117.5 c -2,0 -3.2,-0.5 -3.2,-1.6 0,-1 1.1,-1.6 3.1,-1.6 2.1,0 3.2,0.7 3.2,1.6 0.1,1.1 -1.2,1.6 -3.1,1.6 m 0,-4.3 c -2.5,0 -4,1 -4,2.6 0,1.7 1.5,2.7 4.1,2.7 2.5,0 3.9,-0.9 3.9,-2.6 0,-1.5 -1.5,-2.7 -4,-2.7"
           id="path291"
           inkscape:connector-curvature="0"
           style="fill:#212b51" /></g><polygon
        class="st71"
        points="327.7,121.8 327.7,122.8 335.3,122.8 335.3,121.9 334.4,120.2 333.7,120.4 334.4,121.8 334.4,121.8 "
        id="polygon293"
        style="fill:#212b51"/><g
        id="g295"><path
           class="st71"
           d="m 331.5,129.8 c -2,0 -3.2,-0.5 -3.2,-1.6 0,-1 1.1,-1.6 3.1,-1.6 2.1,0 3.2,0.7 3.2,1.6 0.1,1.1 -1.2,1.6 -3.1,1.6 m 0,-4.2 c -2.5,0 -4,1.1 -4,2.6 0,1.7 1.5,2.7 4.1,2.7 2.5,0 3.9,-0.9 3.9,-2.6 0,-1.6 -1.5,-2.7 -4,-2.7"
           id="path297"
           inkscape:connector-curvature="0"
           style="fill:#212b51" /></g><polygon
        class="st71"
        points="327.7,134.1 327.7,135.2 335.3,135.2 335.3,134.3 334.4,132.6 333.7,132.8 334.4,134.1 334.4,134.1 "
        id="polygon299"
        style="fill:#212b51"/><polygon
        class="st71"
        points="327.7,140.3 327.7,141.4 335.3,141.4 335.3,140.5 334.4,138.7 333.7,139 334.4,140.3 334.4,140.3 "
        id="polygon301"
        style="fill:#212b51"/><g
        id="g303"><path
           class="st71"
           d="m 331.5,148.3 c -2,0 -3.2,-0.5 -3.2,-1.6 0,-1 1.1,-1.6 3.1,-1.6 2.1,0 3.2,0.7 3.2,1.6 0.1,1.2 -1.2,1.6 -3.1,1.6 m 0,-4.2 c -2.5,0 -4,1.1 -4,2.6 0,1.7 1.5,2.7 4.1,2.7 2.5,0 3.9,-0.9 3.9,-2.6 0,-1.6 -1.5,-2.7 -4,-2.7"
           id="path305"
           inkscape:connector-curvature="0"
           style="fill:#212b51" /></g><polygon
        class="st71"
        points="327.7,152.7 327.7,153.8 335.3,153.8 335.3,152.9 334.4,151.1 333.7,151.3 334.4,152.7 334.4,152.7 "
        id="polygon307"
        style="fill:#212b51"/><g
        id="g309"><path
           class="st71"
           d="m 331.5,160.8 c -2,0 -3.2,-0.5 -3.2,-1.6 0,-1 1.1,-1.6 3.1,-1.6 2.1,0 3.2,0.7 3.2,1.6 0.1,1.1 -1.2,1.6 -3.1,1.6 m 0,-4.3 c -2.5,0 -4,1.1 -4,2.6 0,1.7 1.5,2.7 4.1,2.7 2.5,0 3.9,-0.9 3.9,-2.6 0,-1.6 -1.5,-2.7 -4,-2.7"
           id="path311"
           inkscape:connector-curvature="0"
           style="fill:#212b51" /></g><polygon
        class="st71"
        points="327.7,165.1 327.7,166.1 335.3,166.1 335.3,165.2 334.4,163.5 333.7,163.7 334.4,165.1 334.4,165.1 "
        id="polygon313"
        style="fill:#212b51"/><g
        id="g315"><path
           class="st71"
           d="m 331.5,173.1 c -2,0 -3.2,-0.5 -3.2,-1.6 0,-1 1.1,-1.6 3.1,-1.6 2.1,0 3.2,0.7 3.2,1.6 0.1,1.1 -1.2,1.6 -3.1,1.6 m 0,-4.3 c -2.5,0 -4,1.1 -4,2.6 0,1.7 1.5,2.7 4.1,2.7 2.5,0 3.9,-0.9 3.9,-2.6 0,-1.6 -1.5,-2.7 -4,-2.7"
           id="path317"
           inkscape:connector-curvature="0"
           style="fill:#212b51" />
        <path
            class="st71"
            d="m 331.5,179.3 c -2,0 -3.2,-0.5 -3.2,-1.6 0,-1 1.1,-1.6 3.1,-1.6 2.1,0 3.2,0.7 3.2,1.6 0.1,1.1 -1.2,1.6 -3.1,1.6 m 0,-4.3 c -2.5,0 -4,1.1 -4,2.6 0,1.7 1.5,2.7 4.1,2.7 2.5,0 3.9,-0.9 3.9,-2.6 0,-1.5 -1.5,-2.7 -4,-2.7"
            id="path319"
            inkscape:connector-curvature="0"
            style="fill:#212b51"/></g><polygon
        class="st71"
        points="327.7,183.6 327.7,184.6 335.3,184.6 335.3,183.7 334.4,182 333.7,182.2 334.4,183.6 334.4,183.6 "
        id="polygon321"
        style="fill:#212b51"/><g
        id="g323"><path
           class="st71"
           d="m 331.5,191.6 c -2,0 -3.2,-0.5 -3.2,-1.6 0,-1 1.1,-1.6 3.1,-1.6 2.1,0 3.2,0.7 3.2,1.6 0.1,1.1 -1.2,1.6 -3.1,1.6 m 0,-4.2 c -2.5,0 -4,1.1 -4,2.6 0,1.7 1.5,2.7 4.1,2.7 2.5,0 3.9,-0.9 3.9,-2.6 0,-1.6 -1.5,-2.7 -4,-2.7"
           id="path325"
           inkscape:connector-curvature="0"
           style="fill:#212b51" /></g><polygon
        class="st71"
        points="327.7,196 327.7,197 335.3,197 335.3,196.1 334.4,194.4 333.7,194.6 334.4,196 334.4,196 "
        id="polygon327"
        style="fill:#212b51"/><g
        id="g329"><path
           class="st71"
           d="m 331.5,204 c -2,0 -3.2,-0.5 -3.2,-1.6 0,-1 1.1,-1.6 3.1,-1.6 2.1,0 3.2,0.7 3.2,1.6 0.1,1.1 -1.2,1.6 -3.1,1.6 m 0,-4.2 c -2.5,0 -4,1.1 -4,2.6 0,1.7 1.5,2.7 4.1,2.7 2.5,0 3.9,-0.9 3.9,-2.6 0,-1.6 -1.5,-2.7 -4,-2.7"
           id="path331"
           inkscape:connector-curvature="0"
           style="fill:#212b51" /></g><polygon
        class="st71"
        points="327.7,208.3 327.7,209.3 335.3,209.3 335.3,208.4 334.4,206.7 333.7,206.9 334.4,208.3 334.4,208.3 "
        id="polygon333"
        style="fill:#212b51"/><polygon
        class="st71"
        points="327.7,214.5 327.7,215.5 335.3,215.5 335.3,214.6 334.4,212.9 333.7,213.1 334.4,214.5 334.4,214.5 "
        id="polygon335"
        style="fill:#212b51"/><g
        id="g337"><path
           class="st71"
           d="m 331.5,222.5 c -2,0 -3.2,-0.5 -3.2,-1.6 0,-1 1.1,-1.6 3.1,-1.6 2.1,0 3.2,0.7 3.2,1.6 0.1,1.1 -1.2,1.6 -3.1,1.6 m 0,-4.2 c -2.5,0 -4,1.1 -4,2.6 0,1.7 1.5,2.7 4.1,2.7 2.5,0 3.9,-0.9 3.9,-2.6 0,-1.6 -1.5,-2.7 -4,-2.7"
           id="path339"
           inkscape:connector-curvature="0"
           style="fill:#212b51" /></g><polygon
        class="st71"
        points="327.7,226.9 327.7,227.9 335.3,227.9 335.3,227 334.4,225.3 333.7,225.5 334.4,226.9 334.4,226.9 "
        id="polygon341"
        style="fill:#212b51"/><g
        id="g343"><path
           class="st71"
           d="m 331.5,234.9 c -2,0 -3.2,-0.5 -3.2,-1.6 0,-1 1.1,-1.6 3.1,-1.6 2.1,0 3.2,0.7 3.2,1.6 0.1,1.1 -1.2,1.6 -3.1,1.6 m 0,-4.3 c -2.5,0 -4,1.1 -4,2.6 0,1.7 1.5,2.7 4.1,2.7 2.5,0 3.9,-0.9 3.9,-2.6 0,-1.5 -1.5,-2.7 -4,-2.7"
           id="path345"
           inkscape:connector-curvature="0"
           style="fill:#212b51" /></g></g>
        <g
            id="g347"><rect
         x="254.60001"
         y="246.10001"
         transform="matrix(0.0030651,-1,1,0.0030651,-3.1827,588.8201)"
         class="st13"
         width="78.199997"
         height="99.800003"
         id="rect349"
         style="fill:#222b51" />
            <path
                class="st18"
                d="m 349.6,253.9 c 0,1.7 -1.4,3.2 -3.2,3.2 l -105.2,-0.3 c -1.7,0 -3.2,-1.4 -3.2,-3.2 l 0.1,-25.4 c 0,-1.7 1.4,-3.2 3.2,-3.2 l 105.2,0.3 c 1.8,0 3.2,1.4 3.2,3.2 l -0.1,25.4 z"
                id="path351"
                inkscape:connector-curvature="0"
                style="fill:#ffffff"/>
            <path
                class="st18"
                d="m 349.5,290.6 c 0,1.7 -1.4,3.2 -3.2,3.2 l -105.2,-0.3 c -1.7,0 -3.2,-1.4 -3.2,-3.2 l 0.1,-25.4 c 0,-1.7 1.4,-3.2 3.2,-3.2 l 105.2,0.3 c 1.8,0 3.2,1.4 3.2,3.2 l -0.1,25.4 z"
                id="path353"
                inkscape:connector-curvature="0"
                style="fill:#ffffff"/>
            <path
                class="st18"
                d="m 349.4,327.2 c 0,1.7 -1.4,3.2 -3.2,3.2 L 241,330.1 c -1.7,0 -3.2,-1.4 -3.2,-3.2 l 0.1,-25.4 c 0,-1.7 1.4,-3.2 3.2,-3.2 l 105.2,0.3 c 1.8,0 3.2,1.4 3.2,3.2 l -0.1,25.4 z"
                id="path355"
                inkscape:connector-curvature="0"
                style="fill:#ffffff"/>
            <path
                class="st49"
                d="m 346.1,253.6 -104.5,-0.3 0.1,-24.8 104.5,0.3 -0.1,24.8 z m 0.4,-28.3 -105.2,-0.3 c -1.7,0 -3.2,1.4 -3.2,3.2 l -0.1,25.4 c 0,1.7 1.4,3.2 3.2,3.2 l 105.2,0.3 c 1.8,0 3.2,-1.4 3.2,-3.2 l 0.1,-25.4 c 0,-1.8 -1.4,-3.2 -3.2,-3.2"
                id="path357"
                inkscape:connector-curvature="0"
                style="fill:#d1cfda"/>
            <path
                class="st49"
                d="m 346,290.2 -104.5,-0.3 0.1,-24.8 104.5,0.3 -0.1,24.8 z m 0.4,-28.3 -105.2,-0.3 c -1.7,0 -3.2,1.4 -3.2,3.2 l -0.1,25.4 c 0,1.7 1.4,3.2 3.2,3.2 l 105.2,0.3 c 1.8,0 3.2,-1.4 3.2,-3.2 l 0.1,-25.4 c 0,-1.7 -1.4,-3.1 -3.2,-3.2"
                id="path359"
                inkscape:connector-curvature="0"
                style="fill:#d1cfda"/>
            <path
                class="st49"
                d="m 345.9,326.9 -104.5,-0.3 0.1,-24.8 104.5,0.3 -0.1,24.8 z m 0.4,-28.3 -105.2,-0.3 c -1.7,0 -3.2,1.4 -3.2,3.2 l -0.1,25.4 c 0,1.7 1.4,3.2 3.2,3.2 l 105.2,0.3 c 1.8,0 3.2,-1.4 3.2,-3.2 l 0.1,-25.4 c 0,-1.8 -1.4,-3.2 -3.2,-3.2"
                id="path361"
                inkscape:connector-curvature="0"
                style="fill:#d1cfda"/>
            <g
                id="g363"><path
           class="st13"
           d="m 339.3,241.2 c 0,1.6 -1.3,2.9 -2.9,2.9 -1.6,0 -2.9,-1.3 -2.9,-2.9 0,-1.6 1.3,-2.9 2.9,-2.9 1.6,-0.1 2.9,1.3 2.9,2.9"
           id="path365"
           inkscape:connector-curvature="0"
           style="fill:#222b51" />
                <path
                    class="st13"
                    d="m 339.2,277.8 c 0,1.6 -1.3,2.9 -2.9,2.9 -1.6,0 -2.9,-1.3 -2.9,-2.9 0,-1.6 1.3,-2.9 2.9,-2.9 1.6,0 2.9,1.3 2.9,2.9"
                    id="path367"
                    inkscape:connector-curvature="0"
                    style="fill:#222b51"/>
                <path
                    class="st13"
                    d="m 339.1,314.5 c 0,1.6 -1.3,2.9 -2.9,2.9 -1.6,0 -2.9,-1.3 -2.9,-2.9 0,-1.6 1.3,-2.9 2.9,-2.9 1.6,0 2.9,1.3 2.9,2.9"
                    id="path369"
                    inkscape:connector-curvature="0"
                    style="fill:#222b51"/>
                <rect
                    x="252.39999"
                    y="234.60001"
                    transform="matrix(0.00299056,-1,1,0.00299056,17.0542,488.899)"
                    class="st13"
                    width="2.5999999"
                    height="2.5999999"
                    id="rect371"
                    style="fill:#222b51"/>
                <rect
                    x="260.39999"
                    y="234.60001"
                    transform="matrix(0.00299056,-1,1,0.00299056,24.9303,496.8472)"
                    class="st13"
                    width="2.5999999"
                    height="2.5999999"
                    id="rect373"
                    style="fill:#222b51"/>
                <rect
                    x="268.29999"
                    y="234.7"
                    transform="matrix(0.00299056,-1,1,0.00299056,32.8065,504.7955)"
                    class="st13"
                    width="2.5999999"
                    height="2.5999999"
                    id="rect375"
                    style="fill:#222b51"/>
                <rect
                    x="276.20001"
                    y="234.7"
                    transform="matrix(0.00299056,-1,1,0.00299056,40.6828,512.7439)"
                    class="st13"
                    width="2.5999999"
                    height="2.5999999"
                    id="rect377"
                    style="fill:#222b51"/>
                <rect
                    x="284.10001"
                    y="234.7"
                    transform="matrix(0.00299056,-1,1,0.00299056,48.5588,520.6924)"
                    class="st13"
                    width="2.5999999"
                    height="2.5999999"
                    id="rect379"
                    style="fill:#222b51"/>
                <rect
                    x="252.39999"
                    y="244.60001"
                    transform="matrix(0.00299056,-1,1,0.00299056,7.027,498.8418)"
                    class="st13"
                    width="2.5999999"
                    height="2.5999999"
                    id="rect381"
                    style="fill:#222b51"/>
                <rect
                    x="260.29999"
                    y="244.60001"
                    transform="matrix(0.00299056,-1,1,0.00299056,14.903,506.7903)"
                    class="st13"
                    width="2.5999999"
                    height="2.5999999"
                    id="rect383"
                    style="fill:#222b51"/>
                <rect
                    x="268.20001"
                    y="244.7"
                    transform="matrix(0.00299056,-1,1,0.00299056,22.7793,514.7386)"
                    class="st13"
                    width="2.5999999"
                    height="2.5999999"
                    id="rect385"
                    style="fill:#222b51"/>
                <rect
                    x="276.20001"
                    y="244.7"
                    transform="matrix(0.00299056,-1,1,0.00299056,30.6555,522.687)"
                    class="st13"
                    width="2.5999999"
                    height="2.5999999"
                    id="rect387"
                    style="fill:#222b51"/>
                <rect
                    x="284.10001"
                    y="244.7"
                    transform="matrix(0.00299056,-1,1,0.00299056,38.531,530.635)"
                    class="st13"
                    width="2.5999999"
                    height="2.5999999"
                    id="rect389"
                    style="fill:#222b51"/>
                <rect
                    x="256.29999"
                    y="239.60001"
                    transform="matrix(0.00299056,-1,1,0.00299056,15.863,497.7277)"
                    class="st13"
                    width="2.5999999"
                    height="2.5999999"
                    id="rect391"
                    style="fill:#222b51"/>
                <rect
                    x="264.20001"
                    y="239.60001"
                    transform="matrix(0.00299056,-1,1,0.00299056,23.7391,505.6759)"
                    class="st13"
                    width="2.5999999"
                    height="2.5999999"
                    id="rect393"
                    style="fill:#222b51"/>
                <rect
                    x="272.10001"
                    y="239.7"
                    transform="matrix(0.00299056,-1,1,0.00299056,31.6151,513.6241)"
                    class="st13"
                    width="2.5999999"
                    height="2.5999999"
                    id="rect395"
                    style="fill:#222b51"/>
                <rect
                    x="280"
                    y="239.7"
                    transform="matrix(0.00299056,-1,1,0.00299056,39.4912,521.5726)"
                    class="st13"
                    width="2.5999999"
                    height="2.5999999"
                    id="rect397"
                    style="fill:#222b51"/>
                <rect
                    x="288"
                    y="239.7"
                    transform="matrix(0.00299056,-1,1,0.00299056,47.3674,529.521)"
                    class="st13"
                    width="2.5999999"
                    height="2.5999999"
                    id="rect399"
                    style="fill:#222b51"/>
                <rect
                    x="252.3"
                    y="271.29999"
                    transform="matrix(0.00299056,-1,1,0.00299056,-19.7027,525.3464)"
                    class="st13"
                    width="2.5999999"
                    height="2.5999999"
                    id="rect401"
                    style="fill:#222b51"/>
                <rect
                    x="260.29999"
                    y="271.29999"
                    transform="matrix(0.00299056,-1,1,0.00299056,-11.8265,533.2948)"
                    class="st13"
                    width="2.5999999"
                    height="2.5999999"
                    id="rect403"
                    style="fill:#222b51"/>
                <rect
                    x="268.20001"
                    y="271.29999"
                    transform="matrix(0.00299056,-1,1,0.00299056,-3.9504,541.2433)"
                    class="st13"
                    width="2.5999999"
                    height="2.5999999"
                    id="rect405"
                    style="fill:#222b51"/>
                <rect
                    x="276.10001"
                    y="271.29999"
                    transform="matrix(0.00299056,-1,1,0.00299056,3.9255,549.1917)"
                    class="st13"
                    width="2.5999999"
                    height="2.5999999"
                    id="rect407"
                    style="fill:#222b51"/>
                <rect
                    x="284"
                    y="271.39999"
                    transform="matrix(0.00299056,-1,1,0.00299056,11.8017,557.14)"
                    class="st13"
                    width="2.5999999"
                    height="2.5999999"
                    id="rect409"
                    style="fill:#222b51"/>
                <rect
                    x="252.3"
                    y="281.29999"
                    transform="matrix(0.00299056,-1,1,0.00299056,-29.73,535.2895)"
                    class="st13"
                    width="2.5999999"
                    height="2.5999999"
                    id="rect411"
                    style="fill:#222b51"/>
                <rect
                    x="260.20001"
                    y="281.29999"
                    transform="matrix(0.00299056,-1,1,0.00299056,-21.8538,543.2375)"
                    class="st13"
                    width="2.5999999"
                    height="2.5999999"
                    id="rect413"
                    style="fill:#222b51"/>
                <rect
                    x="268.10001"
                    y="281.29999"
                    transform="matrix(0.00299056,-1,1,0.00299056,-13.9778,551.1859)"
                    class="st13"
                    width="2.5999999"
                    height="2.5999999"
                    id="rect415"
                    style="fill:#222b51"/>
                <rect
                    x="276.10001"
                    y="281.29999"
                    transform="matrix(0.00299056,-1,1,0.00299056,-6.1016,559.1343)"
                    class="st13"
                    width="2.5999999"
                    height="2.5999999"
                    id="rect417"
                    style="fill:#222b51"/>
                <rect
                    x="284"
                    y="281.39999"
                    transform="matrix(0.00299056,-1,1,0.00299056,1.7745,567.0828)"
                    class="st13"
                    width="2.5999999"
                    height="2.5999999"
                    id="rect419"
                    style="fill:#222b51"/>
                <rect
                    x="256.20001"
                    y="276.29999"
                    transform="matrix(0.00299056,-1,1,0.00299056,-20.8943,534.1752)"
                    class="st13"
                    width="2.5999999"
                    height="2.5999999"
                    id="rect421"
                    style="fill:#222b51"/>
                <rect
                    x="264.10001"
                    y="276.29999"
                    transform="matrix(0.00299056,-1,1,0.00299056,-13.018,542.1235)"
                    class="st13"
                    width="2.5999999"
                    height="2.5999999"
                    id="rect423"
                    style="fill:#222b51"/>
                <rect
                    x="272"
                    y="276.29999"
                    transform="matrix(0.00299056,-1,1,0.00299056,-5.1418,550.0719)"
                    class="st13"
                    width="2.5999999"
                    height="2.5999999"
                    id="rect425"
                    style="fill:#222b51"/>
                <rect
                    x="279.89999"
                    y="276.39999"
                    transform="matrix(0.00299056,-1,1,0.00299056,2.7341,558.0203)"
                    class="st13"
                    width="2.5999999"
                    height="2.5999999"
                    id="rect427"
                    style="fill:#222b51"/>
                <rect
                    x="287.89999"
                    y="276.39999"
                    transform="matrix(0.00299056,-1,1,0.00299056,10.6103,565.9686)"
                    class="st13"
                    width="2.5999999"
                    height="2.5999999"
                    id="rect429"
                    style="fill:#222b51"/>
                <rect
                    x="252.2"
                    y="307.89999"
                    transform="matrix(0.0029917,-1,1,0.0029917,-56.4599,561.7935)"
                    class="st13"
                    width="2.5999999"
                    height="2.5999999"
                    id="rect431"
                    style="fill:#222b51"/>
                <rect
                    x="260.20001"
                    y="308"
                    transform="matrix(0.0029917,-1,1,0.0029917,-48.5837,569.7419)"
                    class="st13"
                    width="2.5999999"
                    height="2.5999999"
                    id="rect433"
                    style="fill:#222b51"/>
                <rect
                    x="268.10001"
                    y="308"
                    transform="matrix(0.0029917,-1,1,0.0029917,-40.7077,577.6904)"
                    class="st13"
                    width="2.5999999"
                    height="2.5999999"
                    id="rect435"
                    style="fill:#222b51"/>
                <rect
                    x="276"
                    y="308"
                    transform="matrix(0.0029917,-1,1,0.0029917,-32.8316,585.6389)"
                    class="st13"
                    width="2.5999999"
                    height="2.5999999"
                    id="rect437"
                    style="fill:#222b51"/>
                <rect
                    x="283.89999"
                    y="308"
                    transform="matrix(0.0029917,-1,1,0.0029917,-24.9556,593.5871)"
                    class="st13"
                    width="2.5999999"
                    height="2.5999999"
                    id="rect439"
                    style="fill:#222b51"/>
                <rect
                    x="252.2"
                    y="317.89999"
                    transform="matrix(0.0029917,-1,1,0.0029917,-66.4874,571.7365)"
                    class="st13"
                    width="2.5999999"
                    height="2.5999999"
                    id="rect441"
                    style="fill:#222b51"/>
                <rect
                    x="260.10001"
                    y="318"
                    transform="matrix(0.0029917,-1,1,0.0029917,-58.6111,579.6848)"
                    class="st13"
                    width="2.5999999"
                    height="2.5999999"
                    id="rect443"
                    style="fill:#222b51"/>
                <rect
                    x="268"
                    y="318"
                    transform="matrix(0.0029917,-1,1,0.0029917,-50.7352,587.6332)"
                    class="st13"
                    width="2.5999999"
                    height="2.5999999"
                    id="rect445"
                    style="fill:#222b51"/>
                <rect
                    x="276"
                    y="318"
                    transform="matrix(0.0029917,-1,1,0.0029917,-42.8592,595.5817)"
                    class="st13"
                    width="2.5999999"
                    height="2.5999999"
                    id="rect447"
                    style="fill:#222b51"/>
                <rect
                    x="283.89999"
                    y="318"
                    transform="matrix(0.0029917,-1,1,0.0029917,-34.9831,603.5302)"
                    class="st13"
                    width="2.5999999"
                    height="2.5999999"
                    id="rect449"
                    style="fill:#222b51"/>
                <rect
                    x="256.10001"
                    y="312.89999"
                    transform="matrix(0.0029917,-1,1,0.0029917,-57.6514,570.6221)"
                    class="st13"
                    width="2.5999999"
                    height="2.5999999"
                    id="rect451"
                    style="fill:#222b51"/>
                <rect
                    x="264"
                    y="313"
                    transform="matrix(0.0029917,-1,1,0.0029917,-49.7753,578.5706)"
                    class="st13"
                    width="2.5999999"
                    height="2.5999999"
                    id="rect453"
                    style="fill:#222b51"/>
                <rect
                    x="271.89999"
                    y="313"
                    transform="matrix(0.0029917,-1,1,0.0029917,-41.8991,586.5189)"
                    class="st13"
                    width="2.5999999"
                    height="2.5999999"
                    id="rect455"
                    style="fill:#222b51"/>
                <rect
                    x="279.79999"
                    y="313"
                    transform="matrix(0.0029917,-1,1,0.0029917,-34.023,594.4675)"
                    class="st13"
                    width="2.5999999"
                    height="2.5999999"
                    id="rect457"
                    style="fill:#222b51"/>
                <rect
                    x="287.79999"
                    y="313"
                    transform="matrix(0.0029917,-1,1,0.0029917,-26.1471,602.4158)"
                    class="st13"
                    width="2.5999999"
                    height="2.5999999"
                    id="rect459"
                    style="fill:#222b51"/></g></g>
        <g
            id="g461"><g
         id="XMLID_241_"><g
           id="XMLID_242_"><path
             id="XMLID_245_"
             class="st24"
             d="m 141.5,139.2 c -35.1,-0.6 -64,27.3 -64.6,62.4 -0.6,35.1 27.3,64 62.4,64.7 35.1,0.6 64,-27.3 64.7,-62.4 0.5,-35.1 -27.4,-64.1 -62.5,-64.7 z m -38.5,66 c -0.1,-1.3 -0.2,-2.7 -0.2,-4.1 0.2,-11.7 6.3,-22 15.3,-28.1 6.4,-4.7 14.4,-7.5 23,-7.3 20.7,0.4 37.2,17.4 36.8,38 -0.4,20.6 -17.5,37 -38.2,36.7 C 120,240.1 104.1,224.5 103,205.2 Z"
             inkscape:connector-curvature="0"
             style="fill:#222b50" /><path
            id="XMLID_244_"
            class="st25"
            d="m 209.4,148.8 c -1.8,-2.2 -4.1,-3.4 -6.9,-3.6 -2.8,-0.3 -5.3,0.5 -7.4,2.3 -2.2,1.8 -3.4,4.1 -3.6,6.9 -0.3,2.8 0.5,5.3 2.3,7.4 1.8,2.2 4.1,3.4 6.9,3.7 2.8,0.3 5.2,-0.5 7.4,-2.3 2.2,-1.8 3.4,-4.1 3.6,-6.9 0.2,-2.8 -0.6,-5.3 -2.3,-7.5 z"
            inkscape:connector-curvature="0"
            style="fill:#827e99"/><path
            id="XMLID_243_"
            class="st25"
            d="m 168,183.1 c -0.9,-1 -1.8,-1.9 -2.9,-2.5 -1.2,-0.7 -2.5,-1 -4,-1.2 -2.8,-0.3 -5.3,0.5 -7.4,2.2 -2.2,1.8 -3.4,4.1 -3.6,6.9 -0.3,2.8 0.5,5.3 2.3,7.4 1.8,2.2 4.1,3.4 6.9,3.6 2.8,0.3 5.3,-0.5 7.4,-2.3 2.2,-1.8 3.4,-4.1 3.6,-6.9 0,-0.1 0,-0.1 0,-0.2 0.2,-2.5 -0.6,-4.9 -2.3,-7 z"
            inkscape:connector-curvature="0"
            style="fill:#827e99"/></g></g>
            <g
                id="XMLID_239_"><path
           id="XMLID_240_"
           class="st13"
           d="m 176.5,293.4 c 0,-13.4 -15.3,-24.1 -34,-24.1 -18.7,0.1 -33.9,10.9 -33.8,24.3 l 0.1,42.4 67.8,-0.2 -0.1,-42.4 z"
           inkscape:connector-curvature="0"
           style="fill:#222b51" /></g>
            <path
                id="XMLID_238_"
                class="st26"
                d="m 128.2,271.6 c -11.3,3.5 -20.2,13.2 -20.2,21.8 l 0.1,42.6 68.6,-0.2 -0.1,-42.6 c 0,-8.3 -4.6,-14.3 -13.8,-19.3 0,0 -1.8,-1 -5.7,-2.3 -2.6,-0.9 -1.8,6.1 -2.1,6.8 -1.9,4.5 -3.2,6.7 -12.3,6.7 -7.9,0 -11.1,-4.9 -14,-8.5"
                inkscape:connector-curvature="0"
                style="fill:#d0e8f1"/>
            <path
                id="XMLID_237_"
                class="st113"
                d="m 157.7,280.7 0,0.4 0,0.4 -0.1,0.5 c -0.9,3.1 -2.9,5.8 -5.5,7.7 -2.6,1.9 -5.8,3 -9.3,3 -3.5,0 -6.7,-1.1 -9.3,-3 -2.6,-1.9 -4.6,-4.6 -5.5,-7.7 l -0.1,-0.5 0,-0.4 0,-0.4 7.1,0 c 0.5,1.5 1.5,2.8 2.8,3.7 1.4,1 3.1,1.6 5,1.6 1.9,0 3.6,-0.6 5,-1.6 1.3,-0.9 2.3,-2.2 2.8,-3.7 l 7.1,0 z"
                inkscape:connector-curvature="0"
                style="clip-rule:evenodd;fill:#6dc3c3;fill-rule:evenodd"/>
            <path
                id="XMLID_236_"
                class="st73"
                d="m 157,276.4 0,0.4 0,0.4 -0.1,0.5 c -0.9,3.1 -2.7,5.8 -5.2,7.7 -2.5,1.9 -5.5,3 -8.8,3 -3.3,0 -6.4,-1.1 -8.8,-3 -2.5,-1.9 -4.4,-4.6 -5.2,-7.7 l -0.1,-0.5 0,-0.4 0,-0.4 1.2,0 c 1,2 2.4,3.7 4.2,5.1 2.5,1.9 5.5,3 8.8,3 3.3,0 6.4,-1.1 8.8,-3 1.8,-1.3 3.2,-3.1 4.2,-5.1 l 1,0 z"
                inkscape:connector-curvature="0"
                style="clip-rule:evenodd;fill:#d0e8f1;fill-rule:evenodd"/>
            <rect
                id="XMLID_235_"
                x="121.7"
                y="292.79999"
                transform="matrix(0.7071,-0.7071,0.7071,0.7071,-173.6647,177.2118)"
                class="st106"
                width="10.8"
                height="10.8"
                style="fill:#6dc3c3"/>
            <rect
                id="XMLID_234_"
                x="121.7"
                y="308"
                transform="matrix(0.7071,-0.7071,0.7071,0.7071,-184.4196,181.6667)"
                class="st106"
                width="10.8"
                height="10.8"
                style="fill:#6dc3c3"/>
            <rect
                id="XMLID_233_"
                x="137.2"
                y="292.79999"
                transform="matrix(0.7071,-0.7071,0.7071,0.7071,-169.1242,188.1736)"
                class="st106"
                width="10.8"
                height="10.8"
                style="fill:#6dc3c3"/>
            <rect
                id="XMLID_232_"
                x="137.2"
                y="308"
                transform="matrix(0.7071,-0.7071,0.7071,0.7071,-179.8791,192.6284)"
                class="st106"
                width="10.8"
                height="10.8"
                style="fill:#6dc3c3"/>
            <rect
                id="XMLID_231_"
                x="152.7"
                y="292.79999"
                transform="matrix(0.7071,-0.7071,0.7071,0.7071,-164.5837,199.1354)"
                class="st106"
                width="10.8"
                height="10.8"
                style="fill:#6dc3c3"/>
            <rect
                id="XMLID_230_"
                x="152.7"
                y="308"
                transform="matrix(0.7071,-0.7071,0.7071,0.7071,-175.3386,203.5902)"
                class="st106"
                width="10.8"
                height="10.8"
                style="fill:#6dc3c3"/>
            <rect
                id="XMLID_229_"
                x="121.7"
                y="323.10001"
                transform="matrix(0.7071,-0.7071,0.7071,0.7071,-195.0712,186.0787)"
                class="st106"
                width="10.8"
                height="10.8"
                style="fill:#6dc3c3"/>
            <rect
                id="XMLID_228_"
                x="137.2"
                y="323.10001"
                transform="matrix(0.7071,-0.7071,0.7071,0.7071,-190.5307,197.0404)"
                class="st106"
                width="10.8"
                height="10.8"
                style="fill:#6dc3c3"/>
            <rect
                id="XMLID_227_"
                x="152.7"
                y="323.10001"
                transform="matrix(0.7071,-0.7071,0.7071,0.7071,-185.9901,208.0022)"
                class="st106"
                width="10.8"
                height="10.8"
                style="fill:#6dc3c3"/>
            <polygon
                id="XMLID_226_"
                class="st74"
                points="131.6,270.5 142.8,284.4 125.5,292.7 128.2,271.6 "
                style="clip-rule:evenodd;fill:#ffffff;fill-rule:evenodd"/>
            <polygon
                id="XMLID_225_"
                class="st74"
                points="154,270.6 142.8,284.4 160.1,292.7 157.4,271.6 "
                style="clip-rule:evenodd;fill:#ffffff;fill-rule:evenodd"/></g>
        <path
            class="st49"
            d="m 362.9,353.5 -274.7,0 c -4.5,0 -8.1,-3.6 -8.1,-8.1 l 0,-2.3 c 0,-4.5 3.6,-8.1 8.1,-8.1 l 274.7,0 c 4.5,0 8.1,3.6 8.1,8.1 l 0,2.3 c 0,4.5 -3.6,8.1 -8.1,8.1 z"
            id="path484"
            inkscape:connector-curvature="0"
            style="fill:#d1cfda"/>
        <g
            id="g486"><g
         id="XMLID_221_"><path
           id="XMLID_222_"
           class="st49"
           d="m 156.6,214.9 c -11.6,0 -21.1,-9.6 -21.1,-21.5 0,-11.8 9.5,-21.5 21.1,-21.5 11.6,0 21.1,9.6 21.1,21.5 0,11.8 -9.5,21.5 -21.1,21.5 z m 0,-39.1 c -9.5,0 -17.2,7.9 -17.2,17.6 0,9.7 7.7,17.6 17.2,17.6 9.5,0 17.2,-7.9 17.2,-17.6 0,-9.7 -7.7,-17.6 -17.2,-17.6 z"
           inkscape:connector-curvature="0"
           style="fill:#d1cfda" /></g>
            <g
                id="XMLID_217_"><path
           id="XMLID_218_"
           class="st49"
           d="m 200.2,180.3 c -11.6,0 -21.1,-9.6 -21.1,-21.5 0,-11.8 9.5,-21.5 21.1,-21.5 11.6,0 21.1,9.6 21.1,21.5 0,11.9 -9.5,21.5 -21.1,21.5 z m 0,-39 c -9.5,0 -17.2,7.9 -17.2,17.6 0,9.7 7.7,17.6 17.2,17.6 9.5,0 17.3,-7.9 17.3,-17.6 0,-9.7 -7.8,-17.6 -17.3,-17.6 z"
           inkscape:connector-curvature="0"
           style="fill:#d1cfda" /></g>
            <polygon
                id="XMLID_20_"
                class="st49"
                points="173.9,181.8 169.8,177.7 181.1,166.4 184.4,172.9 "
                style="fill:#d1cfda"/></g></g></svg>
