<?xml version="1.0" encoding="UTF-8" standalone="no"?>
<!-- Generator: Adobe Illustrator 21.0.0, SVG Export Plug-In . SVG Version: 6.00 Build 0)  -->

<svg
   xmlns:dc="http://purl.org/dc/elements/1.1/"
   xmlns:cc="http://creativecommons.org/ns#"
   xmlns:rdf="http://www.w3.org/1999/02/22-rdf-syntax-ns#"
   xmlns:svg="http://www.w3.org/2000/svg"
   xmlns="http://www.w3.org/2000/svg"
   xmlns:sodipodi="http://sodipodi.sourceforge.net/DTD/sodipodi-0.dtd"
   xmlns:inkscape="http://www.inkscape.org/namespaces/inkscape"
   version="1.1"
   id="Calque_1"
   x="0px"
   y="0px"
   viewBox="0 0 328.16592 189.7"
   xml:space="preserve"
   inkscape:version="0.91 r13725"
   sodipodi:docname="Illus_siteRH_delivery.svg"
   width="328.16592"
   height="189.7"><metadata
     id="metadata152"><rdf:RDF><cc:Work
         rdf:about=""><dc:format>image/svg+xml</dc:format><dc:type
           rdf:resource="http://purl.org/dc/dcmitype/StillImage" /><dc:title></dc:title></cc:Work></rdf:RDF></metadata><defs
     id="defs150" /><sodipodi:namedview
     pagecolor="#ffffff"
     bordercolor="#666666"
     borderopacity="1"
     objecttolerance="10"
     gridtolerance="10"
     guidetolerance="10"
     inkscape:pageopacity="0"
     inkscape:pageshadow="2"
     inkscape:window-width="740"
     inkscape:window-height="480"
     id="namedview148"
     showgrid="false"
     fit-margin-top="0"
     fit-margin-left="0"
     fit-margin-right="0"
     fit-margin-bottom="0"
     inkscape:zoom="0.52039691"
     inkscape:cx="-78.784631"
     inkscape:cy="111.25"
     inkscape:window-x="0"
     inkscape:window-y="23"
     inkscape:window-maximized="0"
     inkscape:current-layer="Calque_1" /><style
     type="text/css"
     id="style3">
	.st0{fill:#70B74E;}
	.st1{fill:#84BE60;}
	.st2{fill:#95C672;}
	.st3{fill:#A4CD85;}
	.st4{fill:#B2D498;}
	.st5{fill:#C1DCAA;}
	.st6{fill:#CEE3BD;}
	.st7{fill:#DBEACE;}
	.st8{fill:#E7F1DF;}
	.st9{fill:#F3F8F0;}
	.st10{fill:#232B51;}
	.st11{fill:#F1F1F5;}
	.st12{fill:#DEDCE5;}
	.st13{fill:#222B51;}
	.st14{fill:#86829C;}
	.st15{fill:#575677;}
	.st16{fill:#DBD9E3;}
	.st17{fill:#A7A3B7;}
	.st18{fill:#FFFFFF;}
	.st19{fill:#5F5D7D;}
	.st20{fill:#9D99AF;}
	.st21{fill:#CCC9D6;}
	.st22{fill:#BDB9C9;}
	.st23{fill:#AEAABD;}
	.st24{fill:#222B50;}
	.st25{fill:#827E99;}
	.st26{fill:#D0E8F1;}
	.st27{fill:#D6D4DE;}
	.st28{fill:#6C6987;}
	.st29{fill:#7D7995;}
	.st30{fill:#9692A9;}
	.st31{fill:#9894AB;}
	.st32{fill:#C7C4D2;}
	.st33{fill:#ACD8E7;}
	.st34{fill:#B3AFC1;}
	.st35{fill:#9A97AD;}
	.st36{fill:#E0F0F6;}
	.st37{fill-rule:evenodd;clip-rule:evenodd;fill:#ECEBF0;}
	.st38{fill-rule:evenodd;clip-rule:evenodd;fill:#222B51;}
	.st39{fill-rule:evenodd;clip-rule:evenodd;fill:#DBD9E3;}
	.st40{fill-rule:evenodd;clip-rule:evenodd;fill:#F0F0F0;}
	.st41{fill-rule:evenodd;clip-rule:evenodd;fill:#DEDCE5;}
	.st42{fill-rule:evenodd;clip-rule:evenodd;fill:#BAB7C7;}
	.st43{fill-rule:evenodd;clip-rule:evenodd;fill:#D6D4DE;}
	.st44{opacity:0.3;fill:#D1CFDA;}
	.st45{fill:#7B7793;}
	.st46{fill:#BFE1EC;}
	.st47{fill:#E1DFE7;}
	.st48{fill:#B1ADBF;}
	.st49{fill:#D1CFDA;}
	.st50{fill:#222B50;stroke:#222B50;stroke-miterlimit:10;}
	.st51{fill:none;stroke:#778692;stroke-width:0.8545;stroke-linecap:round;stroke-linejoin:round;stroke-miterlimit:10;}
	.st52{fill:none;stroke:#B1ADBF;stroke-width:3.1327;stroke-linecap:round;stroke-linejoin:round;stroke-miterlimit:10;}
	.st53{fill:none;stroke:#778692;stroke-width:0.8637;stroke-linecap:round;stroke-linejoin:round;stroke-miterlimit:10;}
	.st54{fill:#4D4D70;}
	.st55{fill-rule:evenodd;clip-rule:evenodd;fill:#222B50;}
	.st56{fill-rule:evenodd;clip-rule:evenodd;fill:#BDB9C9;}
	.st57{fill:#A0D5D5;}
	.st58{fill:#0C2637;}
	.st59{fill:#656382;}
	.st60{fill:#565677;}
	.st61{fill:#D1EAEA;}
	.st62{fill:#9ED4D4;}
	.st63{fill:#75718E;}
	.st64{fill:#A4A0B5;}
	.st65{fill:#A29EB3;}
	.st66{fill:#A5A8C5;}
	.st67{fill:#8C90B4;}
	.st68{fill:#ECEBF0;}
	.st69{fill:#E6E5EC;}
	.st70{fill:#E7E5EC;}
	.st71{fill:#212B51;}
	.st72{fill-rule:evenodd;clip-rule:evenodd;fill:#84BE60;}
	.st73{fill-rule:evenodd;clip-rule:evenodd;fill:#D0E8F1;}
	.st74{fill-rule:evenodd;clip-rule:evenodd;fill:#FFFFFF;}
	.st75{fill:none;stroke:#FFFFFF;stroke-width:1.816;stroke-linecap:round;stroke-linejoin:round;stroke-miterlimit:10;}
	.st76{fill:#00AFCB;}
	.st77{fill:none;stroke:#212B51;stroke-width:3.44;}
	.st78{fill:#D4D1DC;}
	.st79{fill:#46476A;}
	.st80{fill:#9DD4D4;}
	.st81{fill-rule:evenodd;clip-rule:evenodd;fill:#F2F0F5;}
	.st82{fill:#DB5A29;}
	.st83{fill:#7C7894;}
	.st84{fill:#706D8B;}
	.st85{fill:#B5DCEA;}
	.st86{fill:#EBF5FA;}
	.st87{fill:none;stroke:#778692;stroke-width:1.1677;stroke-linecap:round;stroke-linejoin:round;stroke-miterlimit:10;}
	.st88{fill:#A4D7D6;}
	.st89{fill-rule:evenodd;clip-rule:evenodd;fill:#F1F1F5;}
	.st90{fill:#444569;}
	.st91{fill-rule:evenodd;clip-rule:evenodd;fill:#212B51;}
	.st92{fill:#FCD946;stroke:#FFFFFF;stroke-width:0.55;stroke-linecap:round;stroke-linejoin:round;stroke-miterlimit:10;}
	.st93{fill:#5B5A7A;}
	.st94{fill:#47486B;}
	.st95{fill:#C0E2E2;}
	.st96{fill:#88849E;}
	.st97{fill:#E9E8EE;}
	.st98{fill-rule:evenodd;clip-rule:evenodd;fill:#C0E2E2;}
	.st99{fill-rule:evenodd;clip-rule:evenodd;fill:#4F4F71;}
	.st100{fill-rule:evenodd;clip-rule:evenodd;fill:#CCC9D6;}
	.st101{fill-rule:evenodd;clip-rule:evenodd;fill:#CECCD8;}
	.st102{fill-rule:evenodd;clip-rule:evenodd;fill:#E3E2E9;}
	.st103{fill-rule:evenodd;clip-rule:evenodd;fill:#B3AFC1;}
	.st104{fill:#494A6D;}
	.st105{fill:#BBE0E0;}
	.st106{fill:#6DC3C3;}
	.st107{fill:#00B0CC;}
	.st108{fill:#46B8D2;}
	.st109{fill:#222B50;stroke:#222B50;stroke-width:1.8392;stroke-miterlimit:10;}
	.st110{fill:none;stroke:#778692;stroke-width:1.5716;stroke-linecap:round;stroke-linejoin:round;stroke-miterlimit:10;}
	.st111{fill:none;stroke:#B1ADBF;stroke-width:5.7616;stroke-linecap:round;stroke-linejoin:round;stroke-miterlimit:10;}
	.st112{fill:none;stroke:#778692;stroke-width:1.5886;stroke-linecap:round;stroke-linejoin:round;stroke-miterlimit:10;}
	.st113{fill-rule:evenodd;clip-rule:evenodd;fill:#6DC3C3;}
	.st114{fill:none;stroke:#FFFFFF;stroke-width:2.83;stroke-linecap:round;stroke-linejoin:round;stroke-miterlimit:10;}
	.st115{fill:none;stroke:#212B51;stroke-width:5.3608;}
	.st116{fill:#A9D9D8;}
	.st117{fill:none;stroke:#778692;stroke-width:2.0467;stroke-linecap:round;stroke-linejoin:round;stroke-miterlimit:10;}
	.st118{fill:#FCD946;stroke:#FFFFFF;stroke-width:0.9639;stroke-linecap:round;stroke-linejoin:round;stroke-miterlimit:10;}
	.st119{fill:#B2B2B2;}
	.st120{fill:#989999;}
	.st121{fill:#E4E4E3;}
	.st122{fill:#D4D2DD;}
	.st123{fill:#414367;}
	.st124{fill:#3D3E3E;}
	.st125{fill:#020203;}
	.st126{fill:#87BBAD;}
	.st127{fill:#595879;}
	.st128{fill:#797591;}
	.st129{fill:none;stroke:#FFFFFF;stroke-width:2.4975;stroke-linecap:round;stroke-linejoin:round;stroke-miterlimit:10;}
	.st130{fill:none;stroke:#212B51;stroke-width:4.7309;}
</style><g
     id="g5"
     transform="translate(-49.960478,-148.3)"><path
       class="st12"
       d="m 185.9,148.5 c 0,0 4,0 4,4 l 0,33.3 c 0,0 0,2.6 -2.6,2.6 l -5.9,0 c 0,0 -2.6,0 -4.9,1.3 l -5.8,3.3 c 0,0 -1.1,0.7 -2.3,0 l -4.6,-2.7 c 0,0 -3.4,-2 -7.4,-2 l -31.9,0 c 0,0 -4,0 -4,-4 l 0,-32 c 0,0 0,-4 4,-4 l 61.4,0 z"
       id="path7"
       inkscape:connector-curvature="0"
       style="fill:#dedce5" /><path
       class="st129"
       d="m 129.6,177.8 51.2,0 m -51.2,-10.1 51.2,0 m -51.2,-10 51.2,0"
       id="path9"
       inkscape:connector-curvature="0"
       style="fill:none;stroke:#ffffff;stroke-width:2.49749994;stroke-linecap:round;stroke-linejoin:round;stroke-miterlimit:10" /></g><g
     id="g11"
     transform="translate(-49.960478,-148.3)"><path
       class="st12"
       d="m 315,198.6 c 0,0 -2.9,0 -2.9,2.9 l 0,24.5 c 0,0 0,1.9 1.9,1.9 l 4.3,0 c 0,0 1.9,0 3.6,1 l 4.2,2.4 c 0,0 0.8,0.5 1.7,0 l 3.4,-2 c 0,0 2.5,-1.5 5.4,-1.5 l 23.4,0 c 0,0 2.9,0 2.9,-2.9 l 0,-23.5 c 0,0 0,-2.9 -2.9,-2.9 l -45,0 z"
       id="path13"
       inkscape:connector-curvature="0"
       style="fill:#dedce5" /><path
       class="st129"
       d="m 318.7,220.1 37.6,0 m -37.6,-7.4 37.6,0 m -37.6,-7.4 37.6,0"
       id="path15"
       inkscape:connector-curvature="0"
       style="fill:none;stroke:#ffffff;stroke-width:2.49749994;stroke-linecap:round;stroke-linejoin:round;stroke-miterlimit:10" /></g><path
     id="XMLID_158_"
     class="st97"
     d="m 294.63952,141.5 -248.199998,0 c -4.3,0 -8.3,4 -8.3,8.6 l 0,0.2 c 0,4.6 4,7.7 8.3,7.7 l 14.7,0 c 2.3,0 4.5,2.6 4.5,5.2 l 0,0.1 c 0,2.5 -2.1,4.4 -4.5,4.4 l -48.5,0 c -5.4000001,0 -10.3000001,4.9 -10.3000001,10.7 l 0,0.2 c 0,5.8 4.9,11.1 10.3000001,11.1 l 302.099998,0 c 5.4,0 9.5,-5.3 9.5,-11.1 l 0,-0.2 c 0,-5.8 -4,-10.7 -9.5,-10.7 l -20.3,0 c -2.3,0 -4.7,-1.9 -4.7,-4.4 l 0,-0.1 c 0,-2.5 2.3,-5.2 4.7,-5.2 l 0.2,0 c 4.3,0 7.6,-3.1 7.6,-7.7 l 0,-0.2 c -0.1,-4.6 -3.3,-8.6 -7.6,-8.6 z"
     inkscape:connector-curvature="0"
     style="fill:#e9e8ee" /><g
     id="g18"
     transform="translate(-49.960478,-148.3)"><path
       class="st71"
       d="m 181.6,270.4 c 0.4,-10 -7.4,-18.5 -17.4,-18.9 -10,-0.4 -18.5,7.4 -18.9,17.4 -0.4,10 7.4,18.5 17.4,18.9 10.1,0.3 18.5,-7.4 18.9,-17.4 m -49,-2.2 c 0.7,-17.1 15.1,-30.3 32.1,-29.6 17,0.7 30.3,15.1 29.6,32.1 -0.7,17.1 -15.1,30.3 -32.1,29.6 -17,-0.6 -30.3,-15 -29.6,-32.1"
       id="path20"
       inkscape:connector-curvature="0"
       style="fill:#212b51" /><path
       class="st76"
       d="m 189.9,250.2 c -0.8,-1.1 -1.2,-2.3 -1,-3.6 0.1,-1.3 0.8,-2.4 1.8,-3.3 1.1,-0.8 2.3,-1.2 3.6,-1 1.4,0.2 2.5,0.8 3.3,1.8 0.8,1.1 1.2,2.3 1,3.6 -0.2,1.4 -0.8,2.5 -1.8,3.3 -1.1,0.8 -2.3,1.2 -3.6,1 -1.4,-0.1 -2.5,-0.8 -3.3,-1.8 m -20.5,16.1 c -0.8,-1.1 -1.2,-2.3 -1,-3.6 0.2,-1.4 0.8,-2.5 1.8,-3.3 1.1,-0.8 2.3,-1.2 3.6,-1 1.4,0.2 2.5,0.8 3.3,1.8 0.8,1.1 1.2,2.3 1,3.6 -0.1,1.3 -0.8,2.4 -1.8,3.3 -1.1,0.8 -2.3,1.2 -3.6,1 -1.4,-0.1 -2.5,-0.7 -3.3,-1.8"
       id="path22"
       inkscape:connector-curvature="0"
       style="fill:#00afcb" /><path
       class="st71"
       d="m 176.8,314.5 c 0,-5.2 -5.9,-9.3 -13.1,-9.3 -7.3,0 -13.1,4.2 -13.1,9.3 l 0,7.7 26.3,0 0,-7.7 z"
       id="path24"
       inkscape:connector-curvature="0"
       style="fill:#212b51" /><path
       class="st130"
       d="m 176.8,314.5 c 0,-5.2 -5.9,-9.3 -13.1,-9.3 -7.3,0 -13.1,4.2 -13.1,9.3 l 0,7.7 26.3,0 0,-7.7 z"
       id="path26"
       inkscape:connector-curvature="0"
       style="fill:none;stroke:#212b51;stroke-width:4.73089981" /></g><g
     id="g28"
     transform="translate(-49.960478,-148.3)"><path
       class="st71"
       d="m 329,270.4 c 0.4,10 8.9,17.8 18.9,17.4 10,-0.4 17.8,-8.9 17.4,-18.9 -0.4,-10 -8.9,-17.8 -18.9,-17.4 -10,0.4 -17.8,8.9 -17.4,18.9 m 49.1,-2.1 c 0.7,17.1 -12.6,31.5 -29.7,32.2 -17.1,0.7 -31.5,-12.6 -32.2,-29.7 -0.7,-17.1 12.6,-31.5 29.7,-32.2 17.1,-0.7 31.5,12.6 32.2,29.7"
       id="path30"
       inkscape:connector-curvature="0"
       style="fill:#212b51" /><path
       class="st76"
       d="m 320.7,250.2 c -0.9,1.1 -1.9,1.7 -3.3,1.9 -1.4,0.2 -2.6,-0.2 -3.6,-1 -1.1,-0.8 -1.7,-1.9 -1.8,-3.3 -0.2,-1.4 0.2,-2.6 1,-3.6 0.9,-1.1 2,-1.7 3.3,-1.9 1.4,-0.2 2.6,0.2 3.7,1 1.1,0.8 1.7,1.9 1.8,3.3 0.1,1.3 -0.2,2.5 -1.1,3.6 m 20.6,16.2 c -0.8,1.1 -2,1.7 -3.3,1.8 -1.4,0.2 -2.6,-0.2 -3.7,-1 -1.1,-0.8 -1.7,-1.9 -1.8,-3.3 -0.2,-1.4 0.2,-2.6 1,-3.6 0.9,-1.1 2,-1.7 3.3,-1.9 1.4,-0.2 2.6,0.2 3.6,1 1.1,0.8 1.7,2 1.8,3.3 0.3,1.4 -0.1,2.6 -0.9,3.7"
       id="path32"
       inkscape:connector-curvature="0"
       style="fill:#00afcb" /><path
       class="st71"
       d="m 333.8,314.7 c 0,-5.2 5.9,-9.4 13.2,-9.4 7.3,0 13.2,4.2 13.2,9.4 l 0,7.7 -26.4,0 0,-7.7 z"
       id="path34"
       inkscape:connector-curvature="0"
       style="fill:#212b51" /><path
       class="st130"
       d="m 333.8,314.7 c 0,-5.2 5.9,-9.4 13.2,-9.4 7.3,0 13.2,4.2 13.2,9.4 l 0,7.7 -26.4,0 0,-7.7 z"
       id="path36"
       inkscape:connector-curvature="0"
       style="fill:none;stroke:#212b51;stroke-width:4.73089981" /></g><g
     id="g38"
     transform="translate(-49.960478,-148.3)"><path
       id="XMLID_155_"
       class="st24"
       d="m 116.6,231.8 c 0.6,-13.6 -10,-25.1 -23.6,-25.6 -13.6,-0.6 -25.1,10 -25.6,23.6 -0.6,13.6 10,25.1 23.6,25.6 13.6,0.5 25,-10 25.6,-23.6 M 50,228.9 c 0.9,-23.2 20.5,-41.2 43.7,-40.3 23.2,0.9 41.2,20.5 40.3,43.7 -0.9,23.2 -20.5,41.2 -43.7,40.3 C 67.1,271.6 49,252 50,228.9"
       inkscape:connector-curvature="0"
       style="fill:#222b50" /><path
       id="XMLID_152_"
       class="st14"
       d="m 127.8,204.3 c -1.2,-1.5 -1.6,-3.1 -1.4,-4.9 0.2,-1.8 1,-3.3 2.5,-4.5 1.5,-1.1 3.1,-1.6 5,-1.4 1.8,0.2 3.3,1.1 4.5,2.5 1.2,1.5 1.6,3.1 1.4,4.9 -0.2,1.8 -1.1,3.3 -2.5,4.5 -1.5,1.1 -3.1,1.6 -4.9,1.4 -1.9,-0.2 -3.4,-1 -4.6,-2.5 m -27.8,22 c -1.2,-1.5 -1.6,-3.1 -1.4,-4.9 0.2,-1.8 1,-3.3 2.5,-4.5 1.4,-1.1 3.1,-1.6 4.9,-1.4 1.8,0.2 3.3,1.1 4.5,2.5 1.2,1.5 1.6,3.1 1.4,4.9 -0.2,1.8 -1,3.3 -2.5,4.5 -1.5,1.1 -3.1,1.6 -5,1.4 -1.8,-0.2 -3.3,-1 -4.4,-2.5"
       inkscape:connector-curvature="0"
       style="fill:#86829c" /><g
       id="clothes_4_"><g
         id="XMLID_150_"><path
           id="XMLID_151_"
           class="st24"
           d="m 115.1,289.9 c -0.1,-9.3 -9.4,-16.8 -22.5,-16.7 -13.1,0.1 -22.4,7.7 -22.3,17.1 l 0.2,28.3 44.8,-0.4 -0.2,-28.3 z"
           inkscape:connector-curvature="0"
           style="fill:#222b50" /></g><path
         id="XMLID_149_"
         class="st106"
         d="m 82.6,274.7 c -7.9,2.5 -14.1,9.3 -14,15.3 l 0.2,29.7 47.9,-0.4 -0.2,-29.7 c 0,-5.8 -3.3,-10 -9.7,-13.4 0,0 -1.3,-0.7 -4,-1.6 -1.8,-0.6 -1.2,4.3 -1.4,4.8 -1.3,3.2 -2.2,4.7 -8.6,4.7 -5.5,0 -7.8,-3.4 -9.8,-5.9"
         inkscape:connector-curvature="0"
         style="fill:#6dc3c3" /></g><path
       id="XMLID_148_"
       class="st98"
       d="m 103.2,281.6 0,-0.2 0,0.2 -0.1,0.4 c -0.6,2.2 -2,4.1 -3.8,5.4 -1.8,1.3 -4,2.1 -6.5,2.1 -2.5,0 -4.7,-0.8 -6.5,-2.1 -1.8,-1.3 -2.4,-3.2 -3.1,-5.4 l 0.7,-0.3 0,-0.3 0,0.2 3.4,0 c 0.4,0 1.1,1.7 2,2.3 1,0.7 2.2,1 3.5,1 1.3,0 2.5,-0.2 3.5,-0.9 0.9,-0.7 1.6,-2.4 2,-2.4 l 4.9,0 z"
       inkscape:connector-curvature="0"
       style="clip-rule:evenodd;fill:#c0e2e2;fill-rule:evenodd" /><path
       id="XMLID_147_"
       class="st55"
       d="m 101.8,278.8 0,-0.5 0,0.3 0.4,0.3 c -0.6,2.2 -1.7,4.1 -3.4,5.4 -1.7,1.3 -3.7,2.1 -6.1,2.1 -2.3,0 -4.4,-0.8 -6.1,-2.1 -1.7,-1.3 -1.8,-3.2 -2.4,-5.4 l 1.1,-0.3 0,-0.3 0,0.5 -1.6,0 c 0.7,0 1.7,2.2 2.9,3.1 1.7,1.3 3.9,1.9 6.2,1.9 2.3,0 4.4,-0.5 6.2,-1.8 1.2,-0.9 2.2,-3.2 2.9,-3.2 l -0.1,0 z"
       inkscape:connector-curvature="0"
       style="clip-rule:evenodd;fill:#222b50;fill-rule:evenodd" /><polygon
       id="XMLID_146_"
       class="st99"
       points="85,273.9 92.9,283.7 80.7,289.4 82.6,274.7 "
       style="clip-rule:evenodd;fill:#4f4f71;fill-rule:evenodd" /><polygon
       id="XMLID_145_"
       class="st99"
       points="100.7,274 92.9,283.7 105,289.4 103.1,274.7 "
       style="clip-rule:evenodd;fill:#4f4f71;fill-rule:evenodd" /></g><g
     id="g50"
     transform="translate(-49.960478,-148.3)"><path
       class="st100"
       d="m 277.7,290.3 -48.7,0 c -0.7,0 -1.3,-0.6 -1.3,-1.3 l 0,-1.9 c 0,-0.7 0.6,-1.3 1.3,-1.3 l 48.7,0 c 0.7,0 1.3,0.6 1.3,1.3 l 0,1.9 c 0,0.7 -0.6,1.3 -1.3,1.3 z"
       id="path52"
       inkscape:connector-curvature="0"
       style="clip-rule:evenodd;fill:#ccc9d6;fill-rule:evenodd" /><path
       class="st38"
       d="m 301.1,197.2 -96.6,0 c -2.1,0 -3.7,1.7 -3.7,3.7 l 0,1.5 0,6.7 0,47.1 104.1,0 0,-47.1 0,-6.7 0,-1.5 c -0.1,-2 -1.7,-3.7 -3.8,-3.7 z"
       id="path54"
       inkscape:connector-curvature="0"
       style="clip-rule:evenodd;fill:#222b51;fill-rule:evenodd" /><rect
       x="206"
       y="202.39999"
       class="st89"
       width="93.699997"
       height="48.200001"
       id="rect56"
       style="clip-rule:evenodd;fill:#f1f1f5;fill-rule:evenodd" /><path
       class="st41"
       d="m 200.7,263.5 0,-7.2 104.1,0 0,7.2 c 0,3.6 -3.6,7 -7.2,7 l -89.6,0 c -3.6,0 -7.3,-3.4 -7.3,-7 l 0,0 z"
       id="path58"
       inkscape:connector-curvature="0"
       style="clip-rule:evenodd;fill:#dedce5;fill-rule:evenodd" /><path
       class="st101"
       d="m 252.8,259.2 c 2.2,0 3.9,1.7 3.9,3.9 0,2.2 -1.7,3.9 -3.9,3.9 -2.2,0 -3.9,-1.7 -3.9,-3.9 0,-2.1 1.7,-3.9 3.9,-3.9 l 0,0 z"
       id="path60"
       inkscape:connector-curvature="0"
       style="clip-rule:evenodd;fill:#ceccd8;fill-rule:evenodd" /><polygon
       class="st102"
       points="253.5,270.5 235.1,270.5 235.1,270.5 235.1,285.8 253.5,285.8 "
       id="polygon62"
       style="clip-rule:evenodd;fill:#e3e2e9;fill-rule:evenodd" /><polygon
       class="st101"
       points="270.3,270.5 253.5,270.5 253.5,270.5 253.5,285.8 270.3,285.8 "
       id="polygon64"
       style="clip-rule:evenodd;fill:#ceccd8;fill-rule:evenodd" /><path
       class="st103"
       d="m 253.4,285.8 0,4.5 24.6,0 c 0.6,0 1.1,-0.5 1.1,-1.1 l 0,-2.3 c 0,-0.6 -0.5,-1.1 -1.1,-1.1 l -24.6,0 0,0 z"
       id="path66"
       inkscape:connector-curvature="0"
       style="clip-rule:evenodd;fill:#b3afc1;fill-rule:evenodd" /><g
       id="g68"><g
         id="XMLID_143_"><path
           id="XMLID_144_"
           class="st106"
           d="m 204.1,277.3 c 0,0 -0.6,0 -0.6,-0.6 l 0,-13.3 c 0,0 0,-0.6 0.6,-0.6 l 13.3,0 c 0,0 0.6,0 0.6,0.6 l 0,8.6 -5.3,5.3 -8.6,0 z"
           inkscape:connector-curvature="0"
           style="fill:#6dc3c3" /></g><polygon
         id="XMLID_142_"
         class="st61"
         points="218,272 212.8,272 212.8,277.3 "
         style="fill:#d1eaea" /><polygon
         id="XMLID_141_"
         class="st62"
         points="218,265.9 218,262.8 203.5,262.8 203.5,262.8 203.5,265.9 "
         style="fill:#9ed4d4" /></g><g
       id="g74"><g
         id="XMLID_139_"><path
           id="XMLID_140_"
           class="st63"
           d="m 223.3,275.6 c 0,0 -0.6,0 -0.6,-0.6 l 0,-13.3 c 0,0 0,-0.6 0.6,-0.6 l 13.3,0 c 0,0 0.6,0 0.6,0.6 l 0,8.6 -5.3,5.3 -8.6,0 z"
           inkscape:connector-curvature="0"
           style="fill:#75718e" /></g><polygon
         id="XMLID_138_"
         class="st66"
         points="237.2,270.4 232,270.4 232,275.6 "
         style="fill:#a5a8c5" /><polygon
         id="XMLID_137_"
         class="st67"
         points="237.2,264.2 237.2,261.1 222.7,261.1 222.7,261.1 222.7,264.2 "
         style="fill:#8c90b4" /></g><g
       id="g80"><g
         id="XMLID_135_"><path
           id="XMLID_136_"
           class="st106"
           d="m 281.3,277.8 c 0,0 -0.6,-0.1 -0.5,-0.7 l 1.4,-13.2 c 0,0 0.1,-0.6 0.7,-0.5 l 13.2,1.4 c 0,0 0.6,0.1 0.5,0.7 l -0.9,8.5 -5.8,4.7 -8.6,-0.9 z"
           inkscape:connector-curvature="0"
           style="fill:#6dc3c3" /></g><polygon
         id="XMLID_134_"
         class="st61"
         points="295.7,274.1 290.5,273.5 289.9,278.7 "
         style="fill:#d1eaea" /><rect
         id="XMLID_133_"
         x="287.70001"
         y="258.39999"
         transform="matrix(0.1045,-0.9945,0.9945,0.1045,-5.1478,525.5735)"
         class="st62"
         width="3.0999999"
         height="14.5"
         style="fill:#9ed4d4" /></g><g
       id="g86"><rect
         x="238.39999"
         y="218.10001"
         class="st13"
         width="30.5"
         height="28.9"
         id="rect88"
         style="fill:#222b51" /><rect
         x="253.60001"
         y="218.10001"
         class="st104"
         width="15.3"
         height="28.9"
         id="rect90"
         style="fill:#494a6d" /><rect
         x="238.39999"
         y="219.7"
         class="st95"
         width="30.5"
         height="8"
         id="rect92"
         style="fill:#c0e2e2" /><rect
         x="236.3"
         y="216.5"
         class="st13"
         width="34.700001"
         height="8.8999996"
         id="rect94"
         style="fill:#222b51" /><rect
         x="251.2"
         y="224.39999"
         class="st106"
         width="5.5999999"
         height="22.6"
         id="rect96"
         style="fill:#6dc3c3" /><rect
         x="251.2"
         y="224.8"
         class="st105"
         width="5.5999999"
         height="2.9000001"
         id="rect98"
         style="fill:#bbe0e0" /><rect
         x="251.2"
         y="216.5"
         class="st106"
         width="5.5"
         height="8.8999996"
         id="rect100"
         style="fill:#6dc3c3" /><path
         class="st71"
         d="m 259.6,205.5 -0.1,0 c -3,0 -5.4,2.4 -5.4,5.4 l -0.9,5.6 6.4,0 c 3,0 5.4,-2.4 5.4,-5.4 l 0,-0.1 c 0.1,-3 -2.4,-5.5 -5.4,-5.5 z m -0.2,8.6 c -1.7,0 -3.1,-1.4 -3.1,-3.1 0,-1.7 1.4,-3.1 3.1,-3.1 1.7,0 3.1,1.4 3.1,3.1 0,1.7 -1.4,3.1 -3.1,3.1 z"
         id="path102"
         inkscape:connector-curvature="0"
         style="fill:#212b51" /><path
         class="st71"
         d="m 243.1,211 0,0.1 c 0,3 2.4,5.4 5.4,5.4 l 5.6,0 0,-5.5 c 0,-3 -2.4,-5.4 -5.4,-5.4 l -0.1,0 c -3.1,-0.1 -5.5,2.4 -5.5,5.4 z m 2.6,0 c 0,-1.7 1.4,-3.1 3.1,-3.1 1.7,0 3.1,1.4 3.1,3.1 0,1.7 -1.4,3.1 -3.1,3.1 -1.7,0 -3.1,-1.4 -3.1,-3.1 z"
         id="path104"
         inkscape:connector-curvature="0"
         style="fill:#212b51" /><polygon
         class="st106"
         points="240,216.3 245.4,216.3 245.4,228.7 242.6,225.9 240,228.7 "
         id="polygon106"
         style="fill:#6dc3c3" /><g
         id="g108"><circle
           class="st95"
           cx="241.2"
           cy="230"
           r="0.80000001"
           id="circle110"
           style="fill:#c0e2e2" /><circle
           class="st95"
           cx="244.8"
           cy="230"
           r="0.80000001"
           id="circle112"
           style="fill:#c0e2e2" /><circle
           class="st95"
           cx="248.39999"
           cy="230"
           r="0.80000001"
           id="circle114"
           style="fill:#c0e2e2" /></g><g
         id="g116"><circle
           class="st95"
           cx="241.2"
           cy="233.60001"
           r="0.80000001"
           id="circle118"
           style="fill:#c0e2e2" /><circle
           class="st95"
           cx="244.8"
           cy="233.60001"
           r="0.80000001"
           id="circle120"
           style="fill:#c0e2e2" /><circle
           class="st95"
           cx="248.39999"
           cy="233.60001"
           r="0.80000001"
           id="circle122"
           style="fill:#c0e2e2" /></g><g
         id="g124"><circle
           class="st95"
           cx="241.2"
           cy="237.3"
           r="0.80000001"
           id="circle126"
           style="fill:#c0e2e2" /><circle
           class="st95"
           cx="244.8"
           cy="237.3"
           r="0.80000001"
           id="circle128"
           style="fill:#c0e2e2" /><circle
           class="st95"
           cx="248.39999"
           cy="237.3"
           r="0.80000001"
           id="circle130"
           style="fill:#c0e2e2" /></g><g
         id="g132"><circle
           class="st95"
           cx="241.2"
           cy="240.89999"
           r="0.80000001"
           id="circle134"
           style="fill:#c0e2e2" /><circle
           class="st95"
           cx="244.8"
           cy="240.89999"
           r="0.80000001"
           id="circle136"
           style="fill:#c0e2e2" /><circle
           class="st95"
           cx="248.39999"
           cy="240.89999"
           r="0.80000001"
           id="circle138"
           style="fill:#c0e2e2" /></g><g
         id="g140"><circle
           class="st95"
           cx="241.2"
           cy="244.60001"
           r="0.80000001"
           id="circle142"
           style="fill:#c0e2e2" /><circle
           class="st95"
           cx="244.8"
           cy="244.60001"
           r="0.80000001"
           id="circle144"
           style="fill:#c0e2e2" /><circle
           class="st95"
           cx="248.39999"
           cy="244.60001"
           r="0.80000001"
           id="circle146"
           style="fill:#c0e2e2" /></g></g></g></svg>